%TF.GenerationSoftware,KiCad,Pcbnew,9.0.2*%
%TF.CreationDate,2025-07-08T21:37:52-07:00*%
%TF.ProjectId,reflectance,7265666c-6563-4746-916e-63652e6b6963,rev?*%
%TF.SameCoordinates,Original*%
%TF.FileFunction,Copper,L1,Top*%
%TF.FilePolarity,Positive*%
%FSLAX46Y46*%
G04 Gerber Fmt 4.6, Leading zero omitted, Abs format (unit mm)*
G04 Created by KiCad (PCBNEW 9.0.2) date 2025-07-08 21:37:52*
%MOMM*%
%LPD*%
G01*
G04 APERTURE LIST*
G04 Aperture macros list*
%AMRoundRect*
0 Rectangle with rounded corners*
0 $1 Rounding radius*
0 $2 $3 $4 $5 $6 $7 $8 $9 X,Y pos of 4 corners*
0 Add a 4 corners polygon primitive as box body*
4,1,4,$2,$3,$4,$5,$6,$7,$8,$9,$2,$3,0*
0 Add four circle primitives for the rounded corners*
1,1,$1+$1,$2,$3*
1,1,$1+$1,$4,$5*
1,1,$1+$1,$6,$7*
1,1,$1+$1,$8,$9*
0 Add four rect primitives between the rounded corners*
20,1,$1+$1,$2,$3,$4,$5,0*
20,1,$1+$1,$4,$5,$6,$7,0*
20,1,$1+$1,$6,$7,$8,$9,0*
20,1,$1+$1,$8,$9,$2,$3,0*%
G04 Aperture macros list end*
%TA.AperFunction,ComponentPad*%
%ADD10C,1.600000*%
%TD*%
%TA.AperFunction,ComponentPad*%
%ADD11RoundRect,0.250000X-0.600000X-0.725000X0.600000X-0.725000X0.600000X0.725000X-0.600000X0.725000X0*%
%TD*%
%TA.AperFunction,ComponentPad*%
%ADD12O,1.700000X1.950000*%
%TD*%
%TA.AperFunction,ComponentPad*%
%ADD13RoundRect,0.250000X-0.725000X0.600000X-0.725000X-0.600000X0.725000X-0.600000X0.725000X0.600000X0*%
%TD*%
%TA.AperFunction,ComponentPad*%
%ADD14O,1.950000X1.700000*%
%TD*%
%TA.AperFunction,ComponentPad*%
%ADD15RoundRect,0.250000X-0.550000X0.950000X-0.550000X-0.950000X0.550000X-0.950000X0.550000X0.950000X0*%
%TD*%
%TA.AperFunction,ComponentPad*%
%ADD16O,1.600000X2.400000*%
%TD*%
%TA.AperFunction,ComponentPad*%
%ADD17C,1.440000*%
%TD*%
%TA.AperFunction,Conductor*%
%ADD18C,0.200000*%
%TD*%
G04 APERTURE END LIST*
D10*
%TO.P,R14,1*%
%TO.N,+5V*%
X177500000Y-49500000D03*
%TO.P,R14,2*%
%TO.N,Net-(J7-Pin_1)*%
X177500000Y-57120000D03*
%TD*%
D11*
%TO.P,J1,1,Pin_1*%
%TO.N,Net-(J1-Pin_1)*%
X121500000Y-62000000D03*
D12*
%TO.P,J1,2,Pin_2*%
%TO.N,GND*%
X124000000Y-62000000D03*
%TO.P,J1,3,Pin_3*%
%TO.N,Net-(J1-Pin_3)*%
X126500000Y-62000000D03*
%TO.P,J1,4,Pin_4*%
%TO.N,GND*%
X129000000Y-62000000D03*
%TD*%
D10*
%TO.P,R3,1*%
%TO.N,+3V3*%
X129500000Y-80770000D03*
%TO.P,R3,2*%
%TO.N,Net-(J8-Pin_1)*%
X121880000Y-80770000D03*
%TD*%
D13*
%TO.P,J8,1,Pin_1*%
%TO.N,Net-(J8-Pin_1)*%
X194500000Y-70000000D03*
D14*
%TO.P,J8,2,Pin_2*%
%TO.N,Net-(J8-Pin_2)*%
X194500000Y-72500000D03*
%TO.P,J8,3,Pin_3*%
%TO.N,Net-(J8-Pin_3)*%
X194500000Y-75000000D03*
%TO.P,J8,4,Pin_4*%
%TO.N,Net-(J8-Pin_4)*%
X194500000Y-77500000D03*
%TO.P,J8,5,Pin_5*%
%TO.N,Net-(J8-Pin_5)*%
X194500000Y-80000000D03*
%TD*%
D11*
%TO.P,J2,1,Pin_1*%
%TO.N,Net-(J2-Pin_1)*%
X135500000Y-62000000D03*
D12*
%TO.P,J2,2,Pin_2*%
%TO.N,GND*%
X138000000Y-62000000D03*
%TO.P,J2,3,Pin_3*%
%TO.N,Net-(J2-Pin_3)*%
X140500000Y-62000000D03*
%TO.P,J2,4,Pin_4*%
%TO.N,GND*%
X143000000Y-62000000D03*
%TD*%
D10*
%TO.P,R15,1*%
%TO.N,+5V*%
X182500000Y-49500000D03*
%TO.P,R15,2*%
%TO.N,Net-(J7-Pin_3)*%
X182500000Y-57120000D03*
%TD*%
%TO.P,R5,1*%
%TO.N,+5V*%
X134000000Y-49500000D03*
%TO.P,R5,2*%
%TO.N,Net-(J2-Pin_1)*%
X134000000Y-57120000D03*
%TD*%
D15*
%TO.P,U2,1,GND*%
%TO.N,GND*%
X129310000Y-67880000D03*
D16*
%TO.P,U2,2,+*%
%TO.N,Net-(J1-Pin_3)*%
X126770000Y-67880000D03*
%TO.P,U2,3,-*%
%TO.N,Net-(U1--)*%
X124230000Y-67880000D03*
%TO.P,U2,4,V-*%
%TO.N,GND*%
X121690000Y-67880000D03*
%TO.P,U2,5,BAL*%
%TO.N,unconnected-(U2-BAL-Pad5)*%
X121690000Y-75500000D03*
%TO.P,U2,6,STRB*%
%TO.N,unconnected-(U2-STRB-Pad6)*%
X124230000Y-75500000D03*
%TO.P,U2,7*%
%TO.N,Net-(J8-Pin_1)*%
X126770000Y-75500000D03*
%TO.P,U2,8,V+*%
%TO.N,+5V*%
X129310000Y-75500000D03*
%TD*%
D10*
%TO.P,R8,1*%
%TO.N,+5V*%
X148000000Y-49500000D03*
%TO.P,R8,2*%
%TO.N,Net-(J3-Pin_1)*%
X148000000Y-57120000D03*
%TD*%
%TO.P,R7,1*%
%TO.N,+5V*%
X153000000Y-49500000D03*
%TO.P,R7,2*%
%TO.N,Net-(J3-Pin_3)*%
X153000000Y-57120000D03*
%TD*%
D11*
%TO.P,J4,1,Pin_1*%
%TO.N,Net-(J4-Pin_1)*%
X163500000Y-62000000D03*
D12*
%TO.P,J4,2,Pin_2*%
%TO.N,unconnected-(J4-Pin_2-Pad2)*%
X166000000Y-62000000D03*
%TO.P,J4,3,Pin_3*%
%TO.N,Net-(J4-Pin_3)*%
X168500000Y-62000000D03*
%TO.P,J4,4,Pin_4*%
%TO.N,GND*%
X171000000Y-62000000D03*
%TD*%
D10*
%TO.P,R1,1*%
%TO.N,+5V*%
X125000000Y-49380000D03*
%TO.P,R1,2*%
%TO.N,Net-(J1-Pin_3)*%
X125000000Y-57000000D03*
%TD*%
%TO.P,R11,1*%
%TO.N,+5V*%
X162000000Y-49500000D03*
%TO.P,R11,2*%
%TO.N,Net-(J4-Pin_1)*%
X162000000Y-57120000D03*
%TD*%
D11*
%TO.P,J3,1,Pin_1*%
%TO.N,Net-(J3-Pin_1)*%
X149500000Y-62000000D03*
D12*
%TO.P,J3,2,Pin_2*%
%TO.N,GND*%
X152000000Y-62000000D03*
%TO.P,J3,3,Pin_3*%
%TO.N,Net-(J3-Pin_3)*%
X154500000Y-62000000D03*
%TO.P,J3,4,Pin_4*%
%TO.N,GND*%
X157000000Y-62000000D03*
%TD*%
D15*
%TO.P,U1,1,GND*%
%TO.N,GND*%
X143500000Y-67880000D03*
D16*
%TO.P,U1,2,+*%
%TO.N,Net-(J2-Pin_3)*%
X140960000Y-67880000D03*
%TO.P,U1,3,-*%
%TO.N,Net-(U1--)*%
X138420000Y-67880000D03*
%TO.P,U1,4,V-*%
%TO.N,GND*%
X135880000Y-67880000D03*
%TO.P,U1,5,BAL*%
%TO.N,unconnected-(U1-BAL-Pad5)*%
X135880000Y-75500000D03*
%TO.P,U1,6,STRB*%
%TO.N,unconnected-(U1-STRB-Pad6)*%
X138420000Y-75500000D03*
%TO.P,U1,7*%
%TO.N,Net-(J8-Pin_2)*%
X140960000Y-75500000D03*
%TO.P,U1,8,V+*%
%TO.N,+5V*%
X143500000Y-75500000D03*
%TD*%
D11*
%TO.P,J7,1,Pin_1*%
%TO.N,Net-(J7-Pin_1)*%
X178500000Y-62000000D03*
D12*
%TO.P,J7,2,Pin_2*%
%TO.N,GND*%
X181000000Y-62000000D03*
%TO.P,J7,3,Pin_3*%
%TO.N,Net-(J7-Pin_3)*%
X183500000Y-62000000D03*
%TO.P,J7,4,Pin_4*%
%TO.N,GND*%
X186000000Y-62000000D03*
%TD*%
D15*
%TO.P,U5,1,GND*%
%TO.N,unconnected-(U5-GND-Pad1)*%
X185310000Y-68190000D03*
D16*
%TO.P,U5,2,+*%
%TO.N,Net-(J7-Pin_3)*%
X182770000Y-68190000D03*
%TO.P,U5,3,-*%
%TO.N,Net-(U1--)*%
X180230000Y-68190000D03*
%TO.P,U5,4,V-*%
%TO.N,unconnected-(U5-V--Pad4)*%
X177690000Y-68190000D03*
%TO.P,U5,5,BAL*%
%TO.N,unconnected-(U5-BAL-Pad5)*%
X177690000Y-75810000D03*
%TO.P,U5,6,STRB*%
%TO.N,unconnected-(U5-STRB-Pad6)*%
X180230000Y-75810000D03*
%TO.P,U5,7*%
%TO.N,Net-(J8-Pin_5)*%
X182770000Y-75810000D03*
%TO.P,U5,8,V+*%
%TO.N,unconnected-(U5-V+-Pad8)*%
X185310000Y-75810000D03*
%TD*%
D10*
%TO.P,R6,1*%
%TO.N,+3V3*%
X143500000Y-80770000D03*
%TO.P,R6,2*%
%TO.N,Net-(J8-Pin_2)*%
X135880000Y-80770000D03*
%TD*%
%TO.P,R12,1*%
%TO.N,+3V3*%
X171810000Y-80770000D03*
%TO.P,R12,2*%
%TO.N,Net-(J8-Pin_4)*%
X164190000Y-80770000D03*
%TD*%
%TO.P,R9,1*%
%TO.N,+3V3*%
X157500000Y-80770000D03*
%TO.P,R9,2*%
%TO.N,Net-(J8-Pin_3)*%
X149880000Y-80770000D03*
%TD*%
D15*
%TO.P,U4,1,GND*%
%TO.N,GND*%
X171810000Y-68190000D03*
D16*
%TO.P,U4,2,+*%
%TO.N,Net-(J4-Pin_3)*%
X169270000Y-68190000D03*
%TO.P,U4,3,-*%
%TO.N,Net-(U1--)*%
X166730000Y-68190000D03*
%TO.P,U4,4,V-*%
%TO.N,GND*%
X164190000Y-68190000D03*
%TO.P,U4,5,BAL*%
%TO.N,unconnected-(U4-BAL-Pad5)*%
X164190000Y-75810000D03*
%TO.P,U4,6,STRB*%
%TO.N,unconnected-(U4-STRB-Pad6)*%
X166730000Y-75810000D03*
%TO.P,U4,7*%
%TO.N,Net-(J8-Pin_4)*%
X169270000Y-75810000D03*
%TO.P,U4,8,V+*%
%TO.N,+5V*%
X171810000Y-75810000D03*
%TD*%
D10*
%TO.P,R2,1*%
%TO.N,+5V*%
X120000000Y-49500000D03*
%TO.P,R2,2*%
%TO.N,Net-(J1-Pin_1)*%
X120000000Y-57120000D03*
%TD*%
%TO.P,R4,1*%
%TO.N,+5V*%
X139000000Y-49380000D03*
%TO.P,R4,2*%
%TO.N,Net-(J2-Pin_3)*%
X139000000Y-57000000D03*
%TD*%
D17*
%TO.P,RV1,1,1*%
%TO.N,+5V*%
X194000000Y-51420000D03*
%TO.P,RV1,2,2*%
%TO.N,Net-(U1--)*%
X194000000Y-53960000D03*
%TO.P,RV1,3,3*%
%TO.N,GND*%
X194000000Y-56500000D03*
%TD*%
D10*
%TO.P,R10,1*%
%TO.N,+5V*%
X167000000Y-49500000D03*
%TO.P,R10,2*%
%TO.N,Net-(J4-Pin_3)*%
X167000000Y-57120000D03*
%TD*%
D13*
%TO.P,J6,1,Pin_1*%
%TO.N,+5V*%
X115500000Y-60500000D03*
D14*
%TO.P,J6,2,Pin_2*%
%TO.N,GND*%
X115500000Y-63000000D03*
%TO.P,J6,3,Pin_3*%
%TO.N,+3V3*%
X115500000Y-65500000D03*
%TD*%
D10*
%TO.P,R16,1*%
%TO.N,+3V3*%
X184810000Y-81000000D03*
%TO.P,R16,2*%
%TO.N,Net-(J8-Pin_5)*%
X177190000Y-81000000D03*
%TD*%
D15*
%TO.P,U3,1,GND*%
%TO.N,GND*%
X157500000Y-68190000D03*
D16*
%TO.P,U3,2,+*%
%TO.N,Net-(J3-Pin_3)*%
X154960000Y-68190000D03*
%TO.P,U3,3,-*%
%TO.N,Net-(U1--)*%
X152420000Y-68190000D03*
%TO.P,U3,4,V-*%
%TO.N,GND*%
X149880000Y-68190000D03*
%TO.P,U3,5,BAL*%
%TO.N,unconnected-(U3-BAL-Pad5)*%
X149880000Y-75810000D03*
%TO.P,U3,6,STRB*%
%TO.N,unconnected-(U3-STRB-Pad6)*%
X152420000Y-75810000D03*
%TO.P,U3,7*%
%TO.N,Net-(J8-Pin_3)*%
X154960000Y-75810000D03*
%TO.P,U3,8,V+*%
%TO.N,+5V*%
X157500000Y-75810000D03*
%TD*%
D18*
%TO.N,Net-(J1-Pin_1)*%
X120000000Y-57120000D02*
X120000000Y-60500000D01*
X120000000Y-60500000D02*
X121500000Y-62000000D01*
%TO.N,Net-(J1-Pin_3)*%
X126500000Y-59000000D02*
X126500000Y-62000000D01*
X126960000Y-67380000D02*
X126770000Y-67570000D01*
X126770000Y-62770000D02*
X126770000Y-67880000D01*
X125000000Y-57500000D02*
X126500000Y-59000000D01*
X126500000Y-62500000D02*
X126770000Y-62770000D01*
X125000000Y-57000000D02*
X125000000Y-57500000D01*
X126500000Y-62000000D02*
X126500000Y-62500000D01*
%TO.N,Net-(J2-Pin_3)*%
X140460000Y-67070000D02*
X140960000Y-67570000D01*
X140500000Y-67420000D02*
X140960000Y-67880000D01*
X140500000Y-67110000D02*
X140960000Y-67570000D01*
X140500000Y-62000000D02*
X140500000Y-67420000D01*
X139000000Y-57000000D02*
X139000000Y-60500000D01*
X139000000Y-60500000D02*
X140500000Y-62000000D01*
%TO.N,Net-(J2-Pin_1)*%
X134000000Y-57120000D02*
X134000000Y-60500000D01*
X134000000Y-60500000D02*
X135500000Y-62000000D01*
%TO.N,Net-(J3-Pin_1)*%
X148000000Y-57120000D02*
X148000000Y-60500000D01*
X148000000Y-60500000D02*
X149500000Y-62000000D01*
%TO.N,Net-(J3-Pin_3)*%
X153000000Y-60500000D02*
X154500000Y-62000000D01*
X154500000Y-62000000D02*
X154500000Y-67730000D01*
X153000000Y-57120000D02*
X153000000Y-60500000D01*
X155000000Y-67530000D02*
X154960000Y-67570000D01*
X154500000Y-67730000D02*
X154960000Y-68190000D01*
%TO.N,Net-(J4-Pin_3)*%
X168500000Y-62500000D02*
X169270000Y-63270000D01*
X167000000Y-60500000D02*
X168500000Y-62000000D01*
X169270000Y-63270000D02*
X169270000Y-68190000D01*
X168500000Y-62000000D02*
X168500000Y-62500000D01*
X169500000Y-67650000D02*
X169270000Y-67880000D01*
X167000000Y-57120000D02*
X167000000Y-60500000D01*
X169000000Y-67610000D02*
X169270000Y-67880000D01*
%TO.N,Net-(J4-Pin_1)*%
X162000000Y-60500000D02*
X163500000Y-62000000D01*
X162000000Y-57120000D02*
X162000000Y-60500000D01*
%TO.N,+5V*%
X146880000Y-49380000D02*
X139000000Y-49380000D01*
X138000000Y-49500000D02*
X134000000Y-49500000D01*
X162000000Y-49500000D02*
X153000000Y-49500000D01*
X139000000Y-49380000D02*
X138120000Y-49380000D01*
X133000000Y-49500000D02*
X132880000Y-49380000D01*
X132880000Y-49380000D02*
X125000000Y-49380000D01*
X120120000Y-49380000D02*
X120000000Y-49500000D01*
X138120000Y-49380000D02*
X138000000Y-49500000D01*
X167000000Y-49500000D02*
X177500000Y-49500000D01*
X182500000Y-49500000D02*
X192080000Y-49500000D01*
X167000000Y-49500000D02*
X162000000Y-49500000D01*
X125000000Y-49380000D02*
X120120000Y-49380000D01*
X153000000Y-49500000D02*
X148000000Y-49500000D01*
X120000000Y-49500000D02*
X115500000Y-54000000D01*
X192080000Y-49500000D02*
X194000000Y-51420000D01*
X147000000Y-49500000D02*
X146880000Y-49380000D01*
X177500000Y-49500000D02*
X182500000Y-49500000D01*
X148000000Y-49500000D02*
X147000000Y-49500000D01*
X134000000Y-49500000D02*
X133000000Y-49500000D01*
X115500000Y-54000000D02*
X115500000Y-60500000D01*
%TO.N,+3V3*%
X128399000Y-81871000D02*
X121423950Y-81871000D01*
X142399000Y-81871000D02*
X130601000Y-81871000D01*
X156399000Y-81871000D02*
X144601000Y-81871000D01*
X115500000Y-75947050D02*
X115500000Y-65500000D01*
X171810000Y-80770000D02*
X169580000Y-83000000D01*
X183709000Y-82101000D02*
X173141000Y-82101000D01*
X144601000Y-81871000D02*
X143500000Y-80770000D01*
X130601000Y-81871000D02*
X129500000Y-80770000D01*
X173141000Y-82101000D02*
X171810000Y-80770000D01*
X184810000Y-81000000D02*
X183709000Y-82101000D01*
X143500000Y-80770000D02*
X142399000Y-81871000D01*
X121423950Y-81871000D02*
X115500000Y-75947050D01*
X169580000Y-83000000D02*
X159730000Y-83000000D01*
X159730000Y-83000000D02*
X157500000Y-80770000D01*
X157500000Y-80770000D02*
X156399000Y-81871000D01*
X129500000Y-80770000D02*
X128399000Y-81871000D01*
%TO.N,unconnected-(U2-BAL-Pad5)*%
X121500000Y-75270000D02*
X121770000Y-75000000D01*
%TO.N,Net-(J7-Pin_3)*%
X183500000Y-62000000D02*
X183500000Y-67460000D01*
X182500000Y-57120000D02*
X182500000Y-61000000D01*
X182500000Y-61000000D02*
X183500000Y-62000000D01*
X183500000Y-67460000D02*
X182770000Y-68190000D01*
%TO.N,Net-(J7-Pin_1)*%
X177500000Y-61000000D02*
X178500000Y-62000000D01*
X177500000Y-57120000D02*
X177500000Y-61000000D01*
%TO.N,Net-(J8-Pin_1)*%
X121880000Y-80770000D02*
X132650000Y-70000000D01*
X132650000Y-70000000D02*
X194500000Y-70000000D01*
X126770000Y-75300000D02*
X126770000Y-75190000D01*
X126770000Y-75880000D02*
X126770000Y-75500000D01*
%TO.N,Net-(J8-Pin_2)*%
X141500000Y-74850000D02*
X141460000Y-74810000D01*
X135880000Y-80770000D02*
X144150000Y-72500000D01*
X144150000Y-72500000D02*
X194500000Y-72500000D01*
X140960000Y-75690000D02*
X140960000Y-75500000D01*
X140880000Y-75190000D02*
X140960000Y-75190000D01*
%TO.N,Net-(J8-Pin_3)*%
X193500000Y-74000000D02*
X194500000Y-75000000D01*
X156650000Y-74000000D02*
X193500000Y-74000000D01*
X149880000Y-80770000D02*
X156650000Y-74000000D01*
X154840000Y-75810000D02*
X154960000Y-75810000D01*
X154880000Y-75190000D02*
X154960000Y-75190000D01*
%TO.N,Net-(J8-Pin_5)*%
X182380000Y-75810000D02*
X182770000Y-75810000D01*
%TO.N,Net-(J8-Pin_4)*%
X170960000Y-77500000D02*
X194500000Y-77500000D01*
X169270000Y-75810000D02*
X170960000Y-77500000D01*
X164310000Y-80770000D02*
X169270000Y-75810000D01*
X169270000Y-75610000D02*
X169270000Y-75500000D01*
X169150000Y-75810000D02*
X169270000Y-75810000D01*
X164190000Y-80770000D02*
X164310000Y-80770000D01*
%TD*%
%TA.AperFunction,Conductor*%
%TO.N,GND*%
G36*
X204442539Y-46020185D02*
G01*
X204488294Y-46072989D01*
X204499500Y-46124500D01*
X204499500Y-85375500D01*
X204479815Y-85442539D01*
X204427011Y-85488294D01*
X204375500Y-85499500D01*
X109624500Y-85499500D01*
X109557461Y-85479815D01*
X109511706Y-85427011D01*
X109500500Y-85375500D01*
X109500500Y-82378711D01*
X110649500Y-82378711D01*
X110649500Y-82378712D01*
X110649500Y-82621288D01*
X110660060Y-82701499D01*
X110681161Y-82861785D01*
X110743947Y-83096104D01*
X110836773Y-83320205D01*
X110836776Y-83320212D01*
X110958064Y-83530289D01*
X110958066Y-83530292D01*
X110958067Y-83530293D01*
X111105733Y-83722736D01*
X111105739Y-83722743D01*
X111277256Y-83894260D01*
X111277262Y-83894265D01*
X111469711Y-84041936D01*
X111679788Y-84163224D01*
X111903900Y-84256054D01*
X112138211Y-84318838D01*
X112318586Y-84342584D01*
X112378711Y-84350500D01*
X112378712Y-84350500D01*
X112621289Y-84350500D01*
X112669388Y-84344167D01*
X112861789Y-84318838D01*
X113096100Y-84256054D01*
X113320212Y-84163224D01*
X113530289Y-84041936D01*
X113722738Y-83894265D01*
X113894265Y-83722738D01*
X114041936Y-83530289D01*
X114163224Y-83320212D01*
X114256054Y-83096100D01*
X114318838Y-82861789D01*
X114350500Y-82621288D01*
X114350500Y-82378712D01*
X114346920Y-82351522D01*
X114335988Y-82268478D01*
X114318838Y-82138211D01*
X114256054Y-81903900D01*
X114163224Y-81679788D01*
X114041936Y-81469711D01*
X113941011Y-81338183D01*
X113894266Y-81277263D01*
X113894260Y-81277256D01*
X113722743Y-81105739D01*
X113722736Y-81105733D01*
X113530293Y-80958067D01*
X113530292Y-80958066D01*
X113530289Y-80958064D01*
X113320212Y-80836776D01*
X113320205Y-80836773D01*
X113096104Y-80743947D01*
X112861785Y-80681161D01*
X112621289Y-80649500D01*
X112621288Y-80649500D01*
X112378712Y-80649500D01*
X112378711Y-80649500D01*
X112138214Y-80681161D01*
X111903895Y-80743947D01*
X111679794Y-80836773D01*
X111679785Y-80836777D01*
X111469706Y-80958067D01*
X111277263Y-81105733D01*
X111277256Y-81105739D01*
X111105739Y-81277256D01*
X111105733Y-81277263D01*
X110958067Y-81469706D01*
X110836777Y-81679785D01*
X110836773Y-81679794D01*
X110743947Y-81903895D01*
X110681161Y-82138214D01*
X110649500Y-82378711D01*
X109500500Y-82378711D01*
X109500500Y-59849983D01*
X114024500Y-59849983D01*
X114024500Y-61150001D01*
X114024501Y-61150018D01*
X114035000Y-61252796D01*
X114035001Y-61252799D01*
X114069394Y-61356588D01*
X114090186Y-61419334D01*
X114176253Y-61558872D01*
X114182289Y-61568657D01*
X114306344Y-61692712D01*
X114461558Y-61788448D01*
X114508283Y-61840396D01*
X114519506Y-61909358D01*
X114491663Y-61973441D01*
X114484144Y-61981668D01*
X114345271Y-62120541D01*
X114220379Y-62292442D01*
X114123904Y-62481782D01*
X114058242Y-62683870D01*
X114058242Y-62683873D01*
X114047769Y-62750000D01*
X115095854Y-62750000D01*
X115057370Y-62816657D01*
X115025000Y-62937465D01*
X115025000Y-63062535D01*
X115057370Y-63183343D01*
X115095854Y-63250000D01*
X114047769Y-63250000D01*
X114058242Y-63316126D01*
X114058242Y-63316129D01*
X114123904Y-63518217D01*
X114220379Y-63707557D01*
X114345272Y-63879459D01*
X114345276Y-63879464D01*
X114495535Y-64029723D01*
X114495540Y-64029727D01*
X114660218Y-64149372D01*
X114702884Y-64204701D01*
X114708863Y-64274315D01*
X114676258Y-64336110D01*
X114660218Y-64350008D01*
X114495214Y-64469890D01*
X114495209Y-64469894D01*
X114344890Y-64620213D01*
X114219951Y-64792179D01*
X114123444Y-64981585D01*
X114057753Y-65183760D01*
X114024500Y-65393713D01*
X114024500Y-65606286D01*
X114057753Y-65816239D01*
X114123444Y-66018414D01*
X114219951Y-66207820D01*
X114344890Y-66379786D01*
X114495213Y-66530109D01*
X114667179Y-66655048D01*
X114667181Y-66655049D01*
X114667184Y-66655051D01*
X114831795Y-66738924D01*
X114882591Y-66786898D01*
X114899500Y-66849409D01*
X114899500Y-75860380D01*
X114899499Y-75860398D01*
X114899499Y-76026104D01*
X114899498Y-76026104D01*
X114940423Y-76178837D01*
X114940424Y-76178838D01*
X114958705Y-76210501D01*
X115019475Y-76315759D01*
X115019481Y-76315767D01*
X115138349Y-76434635D01*
X115138355Y-76434640D01*
X120939089Y-82235374D01*
X120939099Y-82235385D01*
X120943429Y-82239715D01*
X120943430Y-82239716D01*
X121055234Y-82351520D01*
X121055236Y-82351521D01*
X121055240Y-82351524D01*
X121192159Y-82430573D01*
X121192166Y-82430577D01*
X121303969Y-82460534D01*
X121344892Y-82471500D01*
X121344893Y-82471500D01*
X128312331Y-82471500D01*
X128312347Y-82471501D01*
X128319943Y-82471501D01*
X128478054Y-82471501D01*
X128478057Y-82471501D01*
X128630785Y-82430577D01*
X128645367Y-82422157D01*
X128684588Y-82399514D01*
X128684599Y-82399506D01*
X128684611Y-82399500D01*
X128767716Y-82351520D01*
X128879520Y-82239716D01*
X128879520Y-82239714D01*
X128889723Y-82229512D01*
X128889727Y-82229506D01*
X129055158Y-82064075D01*
X129116479Y-82030592D01*
X129181151Y-82033825D01*
X129195466Y-82038477D01*
X129195471Y-82038477D01*
X129195472Y-82038478D01*
X129223555Y-82042926D01*
X129397648Y-82070500D01*
X129397649Y-82070500D01*
X129602351Y-82070500D01*
X129602352Y-82070500D01*
X129804534Y-82038477D01*
X129818842Y-82033827D01*
X129834054Y-82033392D01*
X129848315Y-82028074D01*
X129868268Y-82032414D01*
X129888682Y-82031831D01*
X129902769Y-82039920D01*
X129916588Y-82042926D01*
X129944842Y-82064077D01*
X130116139Y-82235374D01*
X130116149Y-82235385D01*
X130120479Y-82239715D01*
X130120480Y-82239716D01*
X130232284Y-82351520D01*
X130315389Y-82399500D01*
X130369211Y-82430575D01*
X130369215Y-82430577D01*
X130521943Y-82471500D01*
X130680057Y-82471500D01*
X142312331Y-82471500D01*
X142312347Y-82471501D01*
X142319943Y-82471501D01*
X142478054Y-82471501D01*
X142478057Y-82471501D01*
X142630785Y-82430577D01*
X142645367Y-82422157D01*
X142684588Y-82399514D01*
X142684599Y-82399506D01*
X142684611Y-82399500D01*
X142767716Y-82351520D01*
X142879520Y-82239716D01*
X142879520Y-82239714D01*
X142889723Y-82229512D01*
X142889727Y-82229506D01*
X143055158Y-82064075D01*
X143116479Y-82030592D01*
X143181151Y-82033825D01*
X143195466Y-82038477D01*
X143195471Y-82038477D01*
X143195472Y-82038478D01*
X143223555Y-82042926D01*
X143397648Y-82070500D01*
X143397649Y-82070500D01*
X143602351Y-82070500D01*
X143602352Y-82070500D01*
X143804534Y-82038477D01*
X143818842Y-82033827D01*
X143834054Y-82033392D01*
X143848315Y-82028074D01*
X143868268Y-82032414D01*
X143888682Y-82031831D01*
X143902769Y-82039920D01*
X143916588Y-82042926D01*
X143944842Y-82064077D01*
X144116139Y-82235374D01*
X144116149Y-82235385D01*
X144120479Y-82239715D01*
X144120480Y-82239716D01*
X144232284Y-82351520D01*
X144315389Y-82399500D01*
X144369211Y-82430575D01*
X144369215Y-82430577D01*
X144521943Y-82471500D01*
X144680057Y-82471500D01*
X156312331Y-82471500D01*
X156312347Y-82471501D01*
X156319943Y-82471501D01*
X156478054Y-82471501D01*
X156478057Y-82471501D01*
X156630785Y-82430577D01*
X156645367Y-82422157D01*
X156684588Y-82399514D01*
X156684599Y-82399506D01*
X156684611Y-82399500D01*
X156767716Y-82351520D01*
X156879520Y-82239716D01*
X156879520Y-82239714D01*
X156889723Y-82229512D01*
X156889727Y-82229506D01*
X157055158Y-82064075D01*
X157116479Y-82030592D01*
X157181151Y-82033825D01*
X157195466Y-82038477D01*
X157195471Y-82038477D01*
X157195472Y-82038478D01*
X157223555Y-82042926D01*
X157397648Y-82070500D01*
X157397649Y-82070500D01*
X157602351Y-82070500D01*
X157602352Y-82070500D01*
X157804534Y-82038477D01*
X157818842Y-82033827D01*
X157888682Y-82031831D01*
X157944842Y-82064077D01*
X159245139Y-83364374D01*
X159245149Y-83364385D01*
X159249479Y-83368715D01*
X159249480Y-83368716D01*
X159361284Y-83480520D01*
X159447487Y-83530289D01*
X159498215Y-83559577D01*
X159650942Y-83600500D01*
X159650943Y-83600500D01*
X169493331Y-83600500D01*
X169493347Y-83600501D01*
X169500943Y-83600501D01*
X169659054Y-83600501D01*
X169659057Y-83600501D01*
X169811785Y-83559577D01*
X169862513Y-83530289D01*
X169948716Y-83480520D01*
X170060520Y-83368716D01*
X170060520Y-83368714D01*
X170070724Y-83358511D01*
X170070728Y-83358506D01*
X171365158Y-82064075D01*
X171426479Y-82030592D01*
X171491151Y-82033825D01*
X171505466Y-82038477D01*
X171505471Y-82038477D01*
X171505472Y-82038478D01*
X171533555Y-82042926D01*
X171707648Y-82070500D01*
X171707649Y-82070500D01*
X171912351Y-82070500D01*
X171912352Y-82070500D01*
X172114534Y-82038477D01*
X172128842Y-82033827D01*
X172198682Y-82031831D01*
X172254842Y-82064077D01*
X172656139Y-82465374D01*
X172656149Y-82465385D01*
X172660479Y-82469715D01*
X172660480Y-82469716D01*
X172772284Y-82581520D01*
X172841165Y-82621288D01*
X172909215Y-82660577D01*
X173061942Y-82701500D01*
X173061943Y-82701500D01*
X183622331Y-82701500D01*
X183622347Y-82701501D01*
X183629943Y-82701501D01*
X183788054Y-82701501D01*
X183788057Y-82701501D01*
X183940785Y-82660577D01*
X184008835Y-82621288D01*
X184077716Y-82581520D01*
X184189520Y-82469716D01*
X184189520Y-82469714D01*
X184199723Y-82459512D01*
X184199727Y-82459506D01*
X184280522Y-82378711D01*
X199649500Y-82378711D01*
X199649500Y-82378712D01*
X199649500Y-82621288D01*
X199660060Y-82701499D01*
X199681161Y-82861785D01*
X199743947Y-83096104D01*
X199836773Y-83320205D01*
X199836776Y-83320212D01*
X199958064Y-83530289D01*
X199958066Y-83530292D01*
X199958067Y-83530293D01*
X200105733Y-83722736D01*
X200105739Y-83722743D01*
X200277256Y-83894260D01*
X200277262Y-83894265D01*
X200469711Y-84041936D01*
X200679788Y-84163224D01*
X200903900Y-84256054D01*
X201138211Y-84318838D01*
X201318586Y-84342584D01*
X201378711Y-84350500D01*
X201378712Y-84350500D01*
X201621289Y-84350500D01*
X201669388Y-84344167D01*
X201861789Y-84318838D01*
X202096100Y-84256054D01*
X202320212Y-84163224D01*
X202530289Y-84041936D01*
X202722738Y-83894265D01*
X202894265Y-83722738D01*
X203041936Y-83530289D01*
X203163224Y-83320212D01*
X203256054Y-83096100D01*
X203318838Y-82861789D01*
X203350500Y-82621288D01*
X203350500Y-82378712D01*
X203346920Y-82351522D01*
X203335988Y-82268478D01*
X203318838Y-82138211D01*
X203256054Y-81903900D01*
X203163224Y-81679788D01*
X203041936Y-81469711D01*
X202941011Y-81338183D01*
X202894266Y-81277263D01*
X202894260Y-81277256D01*
X202722743Y-81105739D01*
X202722736Y-81105733D01*
X202530293Y-80958067D01*
X202530292Y-80958066D01*
X202530289Y-80958064D01*
X202320212Y-80836776D01*
X202320205Y-80836773D01*
X202096104Y-80743947D01*
X201861785Y-80681161D01*
X201621289Y-80649500D01*
X201621288Y-80649500D01*
X201378712Y-80649500D01*
X201378711Y-80649500D01*
X201138214Y-80681161D01*
X200903895Y-80743947D01*
X200679794Y-80836773D01*
X200679785Y-80836777D01*
X200469706Y-80958067D01*
X200277263Y-81105733D01*
X200277256Y-81105739D01*
X200105739Y-81277256D01*
X200105733Y-81277263D01*
X199958067Y-81469706D01*
X199836777Y-81679785D01*
X199836773Y-81679794D01*
X199743947Y-81903895D01*
X199681161Y-82138214D01*
X199649500Y-82378711D01*
X184280522Y-82378711D01*
X184365158Y-82294075D01*
X184426479Y-82260592D01*
X184491151Y-82263825D01*
X184505466Y-82268477D01*
X184707648Y-82300500D01*
X184707649Y-82300500D01*
X184912351Y-82300500D01*
X184912352Y-82300500D01*
X185114534Y-82268477D01*
X185114537Y-82268476D01*
X185114538Y-82268476D01*
X185150712Y-82256722D01*
X185150713Y-82256722D01*
X185203060Y-82239713D01*
X185309219Y-82205220D01*
X185491610Y-82112287D01*
X185587078Y-82042926D01*
X185657213Y-81991971D01*
X185657215Y-81991968D01*
X185657219Y-81991966D01*
X185801966Y-81847219D01*
X185801968Y-81847215D01*
X185801971Y-81847213D01*
X185863905Y-81761966D01*
X185922287Y-81681610D01*
X186015220Y-81499219D01*
X186078477Y-81304534D01*
X186110500Y-81102352D01*
X186110500Y-80897648D01*
X186078477Y-80695466D01*
X186073829Y-80681162D01*
X186020949Y-80518414D01*
X186015220Y-80500781D01*
X186015218Y-80500778D01*
X186015218Y-80500776D01*
X185925734Y-80325156D01*
X185922287Y-80318390D01*
X185888692Y-80272150D01*
X185801971Y-80152786D01*
X185657213Y-80008028D01*
X185491613Y-79887715D01*
X185491612Y-79887714D01*
X185491610Y-79887713D01*
X185434653Y-79858691D01*
X185309223Y-79794781D01*
X185114534Y-79731522D01*
X184939995Y-79703878D01*
X184912352Y-79699500D01*
X184707648Y-79699500D01*
X184683329Y-79703351D01*
X184505465Y-79731522D01*
X184310776Y-79794781D01*
X184128386Y-79887715D01*
X183962786Y-80008028D01*
X183818028Y-80152786D01*
X183697715Y-80318386D01*
X183604781Y-80500776D01*
X183541522Y-80695465D01*
X183512329Y-80879786D01*
X183509500Y-80897648D01*
X183509500Y-81102352D01*
X183522841Y-81186581D01*
X183541523Y-81304535D01*
X183546172Y-81318845D01*
X183546605Y-81334052D01*
X183551924Y-81348308D01*
X183547582Y-81368269D01*
X183548165Y-81388687D01*
X183540078Y-81402770D01*
X183537075Y-81416581D01*
X183515926Y-81444837D01*
X183496588Y-81464177D01*
X183435266Y-81497665D01*
X183408902Y-81500500D01*
X178565476Y-81500500D01*
X178498437Y-81480815D01*
X178452682Y-81428011D01*
X178442738Y-81358853D01*
X178447545Y-81338183D01*
X178458475Y-81304542D01*
X178458475Y-81304538D01*
X178458477Y-81304534D01*
X178490500Y-81102352D01*
X178490500Y-80897648D01*
X178458477Y-80695466D01*
X178453829Y-80681162D01*
X178400949Y-80518414D01*
X178395220Y-80500781D01*
X178395218Y-80500778D01*
X178395218Y-80500776D01*
X178305734Y-80325156D01*
X178302287Y-80318390D01*
X178268692Y-80272150D01*
X178181971Y-80152786D01*
X178037213Y-80008028D01*
X177871613Y-79887715D01*
X177871612Y-79887714D01*
X177871610Y-79887713D01*
X177814653Y-79858691D01*
X177689223Y-79794781D01*
X177494534Y-79731522D01*
X177319995Y-79703878D01*
X177292352Y-79699500D01*
X177087648Y-79699500D01*
X177063329Y-79703351D01*
X176885465Y-79731522D01*
X176690776Y-79794781D01*
X176508386Y-79887715D01*
X176342786Y-80008028D01*
X176198028Y-80152786D01*
X176077715Y-80318386D01*
X175984781Y-80500776D01*
X175921522Y-80695465D01*
X175892329Y-80879786D01*
X175889500Y-80897648D01*
X175889500Y-81102352D01*
X175902841Y-81186581D01*
X175921523Y-81304535D01*
X175921524Y-81304542D01*
X175932455Y-81338183D01*
X175934450Y-81408024D01*
X175898369Y-81467856D01*
X175835668Y-81498684D01*
X175814524Y-81500500D01*
X173441097Y-81500500D01*
X173374058Y-81480815D01*
X173353416Y-81464181D01*
X173104077Y-81214842D01*
X173070592Y-81153519D01*
X173073828Y-81088841D01*
X173078477Y-81074534D01*
X173110500Y-80872352D01*
X173110500Y-80667648D01*
X173107626Y-80649500D01*
X173078477Y-80465465D01*
X173049127Y-80375137D01*
X173015220Y-80270781D01*
X173015218Y-80270778D01*
X173015218Y-80270776D01*
X172972788Y-80187504D01*
X172922287Y-80088390D01*
X172914556Y-80077749D01*
X172801971Y-79922786D01*
X172657213Y-79778028D01*
X172491613Y-79657715D01*
X172491612Y-79657714D01*
X172491610Y-79657713D01*
X172434653Y-79628691D01*
X172309223Y-79564781D01*
X172114534Y-79501522D01*
X171939995Y-79473878D01*
X171912352Y-79469500D01*
X171707648Y-79469500D01*
X171683329Y-79473351D01*
X171505465Y-79501522D01*
X171310776Y-79564781D01*
X171128386Y-79657715D01*
X170962786Y-79778028D01*
X170818028Y-79922786D01*
X170697715Y-80088386D01*
X170604781Y-80270776D01*
X170541522Y-80465465D01*
X170512374Y-80649500D01*
X170509500Y-80667648D01*
X170509500Y-80872352D01*
X170513507Y-80897648D01*
X170541522Y-81074534D01*
X170546173Y-81088848D01*
X170548165Y-81158690D01*
X170515921Y-81214842D01*
X169367584Y-82363181D01*
X169306261Y-82396666D01*
X169279903Y-82399500D01*
X160030097Y-82399500D01*
X159963058Y-82379815D01*
X159942416Y-82363181D01*
X158794077Y-81214842D01*
X158760592Y-81153519D01*
X158763828Y-81088841D01*
X158768477Y-81074534D01*
X158800500Y-80872352D01*
X158800500Y-80667648D01*
X158797626Y-80649500D01*
X158768477Y-80465465D01*
X158739127Y-80375137D01*
X158705220Y-80270781D01*
X158705218Y-80270778D01*
X158705218Y-80270776D01*
X158662788Y-80187504D01*
X158612287Y-80088390D01*
X158604556Y-80077749D01*
X158491971Y-79922786D01*
X158347213Y-79778028D01*
X158181613Y-79657715D01*
X158181612Y-79657714D01*
X158181610Y-79657713D01*
X158124653Y-79628691D01*
X157999223Y-79564781D01*
X157804534Y-79501522D01*
X157629995Y-79473878D01*
X157602352Y-79469500D01*
X157397648Y-79469500D01*
X157373329Y-79473351D01*
X157195465Y-79501522D01*
X157000776Y-79564781D01*
X156818386Y-79657715D01*
X156652786Y-79778028D01*
X156508028Y-79922786D01*
X156387715Y-80088386D01*
X156294781Y-80270776D01*
X156231522Y-80465465D01*
X156202374Y-80649500D01*
X156199500Y-80667648D01*
X156199500Y-80872352D01*
X156203507Y-80897648D01*
X156231523Y-81074535D01*
X156236172Y-81088845D01*
X156236605Y-81104052D01*
X156241924Y-81118308D01*
X156237582Y-81138269D01*
X156238165Y-81158687D01*
X156230078Y-81172770D01*
X156227075Y-81186581D01*
X156205926Y-81214837D01*
X156186588Y-81234177D01*
X156125266Y-81267665D01*
X156098902Y-81270500D01*
X151255476Y-81270500D01*
X151188437Y-81250815D01*
X151142682Y-81198011D01*
X151132738Y-81128853D01*
X151137545Y-81108183D01*
X151148475Y-81074542D01*
X151148475Y-81074538D01*
X151148477Y-81074534D01*
X151180500Y-80872352D01*
X151180500Y-80667648D01*
X151177626Y-80649500D01*
X151148478Y-80465472D01*
X151148477Y-80465471D01*
X151148477Y-80465466D01*
X151143825Y-80451151D01*
X151141832Y-80381312D01*
X151174075Y-80325158D01*
X154147485Y-77351748D01*
X154208806Y-77318265D01*
X154278498Y-77323249D01*
X154291459Y-77328946D01*
X154460776Y-77415218D01*
X154460778Y-77415218D01*
X154460781Y-77415220D01*
X154565137Y-77449127D01*
X154655465Y-77478477D01*
X154697224Y-77485091D01*
X154857648Y-77510500D01*
X154857649Y-77510500D01*
X155062351Y-77510500D01*
X155062352Y-77510500D01*
X155264534Y-77478477D01*
X155459219Y-77415220D01*
X155641610Y-77322287D01*
X155767257Y-77231000D01*
X155807213Y-77201971D01*
X155807215Y-77201968D01*
X155807219Y-77201966D01*
X155951966Y-77057219D01*
X155951968Y-77057215D01*
X155951971Y-77057213D01*
X156072284Y-76891614D01*
X156072285Y-76891613D01*
X156072287Y-76891610D01*
X156119516Y-76798917D01*
X156167489Y-76748123D01*
X156235310Y-76731328D01*
X156301445Y-76753865D01*
X156340485Y-76798919D01*
X156387715Y-76891614D01*
X156508028Y-77057213D01*
X156652786Y-77201971D01*
X156807749Y-77314556D01*
X156818390Y-77322287D01*
X156934607Y-77381503D01*
X157000776Y-77415218D01*
X157000778Y-77415218D01*
X157000781Y-77415220D01*
X157105137Y-77449127D01*
X157195465Y-77478477D01*
X157237224Y-77485091D01*
X157397648Y-77510500D01*
X157397649Y-77510500D01*
X157602351Y-77510500D01*
X157602352Y-77510500D01*
X157804534Y-77478477D01*
X157999219Y-77415220D01*
X158181610Y-77322287D01*
X158307257Y-77231000D01*
X158347213Y-77201971D01*
X158347215Y-77201968D01*
X158347219Y-77201966D01*
X158491966Y-77057219D01*
X158491968Y-77057215D01*
X158491971Y-77057213D01*
X158546917Y-76981585D01*
X158612287Y-76891610D01*
X158705220Y-76709219D01*
X158768477Y-76514534D01*
X158800500Y-76312352D01*
X158800500Y-75307648D01*
X158768477Y-75105466D01*
X158705220Y-74910781D01*
X158705218Y-74910778D01*
X158705218Y-74910776D01*
X158638989Y-74780795D01*
X158626093Y-74712126D01*
X158652369Y-74647385D01*
X158709476Y-74607128D01*
X158749474Y-74600500D01*
X162940526Y-74600500D01*
X163007565Y-74620185D01*
X163053320Y-74672989D01*
X163063264Y-74742147D01*
X163051011Y-74780795D01*
X162984781Y-74910776D01*
X162921522Y-75105465D01*
X162889500Y-75307648D01*
X162889500Y-76312351D01*
X162921522Y-76514534D01*
X162984781Y-76709223D01*
X163044798Y-76827011D01*
X163071703Y-76879815D01*
X163077715Y-76891613D01*
X163198028Y-77057213D01*
X163342786Y-77201971D01*
X163497749Y-77314556D01*
X163508390Y-77322287D01*
X163624607Y-77381503D01*
X163690776Y-77415218D01*
X163690778Y-77415218D01*
X163690781Y-77415220D01*
X163795137Y-77449127D01*
X163885465Y-77478477D01*
X163927224Y-77485091D01*
X164087648Y-77510500D01*
X164087649Y-77510500D01*
X164292351Y-77510500D01*
X164292352Y-77510500D01*
X164494534Y-77478477D01*
X164689219Y-77415220D01*
X164871610Y-77322287D01*
X164997257Y-77231000D01*
X165037213Y-77201971D01*
X165037215Y-77201968D01*
X165037219Y-77201966D01*
X165181966Y-77057219D01*
X165181968Y-77057215D01*
X165181971Y-77057213D01*
X165302284Y-76891614D01*
X165302285Y-76891613D01*
X165302287Y-76891610D01*
X165349516Y-76798917D01*
X165397489Y-76748123D01*
X165465310Y-76731328D01*
X165531445Y-76753865D01*
X165570485Y-76798919D01*
X165617715Y-76891614D01*
X165738028Y-77057213D01*
X165882786Y-77201971D01*
X166037749Y-77314556D01*
X166048390Y-77322287D01*
X166164607Y-77381503D01*
X166230776Y-77415218D01*
X166230778Y-77415218D01*
X166230781Y-77415220D01*
X166425466Y-77478477D01*
X166467237Y-77485093D01*
X166530368Y-77515020D01*
X166567300Y-77574331D01*
X166566304Y-77644193D01*
X166535518Y-77695246D01*
X164725413Y-79505350D01*
X164664090Y-79538835D01*
X164599415Y-79535600D01*
X164494535Y-79501523D01*
X164494530Y-79501522D01*
X164332892Y-79475921D01*
X164292352Y-79469500D01*
X164087648Y-79469500D01*
X164063329Y-79473351D01*
X163885465Y-79501522D01*
X163690776Y-79564781D01*
X163508386Y-79657715D01*
X163342786Y-79778028D01*
X163198028Y-79922786D01*
X163077715Y-80088386D01*
X162984781Y-80270776D01*
X162921522Y-80465465D01*
X162892374Y-80649500D01*
X162889500Y-80667648D01*
X162889500Y-80872352D01*
X162893507Y-80897648D01*
X162921522Y-81074534D01*
X162984781Y-81269223D01*
X163077715Y-81451613D01*
X163198028Y-81617213D01*
X163342786Y-81761971D01*
X163497749Y-81874556D01*
X163508390Y-81882287D01*
X163624607Y-81941503D01*
X163690776Y-81975218D01*
X163690778Y-81975218D01*
X163690781Y-81975220D01*
X163795137Y-82009127D01*
X163885465Y-82038477D01*
X163913555Y-82042926D01*
X164087648Y-82070500D01*
X164087649Y-82070500D01*
X164292351Y-82070500D01*
X164292352Y-82070500D01*
X164494534Y-82038477D01*
X164689219Y-81975220D01*
X164871610Y-81882287D01*
X164964590Y-81814732D01*
X165037213Y-81761971D01*
X165037215Y-81761968D01*
X165037219Y-81761966D01*
X165181966Y-81617219D01*
X165181968Y-81617215D01*
X165181971Y-81617213D01*
X165234732Y-81544590D01*
X165302287Y-81451610D01*
X165395220Y-81269219D01*
X165458477Y-81074534D01*
X165490500Y-80872352D01*
X165490500Y-80667648D01*
X165469083Y-80532434D01*
X165478037Y-80463145D01*
X165503872Y-80425361D01*
X168536980Y-77392253D01*
X168598301Y-77358770D01*
X168667993Y-77363754D01*
X168680954Y-77369451D01*
X168770776Y-77415218D01*
X168770778Y-77415218D01*
X168770781Y-77415220D01*
X168875137Y-77449127D01*
X168965465Y-77478477D01*
X169007224Y-77485091D01*
X169167648Y-77510500D01*
X169167649Y-77510500D01*
X169372351Y-77510500D01*
X169372352Y-77510500D01*
X169574534Y-77478477D01*
X169769219Y-77415220D01*
X169859043Y-77369451D01*
X169927712Y-77356555D01*
X169992453Y-77382831D01*
X170003020Y-77392255D01*
X170475139Y-77864374D01*
X170475149Y-77864385D01*
X170479479Y-77868715D01*
X170479480Y-77868716D01*
X170591284Y-77980520D01*
X170656917Y-78018412D01*
X170678095Y-78030639D01*
X170678097Y-78030641D01*
X170716151Y-78052611D01*
X170728215Y-78059577D01*
X170880943Y-78100501D01*
X170880946Y-78100501D01*
X171046653Y-78100501D01*
X171046669Y-78100500D01*
X193089281Y-78100500D01*
X193156320Y-78120185D01*
X193199765Y-78168205D01*
X193219947Y-78207814D01*
X193219948Y-78207815D01*
X193344890Y-78379786D01*
X193495209Y-78530105D01*
X193495214Y-78530109D01*
X193659793Y-78649682D01*
X193702459Y-78705011D01*
X193708438Y-78774625D01*
X193675833Y-78836420D01*
X193659793Y-78850318D01*
X193495214Y-78969890D01*
X193495209Y-78969894D01*
X193344890Y-79120213D01*
X193219951Y-79292179D01*
X193123444Y-79481585D01*
X193057753Y-79683760D01*
X193024500Y-79893713D01*
X193024500Y-80106286D01*
X193050552Y-80270776D01*
X193057754Y-80316243D01*
X193117714Y-80500781D01*
X193123444Y-80518414D01*
X193219951Y-80707820D01*
X193344890Y-80879786D01*
X193495213Y-81030109D01*
X193667179Y-81155048D01*
X193667181Y-81155049D01*
X193667184Y-81155051D01*
X193856588Y-81251557D01*
X194058757Y-81317246D01*
X194268713Y-81350500D01*
X194268714Y-81350500D01*
X194731286Y-81350500D01*
X194731287Y-81350500D01*
X194941243Y-81317246D01*
X195143412Y-81251557D01*
X195332816Y-81155051D01*
X195403011Y-81104052D01*
X195504786Y-81030109D01*
X195504788Y-81030106D01*
X195504792Y-81030104D01*
X195655104Y-80879792D01*
X195655106Y-80879788D01*
X195655109Y-80879786D01*
X195780048Y-80707820D01*
X195780047Y-80707820D01*
X195780051Y-80707816D01*
X195876557Y-80518412D01*
X195942246Y-80316243D01*
X195975500Y-80106287D01*
X195975500Y-79893713D01*
X195942246Y-79683757D01*
X195876557Y-79481588D01*
X195780051Y-79292184D01*
X195780049Y-79292181D01*
X195780048Y-79292179D01*
X195655109Y-79120213D01*
X195504792Y-78969896D01*
X195504784Y-78969890D01*
X195340204Y-78850316D01*
X195297540Y-78794989D01*
X195291561Y-78725376D01*
X195324166Y-78663580D01*
X195340199Y-78649686D01*
X195504792Y-78530104D01*
X195655104Y-78379792D01*
X195655106Y-78379788D01*
X195655109Y-78379786D01*
X195780048Y-78207820D01*
X195780047Y-78207820D01*
X195780051Y-78207816D01*
X195876557Y-78018412D01*
X195942246Y-77816243D01*
X195975500Y-77606287D01*
X195975500Y-77393713D01*
X195942246Y-77183757D01*
X195876557Y-76981588D01*
X195780051Y-76792184D01*
X195780049Y-76792181D01*
X195780048Y-76792179D01*
X195655109Y-76620213D01*
X195504792Y-76469896D01*
X195446536Y-76427571D01*
X195340204Y-76350316D01*
X195297540Y-76294989D01*
X195291561Y-76225376D01*
X195324166Y-76163580D01*
X195340199Y-76149686D01*
X195504792Y-76030104D01*
X195655104Y-75879792D01*
X195655106Y-75879788D01*
X195655109Y-75879786D01*
X195780048Y-75707820D01*
X195780047Y-75707820D01*
X195780051Y-75707816D01*
X195876557Y-75518412D01*
X195942246Y-75316243D01*
X195975500Y-75106287D01*
X195975500Y-74893713D01*
X195942246Y-74683757D01*
X195876557Y-74481588D01*
X195780051Y-74292184D01*
X195780049Y-74292181D01*
X195780048Y-74292179D01*
X195655109Y-74120213D01*
X195504792Y-73969896D01*
X195340204Y-73850316D01*
X195297540Y-73794989D01*
X195291561Y-73725376D01*
X195324166Y-73663580D01*
X195340199Y-73649686D01*
X195504792Y-73530104D01*
X195655104Y-73379792D01*
X195655106Y-73379788D01*
X195655109Y-73379786D01*
X195780048Y-73207820D01*
X195780047Y-73207820D01*
X195780051Y-73207816D01*
X195876557Y-73018412D01*
X195942246Y-72816243D01*
X195975500Y-72606287D01*
X195975500Y-72393713D01*
X195942246Y-72183757D01*
X195876557Y-71981588D01*
X195780051Y-71792184D01*
X195780049Y-71792181D01*
X195780048Y-71792179D01*
X195655109Y-71620213D01*
X195516294Y-71481398D01*
X195482809Y-71420075D01*
X195487793Y-71350383D01*
X195529665Y-71294450D01*
X195538879Y-71288178D01*
X195544331Y-71284814D01*
X195544334Y-71284814D01*
X195693656Y-71192712D01*
X195817712Y-71068656D01*
X195909814Y-70919334D01*
X195964999Y-70752797D01*
X195975500Y-70650009D01*
X195975499Y-69349992D01*
X195973151Y-69327011D01*
X195964999Y-69247203D01*
X195964998Y-69247200D01*
X195952805Y-69210403D01*
X195909814Y-69080666D01*
X195817712Y-68931344D01*
X195693656Y-68807288D01*
X195544334Y-68715186D01*
X195377797Y-68660001D01*
X195377795Y-68660000D01*
X195275010Y-68649500D01*
X193724998Y-68649500D01*
X193724981Y-68649501D01*
X193622203Y-68660000D01*
X193622200Y-68660001D01*
X193455668Y-68715185D01*
X193455663Y-68715187D01*
X193306342Y-68807289D01*
X193182289Y-68931342D01*
X193090187Y-69080663D01*
X193090185Y-69080668D01*
X193074867Y-69126895D01*
X193047196Y-69210403D01*
X193035001Y-69247204D01*
X193035000Y-69247205D01*
X193030823Y-69288102D01*
X193004427Y-69352793D01*
X192947247Y-69392945D01*
X192907465Y-69399500D01*
X186726412Y-69399500D01*
X186659373Y-69379815D01*
X186613618Y-69327011D01*
X186603054Y-69262898D01*
X186610499Y-69190018D01*
X186610500Y-69190009D01*
X186610499Y-67189992D01*
X186599999Y-67087203D01*
X186544814Y-66920666D01*
X186452712Y-66771344D01*
X186328656Y-66647288D01*
X186227314Y-66584780D01*
X186179336Y-66555187D01*
X186179331Y-66555185D01*
X186142037Y-66542827D01*
X186012797Y-66500001D01*
X186012795Y-66500000D01*
X185910010Y-66489500D01*
X184709998Y-66489500D01*
X184709981Y-66489501D01*
X184607203Y-66500000D01*
X184607200Y-66500001D01*
X184440668Y-66555185D01*
X184440659Y-66555189D01*
X184289596Y-66648366D01*
X184222204Y-66666806D01*
X184155541Y-66645883D01*
X184110771Y-66592241D01*
X184100500Y-66542827D01*
X184100500Y-63410718D01*
X184120185Y-63343679D01*
X184168207Y-63300233D01*
X184207815Y-63280052D01*
X184207815Y-63280051D01*
X184207816Y-63280051D01*
X184326728Y-63193657D01*
X184379786Y-63155109D01*
X184379788Y-63155106D01*
X184379792Y-63155104D01*
X184530104Y-63004792D01*
X184649991Y-62839779D01*
X184705320Y-62797115D01*
X184774933Y-62791136D01*
X184836729Y-62823741D01*
X184850627Y-62839781D01*
X184970272Y-63004459D01*
X184970276Y-63004464D01*
X185120535Y-63154723D01*
X185120540Y-63154727D01*
X185292442Y-63279620D01*
X185481782Y-63376095D01*
X185683871Y-63441757D01*
X185750000Y-63452231D01*
X185750000Y-62404145D01*
X185816657Y-62442630D01*
X185937465Y-62475000D01*
X186062535Y-62475000D01*
X186183343Y-62442630D01*
X186250000Y-62404145D01*
X186250000Y-63452231D01*
X186316126Y-63441757D01*
X186316129Y-63441757D01*
X186518217Y-63376095D01*
X186707557Y-63279620D01*
X186879459Y-63154727D01*
X186879464Y-63154723D01*
X187029723Y-63004464D01*
X187029727Y-63004459D01*
X187154620Y-62832557D01*
X187251095Y-62643217D01*
X187316757Y-62441130D01*
X187316757Y-62441127D01*
X187347030Y-62250000D01*
X186404146Y-62250000D01*
X186442630Y-62183343D01*
X186475000Y-62062535D01*
X186475000Y-61937465D01*
X186442630Y-61816657D01*
X186404146Y-61750000D01*
X187347030Y-61750000D01*
X187316757Y-61558872D01*
X187316757Y-61558869D01*
X187251095Y-61356782D01*
X187154620Y-61167442D01*
X187029727Y-60995540D01*
X187029723Y-60995535D01*
X186879464Y-60845276D01*
X186879459Y-60845272D01*
X186707557Y-60720379D01*
X186518215Y-60623903D01*
X186316124Y-60558241D01*
X186250000Y-60547768D01*
X186250000Y-61595854D01*
X186183343Y-61557370D01*
X186062535Y-61525000D01*
X185937465Y-61525000D01*
X185816657Y-61557370D01*
X185750000Y-61595854D01*
X185750000Y-60547768D01*
X185749999Y-60547768D01*
X185683875Y-60558241D01*
X185481784Y-60623903D01*
X185292442Y-60720379D01*
X185120540Y-60845272D01*
X185120535Y-60845276D01*
X184970276Y-60995535D01*
X184970272Y-60995540D01*
X184850627Y-61160218D01*
X184795297Y-61202884D01*
X184725684Y-61208863D01*
X184663889Y-61176257D01*
X184649991Y-61160218D01*
X184530109Y-60995214D01*
X184530105Y-60995209D01*
X184379786Y-60844890D01*
X184207820Y-60719951D01*
X184018414Y-60623444D01*
X184018413Y-60623443D01*
X184018412Y-60623443D01*
X183816243Y-60557754D01*
X183816241Y-60557753D01*
X183816240Y-60557753D01*
X183654957Y-60532208D01*
X183606287Y-60524500D01*
X183393713Y-60524500D01*
X183243897Y-60548228D01*
X183174604Y-60539273D01*
X183121152Y-60494277D01*
X183100513Y-60427525D01*
X183100500Y-60425755D01*
X183100500Y-58349601D01*
X183120185Y-58282562D01*
X183168206Y-58239116D01*
X183181610Y-58232287D01*
X183347219Y-58111966D01*
X183491966Y-57967219D01*
X183491968Y-57967215D01*
X183491971Y-57967213D01*
X183579150Y-57847219D01*
X183612287Y-57801610D01*
X183705220Y-57619219D01*
X183744209Y-57499223D01*
X183764550Y-57436622D01*
X183766444Y-57430788D01*
X183768477Y-57424534D01*
X183800500Y-57222352D01*
X183800500Y-57017648D01*
X183768477Y-56815466D01*
X183705220Y-56620781D01*
X183705218Y-56620778D01*
X183705218Y-56620776D01*
X183643678Y-56499999D01*
X183612287Y-56438390D01*
X183612285Y-56438387D01*
X183612284Y-56438385D01*
X183491971Y-56272786D01*
X183347213Y-56128028D01*
X183181613Y-56007715D01*
X183181612Y-56007714D01*
X183181610Y-56007713D01*
X183124653Y-55978691D01*
X182999223Y-55914781D01*
X182804534Y-55851522D01*
X182629995Y-55823878D01*
X182602352Y-55819500D01*
X182397648Y-55819500D01*
X182373329Y-55823351D01*
X182195465Y-55851522D01*
X182000776Y-55914781D01*
X181818386Y-56007715D01*
X181652786Y-56128028D01*
X181508028Y-56272786D01*
X181387715Y-56438386D01*
X181294781Y-56620776D01*
X181231522Y-56815465D01*
X181199500Y-57017648D01*
X181199500Y-57222351D01*
X181231522Y-57424534D01*
X181294781Y-57619223D01*
X181387715Y-57801613D01*
X181508028Y-57967213D01*
X181508034Y-57967219D01*
X181652781Y-58111966D01*
X181818390Y-58232287D01*
X181831793Y-58239116D01*
X181882589Y-58287088D01*
X181899500Y-58349601D01*
X181899500Y-60616583D01*
X181879815Y-60683622D01*
X181827011Y-60729377D01*
X181757853Y-60739321D01*
X181710716Y-60722314D01*
X181707559Y-60720379D01*
X181518215Y-60623903D01*
X181316124Y-60558241D01*
X181250000Y-60547768D01*
X181250000Y-61595854D01*
X181183343Y-61557370D01*
X181062535Y-61525000D01*
X180937465Y-61525000D01*
X180816657Y-61557370D01*
X180750000Y-61595854D01*
X180750000Y-60547768D01*
X180749999Y-60547768D01*
X180683875Y-60558241D01*
X180481784Y-60623903D01*
X180292442Y-60720379D01*
X180120541Y-60845271D01*
X179981668Y-60984144D01*
X179920345Y-61017628D01*
X179850653Y-61012644D01*
X179794720Y-60970772D01*
X179788448Y-60961558D01*
X179692712Y-60806344D01*
X179568657Y-60682289D01*
X179568656Y-60682288D01*
X179462131Y-60616583D01*
X179419336Y-60590187D01*
X179419331Y-60590185D01*
X179385740Y-60579054D01*
X179252797Y-60535001D01*
X179252795Y-60535000D01*
X179150016Y-60524500D01*
X179150009Y-60524500D01*
X178224500Y-60524500D01*
X178157461Y-60504815D01*
X178111706Y-60452011D01*
X178100500Y-60400500D01*
X178100500Y-58349601D01*
X178120185Y-58282562D01*
X178168206Y-58239116D01*
X178181610Y-58232287D01*
X178347219Y-58111966D01*
X178491966Y-57967219D01*
X178491968Y-57967215D01*
X178491971Y-57967213D01*
X178579150Y-57847219D01*
X178612287Y-57801610D01*
X178705220Y-57619219D01*
X178768477Y-57424534D01*
X178800500Y-57222352D01*
X178800500Y-57017648D01*
X178768477Y-56815466D01*
X178705220Y-56620781D01*
X178705218Y-56620778D01*
X178705218Y-56620776D01*
X178670511Y-56552661D01*
X178612287Y-56438390D01*
X178587290Y-56403984D01*
X178491971Y-56272786D01*
X178347213Y-56128028D01*
X178181613Y-56007715D01*
X178181612Y-56007714D01*
X178181610Y-56007713D01*
X178124653Y-55978691D01*
X177999223Y-55914781D01*
X177804534Y-55851522D01*
X177629995Y-55823878D01*
X177602352Y-55819500D01*
X177397648Y-55819500D01*
X177373329Y-55823351D01*
X177195465Y-55851522D01*
X177000776Y-55914781D01*
X176818386Y-56007715D01*
X176652786Y-56128028D01*
X176508028Y-56272786D01*
X176387715Y-56438386D01*
X176294781Y-56620776D01*
X176231522Y-56815465D01*
X176199500Y-57017648D01*
X176199500Y-57222351D01*
X176231522Y-57424534D01*
X176294781Y-57619223D01*
X176387715Y-57801613D01*
X176508028Y-57967213D01*
X176508034Y-57967219D01*
X176652781Y-58111966D01*
X176818390Y-58232287D01*
X176831793Y-58239116D01*
X176882589Y-58287088D01*
X176899500Y-58349601D01*
X176899500Y-60913330D01*
X176899499Y-60913348D01*
X176899499Y-61079054D01*
X176899498Y-61079054D01*
X176940423Y-61231786D01*
X176950170Y-61248667D01*
X176952553Y-61252795D01*
X176955395Y-61257716D01*
X176955396Y-61257721D01*
X176955398Y-61257721D01*
X177019479Y-61368714D01*
X177019481Y-61368717D01*
X177113181Y-61462417D01*
X177146666Y-61523740D01*
X177149500Y-61550098D01*
X177149500Y-62775001D01*
X177149501Y-62775018D01*
X177160000Y-62877796D01*
X177160001Y-62877799D01*
X177205749Y-63015856D01*
X177215186Y-63044334D01*
X177307288Y-63193656D01*
X177431344Y-63317712D01*
X177580666Y-63409814D01*
X177747203Y-63464999D01*
X177849991Y-63475500D01*
X179150008Y-63475499D01*
X179252797Y-63464999D01*
X179419334Y-63409814D01*
X179568656Y-63317712D01*
X179692712Y-63193656D01*
X179784814Y-63044334D01*
X179784814Y-63044331D01*
X179788448Y-63038441D01*
X179840395Y-62991716D01*
X179909358Y-62980493D01*
X179973440Y-63008336D01*
X179981668Y-63015856D01*
X180120535Y-63154723D01*
X180120540Y-63154727D01*
X180292442Y-63279620D01*
X180481782Y-63376095D01*
X180683871Y-63441757D01*
X180750000Y-63452231D01*
X180750000Y-62404145D01*
X180816657Y-62442630D01*
X180937465Y-62475000D01*
X181062535Y-62475000D01*
X181183343Y-62442630D01*
X181250000Y-62404145D01*
X181250000Y-63452230D01*
X181316126Y-63441757D01*
X181316129Y-63441757D01*
X181518217Y-63376095D01*
X181707557Y-63279620D01*
X181879459Y-63154727D01*
X181879464Y-63154723D01*
X182029721Y-63004466D01*
X182149371Y-62839781D01*
X182204701Y-62797115D01*
X182274314Y-62791136D01*
X182336110Y-62823741D01*
X182350008Y-62839781D01*
X182469890Y-63004785D01*
X182469894Y-63004790D01*
X182620213Y-63155109D01*
X182792184Y-63280051D01*
X182792184Y-63280052D01*
X182831793Y-63300233D01*
X182882590Y-63348206D01*
X182899500Y-63410718D01*
X182899500Y-66365500D01*
X182879815Y-66432539D01*
X182827011Y-66478294D01*
X182775500Y-66489500D01*
X182667648Y-66489500D01*
X182643329Y-66493351D01*
X182465465Y-66521522D01*
X182270776Y-66584781D01*
X182088386Y-66677715D01*
X181922786Y-66798028D01*
X181778028Y-66942786D01*
X181657715Y-67108386D01*
X181610485Y-67201080D01*
X181562510Y-67251876D01*
X181494689Y-67268671D01*
X181428554Y-67246134D01*
X181389515Y-67201080D01*
X181342419Y-67108650D01*
X181342287Y-67108390D01*
X181334556Y-67097749D01*
X181221971Y-66942786D01*
X181077213Y-66798028D01*
X180911613Y-66677715D01*
X180911612Y-66677714D01*
X180911610Y-66677713D01*
X180849140Y-66645883D01*
X180729223Y-66584781D01*
X180534534Y-66521522D01*
X180359494Y-66493799D01*
X180332352Y-66489500D01*
X180127648Y-66489500D01*
X180103329Y-66493351D01*
X179925465Y-66521522D01*
X179730776Y-66584781D01*
X179548386Y-66677715D01*
X179382786Y-66798028D01*
X179238028Y-66942786D01*
X179117715Y-67108386D01*
X179070485Y-67201080D01*
X179022510Y-67251876D01*
X178954689Y-67268671D01*
X178888554Y-67246134D01*
X178849515Y-67201080D01*
X178802419Y-67108650D01*
X178802287Y-67108390D01*
X178794556Y-67097749D01*
X178681971Y-66942786D01*
X178537213Y-66798028D01*
X178371613Y-66677715D01*
X178371612Y-66677714D01*
X178371610Y-66677713D01*
X178309140Y-66645883D01*
X178189223Y-66584781D01*
X177994534Y-66521522D01*
X177819494Y-66493799D01*
X177792352Y-66489500D01*
X177587648Y-66489500D01*
X177563329Y-66493351D01*
X177385465Y-66521522D01*
X177190776Y-66584781D01*
X177008386Y-66677715D01*
X176842786Y-66798028D01*
X176698028Y-66942786D01*
X176577715Y-67108386D01*
X176484781Y-67290776D01*
X176421522Y-67485465D01*
X176389500Y-67687648D01*
X176389500Y-68692351D01*
X176421522Y-68894534D01*
X176484781Y-69089223D01*
X176551011Y-69219205D01*
X176563907Y-69287874D01*
X176537631Y-69352615D01*
X176480524Y-69392872D01*
X176440526Y-69399500D01*
X173225908Y-69399500D01*
X173158869Y-69379815D01*
X173113114Y-69327011D01*
X173102550Y-69262896D01*
X173109999Y-69189983D01*
X173110000Y-69189973D01*
X173110000Y-68440000D01*
X172125686Y-68440000D01*
X172130080Y-68435606D01*
X172182741Y-68344394D01*
X172210000Y-68242661D01*
X172210000Y-68137339D01*
X172182741Y-68035606D01*
X172130080Y-67944394D01*
X172125686Y-67940000D01*
X173109999Y-67940000D01*
X173109999Y-67190028D01*
X173109998Y-67190013D01*
X173099505Y-67087302D01*
X173044358Y-66920880D01*
X173044356Y-66920875D01*
X172952315Y-66771654D01*
X172828345Y-66647684D01*
X172679124Y-66555643D01*
X172679119Y-66555641D01*
X172512697Y-66500494D01*
X172512690Y-66500493D01*
X172409986Y-66490000D01*
X172060000Y-66490000D01*
X172060000Y-67874314D01*
X172055606Y-67869920D01*
X171964394Y-67817259D01*
X171862661Y-67790000D01*
X171757339Y-67790000D01*
X171655606Y-67817259D01*
X171564394Y-67869920D01*
X171560000Y-67874314D01*
X171560000Y-66490000D01*
X171210028Y-66490000D01*
X171210012Y-66490001D01*
X171107302Y-66500494D01*
X170940880Y-66555641D01*
X170940875Y-66555643D01*
X170791654Y-66647684D01*
X170667684Y-66771654D01*
X170575643Y-66920875D01*
X170575641Y-66920880D01*
X170548407Y-67003068D01*
X170508634Y-67060513D01*
X170444118Y-67087336D01*
X170375342Y-67075021D01*
X170330382Y-67036949D01*
X170322498Y-67026098D01*
X170261966Y-66942781D01*
X170117219Y-66798034D01*
X170117213Y-66798028D01*
X169951610Y-66677712D01*
X169938200Y-66670879D01*
X169887406Y-66622903D01*
X169870500Y-66560397D01*
X169870500Y-63204050D01*
X169890185Y-63137011D01*
X169942989Y-63091256D01*
X170012147Y-63081312D01*
X170075703Y-63110337D01*
X170082181Y-63116369D01*
X170120535Y-63154723D01*
X170120540Y-63154727D01*
X170292442Y-63279620D01*
X170481782Y-63376095D01*
X170683871Y-63441757D01*
X170750000Y-63452231D01*
X170750000Y-62404145D01*
X170816657Y-62442630D01*
X170937465Y-62475000D01*
X171062535Y-62475000D01*
X171183343Y-62442630D01*
X171250000Y-62404145D01*
X171250000Y-63452231D01*
X171316126Y-63441757D01*
X171316129Y-63441757D01*
X171518217Y-63376095D01*
X171707557Y-63279620D01*
X171879459Y-63154727D01*
X171879464Y-63154723D01*
X172029723Y-63004464D01*
X172029727Y-63004459D01*
X172154620Y-62832557D01*
X172251095Y-62643217D01*
X172316757Y-62441130D01*
X172316757Y-62441127D01*
X172347030Y-62250000D01*
X171404146Y-62250000D01*
X171442630Y-62183343D01*
X171475000Y-62062535D01*
X171475000Y-61937465D01*
X171442630Y-61816657D01*
X171404146Y-61750000D01*
X172347030Y-61750000D01*
X172316757Y-61558872D01*
X172316757Y-61558869D01*
X172251095Y-61356782D01*
X172154620Y-61167442D01*
X172029727Y-60995540D01*
X172029723Y-60995535D01*
X171879464Y-60845276D01*
X171879459Y-60845272D01*
X171707557Y-60720379D01*
X171518215Y-60623903D01*
X171316124Y-60558241D01*
X171250000Y-60547768D01*
X171250000Y-61595854D01*
X171183343Y-61557370D01*
X171062535Y-61525000D01*
X170937465Y-61525000D01*
X170816657Y-61557370D01*
X170750000Y-61595854D01*
X170750000Y-60547768D01*
X170749999Y-60547768D01*
X170683875Y-60558241D01*
X170481784Y-60623903D01*
X170292442Y-60720379D01*
X170120540Y-60845272D01*
X170120535Y-60845276D01*
X169970276Y-60995535D01*
X169970272Y-60995540D01*
X169850627Y-61160218D01*
X169795297Y-61202884D01*
X169725684Y-61208863D01*
X169663889Y-61176257D01*
X169649991Y-61160218D01*
X169530109Y-60995214D01*
X169530105Y-60995209D01*
X169379786Y-60844890D01*
X169207820Y-60719951D01*
X169018414Y-60623444D01*
X169018413Y-60623443D01*
X169018412Y-60623443D01*
X168816243Y-60557754D01*
X168816241Y-60557753D01*
X168816240Y-60557753D01*
X168654957Y-60532208D01*
X168606287Y-60524500D01*
X168393713Y-60524500D01*
X168345042Y-60532208D01*
X168183760Y-60557753D01*
X168183757Y-60557754D01*
X168047129Y-60602147D01*
X167977290Y-60604142D01*
X167921132Y-60571897D01*
X167636819Y-60287584D01*
X167603334Y-60226261D01*
X167600500Y-60199903D01*
X167600500Y-58349601D01*
X167620185Y-58282562D01*
X167668206Y-58239116D01*
X167681610Y-58232287D01*
X167847219Y-58111966D01*
X167991966Y-57967219D01*
X167991968Y-57967215D01*
X167991971Y-57967213D01*
X168079150Y-57847219D01*
X168112287Y-57801610D01*
X168205220Y-57619219D01*
X168268477Y-57424534D01*
X168300500Y-57222352D01*
X168300500Y-57017648D01*
X168268477Y-56815466D01*
X168205220Y-56620781D01*
X168205218Y-56620778D01*
X168205218Y-56620776D01*
X168170511Y-56552661D01*
X168112287Y-56438390D01*
X168087290Y-56403984D01*
X167991971Y-56272786D01*
X167847213Y-56128028D01*
X167681613Y-56007715D01*
X167681612Y-56007714D01*
X167681610Y-56007713D01*
X167624653Y-55978691D01*
X167499223Y-55914781D01*
X167304534Y-55851522D01*
X167129995Y-55823878D01*
X167102352Y-55819500D01*
X166897648Y-55819500D01*
X166873329Y-55823351D01*
X166695465Y-55851522D01*
X166500776Y-55914781D01*
X166318386Y-56007715D01*
X166152786Y-56128028D01*
X166008028Y-56272786D01*
X165887715Y-56438386D01*
X165794781Y-56620776D01*
X165731522Y-56815465D01*
X165699500Y-57017648D01*
X165699500Y-57222351D01*
X165731522Y-57424534D01*
X165794781Y-57619223D01*
X165887715Y-57801613D01*
X166008028Y-57967213D01*
X166008034Y-57967219D01*
X166152781Y-58111966D01*
X166318390Y-58232287D01*
X166331793Y-58239116D01*
X166382589Y-58287088D01*
X166399500Y-58349601D01*
X166399500Y-60413340D01*
X166399499Y-60425765D01*
X166389244Y-60460680D01*
X166379814Y-60492794D01*
X166379810Y-60492796D01*
X166379809Y-60492803D01*
X166349039Y-60519461D01*
X166327010Y-60538549D01*
X166327006Y-60538549D01*
X166327001Y-60538554D01*
X166291123Y-60543708D01*
X166257852Y-60548493D01*
X166256101Y-60548228D01*
X166150751Y-60531542D01*
X166106287Y-60524500D01*
X165893713Y-60524500D01*
X165845042Y-60532208D01*
X165683760Y-60557753D01*
X165481585Y-60623444D01*
X165292179Y-60719951D01*
X165120215Y-60844889D01*
X164981398Y-60983706D01*
X164920075Y-61017190D01*
X164850383Y-61012206D01*
X164794450Y-60970334D01*
X164788178Y-60961120D01*
X164692712Y-60806344D01*
X164568657Y-60682289D01*
X164568656Y-60682288D01*
X164462131Y-60616583D01*
X164419336Y-60590187D01*
X164419331Y-60590185D01*
X164385740Y-60579054D01*
X164252797Y-60535001D01*
X164252795Y-60535000D01*
X164150016Y-60524500D01*
X164150009Y-60524500D01*
X162925097Y-60524500D01*
X162858058Y-60504815D01*
X162837416Y-60488181D01*
X162636819Y-60287584D01*
X162603334Y-60226261D01*
X162600500Y-60199903D01*
X162600500Y-58349601D01*
X162620185Y-58282562D01*
X162668206Y-58239116D01*
X162681610Y-58232287D01*
X162847219Y-58111966D01*
X162991966Y-57967219D01*
X162991968Y-57967215D01*
X162991971Y-57967213D01*
X163079150Y-57847219D01*
X163112287Y-57801610D01*
X163205220Y-57619219D01*
X163268477Y-57424534D01*
X163300500Y-57222352D01*
X163300500Y-57017648D01*
X163268477Y-56815466D01*
X163205220Y-56620781D01*
X163205218Y-56620778D01*
X163205218Y-56620776D01*
X163170511Y-56552661D01*
X163112287Y-56438390D01*
X163087290Y-56403984D01*
X162991971Y-56272786D01*
X162847213Y-56128028D01*
X162681613Y-56007715D01*
X162681612Y-56007714D01*
X162681610Y-56007713D01*
X162624653Y-55978691D01*
X162499223Y-55914781D01*
X162304534Y-55851522D01*
X162129995Y-55823878D01*
X162102352Y-55819500D01*
X161897648Y-55819500D01*
X161873329Y-55823351D01*
X161695465Y-55851522D01*
X161500776Y-55914781D01*
X161318386Y-56007715D01*
X161152786Y-56128028D01*
X161008028Y-56272786D01*
X160887715Y-56438386D01*
X160794781Y-56620776D01*
X160731522Y-56815465D01*
X160699500Y-57017648D01*
X160699500Y-57222351D01*
X160731522Y-57424534D01*
X160794781Y-57619223D01*
X160887715Y-57801613D01*
X161008028Y-57967213D01*
X161008034Y-57967219D01*
X161152781Y-58111966D01*
X161318390Y-58232287D01*
X161331793Y-58239116D01*
X161382589Y-58287088D01*
X161399500Y-58349601D01*
X161399500Y-60413330D01*
X161399499Y-60413340D01*
X161399499Y-60579054D01*
X161399498Y-60579054D01*
X161440424Y-60731789D01*
X161440425Y-60731790D01*
X161461455Y-60768214D01*
X161461456Y-60768216D01*
X161519475Y-60868709D01*
X161519481Y-60868717D01*
X161638349Y-60987585D01*
X161638355Y-60987590D01*
X162113181Y-61462416D01*
X162146666Y-61523739D01*
X162149500Y-61550097D01*
X162149500Y-62775001D01*
X162149501Y-62775018D01*
X162160000Y-62877796D01*
X162160001Y-62877799D01*
X162205749Y-63015856D01*
X162215186Y-63044334D01*
X162307288Y-63193656D01*
X162431344Y-63317712D01*
X162580666Y-63409814D01*
X162747203Y-63464999D01*
X162849991Y-63475500D01*
X164150008Y-63475499D01*
X164252797Y-63464999D01*
X164419334Y-63409814D01*
X164568656Y-63317712D01*
X164692712Y-63193656D01*
X164784814Y-63044334D01*
X164784814Y-63044331D01*
X164788178Y-63038879D01*
X164840126Y-62992154D01*
X164909088Y-62980931D01*
X164973170Y-63008774D01*
X164981398Y-63016294D01*
X165120213Y-63155109D01*
X165292179Y-63280048D01*
X165292181Y-63280049D01*
X165292184Y-63280051D01*
X165481588Y-63376557D01*
X165683757Y-63442246D01*
X165893713Y-63475500D01*
X165893714Y-63475500D01*
X166106286Y-63475500D01*
X166106287Y-63475500D01*
X166316243Y-63442246D01*
X166518412Y-63376557D01*
X166707816Y-63280051D01*
X166749178Y-63250000D01*
X166879786Y-63155109D01*
X166879788Y-63155106D01*
X166879792Y-63155104D01*
X167030104Y-63004792D01*
X167149683Y-62840204D01*
X167205011Y-62797540D01*
X167274624Y-62791561D01*
X167336420Y-62824166D01*
X167350313Y-62840199D01*
X167452242Y-62980493D01*
X167469896Y-63004792D01*
X167620213Y-63155109D01*
X167792179Y-63280048D01*
X167792181Y-63280049D01*
X167792184Y-63280051D01*
X167981588Y-63376557D01*
X168183757Y-63442246D01*
X168393713Y-63475500D01*
X168393714Y-63475500D01*
X168545500Y-63475500D01*
X168612539Y-63495185D01*
X168658294Y-63547989D01*
X168669500Y-63599500D01*
X168669500Y-66560397D01*
X168649815Y-66627436D01*
X168601800Y-66670879D01*
X168588389Y-66677712D01*
X168422786Y-66798028D01*
X168278028Y-66942786D01*
X168157715Y-67108386D01*
X168110485Y-67201080D01*
X168062510Y-67251876D01*
X167994689Y-67268671D01*
X167928554Y-67246134D01*
X167889515Y-67201080D01*
X167842419Y-67108650D01*
X167842287Y-67108390D01*
X167834556Y-67097749D01*
X167721971Y-66942786D01*
X167577213Y-66798028D01*
X167411613Y-66677715D01*
X167411612Y-66677714D01*
X167411610Y-66677713D01*
X167349140Y-66645883D01*
X167229223Y-66584781D01*
X167034534Y-66521522D01*
X166859494Y-66493799D01*
X166832352Y-66489500D01*
X166627648Y-66489500D01*
X166603329Y-66493351D01*
X166425465Y-66521522D01*
X166230776Y-66584781D01*
X166048386Y-66677715D01*
X165882786Y-66798028D01*
X165738028Y-66942786D01*
X165617713Y-67108388D01*
X165570203Y-67201630D01*
X165522228Y-67252426D01*
X165454407Y-67269220D01*
X165388272Y-67246682D01*
X165349234Y-67201628D01*
X165301861Y-67108652D01*
X165181582Y-66943105D01*
X165181582Y-66943104D01*
X165036895Y-66798417D01*
X164871349Y-66678140D01*
X164689029Y-66585244D01*
X164494413Y-66522009D01*
X164440000Y-66513390D01*
X164440000Y-67874314D01*
X164435606Y-67869920D01*
X164344394Y-67817259D01*
X164242661Y-67790000D01*
X164137339Y-67790000D01*
X164035606Y-67817259D01*
X163944394Y-67869920D01*
X163940000Y-67874314D01*
X163940000Y-66513390D01*
X163885586Y-66522009D01*
X163690970Y-66585244D01*
X163508650Y-66678140D01*
X163343105Y-66798417D01*
X163343104Y-66798417D01*
X163198417Y-66943104D01*
X163198417Y-66943105D01*
X163078140Y-67108650D01*
X162985244Y-67290968D01*
X162922009Y-67485582D01*
X162890000Y-67687682D01*
X162890000Y-67940000D01*
X163874314Y-67940000D01*
X163869920Y-67944394D01*
X163817259Y-68035606D01*
X163790000Y-68137339D01*
X163790000Y-68242661D01*
X163817259Y-68344394D01*
X163869920Y-68435606D01*
X163874314Y-68440000D01*
X162890000Y-68440000D01*
X162890000Y-68692317D01*
X162922009Y-68894417D01*
X162985244Y-69089031D01*
X163051572Y-69219205D01*
X163064468Y-69287874D01*
X163038192Y-69352615D01*
X162981085Y-69392872D01*
X162941087Y-69399500D01*
X158915908Y-69399500D01*
X158848869Y-69379815D01*
X158803114Y-69327011D01*
X158792550Y-69262896D01*
X158799999Y-69189983D01*
X158800000Y-69189973D01*
X158800000Y-68440000D01*
X157815686Y-68440000D01*
X157820080Y-68435606D01*
X157872741Y-68344394D01*
X157900000Y-68242661D01*
X157900000Y-68137339D01*
X157872741Y-68035606D01*
X157820080Y-67944394D01*
X157815686Y-67940000D01*
X158799999Y-67940000D01*
X158799999Y-67190028D01*
X158799998Y-67190013D01*
X158789505Y-67087302D01*
X158734358Y-66920880D01*
X158734356Y-66920875D01*
X158642315Y-66771654D01*
X158518345Y-66647684D01*
X158369124Y-66555643D01*
X158369119Y-66555641D01*
X158202697Y-66500494D01*
X158202690Y-66500493D01*
X158099986Y-66490000D01*
X157750000Y-66490000D01*
X157750000Y-67874314D01*
X157745606Y-67869920D01*
X157654394Y-67817259D01*
X157552661Y-67790000D01*
X157447339Y-67790000D01*
X157345606Y-67817259D01*
X157254394Y-67869920D01*
X157250000Y-67874314D01*
X157250000Y-66490000D01*
X156900028Y-66490000D01*
X156900012Y-66490001D01*
X156797302Y-66500494D01*
X156630880Y-66555641D01*
X156630875Y-66555643D01*
X156481654Y-66647684D01*
X156357684Y-66771654D01*
X156265643Y-66920875D01*
X156265641Y-66920880D01*
X156238407Y-67003068D01*
X156198634Y-67060513D01*
X156134118Y-67087336D01*
X156065342Y-67075021D01*
X156020382Y-67036949D01*
X156012498Y-67026098D01*
X155951966Y-66942781D01*
X155807219Y-66798034D01*
X155807213Y-66798028D01*
X155641613Y-66677715D01*
X155641612Y-66677714D01*
X155641610Y-66677713D01*
X155459219Y-66584780D01*
X155264534Y-66521523D01*
X155264531Y-66521522D01*
X155264532Y-66521522D01*
X155205101Y-66512109D01*
X155141966Y-66482179D01*
X155105036Y-66422867D01*
X155100500Y-66389636D01*
X155100500Y-63410718D01*
X155120185Y-63343679D01*
X155168207Y-63300233D01*
X155207815Y-63280052D01*
X155207815Y-63280051D01*
X155207816Y-63280051D01*
X155326728Y-63193657D01*
X155379786Y-63155109D01*
X155379788Y-63155106D01*
X155379792Y-63155104D01*
X155530104Y-63004792D01*
X155649991Y-62839779D01*
X155705320Y-62797115D01*
X155774933Y-62791136D01*
X155836729Y-62823741D01*
X155850627Y-62839781D01*
X155970272Y-63004459D01*
X155970276Y-63004464D01*
X156120535Y-63154723D01*
X156120540Y-63154727D01*
X156292442Y-63279620D01*
X156481782Y-63376095D01*
X156683871Y-63441757D01*
X156750000Y-63452231D01*
X156750000Y-62404145D01*
X156816657Y-62442630D01*
X156937465Y-62475000D01*
X157062535Y-62475000D01*
X157183343Y-62442630D01*
X157250000Y-62404145D01*
X157250000Y-63452230D01*
X157316126Y-63441757D01*
X157316129Y-63441757D01*
X157518217Y-63376095D01*
X157707557Y-63279620D01*
X157879459Y-63154727D01*
X157879464Y-63154723D01*
X158029723Y-63004464D01*
X158029727Y-63004459D01*
X158154620Y-62832557D01*
X158251095Y-62643217D01*
X158316757Y-62441130D01*
X158316757Y-62441127D01*
X158347030Y-62250000D01*
X157404146Y-62250000D01*
X157442630Y-62183343D01*
X157475000Y-62062535D01*
X157475000Y-61937465D01*
X157442630Y-61816657D01*
X157404146Y-61750000D01*
X158347030Y-61750000D01*
X158316757Y-61558872D01*
X158316757Y-61558869D01*
X158251095Y-61356782D01*
X158154620Y-61167442D01*
X158029727Y-60995540D01*
X158029723Y-60995535D01*
X157879464Y-60845276D01*
X157879459Y-60845272D01*
X157707557Y-60720379D01*
X157518215Y-60623903D01*
X157316124Y-60558241D01*
X157250000Y-60547768D01*
X157250000Y-61595854D01*
X157183343Y-61557370D01*
X157062535Y-61525000D01*
X156937465Y-61525000D01*
X156816657Y-61557370D01*
X156750000Y-61595854D01*
X156750000Y-60547768D01*
X156749999Y-60547768D01*
X156683875Y-60558241D01*
X156481784Y-60623903D01*
X156292442Y-60720379D01*
X156120540Y-60845272D01*
X156120535Y-60845276D01*
X155970276Y-60995535D01*
X155970272Y-60995540D01*
X155850627Y-61160218D01*
X155795297Y-61202884D01*
X155725684Y-61208863D01*
X155663889Y-61176257D01*
X155649991Y-61160218D01*
X155530109Y-60995214D01*
X155530105Y-60995209D01*
X155379786Y-60844890D01*
X155207820Y-60719951D01*
X155018414Y-60623444D01*
X155018413Y-60623443D01*
X155018412Y-60623443D01*
X154816243Y-60557754D01*
X154816241Y-60557753D01*
X154816240Y-60557753D01*
X154654957Y-60532208D01*
X154606287Y-60524500D01*
X154393713Y-60524500D01*
X154345042Y-60532208D01*
X154183760Y-60557753D01*
X154183757Y-60557754D01*
X154047129Y-60602147D01*
X153977290Y-60604142D01*
X153921132Y-60571897D01*
X153636819Y-60287584D01*
X153603334Y-60226261D01*
X153600500Y-60199903D01*
X153600500Y-58349601D01*
X153620185Y-58282562D01*
X153668206Y-58239116D01*
X153681610Y-58232287D01*
X153847219Y-58111966D01*
X153991966Y-57967219D01*
X153991968Y-57967215D01*
X153991971Y-57967213D01*
X154079150Y-57847219D01*
X154112287Y-57801610D01*
X154205220Y-57619219D01*
X154268477Y-57424534D01*
X154300500Y-57222352D01*
X154300500Y-57017648D01*
X154268477Y-56815466D01*
X154205220Y-56620781D01*
X154205218Y-56620778D01*
X154205218Y-56620776D01*
X154170511Y-56552661D01*
X154112287Y-56438390D01*
X154087290Y-56403984D01*
X153991971Y-56272786D01*
X153847213Y-56128028D01*
X153681613Y-56007715D01*
X153681612Y-56007714D01*
X153681610Y-56007713D01*
X153624653Y-55978691D01*
X153499223Y-55914781D01*
X153304534Y-55851522D01*
X153129995Y-55823878D01*
X153102352Y-55819500D01*
X152897648Y-55819500D01*
X152873329Y-55823351D01*
X152695465Y-55851522D01*
X152500776Y-55914781D01*
X152318386Y-56007715D01*
X152152786Y-56128028D01*
X152008028Y-56272786D01*
X151887715Y-56438386D01*
X151794781Y-56620776D01*
X151731522Y-56815465D01*
X151699500Y-57017648D01*
X151699500Y-57222351D01*
X151731522Y-57424534D01*
X151794781Y-57619223D01*
X151887715Y-57801613D01*
X152008028Y-57967213D01*
X152008034Y-57967219D01*
X152152781Y-58111966D01*
X152318390Y-58232287D01*
X152331793Y-58239116D01*
X152382589Y-58287088D01*
X152399500Y-58349601D01*
X152399500Y-60413340D01*
X152399499Y-60426271D01*
X152389244Y-60461187D01*
X152379814Y-60493300D01*
X152379810Y-60493302D01*
X152379809Y-60493309D01*
X152349623Y-60519461D01*
X152327010Y-60539055D01*
X152327005Y-60539055D01*
X152327002Y-60539059D01*
X152295656Y-60543563D01*
X152257852Y-60548999D01*
X152256101Y-60548734D01*
X152250000Y-60547767D01*
X152250000Y-61595854D01*
X152183343Y-61557370D01*
X152062535Y-61525000D01*
X151937465Y-61525000D01*
X151816657Y-61557370D01*
X151750000Y-61595854D01*
X151750000Y-60547768D01*
X151749999Y-60547768D01*
X151683875Y-60558241D01*
X151481784Y-60623903D01*
X151292442Y-60720379D01*
X151120541Y-60845271D01*
X150981668Y-60984144D01*
X150920345Y-61017628D01*
X150850653Y-61012644D01*
X150794720Y-60970772D01*
X150788448Y-60961558D01*
X150692712Y-60806344D01*
X150568657Y-60682289D01*
X150568656Y-60682288D01*
X150462131Y-60616583D01*
X150419336Y-60590187D01*
X150419331Y-60590185D01*
X150385740Y-60579054D01*
X150252797Y-60535001D01*
X150252795Y-60535000D01*
X150150016Y-60524500D01*
X150150009Y-60524500D01*
X148925097Y-60524500D01*
X148858058Y-60504815D01*
X148837416Y-60488181D01*
X148636819Y-60287584D01*
X148603334Y-60226261D01*
X148600500Y-60199903D01*
X148600500Y-58349601D01*
X148620185Y-58282562D01*
X148668206Y-58239116D01*
X148681610Y-58232287D01*
X148847219Y-58111966D01*
X148991966Y-57967219D01*
X148991968Y-57967215D01*
X148991971Y-57967213D01*
X149079150Y-57847219D01*
X149112287Y-57801610D01*
X149205220Y-57619219D01*
X149268477Y-57424534D01*
X149300500Y-57222352D01*
X149300500Y-57017648D01*
X149268477Y-56815466D01*
X149205220Y-56620781D01*
X149205218Y-56620778D01*
X149205218Y-56620776D01*
X149170511Y-56552661D01*
X149112287Y-56438390D01*
X149087290Y-56403984D01*
X148991971Y-56272786D01*
X148847213Y-56128028D01*
X148681613Y-56007715D01*
X148681612Y-56007714D01*
X148681610Y-56007713D01*
X148624653Y-55978691D01*
X148499223Y-55914781D01*
X148304534Y-55851522D01*
X148129995Y-55823878D01*
X148102352Y-55819500D01*
X147897648Y-55819500D01*
X147873329Y-55823351D01*
X147695465Y-55851522D01*
X147500776Y-55914781D01*
X147318386Y-56007715D01*
X147152786Y-56128028D01*
X147008028Y-56272786D01*
X146887715Y-56438386D01*
X146794781Y-56620776D01*
X146731522Y-56815465D01*
X146699500Y-57017648D01*
X146699500Y-57222351D01*
X146731522Y-57424534D01*
X146794781Y-57619223D01*
X146887715Y-57801613D01*
X147008028Y-57967213D01*
X147008034Y-57967219D01*
X147152781Y-58111966D01*
X147318390Y-58232287D01*
X147331793Y-58239116D01*
X147382589Y-58287088D01*
X147399500Y-58349601D01*
X147399500Y-60413330D01*
X147399499Y-60413340D01*
X147399499Y-60579054D01*
X147399498Y-60579054D01*
X147440424Y-60731789D01*
X147440425Y-60731790D01*
X147461455Y-60768214D01*
X147461456Y-60768216D01*
X147519475Y-60868709D01*
X147519481Y-60868717D01*
X147638349Y-60987585D01*
X147638355Y-60987590D01*
X148113181Y-61462416D01*
X148146666Y-61523739D01*
X148149500Y-61550097D01*
X148149500Y-62775001D01*
X148149501Y-62775018D01*
X148160000Y-62877796D01*
X148160001Y-62877799D01*
X148205749Y-63015856D01*
X148215186Y-63044334D01*
X148307288Y-63193656D01*
X148431344Y-63317712D01*
X148580666Y-63409814D01*
X148747203Y-63464999D01*
X148849991Y-63475500D01*
X150150008Y-63475499D01*
X150252797Y-63464999D01*
X150419334Y-63409814D01*
X150568656Y-63317712D01*
X150692712Y-63193656D01*
X150784814Y-63044334D01*
X150784814Y-63044331D01*
X150788448Y-63038441D01*
X150840395Y-62991716D01*
X150909358Y-62980493D01*
X150973440Y-63008336D01*
X150981668Y-63015856D01*
X151120535Y-63154723D01*
X151120540Y-63154727D01*
X151292442Y-63279620D01*
X151481782Y-63376095D01*
X151683871Y-63441757D01*
X151750000Y-63452231D01*
X151750000Y-62404145D01*
X151816657Y-62442630D01*
X151937465Y-62475000D01*
X152062535Y-62475000D01*
X152183343Y-62442630D01*
X152250000Y-62404145D01*
X152250000Y-63452230D01*
X152316126Y-63441757D01*
X152316129Y-63441757D01*
X152518217Y-63376095D01*
X152707557Y-63279620D01*
X152879459Y-63154727D01*
X152879464Y-63154723D01*
X153029721Y-63004466D01*
X153149371Y-62839781D01*
X153204701Y-62797115D01*
X153274314Y-62791136D01*
X153336110Y-62823741D01*
X153350008Y-62839781D01*
X153469890Y-63004785D01*
X153469894Y-63004790D01*
X153620213Y-63155109D01*
X153792184Y-63280051D01*
X153792184Y-63280052D01*
X153831793Y-63300233D01*
X153882590Y-63348206D01*
X153899500Y-63410718D01*
X153899500Y-66996820D01*
X153895342Y-67012322D01*
X153895994Y-67026098D01*
X153885658Y-67048437D01*
X153882864Y-67058859D01*
X153879620Y-67064472D01*
X153847713Y-67108390D01*
X153799007Y-67203979D01*
X153797364Y-67206824D01*
X153774347Y-67228753D01*
X153752510Y-67251876D01*
X153749227Y-67252688D01*
X153746780Y-67255021D01*
X153715556Y-67261027D01*
X153684689Y-67268671D01*
X153681488Y-67267580D01*
X153678168Y-67268219D01*
X153648664Y-67256394D01*
X153618554Y-67246134D01*
X153616155Y-67243366D01*
X153613313Y-67242227D01*
X153604791Y-67230250D01*
X153579515Y-67201080D01*
X153532419Y-67108650D01*
X153532287Y-67108390D01*
X153524556Y-67097749D01*
X153411971Y-66942786D01*
X153267213Y-66798028D01*
X153101613Y-66677715D01*
X153101612Y-66677714D01*
X153101610Y-66677713D01*
X153039140Y-66645883D01*
X152919223Y-66584781D01*
X152724534Y-66521522D01*
X152549494Y-66493799D01*
X152522352Y-66489500D01*
X152317648Y-66489500D01*
X152293329Y-66493351D01*
X152115465Y-66521522D01*
X151920776Y-66584781D01*
X151738386Y-66677715D01*
X151572786Y-66798028D01*
X151428028Y-66942786D01*
X151307713Y-67108388D01*
X151260203Y-67201630D01*
X151212228Y-67252426D01*
X151144407Y-67269220D01*
X151078272Y-67246682D01*
X151039234Y-67201628D01*
X150991861Y-67108652D01*
X150871582Y-66943105D01*
X150871582Y-66943104D01*
X150726895Y-66798417D01*
X150561349Y-66678140D01*
X150379029Y-66585244D01*
X150184413Y-66522009D01*
X150130000Y-66513390D01*
X150130000Y-67874314D01*
X150125606Y-67869920D01*
X150034394Y-67817259D01*
X149932661Y-67790000D01*
X149827339Y-67790000D01*
X149725606Y-67817259D01*
X149634394Y-67869920D01*
X149630000Y-67874314D01*
X149630000Y-66513390D01*
X149575586Y-66522009D01*
X149380970Y-66585244D01*
X149198650Y-66678140D01*
X149033105Y-66798417D01*
X149033104Y-66798417D01*
X148888417Y-66943104D01*
X148888417Y-66943105D01*
X148768140Y-67108650D01*
X148675244Y-67290968D01*
X148612009Y-67485582D01*
X148580000Y-67687682D01*
X148580000Y-67940000D01*
X149564314Y-67940000D01*
X149559920Y-67944394D01*
X149507259Y-68035606D01*
X149480000Y-68137339D01*
X149480000Y-68242661D01*
X149507259Y-68344394D01*
X149559920Y-68435606D01*
X149564314Y-68440000D01*
X148580000Y-68440000D01*
X148580000Y-68692317D01*
X148612009Y-68894417D01*
X148675244Y-69089031D01*
X148741572Y-69219205D01*
X148754468Y-69287874D01*
X148728192Y-69352615D01*
X148671085Y-69392872D01*
X148631087Y-69399500D01*
X144802098Y-69399500D01*
X144735059Y-69379815D01*
X144689304Y-69327011D01*
X144679360Y-69257853D01*
X144696559Y-69210403D01*
X144734356Y-69149124D01*
X144734358Y-69149119D01*
X144789505Y-68982697D01*
X144789506Y-68982690D01*
X144799999Y-68879986D01*
X144800000Y-68879973D01*
X144800000Y-68130000D01*
X143815686Y-68130000D01*
X143820080Y-68125606D01*
X143872741Y-68034394D01*
X143900000Y-67932661D01*
X143900000Y-67827339D01*
X143872741Y-67725606D01*
X143820080Y-67634394D01*
X143815686Y-67630000D01*
X144799999Y-67630000D01*
X144799999Y-66880028D01*
X144799998Y-66880013D01*
X144789505Y-66777302D01*
X144734358Y-66610880D01*
X144734356Y-66610875D01*
X144642315Y-66461654D01*
X144518345Y-66337684D01*
X144369124Y-66245643D01*
X144369119Y-66245641D01*
X144202697Y-66190494D01*
X144202690Y-66190493D01*
X144099986Y-66180000D01*
X143750000Y-66180000D01*
X143750000Y-67564314D01*
X143745606Y-67559920D01*
X143654394Y-67507259D01*
X143552661Y-67480000D01*
X143447339Y-67480000D01*
X143345606Y-67507259D01*
X143254394Y-67559920D01*
X143250000Y-67564314D01*
X143250000Y-66180000D01*
X142900028Y-66180000D01*
X142900012Y-66180001D01*
X142797302Y-66190494D01*
X142630880Y-66245641D01*
X142630875Y-66245643D01*
X142481654Y-66337684D01*
X142357684Y-66461654D01*
X142265643Y-66610875D01*
X142265641Y-66610880D01*
X142238407Y-66693068D01*
X142198634Y-66750513D01*
X142134118Y-66777336D01*
X142065342Y-66765021D01*
X142020382Y-66726949D01*
X142012498Y-66716098D01*
X141951966Y-66632781D01*
X141807219Y-66488034D01*
X141807213Y-66488028D01*
X141641613Y-66367715D01*
X141641612Y-66367714D01*
X141641610Y-66367713D01*
X141459219Y-66274780D01*
X141264534Y-66211523D01*
X141264531Y-66211522D01*
X141264532Y-66211522D01*
X141205101Y-66202109D01*
X141141966Y-66172179D01*
X141105036Y-66112867D01*
X141100500Y-66079636D01*
X141100500Y-63410718D01*
X141120185Y-63343679D01*
X141168207Y-63300233D01*
X141207815Y-63280052D01*
X141207815Y-63280051D01*
X141207816Y-63280051D01*
X141326728Y-63193657D01*
X141379786Y-63155109D01*
X141379788Y-63155106D01*
X141379792Y-63155104D01*
X141530104Y-63004792D01*
X141649991Y-62839779D01*
X141705320Y-62797115D01*
X141774933Y-62791136D01*
X141836729Y-62823741D01*
X141850627Y-62839781D01*
X141970272Y-63004459D01*
X141970276Y-63004464D01*
X142120535Y-63154723D01*
X142120540Y-63154727D01*
X142292442Y-63279620D01*
X142481782Y-63376095D01*
X142683871Y-63441757D01*
X142750000Y-63452231D01*
X142750000Y-62404145D01*
X142816657Y-62442630D01*
X142937465Y-62475000D01*
X143062535Y-62475000D01*
X143183343Y-62442630D01*
X143250000Y-62404145D01*
X143250000Y-63452231D01*
X143316126Y-63441757D01*
X143316129Y-63441757D01*
X143518217Y-63376095D01*
X143707557Y-63279620D01*
X143879459Y-63154727D01*
X143879464Y-63154723D01*
X144029723Y-63004464D01*
X144029727Y-63004459D01*
X144154620Y-62832557D01*
X144251095Y-62643217D01*
X144316757Y-62441130D01*
X144316757Y-62441127D01*
X144347030Y-62250000D01*
X143404146Y-62250000D01*
X143442630Y-62183343D01*
X143475000Y-62062535D01*
X143475000Y-61937465D01*
X143442630Y-61816657D01*
X143404146Y-61750000D01*
X144347030Y-61750000D01*
X144316757Y-61558872D01*
X144316757Y-61558869D01*
X144251095Y-61356782D01*
X144154620Y-61167442D01*
X144029727Y-60995540D01*
X144029723Y-60995535D01*
X143879464Y-60845276D01*
X143879459Y-60845272D01*
X143707557Y-60720379D01*
X143518215Y-60623903D01*
X143316124Y-60558241D01*
X143250000Y-60547768D01*
X143250000Y-61595854D01*
X143183343Y-61557370D01*
X143062535Y-61525000D01*
X142937465Y-61525000D01*
X142816657Y-61557370D01*
X142750000Y-61595854D01*
X142750000Y-60547768D01*
X142749999Y-60547768D01*
X142683875Y-60558241D01*
X142481784Y-60623903D01*
X142292442Y-60720379D01*
X142120540Y-60845272D01*
X142120535Y-60845276D01*
X141970276Y-60995535D01*
X141970272Y-60995540D01*
X141850627Y-61160218D01*
X141795297Y-61202884D01*
X141725684Y-61208863D01*
X141663889Y-61176257D01*
X141649991Y-61160218D01*
X141530109Y-60995214D01*
X141530105Y-60995209D01*
X141379786Y-60844890D01*
X141207820Y-60719951D01*
X141018414Y-60623444D01*
X141018413Y-60623443D01*
X141018412Y-60623443D01*
X140816243Y-60557754D01*
X140816241Y-60557753D01*
X140816240Y-60557753D01*
X140654957Y-60532208D01*
X140606287Y-60524500D01*
X140393713Y-60524500D01*
X140345042Y-60532208D01*
X140183760Y-60557753D01*
X140183757Y-60557754D01*
X140047129Y-60602147D01*
X139977290Y-60604142D01*
X139921132Y-60571897D01*
X139636819Y-60287584D01*
X139603334Y-60226261D01*
X139600500Y-60199903D01*
X139600500Y-58229601D01*
X139620185Y-58162562D01*
X139668206Y-58119116D01*
X139681610Y-58112287D01*
X139847219Y-57991966D01*
X139991966Y-57847219D01*
X139991968Y-57847215D01*
X139991971Y-57847213D01*
X140084395Y-57720000D01*
X140112287Y-57681610D01*
X140205220Y-57499219D01*
X140268477Y-57304534D01*
X140300500Y-57102352D01*
X140300500Y-56897648D01*
X140288214Y-56820080D01*
X140268477Y-56695465D01*
X140205218Y-56500776D01*
X140126154Y-56345606D01*
X140112287Y-56318390D01*
X140079154Y-56272786D01*
X139991971Y-56152786D01*
X139847213Y-56008028D01*
X139681613Y-55887715D01*
X139681612Y-55887714D01*
X139681610Y-55887713D01*
X139610583Y-55851523D01*
X139499223Y-55794781D01*
X139304534Y-55731522D01*
X139129995Y-55703878D01*
X139102352Y-55699500D01*
X138897648Y-55699500D01*
X138873329Y-55703351D01*
X138695465Y-55731522D01*
X138500776Y-55794781D01*
X138318386Y-55887715D01*
X138152786Y-56008028D01*
X138008028Y-56152786D01*
X137887715Y-56318386D01*
X137794781Y-56500776D01*
X137731522Y-56695465D01*
X137699500Y-56897648D01*
X137699500Y-57102351D01*
X137731522Y-57304534D01*
X137794781Y-57499223D01*
X137855923Y-57619219D01*
X137880906Y-57668251D01*
X137887715Y-57681613D01*
X138008028Y-57847213D01*
X138008034Y-57847219D01*
X138152781Y-57991966D01*
X138318390Y-58112287D01*
X138331793Y-58119116D01*
X138382589Y-58167088D01*
X138399500Y-58229601D01*
X138399500Y-60413340D01*
X138399499Y-60426271D01*
X138389244Y-60461187D01*
X138379814Y-60493300D01*
X138379810Y-60493302D01*
X138379809Y-60493309D01*
X138349623Y-60519461D01*
X138327010Y-60539055D01*
X138327005Y-60539055D01*
X138327002Y-60539059D01*
X138295656Y-60543563D01*
X138257852Y-60548999D01*
X138256101Y-60548734D01*
X138250000Y-60547767D01*
X138250000Y-61595854D01*
X138183343Y-61557370D01*
X138062535Y-61525000D01*
X137937465Y-61525000D01*
X137816657Y-61557370D01*
X137750000Y-61595854D01*
X137750000Y-60547768D01*
X137749999Y-60547768D01*
X137683875Y-60558241D01*
X137481784Y-60623903D01*
X137292442Y-60720379D01*
X137120541Y-60845271D01*
X136981668Y-60984144D01*
X136920345Y-61017628D01*
X136850653Y-61012644D01*
X136794720Y-60970772D01*
X136788448Y-60961558D01*
X136692712Y-60806344D01*
X136568657Y-60682289D01*
X136568656Y-60682288D01*
X136462131Y-60616583D01*
X136419336Y-60590187D01*
X136419331Y-60590185D01*
X136385740Y-60579054D01*
X136252797Y-60535001D01*
X136252795Y-60535000D01*
X136150016Y-60524500D01*
X136150009Y-60524500D01*
X134925097Y-60524500D01*
X134858058Y-60504815D01*
X134837416Y-60488181D01*
X134636819Y-60287584D01*
X134603334Y-60226261D01*
X134600500Y-60199903D01*
X134600500Y-58349601D01*
X134620185Y-58282562D01*
X134668206Y-58239116D01*
X134681610Y-58232287D01*
X134847219Y-58111966D01*
X134991966Y-57967219D01*
X134991968Y-57967215D01*
X134991971Y-57967213D01*
X135079150Y-57847219D01*
X135112287Y-57801610D01*
X135205220Y-57619219D01*
X135268477Y-57424534D01*
X135300500Y-57222352D01*
X135300500Y-57017648D01*
X135268477Y-56815466D01*
X135205220Y-56620781D01*
X135205218Y-56620778D01*
X135205218Y-56620776D01*
X135170511Y-56552661D01*
X135112287Y-56438390D01*
X135087290Y-56403984D01*
X134991971Y-56272786D01*
X134847213Y-56128028D01*
X134681613Y-56007715D01*
X134681612Y-56007714D01*
X134681610Y-56007713D01*
X134624653Y-55978691D01*
X134499223Y-55914781D01*
X134304534Y-55851522D01*
X134129995Y-55823878D01*
X134102352Y-55819500D01*
X133897648Y-55819500D01*
X133873329Y-55823351D01*
X133695465Y-55851522D01*
X133500776Y-55914781D01*
X133318386Y-56007715D01*
X133152786Y-56128028D01*
X133008028Y-56272786D01*
X132887715Y-56438386D01*
X132794781Y-56620776D01*
X132731522Y-56815465D01*
X132699500Y-57017648D01*
X132699500Y-57222351D01*
X132731522Y-57424534D01*
X132794781Y-57619223D01*
X132887715Y-57801613D01*
X133008028Y-57967213D01*
X133008034Y-57967219D01*
X133152781Y-58111966D01*
X133318390Y-58232287D01*
X133331793Y-58239116D01*
X133382589Y-58287088D01*
X133399500Y-58349601D01*
X133399500Y-60413330D01*
X133399499Y-60413340D01*
X133399499Y-60579054D01*
X133399498Y-60579054D01*
X133440424Y-60731789D01*
X133440425Y-60731790D01*
X133461455Y-60768214D01*
X133461456Y-60768216D01*
X133519475Y-60868709D01*
X133519481Y-60868717D01*
X133638349Y-60987585D01*
X133638355Y-60987590D01*
X134113181Y-61462416D01*
X134146666Y-61523739D01*
X134149500Y-61550097D01*
X134149500Y-62775001D01*
X134149501Y-62775018D01*
X134160000Y-62877796D01*
X134160001Y-62877799D01*
X134205749Y-63015856D01*
X134215186Y-63044334D01*
X134307288Y-63193656D01*
X134431344Y-63317712D01*
X134580666Y-63409814D01*
X134747203Y-63464999D01*
X134849991Y-63475500D01*
X136150008Y-63475499D01*
X136252797Y-63464999D01*
X136419334Y-63409814D01*
X136568656Y-63317712D01*
X136692712Y-63193656D01*
X136784814Y-63044334D01*
X136784814Y-63044331D01*
X136788448Y-63038441D01*
X136840395Y-62991716D01*
X136909358Y-62980493D01*
X136973440Y-63008336D01*
X136981668Y-63015856D01*
X137120535Y-63154723D01*
X137120540Y-63154727D01*
X137292442Y-63279620D01*
X137481782Y-63376095D01*
X137683871Y-63441757D01*
X137750000Y-63452231D01*
X137750000Y-62404145D01*
X137816657Y-62442630D01*
X137937465Y-62475000D01*
X138062535Y-62475000D01*
X138183343Y-62442630D01*
X138250000Y-62404145D01*
X138250000Y-63452231D01*
X138316126Y-63441757D01*
X138316129Y-63441757D01*
X138518217Y-63376095D01*
X138707557Y-63279620D01*
X138879459Y-63154727D01*
X138879464Y-63154723D01*
X139029721Y-63004466D01*
X139149371Y-62839781D01*
X139204701Y-62797115D01*
X139274314Y-62791136D01*
X139336110Y-62823741D01*
X139350008Y-62839781D01*
X139469890Y-63004785D01*
X139469894Y-63004790D01*
X139620213Y-63155109D01*
X139792184Y-63280051D01*
X139792184Y-63280052D01*
X139831793Y-63300233D01*
X139882590Y-63348206D01*
X139899500Y-63410718D01*
X139899500Y-66686820D01*
X139895342Y-66702322D01*
X139895994Y-66716098D01*
X139885658Y-66738437D01*
X139882864Y-66748859D01*
X139879620Y-66754472D01*
X139847713Y-66798390D01*
X139799007Y-66893979D01*
X139797364Y-66896824D01*
X139774347Y-66918753D01*
X139752510Y-66941876D01*
X139749227Y-66942688D01*
X139746780Y-66945021D01*
X139715556Y-66951027D01*
X139684689Y-66958671D01*
X139681488Y-66957580D01*
X139678168Y-66958219D01*
X139648664Y-66946394D01*
X139618554Y-66936134D01*
X139616155Y-66933366D01*
X139613313Y-66932227D01*
X139604791Y-66920250D01*
X139579515Y-66891080D01*
X139573678Y-66879625D01*
X139532287Y-66798390D01*
X139520648Y-66782370D01*
X139411971Y-66632786D01*
X139267213Y-66488028D01*
X139101613Y-66367715D01*
X139101612Y-66367714D01*
X139101610Y-66367713D01*
X139042675Y-66337684D01*
X138919223Y-66274781D01*
X138724534Y-66211522D01*
X138549995Y-66183878D01*
X138522352Y-66179500D01*
X138317648Y-66179500D01*
X138293329Y-66183351D01*
X138115465Y-66211522D01*
X137920776Y-66274781D01*
X137738386Y-66367715D01*
X137572786Y-66488028D01*
X137428028Y-66632786D01*
X137307713Y-66798388D01*
X137260203Y-66891630D01*
X137212228Y-66942426D01*
X137144407Y-66959220D01*
X137078272Y-66936682D01*
X137039234Y-66891628D01*
X136991861Y-66798652D01*
X136871582Y-66633105D01*
X136871582Y-66633104D01*
X136726895Y-66488417D01*
X136561349Y-66368140D01*
X136379029Y-66275244D01*
X136184413Y-66212009D01*
X136130000Y-66203390D01*
X136130000Y-67564314D01*
X136125606Y-67559920D01*
X136034394Y-67507259D01*
X135932661Y-67480000D01*
X135827339Y-67480000D01*
X135725606Y-67507259D01*
X135634394Y-67559920D01*
X135630000Y-67564314D01*
X135630000Y-66203390D01*
X135575586Y-66212009D01*
X135380970Y-66275244D01*
X135198650Y-66368140D01*
X135033105Y-66488417D01*
X135033104Y-66488417D01*
X134888417Y-66633104D01*
X134888417Y-66633105D01*
X134768140Y-66798650D01*
X134675244Y-66980968D01*
X134612009Y-67175582D01*
X134580000Y-67377682D01*
X134580000Y-67630000D01*
X135564314Y-67630000D01*
X135559920Y-67634394D01*
X135507259Y-67725606D01*
X135480000Y-67827339D01*
X135480000Y-67932661D01*
X135507259Y-68034394D01*
X135559920Y-68125606D01*
X135564314Y-68130000D01*
X134580000Y-68130000D01*
X134580000Y-68382317D01*
X134612009Y-68584417D01*
X134675244Y-68779031D01*
X134768140Y-68961349D01*
X134888417Y-69126894D01*
X134888417Y-69126895D01*
X134949341Y-69187819D01*
X134982826Y-69249142D01*
X134977842Y-69318834D01*
X134935970Y-69374767D01*
X134870506Y-69399184D01*
X134861660Y-69399500D01*
X132729057Y-69399500D01*
X132570943Y-69399500D01*
X132418215Y-69440423D01*
X132385461Y-69459334D01*
X132341432Y-69484754D01*
X132281285Y-69519479D01*
X132281282Y-69519481D01*
X127735842Y-74064922D01*
X127674519Y-74098407D01*
X127604827Y-74093423D01*
X127575277Y-74077560D01*
X127451612Y-73987714D01*
X127269223Y-73894781D01*
X127074534Y-73831522D01*
X126899995Y-73803878D01*
X126872352Y-73799500D01*
X126667648Y-73799500D01*
X126643329Y-73803351D01*
X126465465Y-73831522D01*
X126270776Y-73894781D01*
X126088386Y-73987715D01*
X125922786Y-74108028D01*
X125778028Y-74252786D01*
X125657715Y-74418386D01*
X125610485Y-74511080D01*
X125562510Y-74561876D01*
X125494689Y-74578671D01*
X125428554Y-74556134D01*
X125389515Y-74511080D01*
X125374488Y-74481588D01*
X125342287Y-74418390D01*
X125334556Y-74407749D01*
X125221971Y-74252786D01*
X125077213Y-74108028D01*
X124911613Y-73987715D01*
X124911612Y-73987714D01*
X124911610Y-73987713D01*
X124854653Y-73958691D01*
X124729223Y-73894781D01*
X124534534Y-73831522D01*
X124359995Y-73803878D01*
X124332352Y-73799500D01*
X124127648Y-73799500D01*
X124103329Y-73803351D01*
X123925465Y-73831522D01*
X123730776Y-73894781D01*
X123548386Y-73987715D01*
X123382786Y-74108028D01*
X123238028Y-74252786D01*
X123117715Y-74418386D01*
X123070485Y-74511080D01*
X123022510Y-74561876D01*
X122954689Y-74578671D01*
X122888554Y-74556134D01*
X122849515Y-74511080D01*
X122834488Y-74481588D01*
X122802287Y-74418390D01*
X122794556Y-74407749D01*
X122681971Y-74252786D01*
X122537213Y-74108028D01*
X122371613Y-73987715D01*
X122371612Y-73987714D01*
X122371610Y-73987713D01*
X122314653Y-73958691D01*
X122189223Y-73894781D01*
X121994534Y-73831522D01*
X121819995Y-73803878D01*
X121792352Y-73799500D01*
X121587648Y-73799500D01*
X121563329Y-73803351D01*
X121385465Y-73831522D01*
X121190776Y-73894781D01*
X121008386Y-73987715D01*
X120842786Y-74108028D01*
X120698028Y-74252786D01*
X120577715Y-74418386D01*
X120484781Y-74600776D01*
X120421522Y-74795465D01*
X120389500Y-74997648D01*
X120389500Y-76002352D01*
X120393878Y-76029995D01*
X120421522Y-76204534D01*
X120484781Y-76399223D01*
X120577715Y-76581613D01*
X120698028Y-76747213D01*
X120842786Y-76891971D01*
X120966132Y-76981585D01*
X121008390Y-77012287D01*
X121096574Y-77057219D01*
X121190776Y-77105218D01*
X121190778Y-77105218D01*
X121190781Y-77105220D01*
X121283792Y-77135441D01*
X121385465Y-77168477D01*
X121486557Y-77184488D01*
X121587648Y-77200500D01*
X121587649Y-77200500D01*
X121792351Y-77200500D01*
X121792352Y-77200500D01*
X121994534Y-77168477D01*
X122189219Y-77105220D01*
X122371610Y-77012287D01*
X122464590Y-76944732D01*
X122537213Y-76891971D01*
X122537215Y-76891968D01*
X122537219Y-76891966D01*
X122681966Y-76747219D01*
X122681968Y-76747215D01*
X122681971Y-76747213D01*
X122802284Y-76581614D01*
X122802285Y-76581613D01*
X122802287Y-76581610D01*
X122849516Y-76488917D01*
X122897489Y-76438123D01*
X122965310Y-76421328D01*
X123031445Y-76443865D01*
X123070483Y-76488917D01*
X123083536Y-76514534D01*
X123117715Y-76581614D01*
X123238028Y-76747213D01*
X123382786Y-76891971D01*
X123506132Y-76981585D01*
X123548390Y-77012287D01*
X123636574Y-77057219D01*
X123730776Y-77105218D01*
X123730778Y-77105218D01*
X123730781Y-77105220D01*
X123823792Y-77135441D01*
X123925465Y-77168477D01*
X124026557Y-77184488D01*
X124127648Y-77200500D01*
X124127649Y-77200500D01*
X124300902Y-77200500D01*
X124367941Y-77220185D01*
X124413696Y-77272989D01*
X124423640Y-77342147D01*
X124394615Y-77405703D01*
X124388583Y-77412181D01*
X122324842Y-79475921D01*
X122263519Y-79509406D01*
X122198848Y-79506173D01*
X122184534Y-79501522D01*
X122009995Y-79473878D01*
X121982352Y-79469500D01*
X121777648Y-79469500D01*
X121753329Y-79473351D01*
X121575465Y-79501522D01*
X121380776Y-79564781D01*
X121198386Y-79657715D01*
X121032786Y-79778028D01*
X120888028Y-79922786D01*
X120767713Y-80088388D01*
X120751648Y-80119916D01*
X120703672Y-80170711D01*
X120635851Y-80187504D01*
X120569716Y-80164964D01*
X120553484Y-80151299D01*
X116136819Y-75734634D01*
X116103334Y-75673311D01*
X116100500Y-75646953D01*
X116100500Y-66849409D01*
X116120185Y-66782370D01*
X116168204Y-66738924D01*
X116332816Y-66655051D01*
X116393613Y-66610880D01*
X116504786Y-66530109D01*
X116504788Y-66530106D01*
X116504792Y-66530104D01*
X116655104Y-66379792D01*
X116655106Y-66379788D01*
X116655109Y-66379786D01*
X116780048Y-66207820D01*
X116780047Y-66207820D01*
X116780051Y-66207816D01*
X116876557Y-66018412D01*
X116942246Y-65816243D01*
X116975500Y-65606287D01*
X116975500Y-65393713D01*
X116942246Y-65183757D01*
X116876557Y-64981588D01*
X116780051Y-64792184D01*
X116780049Y-64792181D01*
X116780048Y-64792179D01*
X116655109Y-64620213D01*
X116504790Y-64469894D01*
X116504785Y-64469890D01*
X116339781Y-64350008D01*
X116297115Y-64294678D01*
X116291136Y-64225065D01*
X116323741Y-64163270D01*
X116339781Y-64149371D01*
X116504466Y-64029721D01*
X116654723Y-63879464D01*
X116654727Y-63879459D01*
X116779620Y-63707557D01*
X116876095Y-63518217D01*
X116941757Y-63316129D01*
X116941757Y-63316126D01*
X116952231Y-63250000D01*
X115904146Y-63250000D01*
X115942630Y-63183343D01*
X115975000Y-63062535D01*
X115975000Y-62937465D01*
X115942630Y-62816657D01*
X115904146Y-62750000D01*
X116952231Y-62750000D01*
X116941757Y-62683873D01*
X116941757Y-62683870D01*
X116876095Y-62481782D01*
X116779620Y-62292442D01*
X116654727Y-62120540D01*
X116654723Y-62120535D01*
X116515856Y-61981668D01*
X116482371Y-61920345D01*
X116487355Y-61850653D01*
X116529227Y-61794720D01*
X116538441Y-61788448D01*
X116544331Y-61784814D01*
X116544334Y-61784814D01*
X116693656Y-61692712D01*
X116817712Y-61568656D01*
X116909814Y-61419334D01*
X116964999Y-61252797D01*
X116975500Y-61150009D01*
X116975499Y-59849992D01*
X116964999Y-59747203D01*
X116909814Y-59580666D01*
X116817712Y-59431344D01*
X116693656Y-59307288D01*
X116544334Y-59215186D01*
X116377797Y-59160001D01*
X116377795Y-59160000D01*
X116275016Y-59149500D01*
X116275009Y-59149500D01*
X116224500Y-59149500D01*
X116157461Y-59129815D01*
X116111706Y-59077011D01*
X116100500Y-59025500D01*
X116100500Y-57017648D01*
X118699500Y-57017648D01*
X118699500Y-57222351D01*
X118731522Y-57424534D01*
X118794781Y-57619223D01*
X118887715Y-57801613D01*
X119008028Y-57967213D01*
X119008034Y-57967219D01*
X119152781Y-58111966D01*
X119318390Y-58232287D01*
X119331793Y-58239116D01*
X119382589Y-58287088D01*
X119399500Y-58349601D01*
X119399500Y-60413330D01*
X119399499Y-60413340D01*
X119399499Y-60579054D01*
X119399498Y-60579054D01*
X119440424Y-60731789D01*
X119440425Y-60731790D01*
X119461455Y-60768214D01*
X119461456Y-60768216D01*
X119519475Y-60868709D01*
X119519481Y-60868717D01*
X119638349Y-60987585D01*
X119638355Y-60987590D01*
X120113181Y-61462416D01*
X120146666Y-61523739D01*
X120149500Y-61550097D01*
X120149500Y-62775001D01*
X120149501Y-62775018D01*
X120160000Y-62877796D01*
X120160001Y-62877799D01*
X120205749Y-63015856D01*
X120215186Y-63044334D01*
X120307288Y-63193656D01*
X120431344Y-63317712D01*
X120580666Y-63409814D01*
X120747203Y-63464999D01*
X120849991Y-63475500D01*
X122150008Y-63475499D01*
X122252797Y-63464999D01*
X122419334Y-63409814D01*
X122568656Y-63317712D01*
X122692712Y-63193656D01*
X122784814Y-63044334D01*
X122784814Y-63044331D01*
X122788448Y-63038441D01*
X122840395Y-62991716D01*
X122909358Y-62980493D01*
X122973440Y-63008336D01*
X122981668Y-63015856D01*
X123120535Y-63154723D01*
X123120540Y-63154727D01*
X123292442Y-63279620D01*
X123481782Y-63376095D01*
X123683871Y-63441757D01*
X123750000Y-63452231D01*
X123750000Y-62404145D01*
X123816657Y-62442630D01*
X123937465Y-62475000D01*
X124062535Y-62475000D01*
X124183343Y-62442630D01*
X124250000Y-62404145D01*
X124250000Y-63452230D01*
X124316126Y-63441757D01*
X124316129Y-63441757D01*
X124518217Y-63376095D01*
X124707557Y-63279620D01*
X124879459Y-63154727D01*
X124879464Y-63154723D01*
X125029721Y-63004466D01*
X125149371Y-62839781D01*
X125204701Y-62797115D01*
X125274314Y-62791136D01*
X125336110Y-62823741D01*
X125350008Y-62839781D01*
X125469890Y-63004785D01*
X125469894Y-63004790D01*
X125620213Y-63155109D01*
X125792179Y-63280048D01*
X125792181Y-63280049D01*
X125792184Y-63280051D01*
X125862985Y-63316126D01*
X125981587Y-63376557D01*
X125981593Y-63376559D01*
X126083817Y-63409773D01*
X126141493Y-63449210D01*
X126168692Y-63513568D01*
X126169500Y-63527704D01*
X126169500Y-66250397D01*
X126149815Y-66317436D01*
X126101800Y-66360879D01*
X126088389Y-66367712D01*
X125922786Y-66488028D01*
X125778028Y-66632786D01*
X125657715Y-66798386D01*
X125610485Y-66891080D01*
X125562510Y-66941876D01*
X125494689Y-66958671D01*
X125428554Y-66936134D01*
X125389515Y-66891080D01*
X125383678Y-66879625D01*
X125342287Y-66798390D01*
X125330648Y-66782370D01*
X125221971Y-66632786D01*
X125077213Y-66488028D01*
X124911613Y-66367715D01*
X124911612Y-66367714D01*
X124911610Y-66367713D01*
X124852675Y-66337684D01*
X124729223Y-66274781D01*
X124534534Y-66211522D01*
X124359995Y-66183878D01*
X124332352Y-66179500D01*
X124127648Y-66179500D01*
X124103329Y-66183351D01*
X123925465Y-66211522D01*
X123730776Y-66274781D01*
X123548386Y-66367715D01*
X123382786Y-66488028D01*
X123238028Y-66632786D01*
X123117713Y-66798388D01*
X123070203Y-66891630D01*
X123022228Y-66942426D01*
X122954407Y-66959220D01*
X122888272Y-66936682D01*
X122849234Y-66891628D01*
X122801861Y-66798652D01*
X122681582Y-66633105D01*
X122681582Y-66633104D01*
X122536895Y-66488417D01*
X122371349Y-66368140D01*
X122189029Y-66275244D01*
X121994413Y-66212009D01*
X121940000Y-66203390D01*
X121940000Y-67564314D01*
X121935606Y-67559920D01*
X121844394Y-67507259D01*
X121742661Y-67480000D01*
X121637339Y-67480000D01*
X121535606Y-67507259D01*
X121444394Y-67559920D01*
X121440000Y-67564314D01*
X121440000Y-66203390D01*
X121385586Y-66212009D01*
X121190970Y-66275244D01*
X121008650Y-66368140D01*
X120843105Y-66488417D01*
X120843104Y-66488417D01*
X120698417Y-66633104D01*
X120698417Y-66633105D01*
X120578140Y-66798650D01*
X120485244Y-66980968D01*
X120422009Y-67175582D01*
X120390000Y-67377682D01*
X120390000Y-67630000D01*
X121374314Y-67630000D01*
X121369920Y-67634394D01*
X121317259Y-67725606D01*
X121290000Y-67827339D01*
X121290000Y-67932661D01*
X121317259Y-68034394D01*
X121369920Y-68125606D01*
X121374314Y-68130000D01*
X120390000Y-68130000D01*
X120390000Y-68382317D01*
X120422009Y-68584417D01*
X120485244Y-68779031D01*
X120578140Y-68961349D01*
X120698417Y-69126894D01*
X120698417Y-69126895D01*
X120843104Y-69271582D01*
X121008650Y-69391859D01*
X121190968Y-69484754D01*
X121385578Y-69547988D01*
X121440000Y-69556607D01*
X121440000Y-68195686D01*
X121444394Y-68200080D01*
X121535606Y-68252741D01*
X121637339Y-68280000D01*
X121742661Y-68280000D01*
X121844394Y-68252741D01*
X121935606Y-68200080D01*
X121940000Y-68195686D01*
X121940000Y-69556606D01*
X121994421Y-69547988D01*
X122189031Y-69484754D01*
X122371349Y-69391859D01*
X122536894Y-69271582D01*
X122536895Y-69271582D01*
X122681582Y-69126895D01*
X122681582Y-69126894D01*
X122801861Y-68961347D01*
X122849234Y-68868371D01*
X122897208Y-68817575D01*
X122965028Y-68800779D01*
X123031164Y-68823316D01*
X123070203Y-68868369D01*
X123117713Y-68961611D01*
X123238028Y-69127213D01*
X123382786Y-69271971D01*
X123531224Y-69379815D01*
X123548390Y-69392287D01*
X123642862Y-69440423D01*
X123730776Y-69485218D01*
X123730778Y-69485218D01*
X123730781Y-69485220D01*
X123820459Y-69514358D01*
X123925465Y-69548477D01*
X124026557Y-69564488D01*
X124127648Y-69580500D01*
X124127649Y-69580500D01*
X124332351Y-69580500D01*
X124332352Y-69580500D01*
X124534534Y-69548477D01*
X124729219Y-69485220D01*
X124911610Y-69392287D01*
X125012710Y-69318834D01*
X125077213Y-69271971D01*
X125077215Y-69271968D01*
X125077219Y-69271966D01*
X125221966Y-69127219D01*
X125221968Y-69127215D01*
X125221971Y-69127213D01*
X125342284Y-68961614D01*
X125342286Y-68961611D01*
X125342287Y-68961610D01*
X125389516Y-68868917D01*
X125437489Y-68818123D01*
X125505310Y-68801328D01*
X125571445Y-68823865D01*
X125610483Y-68868917D01*
X125623536Y-68894534D01*
X125657715Y-68961614D01*
X125778028Y-69127213D01*
X125922786Y-69271971D01*
X126071224Y-69379815D01*
X126088390Y-69392287D01*
X126182862Y-69440423D01*
X126270776Y-69485218D01*
X126270778Y-69485218D01*
X126270781Y-69485220D01*
X126360459Y-69514358D01*
X126465465Y-69548477D01*
X126566557Y-69564488D01*
X126667648Y-69580500D01*
X126667649Y-69580500D01*
X126872351Y-69580500D01*
X126872352Y-69580500D01*
X127074534Y-69548477D01*
X127269219Y-69485220D01*
X127451610Y-69392287D01*
X127552710Y-69318834D01*
X127617213Y-69271971D01*
X127617215Y-69271968D01*
X127617219Y-69271966D01*
X127761966Y-69127219D01*
X127830383Y-69033050D01*
X127885712Y-68990385D01*
X127955325Y-68984406D01*
X128017121Y-69017011D01*
X128048407Y-69066932D01*
X128075641Y-69149119D01*
X128075643Y-69149124D01*
X128167684Y-69298345D01*
X128291654Y-69422315D01*
X128440875Y-69514356D01*
X128440880Y-69514358D01*
X128607302Y-69569505D01*
X128607309Y-69569506D01*
X128710019Y-69579999D01*
X129059999Y-69579999D01*
X129060000Y-69579998D01*
X129060000Y-68195686D01*
X129064394Y-68200080D01*
X129155606Y-68252741D01*
X129257339Y-68280000D01*
X129362661Y-68280000D01*
X129464394Y-68252741D01*
X129555606Y-68200080D01*
X129560000Y-68195686D01*
X129560000Y-69579999D01*
X129909972Y-69579999D01*
X129909986Y-69579998D01*
X130012697Y-69569505D01*
X130179119Y-69514358D01*
X130179124Y-69514356D01*
X130328345Y-69422315D01*
X130452315Y-69298345D01*
X130544356Y-69149124D01*
X130544358Y-69149119D01*
X130599505Y-68982697D01*
X130599506Y-68982690D01*
X130609999Y-68879986D01*
X130610000Y-68879973D01*
X130610000Y-68130000D01*
X129625686Y-68130000D01*
X129630080Y-68125606D01*
X129682741Y-68034394D01*
X129710000Y-67932661D01*
X129710000Y-67827339D01*
X129682741Y-67725606D01*
X129630080Y-67634394D01*
X129625686Y-67630000D01*
X130609999Y-67630000D01*
X130609999Y-66880028D01*
X130609998Y-66880013D01*
X130599505Y-66777302D01*
X130544358Y-66610880D01*
X130544356Y-66610875D01*
X130452315Y-66461654D01*
X130328345Y-66337684D01*
X130179124Y-66245643D01*
X130179119Y-66245641D01*
X130012697Y-66190494D01*
X130012690Y-66190493D01*
X129909986Y-66180000D01*
X129560000Y-66180000D01*
X129560000Y-67564314D01*
X129555606Y-67559920D01*
X129464394Y-67507259D01*
X129362661Y-67480000D01*
X129257339Y-67480000D01*
X129155606Y-67507259D01*
X129064394Y-67559920D01*
X129060000Y-67564314D01*
X129060000Y-66180000D01*
X128710028Y-66180000D01*
X128710012Y-66180001D01*
X128607302Y-66190494D01*
X128440880Y-66245641D01*
X128440875Y-66245643D01*
X128291654Y-66337684D01*
X128167684Y-66461654D01*
X128075643Y-66610875D01*
X128075641Y-66610880D01*
X128048407Y-66693068D01*
X128008634Y-66750513D01*
X127944118Y-66777336D01*
X127875342Y-66765021D01*
X127830382Y-66726949D01*
X127822498Y-66716098D01*
X127761966Y-66632781D01*
X127617219Y-66488034D01*
X127617213Y-66488028D01*
X127451610Y-66367712D01*
X127438200Y-66360879D01*
X127387406Y-66312903D01*
X127370500Y-66250397D01*
X127370500Y-63215758D01*
X127390185Y-63148719D01*
X127406819Y-63128077D01*
X127453584Y-63081312D01*
X127530104Y-63004792D01*
X127649991Y-62839779D01*
X127705320Y-62797115D01*
X127774933Y-62791136D01*
X127836729Y-62823741D01*
X127850627Y-62839781D01*
X127970272Y-63004459D01*
X127970276Y-63004464D01*
X128120535Y-63154723D01*
X128120540Y-63154727D01*
X128292442Y-63279620D01*
X128481782Y-63376095D01*
X128683871Y-63441757D01*
X128750000Y-63452231D01*
X128750000Y-62404145D01*
X128816657Y-62442630D01*
X128937465Y-62475000D01*
X129062535Y-62475000D01*
X129183343Y-62442630D01*
X129250000Y-62404145D01*
X129250000Y-63452230D01*
X129316126Y-63441757D01*
X129316129Y-63441757D01*
X129518217Y-63376095D01*
X129707557Y-63279620D01*
X129879459Y-63154727D01*
X129879464Y-63154723D01*
X130029723Y-63004464D01*
X130029727Y-63004459D01*
X130154620Y-62832557D01*
X130251095Y-62643217D01*
X130316757Y-62441130D01*
X130316757Y-62441127D01*
X130347030Y-62250000D01*
X129404146Y-62250000D01*
X129442630Y-62183343D01*
X129475000Y-62062535D01*
X129475000Y-61937465D01*
X129442630Y-61816657D01*
X129404146Y-61750000D01*
X130347030Y-61750000D01*
X130316757Y-61558872D01*
X130316757Y-61558869D01*
X130251095Y-61356782D01*
X130154620Y-61167442D01*
X130029727Y-60995540D01*
X130029723Y-60995535D01*
X129879464Y-60845276D01*
X129879459Y-60845272D01*
X129707557Y-60720379D01*
X129518215Y-60623903D01*
X129316124Y-60558241D01*
X129250000Y-60547768D01*
X129250000Y-61595854D01*
X129183343Y-61557370D01*
X129062535Y-61525000D01*
X128937465Y-61525000D01*
X128816657Y-61557370D01*
X128750000Y-61595854D01*
X128750000Y-60547768D01*
X128749999Y-60547768D01*
X128683875Y-60558241D01*
X128481784Y-60623903D01*
X128292442Y-60720379D01*
X128120540Y-60845272D01*
X128120535Y-60845276D01*
X127970276Y-60995535D01*
X127970272Y-60995540D01*
X127850627Y-61160218D01*
X127795297Y-61202884D01*
X127725684Y-61208863D01*
X127663889Y-61176257D01*
X127649991Y-61160218D01*
X127530109Y-60995214D01*
X127530105Y-60995209D01*
X127379786Y-60844890D01*
X127207815Y-60719948D01*
X127207814Y-60719947D01*
X127168205Y-60699765D01*
X127117409Y-60651791D01*
X127100500Y-60589281D01*
X127100500Y-58920945D01*
X127100500Y-58920943D01*
X127059577Y-58768216D01*
X127059573Y-58768209D01*
X126980524Y-58631290D01*
X126980521Y-58631286D01*
X126980520Y-58631284D01*
X126868716Y-58519480D01*
X126868715Y-58519479D01*
X126864385Y-58515149D01*
X126864374Y-58515139D01*
X126148501Y-57799266D01*
X126115016Y-57737943D01*
X126120000Y-57668251D01*
X126125692Y-57655300D01*
X126205220Y-57499219D01*
X126268477Y-57304534D01*
X126300500Y-57102352D01*
X126300500Y-56897648D01*
X126288214Y-56820080D01*
X126268477Y-56695465D01*
X126205218Y-56500776D01*
X126126154Y-56345606D01*
X126112287Y-56318390D01*
X126079154Y-56272786D01*
X125991971Y-56152786D01*
X125847213Y-56008028D01*
X125681613Y-55887715D01*
X125681612Y-55887714D01*
X125681610Y-55887713D01*
X125610583Y-55851523D01*
X125499223Y-55794781D01*
X125304534Y-55731522D01*
X125129995Y-55703878D01*
X125102352Y-55699500D01*
X124897648Y-55699500D01*
X124873329Y-55703351D01*
X124695465Y-55731522D01*
X124500776Y-55794781D01*
X124318386Y-55887715D01*
X124152786Y-56008028D01*
X124008028Y-56152786D01*
X123887715Y-56318386D01*
X123794781Y-56500776D01*
X123731522Y-56695465D01*
X123699500Y-56897648D01*
X123699500Y-57102351D01*
X123731522Y-57304534D01*
X123794781Y-57499223D01*
X123855923Y-57619219D01*
X123880906Y-57668251D01*
X123887715Y-57681613D01*
X124008028Y-57847213D01*
X124152786Y-57991971D01*
X124307749Y-58104556D01*
X124318390Y-58112287D01*
X124399499Y-58153614D01*
X124500776Y-58205218D01*
X124500778Y-58205218D01*
X124500781Y-58205220D01*
X124575818Y-58229601D01*
X124695465Y-58268477D01*
X124727899Y-58273614D01*
X124897648Y-58300500D01*
X124899903Y-58300500D01*
X124900729Y-58300742D01*
X124902511Y-58300883D01*
X124902481Y-58301257D01*
X124966942Y-58320185D01*
X124987584Y-58336819D01*
X125863181Y-59212416D01*
X125896666Y-59273739D01*
X125899500Y-59300097D01*
X125899500Y-60589281D01*
X125879815Y-60656320D01*
X125831795Y-60699765D01*
X125792185Y-60719947D01*
X125792184Y-60719948D01*
X125620213Y-60844890D01*
X125469894Y-60995209D01*
X125469890Y-60995214D01*
X125350008Y-61160218D01*
X125294678Y-61202884D01*
X125225065Y-61208863D01*
X125163270Y-61176257D01*
X125149372Y-61160218D01*
X125029727Y-60995540D01*
X125029723Y-60995535D01*
X124879464Y-60845276D01*
X124879459Y-60845272D01*
X124707557Y-60720379D01*
X124518215Y-60623903D01*
X124316124Y-60558241D01*
X124250000Y-60547768D01*
X124250000Y-61595854D01*
X124183343Y-61557370D01*
X124062535Y-61525000D01*
X123937465Y-61525000D01*
X123816657Y-61557370D01*
X123750000Y-61595854D01*
X123750000Y-60547768D01*
X123749999Y-60547768D01*
X123683875Y-60558241D01*
X123481784Y-60623903D01*
X123292442Y-60720379D01*
X123120541Y-60845271D01*
X122981668Y-60984144D01*
X122920345Y-61017628D01*
X122850653Y-61012644D01*
X122794720Y-60970772D01*
X122788448Y-60961558D01*
X122692712Y-60806344D01*
X122568657Y-60682289D01*
X122568656Y-60682288D01*
X122462131Y-60616583D01*
X122419336Y-60590187D01*
X122419331Y-60590185D01*
X122385740Y-60579054D01*
X122252797Y-60535001D01*
X122252795Y-60535000D01*
X122150016Y-60524500D01*
X122150009Y-60524500D01*
X120925097Y-60524500D01*
X120858058Y-60504815D01*
X120837416Y-60488181D01*
X120636819Y-60287584D01*
X120603334Y-60226261D01*
X120600500Y-60199903D01*
X120600500Y-58349601D01*
X120620185Y-58282562D01*
X120668206Y-58239116D01*
X120681610Y-58232287D01*
X120847219Y-58111966D01*
X120991966Y-57967219D01*
X120991968Y-57967215D01*
X120991971Y-57967213D01*
X121079150Y-57847219D01*
X121112287Y-57801610D01*
X121205220Y-57619219D01*
X121268477Y-57424534D01*
X121300500Y-57222352D01*
X121300500Y-57017648D01*
X121268477Y-56815466D01*
X121205220Y-56620781D01*
X121205218Y-56620778D01*
X121205218Y-56620776D01*
X121170511Y-56552661D01*
X121112287Y-56438390D01*
X121087290Y-56403984D01*
X120991971Y-56272786D01*
X120847213Y-56128028D01*
X120681613Y-56007715D01*
X120681612Y-56007714D01*
X120681610Y-56007713D01*
X120624653Y-55978691D01*
X120499223Y-55914781D01*
X120304534Y-55851522D01*
X120129995Y-55823878D01*
X120102352Y-55819500D01*
X119897648Y-55819500D01*
X119873329Y-55823351D01*
X119695465Y-55851522D01*
X119500776Y-55914781D01*
X119318386Y-56007715D01*
X119152786Y-56128028D01*
X119008028Y-56272786D01*
X118887715Y-56438386D01*
X118794781Y-56620776D01*
X118731522Y-56815465D01*
X118699500Y-57017648D01*
X116100500Y-57017648D01*
X116100500Y-54300096D01*
X116120185Y-54233057D01*
X116136814Y-54212420D01*
X119555158Y-50794075D01*
X119616479Y-50760592D01*
X119681151Y-50763825D01*
X119695466Y-50768477D01*
X119897648Y-50800500D01*
X119897649Y-50800500D01*
X120102351Y-50800500D01*
X120102352Y-50800500D01*
X120304534Y-50768477D01*
X120499219Y-50705220D01*
X120681610Y-50612287D01*
X120778446Y-50541932D01*
X120847213Y-50491971D01*
X120847215Y-50491968D01*
X120847219Y-50491966D01*
X120991966Y-50347219D01*
X120991968Y-50347215D01*
X120991971Y-50347213D01*
X121112284Y-50181614D01*
X121112286Y-50181611D01*
X121112287Y-50181610D01*
X121180260Y-50048204D01*
X121228234Y-49997409D01*
X121290745Y-49980500D01*
X123770398Y-49980500D01*
X123837437Y-50000185D01*
X123880883Y-50048205D01*
X123887715Y-50061614D01*
X124008028Y-50227213D01*
X124152786Y-50371971D01*
X124307749Y-50484556D01*
X124318390Y-50492287D01*
X124434607Y-50551503D01*
X124500776Y-50585218D01*
X124500778Y-50585218D01*
X124500781Y-50585220D01*
X124584085Y-50612287D01*
X124695465Y-50648477D01*
X124788561Y-50663222D01*
X124897648Y-50680500D01*
X124897649Y-50680500D01*
X125102351Y-50680500D01*
X125102352Y-50680500D01*
X125304534Y-50648477D01*
X125499219Y-50585220D01*
X125681610Y-50492287D01*
X125774590Y-50424732D01*
X125847213Y-50371971D01*
X125847215Y-50371968D01*
X125847219Y-50371966D01*
X125991966Y-50227219D01*
X125991968Y-50227215D01*
X125991971Y-50227213D01*
X126112284Y-50061614D01*
X126112283Y-50061614D01*
X126112287Y-50061610D01*
X126119117Y-50048204D01*
X126167091Y-49997409D01*
X126229602Y-49980500D01*
X132598024Y-49980500D01*
X132611395Y-49983759D01*
X132621761Y-49982793D01*
X132648535Y-49992813D01*
X132655089Y-49994411D01*
X132657585Y-49995705D01*
X132768216Y-50059577D01*
X132794281Y-50066561D01*
X132806240Y-50072760D01*
X132822135Y-50087983D01*
X132840928Y-50099438D01*
X132854287Y-50118777D01*
X132856700Y-50121088D01*
X132857135Y-50122899D01*
X132859659Y-50126553D01*
X132887713Y-50181611D01*
X133008028Y-50347213D01*
X133152786Y-50491971D01*
X133281132Y-50585218D01*
X133318390Y-50612287D01*
X133434607Y-50671503D01*
X133500776Y-50705218D01*
X133500778Y-50705218D01*
X133500781Y-50705220D01*
X133605137Y-50739127D01*
X133695465Y-50768477D01*
X133770226Y-50780318D01*
X133897648Y-50800500D01*
X133897649Y-50800500D01*
X134102351Y-50800500D01*
X134102352Y-50800500D01*
X134304534Y-50768477D01*
X134499219Y-50705220D01*
X134681610Y-50612287D01*
X134778446Y-50541932D01*
X134847213Y-50491971D01*
X134847215Y-50491968D01*
X134847219Y-50491966D01*
X134991966Y-50347219D01*
X134991968Y-50347215D01*
X134991971Y-50347213D01*
X135112284Y-50181614D01*
X135112286Y-50181611D01*
X135112287Y-50181610D01*
X135119117Y-50168204D01*
X135167091Y-50117409D01*
X135229602Y-50100500D01*
X137852787Y-50100500D01*
X137919826Y-50120185D01*
X137953106Y-50151616D01*
X138008030Y-50227215D01*
X138152786Y-50371971D01*
X138307749Y-50484556D01*
X138318390Y-50492287D01*
X138434607Y-50551503D01*
X138500776Y-50585218D01*
X138500778Y-50585218D01*
X138500781Y-50585220D01*
X138584085Y-50612287D01*
X138695465Y-50648477D01*
X138788561Y-50663222D01*
X138897648Y-50680500D01*
X138897649Y-50680500D01*
X139102351Y-50680500D01*
X139102352Y-50680500D01*
X139304534Y-50648477D01*
X139499219Y-50585220D01*
X139681610Y-50492287D01*
X139774590Y-50424732D01*
X139847213Y-50371971D01*
X139847215Y-50371968D01*
X139847219Y-50371966D01*
X139991966Y-50227219D01*
X139991968Y-50227215D01*
X139991971Y-50227213D01*
X140112284Y-50061614D01*
X140112283Y-50061614D01*
X140112287Y-50061610D01*
X140119117Y-50048204D01*
X140167091Y-49997409D01*
X140229602Y-49980500D01*
X146598024Y-49980500D01*
X146611395Y-49983759D01*
X146621761Y-49982793D01*
X146648535Y-49992813D01*
X146655089Y-49994411D01*
X146657585Y-49995705D01*
X146768216Y-50059577D01*
X146794281Y-50066561D01*
X146806240Y-50072760D01*
X146822135Y-50087983D01*
X146840928Y-50099438D01*
X146854287Y-50118777D01*
X146856700Y-50121088D01*
X146857135Y-50122899D01*
X146859659Y-50126553D01*
X146887713Y-50181611D01*
X147008028Y-50347213D01*
X147152786Y-50491971D01*
X147281132Y-50585218D01*
X147318390Y-50612287D01*
X147434607Y-50671503D01*
X147500776Y-50705218D01*
X147500778Y-50705218D01*
X147500781Y-50705220D01*
X147605137Y-50739127D01*
X147695465Y-50768477D01*
X147770226Y-50780318D01*
X147897648Y-50800500D01*
X147897649Y-50800500D01*
X148102351Y-50800500D01*
X148102352Y-50800500D01*
X148304534Y-50768477D01*
X148499219Y-50705220D01*
X148681610Y-50612287D01*
X148778446Y-50541932D01*
X148847213Y-50491971D01*
X148847215Y-50491968D01*
X148847219Y-50491966D01*
X148991966Y-50347219D01*
X148991968Y-50347215D01*
X148991971Y-50347213D01*
X149112284Y-50181614D01*
X149112286Y-50181611D01*
X149112287Y-50181610D01*
X149119117Y-50168204D01*
X149167091Y-50117409D01*
X149229602Y-50100500D01*
X151770398Y-50100500D01*
X151837437Y-50120185D01*
X151880883Y-50168205D01*
X151887715Y-50181614D01*
X152008028Y-50347213D01*
X152152786Y-50491971D01*
X152281132Y-50585218D01*
X152318390Y-50612287D01*
X152434607Y-50671503D01*
X152500776Y-50705218D01*
X152500778Y-50705218D01*
X152500781Y-50705220D01*
X152605137Y-50739127D01*
X152695465Y-50768477D01*
X152770226Y-50780318D01*
X152897648Y-50800500D01*
X152897649Y-50800500D01*
X153102351Y-50800500D01*
X153102352Y-50800500D01*
X153304534Y-50768477D01*
X153499219Y-50705220D01*
X153681610Y-50612287D01*
X153778446Y-50541932D01*
X153847213Y-50491971D01*
X153847215Y-50491968D01*
X153847219Y-50491966D01*
X153991966Y-50347219D01*
X153991968Y-50347215D01*
X153991971Y-50347213D01*
X154112284Y-50181614D01*
X154112286Y-50181611D01*
X154112287Y-50181610D01*
X154119117Y-50168204D01*
X154167091Y-50117409D01*
X154229602Y-50100500D01*
X160770398Y-50100500D01*
X160837437Y-50120185D01*
X160880883Y-50168205D01*
X160887715Y-50181614D01*
X161008028Y-50347213D01*
X161152786Y-50491971D01*
X161281132Y-50585218D01*
X161318390Y-50612287D01*
X161434607Y-50671503D01*
X161500776Y-50705218D01*
X161500778Y-50705218D01*
X161500781Y-50705220D01*
X161605137Y-50739127D01*
X161695465Y-50768477D01*
X161770226Y-50780318D01*
X161897648Y-50800500D01*
X161897649Y-50800500D01*
X162102351Y-50800500D01*
X162102352Y-50800500D01*
X162304534Y-50768477D01*
X162499219Y-50705220D01*
X162681610Y-50612287D01*
X162778446Y-50541932D01*
X162847213Y-50491971D01*
X162847215Y-50491968D01*
X162847219Y-50491966D01*
X162991966Y-50347219D01*
X162991968Y-50347215D01*
X162991971Y-50347213D01*
X163112284Y-50181614D01*
X163112286Y-50181611D01*
X163112287Y-50181610D01*
X163119117Y-50168204D01*
X163167091Y-50117409D01*
X163229602Y-50100500D01*
X165770398Y-50100500D01*
X165837437Y-50120185D01*
X165880883Y-50168205D01*
X165887715Y-50181614D01*
X166008028Y-50347213D01*
X166152786Y-50491971D01*
X166281132Y-50585218D01*
X166318390Y-50612287D01*
X166434607Y-50671503D01*
X166500776Y-50705218D01*
X166500778Y-50705218D01*
X166500781Y-50705220D01*
X166605137Y-50739127D01*
X166695465Y-50768477D01*
X166770226Y-50780318D01*
X166897648Y-50800500D01*
X166897649Y-50800500D01*
X167102351Y-50800500D01*
X167102352Y-50800500D01*
X167304534Y-50768477D01*
X167499219Y-50705220D01*
X167681610Y-50612287D01*
X167778446Y-50541932D01*
X167847213Y-50491971D01*
X167847215Y-50491968D01*
X167847219Y-50491966D01*
X167991966Y-50347219D01*
X167991968Y-50347215D01*
X167991971Y-50347213D01*
X168112284Y-50181614D01*
X168112286Y-50181611D01*
X168112287Y-50181610D01*
X168119117Y-50168204D01*
X168167091Y-50117409D01*
X168229602Y-50100500D01*
X176270398Y-50100500D01*
X176337437Y-50120185D01*
X176380883Y-50168205D01*
X176387715Y-50181614D01*
X176508028Y-50347213D01*
X176652786Y-50491971D01*
X176781132Y-50585218D01*
X176818390Y-50612287D01*
X176934607Y-50671503D01*
X177000776Y-50705218D01*
X177000778Y-50705218D01*
X177000781Y-50705220D01*
X177105137Y-50739127D01*
X177195465Y-50768477D01*
X177270226Y-50780318D01*
X177397648Y-50800500D01*
X177397649Y-50800500D01*
X177602351Y-50800500D01*
X177602352Y-50800500D01*
X177804534Y-50768477D01*
X177999219Y-50705220D01*
X178181610Y-50612287D01*
X178278446Y-50541932D01*
X178347213Y-50491971D01*
X178347215Y-50491968D01*
X178347219Y-50491966D01*
X178491966Y-50347219D01*
X178491968Y-50347215D01*
X178491971Y-50347213D01*
X178612284Y-50181614D01*
X178612286Y-50181611D01*
X178612287Y-50181610D01*
X178619117Y-50168204D01*
X178667091Y-50117409D01*
X178729602Y-50100500D01*
X181270398Y-50100500D01*
X181337437Y-50120185D01*
X181380883Y-50168205D01*
X181387715Y-50181614D01*
X181508028Y-50347213D01*
X181652786Y-50491971D01*
X181781132Y-50585218D01*
X181818390Y-50612287D01*
X181934607Y-50671503D01*
X182000776Y-50705218D01*
X182000778Y-50705218D01*
X182000781Y-50705220D01*
X182105137Y-50739127D01*
X182195465Y-50768477D01*
X182270226Y-50780318D01*
X182397648Y-50800500D01*
X182397649Y-50800500D01*
X182602351Y-50800500D01*
X182602352Y-50800500D01*
X182804534Y-50768477D01*
X182999219Y-50705220D01*
X183181610Y-50612287D01*
X183278446Y-50541932D01*
X183347213Y-50491971D01*
X183347215Y-50491968D01*
X183347219Y-50491966D01*
X183491966Y-50347219D01*
X183491968Y-50347215D01*
X183491971Y-50347213D01*
X183612284Y-50181614D01*
X183612286Y-50181611D01*
X183612287Y-50181610D01*
X183619117Y-50168204D01*
X183667091Y-50117409D01*
X183729602Y-50100500D01*
X191779903Y-50100500D01*
X191846942Y-50120185D01*
X191867584Y-50136819D01*
X192772453Y-51041688D01*
X192805938Y-51103011D01*
X192807245Y-51148766D01*
X192779500Y-51323944D01*
X192779500Y-51516054D01*
X192809553Y-51705802D01*
X192868916Y-51888506D01*
X192868918Y-51888509D01*
X192956135Y-52059681D01*
X193069055Y-52215102D01*
X193204898Y-52350945D01*
X193360319Y-52463865D01*
X193531491Y-52551082D01*
X193531493Y-52551083D01*
X193596081Y-52572069D01*
X193653756Y-52611506D01*
X193680955Y-52675865D01*
X193669041Y-52744711D01*
X193621797Y-52796187D01*
X193596081Y-52807931D01*
X193531493Y-52828916D01*
X193360318Y-52916135D01*
X193271645Y-52980560D01*
X193204898Y-53029055D01*
X193204896Y-53029057D01*
X193204895Y-53029057D01*
X193069057Y-53164895D01*
X193069057Y-53164896D01*
X193069055Y-53164898D01*
X193020560Y-53231645D01*
X192956135Y-53320318D01*
X192868916Y-53491493D01*
X192809553Y-53674197D01*
X192779500Y-53863945D01*
X192779500Y-54056054D01*
X192809553Y-54245802D01*
X192868916Y-54428506D01*
X192868918Y-54428509D01*
X192956135Y-54599681D01*
X193069055Y-54755102D01*
X193204898Y-54890945D01*
X193360319Y-55003865D01*
X193531491Y-55091082D01*
X193531495Y-55091084D01*
X193596890Y-55112332D01*
X193654566Y-55151769D01*
X193681765Y-55216127D01*
X193669851Y-55284974D01*
X193622607Y-55336450D01*
X193596893Y-55348194D01*
X193531677Y-55369384D01*
X193360578Y-55456564D01*
X193331352Y-55477798D01*
X193331351Y-55477798D01*
X193953554Y-56100000D01*
X193947339Y-56100000D01*
X193845606Y-56127259D01*
X193754394Y-56179920D01*
X193679920Y-56254394D01*
X193627259Y-56345606D01*
X193600000Y-56447339D01*
X193600000Y-56453553D01*
X192977798Y-55831351D01*
X192977798Y-55831352D01*
X192956564Y-55860578D01*
X192869383Y-56031678D01*
X192810040Y-56214315D01*
X192780000Y-56403984D01*
X192780000Y-56596015D01*
X192810040Y-56785684D01*
X192869383Y-56968321D01*
X192956561Y-57139415D01*
X192977798Y-57168646D01*
X193600000Y-56546445D01*
X193600000Y-56552661D01*
X193627259Y-56654394D01*
X193679920Y-56745606D01*
X193754394Y-56820080D01*
X193845606Y-56872741D01*
X193947339Y-56900000D01*
X193953554Y-56900000D01*
X193331351Y-57522200D01*
X193331352Y-57522201D01*
X193360577Y-57543434D01*
X193531678Y-57630616D01*
X193714315Y-57689959D01*
X193903985Y-57720000D01*
X194096015Y-57720000D01*
X194285684Y-57689959D01*
X194468321Y-57630616D01*
X194639419Y-57543436D01*
X194668646Y-57522201D01*
X194668646Y-57522200D01*
X194046447Y-56900000D01*
X194052661Y-56900000D01*
X194154394Y-56872741D01*
X194245606Y-56820080D01*
X194320080Y-56745606D01*
X194372741Y-56654394D01*
X194400000Y-56552661D01*
X194400000Y-56546446D01*
X195022200Y-57168646D01*
X195022201Y-57168646D01*
X195043436Y-57139419D01*
X195130616Y-56968321D01*
X195189959Y-56785684D01*
X195220000Y-56596015D01*
X195220000Y-56403984D01*
X195189959Y-56214315D01*
X195130616Y-56031678D01*
X195043434Y-55860577D01*
X195022201Y-55831352D01*
X195022200Y-55831351D01*
X194400000Y-56453552D01*
X194400000Y-56447339D01*
X194372741Y-56345606D01*
X194320080Y-56254394D01*
X194245606Y-56179920D01*
X194154394Y-56127259D01*
X194052661Y-56100000D01*
X194046447Y-56100000D01*
X194668646Y-55477798D01*
X194639415Y-55456561D01*
X194468321Y-55369383D01*
X194403107Y-55348194D01*
X194345432Y-55308756D01*
X194318234Y-55244397D01*
X194330149Y-55175551D01*
X194377394Y-55124075D01*
X194403109Y-55112332D01*
X194468504Y-55091084D01*
X194468506Y-55091082D01*
X194468509Y-55091082D01*
X194639681Y-55003865D01*
X194795102Y-54890945D01*
X194930945Y-54755102D01*
X195043865Y-54599681D01*
X195131082Y-54428509D01*
X195190447Y-54245801D01*
X195220500Y-54056055D01*
X195220500Y-53863945D01*
X195190447Y-53674199D01*
X195140176Y-53519480D01*
X195131083Y-53491493D01*
X195043864Y-53320318D01*
X194930945Y-53164898D01*
X194795102Y-53029055D01*
X194639681Y-52916135D01*
X194468504Y-52828915D01*
X194403919Y-52807931D01*
X194346243Y-52768494D01*
X194319044Y-52704136D01*
X194330958Y-52635289D01*
X194378202Y-52583813D01*
X194403919Y-52572069D01*
X194468504Y-52551084D01*
X194468506Y-52551082D01*
X194468509Y-52551082D01*
X194639681Y-52463865D01*
X194795102Y-52350945D01*
X194930945Y-52215102D01*
X195043865Y-52059681D01*
X195131082Y-51888509D01*
X195190447Y-51705801D01*
X195220500Y-51516055D01*
X195220500Y-51323945D01*
X195190447Y-51134199D01*
X195131082Y-50951491D01*
X195043865Y-50780319D01*
X194930945Y-50624898D01*
X194795102Y-50489055D01*
X194639681Y-50376135D01*
X194631499Y-50371966D01*
X194468506Y-50288916D01*
X194285802Y-50229553D01*
X194190928Y-50214526D01*
X194096055Y-50199500D01*
X193903945Y-50199500D01*
X193728766Y-50227245D01*
X193659473Y-50218290D01*
X193621688Y-50192453D01*
X192567590Y-49138355D01*
X192567588Y-49138352D01*
X192448717Y-49019481D01*
X192448712Y-49019477D01*
X192383870Y-48982041D01*
X192383869Y-48982041D01*
X192334353Y-48953453D01*
X192334351Y-48953451D01*
X192334350Y-48953451D01*
X192326475Y-48948904D01*
X192311786Y-48940423D01*
X192273603Y-48930192D01*
X192159057Y-48899499D01*
X192000943Y-48899499D01*
X191993347Y-48899499D01*
X191993331Y-48899500D01*
X183729602Y-48899500D01*
X183662563Y-48879815D01*
X183661564Y-48878711D01*
X199649500Y-48878711D01*
X199649500Y-49121288D01*
X199659265Y-49195466D01*
X199681162Y-49361789D01*
X199712554Y-49478944D01*
X199743947Y-49596104D01*
X199830282Y-49804534D01*
X199836776Y-49820212D01*
X199958064Y-50030289D01*
X199958066Y-50030292D01*
X199958067Y-50030293D01*
X200105733Y-50222736D01*
X200105739Y-50222743D01*
X200277256Y-50394260D01*
X200277262Y-50394265D01*
X200469711Y-50541936D01*
X200679788Y-50663224D01*
X200903900Y-50756054D01*
X201138211Y-50818838D01*
X201318586Y-50842584D01*
X201378711Y-50850500D01*
X201378712Y-50850500D01*
X201621289Y-50850500D01*
X201669388Y-50844167D01*
X201861789Y-50818838D01*
X202096100Y-50756054D01*
X202320212Y-50663224D01*
X202530289Y-50541936D01*
X202722738Y-50394265D01*
X202894265Y-50222738D01*
X203041936Y-50030289D01*
X203163224Y-49820212D01*
X203256054Y-49596100D01*
X203318838Y-49361789D01*
X203350500Y-49121288D01*
X203350500Y-48878712D01*
X203318838Y-48638211D01*
X203256054Y-48403900D01*
X203163224Y-48179788D01*
X203041936Y-47969711D01*
X202894265Y-47777262D01*
X202894260Y-47777256D01*
X202722743Y-47605739D01*
X202722736Y-47605733D01*
X202530293Y-47458067D01*
X202530292Y-47458066D01*
X202530289Y-47458064D01*
X202320212Y-47336776D01*
X202320205Y-47336773D01*
X202096104Y-47243947D01*
X201861785Y-47181161D01*
X201621289Y-47149500D01*
X201621288Y-47149500D01*
X201378712Y-47149500D01*
X201378711Y-47149500D01*
X201138214Y-47181161D01*
X200903895Y-47243947D01*
X200679794Y-47336773D01*
X200679785Y-47336777D01*
X200469706Y-47458067D01*
X200277263Y-47605733D01*
X200277256Y-47605739D01*
X200105739Y-47777256D01*
X200105733Y-47777263D01*
X199958067Y-47969706D01*
X199836777Y-48179785D01*
X199836773Y-48179794D01*
X199743947Y-48403895D01*
X199681161Y-48638214D01*
X199649500Y-48878711D01*
X183661564Y-48878711D01*
X183619117Y-48831795D01*
X183612284Y-48818385D01*
X183491971Y-48652786D01*
X183347213Y-48508028D01*
X183181613Y-48387715D01*
X183181612Y-48387714D01*
X183181610Y-48387713D01*
X183124653Y-48358691D01*
X182999223Y-48294781D01*
X182804534Y-48231522D01*
X182629995Y-48203878D01*
X182602352Y-48199500D01*
X182397648Y-48199500D01*
X182373329Y-48203351D01*
X182195465Y-48231522D01*
X182000776Y-48294781D01*
X181818386Y-48387715D01*
X181652786Y-48508028D01*
X181508028Y-48652786D01*
X181387715Y-48818385D01*
X181380883Y-48831795D01*
X181332909Y-48882591D01*
X181270398Y-48899500D01*
X178729602Y-48899500D01*
X178662563Y-48879815D01*
X178619117Y-48831795D01*
X178612284Y-48818385D01*
X178491971Y-48652786D01*
X178347213Y-48508028D01*
X178181613Y-48387715D01*
X178181612Y-48387714D01*
X178181610Y-48387713D01*
X178124653Y-48358691D01*
X177999223Y-48294781D01*
X177804534Y-48231522D01*
X177629995Y-48203878D01*
X177602352Y-48199500D01*
X177397648Y-48199500D01*
X177373329Y-48203351D01*
X177195465Y-48231522D01*
X177000776Y-48294781D01*
X176818386Y-48387715D01*
X176652786Y-48508028D01*
X176508028Y-48652786D01*
X176387715Y-48818385D01*
X176380883Y-48831795D01*
X176332909Y-48882591D01*
X176270398Y-48899500D01*
X168229602Y-48899500D01*
X168162563Y-48879815D01*
X168119117Y-48831795D01*
X168112284Y-48818385D01*
X167991971Y-48652786D01*
X167847213Y-48508028D01*
X167681613Y-48387715D01*
X167681612Y-48387714D01*
X167681610Y-48387713D01*
X167624653Y-48358691D01*
X167499223Y-48294781D01*
X167304534Y-48231522D01*
X167129995Y-48203878D01*
X167102352Y-48199500D01*
X166897648Y-48199500D01*
X166873329Y-48203351D01*
X166695465Y-48231522D01*
X166500776Y-48294781D01*
X166318386Y-48387715D01*
X166152786Y-48508028D01*
X166008028Y-48652786D01*
X165887715Y-48818385D01*
X165880883Y-48831795D01*
X165832909Y-48882591D01*
X165770398Y-48899500D01*
X163229602Y-48899500D01*
X163162563Y-48879815D01*
X163119117Y-48831795D01*
X163112284Y-48818385D01*
X162991971Y-48652786D01*
X162847213Y-48508028D01*
X162681613Y-48387715D01*
X162681612Y-48387714D01*
X162681610Y-48387713D01*
X162624653Y-48358691D01*
X162499223Y-48294781D01*
X162304534Y-48231522D01*
X162129995Y-48203878D01*
X162102352Y-48199500D01*
X161897648Y-48199500D01*
X161873329Y-48203351D01*
X161695465Y-48231522D01*
X161500776Y-48294781D01*
X161318386Y-48387715D01*
X161152786Y-48508028D01*
X161008028Y-48652786D01*
X160887715Y-48818385D01*
X160880883Y-48831795D01*
X160832909Y-48882591D01*
X160770398Y-48899500D01*
X154229602Y-48899500D01*
X154162563Y-48879815D01*
X154119117Y-48831795D01*
X154112284Y-48818385D01*
X153991971Y-48652786D01*
X153847213Y-48508028D01*
X153681613Y-48387715D01*
X153681612Y-48387714D01*
X153681610Y-48387713D01*
X153624653Y-48358691D01*
X153499223Y-48294781D01*
X153304534Y-48231522D01*
X153129995Y-48203878D01*
X153102352Y-48199500D01*
X152897648Y-48199500D01*
X152873329Y-48203351D01*
X152695465Y-48231522D01*
X152500776Y-48294781D01*
X152318386Y-48387715D01*
X152152786Y-48508028D01*
X152008028Y-48652786D01*
X151887715Y-48818385D01*
X151880883Y-48831795D01*
X151832909Y-48882591D01*
X151770398Y-48899500D01*
X149229602Y-48899500D01*
X149162563Y-48879815D01*
X149119117Y-48831795D01*
X149112284Y-48818385D01*
X148991971Y-48652786D01*
X148847213Y-48508028D01*
X148681613Y-48387715D01*
X148681612Y-48387714D01*
X148681610Y-48387713D01*
X148624653Y-48358691D01*
X148499223Y-48294781D01*
X148304534Y-48231522D01*
X148129995Y-48203878D01*
X148102352Y-48199500D01*
X147897648Y-48199500D01*
X147873329Y-48203351D01*
X147695465Y-48231522D01*
X147500776Y-48294781D01*
X147318386Y-48387715D01*
X147152786Y-48508028D01*
X147008034Y-48652780D01*
X146953106Y-48728384D01*
X146948772Y-48731725D01*
X146946501Y-48736700D01*
X146921405Y-48752829D01*
X146897776Y-48771050D01*
X146891105Y-48772302D01*
X146887724Y-48774476D01*
X146852795Y-48779497D01*
X146852789Y-48779499D01*
X146800943Y-48779499D01*
X146800939Y-48779499D01*
X146793333Y-48779500D01*
X146793332Y-48779499D01*
X146793331Y-48779500D01*
X140229602Y-48779500D01*
X140162563Y-48759815D01*
X140119117Y-48711795D01*
X140112284Y-48698385D01*
X139991971Y-48532786D01*
X139847213Y-48388028D01*
X139681613Y-48267715D01*
X139681612Y-48267714D01*
X139681610Y-48267713D01*
X139610583Y-48231523D01*
X139499223Y-48174781D01*
X139304534Y-48111522D01*
X139129995Y-48083878D01*
X139102352Y-48079500D01*
X138897648Y-48079500D01*
X138873329Y-48083351D01*
X138695465Y-48111522D01*
X138500776Y-48174781D01*
X138318386Y-48267715D01*
X138152786Y-48388028D01*
X138008028Y-48532786D01*
X137887715Y-48698385D01*
X137872430Y-48728384D01*
X137819737Y-48831797D01*
X137771766Y-48882591D01*
X137709255Y-48899500D01*
X135229602Y-48899500D01*
X135162563Y-48879815D01*
X135119117Y-48831795D01*
X135112284Y-48818385D01*
X134991971Y-48652786D01*
X134847213Y-48508028D01*
X134681613Y-48387715D01*
X134681612Y-48387714D01*
X134681610Y-48387713D01*
X134624653Y-48358691D01*
X134499223Y-48294781D01*
X134304534Y-48231522D01*
X134129995Y-48203878D01*
X134102352Y-48199500D01*
X133897648Y-48199500D01*
X133873329Y-48203351D01*
X133695465Y-48231522D01*
X133500776Y-48294781D01*
X133318386Y-48387715D01*
X133152786Y-48508028D01*
X133008034Y-48652780D01*
X132953106Y-48728384D01*
X132948772Y-48731725D01*
X132946501Y-48736700D01*
X132921405Y-48752829D01*
X132897776Y-48771050D01*
X132891105Y-48772302D01*
X132887724Y-48774476D01*
X132852795Y-48779497D01*
X132852789Y-48779499D01*
X132800943Y-48779499D01*
X132800939Y-48779499D01*
X132793333Y-48779500D01*
X132793332Y-48779499D01*
X132793331Y-48779500D01*
X126229602Y-48779500D01*
X126162563Y-48759815D01*
X126119117Y-48711795D01*
X126112284Y-48698385D01*
X125991971Y-48532786D01*
X125847213Y-48388028D01*
X125681613Y-48267715D01*
X125681612Y-48267714D01*
X125681610Y-48267713D01*
X125610583Y-48231523D01*
X125499223Y-48174781D01*
X125304534Y-48111522D01*
X125129995Y-48083878D01*
X125102352Y-48079500D01*
X124897648Y-48079500D01*
X124873329Y-48083351D01*
X124695465Y-48111522D01*
X124500776Y-48174781D01*
X124318386Y-48267715D01*
X124152786Y-48388028D01*
X124008028Y-48532786D01*
X123887715Y-48698385D01*
X123880883Y-48711795D01*
X123832909Y-48762591D01*
X123770398Y-48779500D01*
X121147213Y-48779500D01*
X121080174Y-48759815D01*
X121046894Y-48728384D01*
X120991969Y-48652784D01*
X120847213Y-48508028D01*
X120681613Y-48387715D01*
X120681612Y-48387714D01*
X120681610Y-48387713D01*
X120624653Y-48358691D01*
X120499223Y-48294781D01*
X120304534Y-48231522D01*
X120129995Y-48203878D01*
X120102352Y-48199500D01*
X119897648Y-48199500D01*
X119873329Y-48203351D01*
X119695465Y-48231522D01*
X119500776Y-48294781D01*
X119318386Y-48387715D01*
X119152786Y-48508028D01*
X119008028Y-48652786D01*
X118887715Y-48818386D01*
X118794781Y-49000776D01*
X118731522Y-49195465D01*
X118699500Y-49397648D01*
X118699500Y-49602351D01*
X118731522Y-49804534D01*
X118736173Y-49818848D01*
X118738165Y-49888690D01*
X118705921Y-49944842D01*
X115131286Y-53519478D01*
X115019481Y-53631282D01*
X115019479Y-53631285D01*
X114969361Y-53718094D01*
X114969359Y-53718096D01*
X114940425Y-53768209D01*
X114940424Y-53768210D01*
X114940423Y-53768215D01*
X114899499Y-53920943D01*
X114899499Y-53920945D01*
X114899499Y-54089046D01*
X114899500Y-54089059D01*
X114899500Y-59025500D01*
X114879815Y-59092539D01*
X114827011Y-59138294D01*
X114775502Y-59149500D01*
X114724999Y-59149500D01*
X114724980Y-59149501D01*
X114622203Y-59160000D01*
X114622200Y-59160001D01*
X114455668Y-59215185D01*
X114455663Y-59215187D01*
X114306342Y-59307289D01*
X114182289Y-59431342D01*
X114090187Y-59580663D01*
X114090186Y-59580666D01*
X114035001Y-59747203D01*
X114035001Y-59747204D01*
X114035000Y-59747204D01*
X114024500Y-59849983D01*
X109500500Y-59849983D01*
X109500500Y-48878711D01*
X110649500Y-48878711D01*
X110649500Y-49121288D01*
X110659265Y-49195466D01*
X110681162Y-49361789D01*
X110712554Y-49478944D01*
X110743947Y-49596104D01*
X110830282Y-49804534D01*
X110836776Y-49820212D01*
X110958064Y-50030289D01*
X110958066Y-50030292D01*
X110958067Y-50030293D01*
X111105733Y-50222736D01*
X111105739Y-50222743D01*
X111277256Y-50394260D01*
X111277262Y-50394265D01*
X111469711Y-50541936D01*
X111679788Y-50663224D01*
X111903900Y-50756054D01*
X112138211Y-50818838D01*
X112318586Y-50842584D01*
X112378711Y-50850500D01*
X112378712Y-50850500D01*
X112621289Y-50850500D01*
X112669388Y-50844167D01*
X112861789Y-50818838D01*
X113096100Y-50756054D01*
X113320212Y-50663224D01*
X113530289Y-50541936D01*
X113722738Y-50394265D01*
X113894265Y-50222738D01*
X114041936Y-50030289D01*
X114163224Y-49820212D01*
X114256054Y-49596100D01*
X114318838Y-49361789D01*
X114350500Y-49121288D01*
X114350500Y-48878712D01*
X114318838Y-48638211D01*
X114256054Y-48403900D01*
X114163224Y-48179788D01*
X114041936Y-47969711D01*
X113894265Y-47777262D01*
X113894260Y-47777256D01*
X113722743Y-47605739D01*
X113722736Y-47605733D01*
X113530293Y-47458067D01*
X113530292Y-47458066D01*
X113530289Y-47458064D01*
X113320212Y-47336776D01*
X113320205Y-47336773D01*
X113096104Y-47243947D01*
X112861785Y-47181161D01*
X112621289Y-47149500D01*
X112621288Y-47149500D01*
X112378712Y-47149500D01*
X112378711Y-47149500D01*
X112138214Y-47181161D01*
X111903895Y-47243947D01*
X111679794Y-47336773D01*
X111679785Y-47336777D01*
X111469706Y-47458067D01*
X111277263Y-47605733D01*
X111277256Y-47605739D01*
X111105739Y-47777256D01*
X111105733Y-47777263D01*
X110958067Y-47969706D01*
X110836777Y-48179785D01*
X110836773Y-48179794D01*
X110743947Y-48403895D01*
X110681161Y-48638214D01*
X110649500Y-48878711D01*
X109500500Y-48878711D01*
X109500500Y-46124500D01*
X109520185Y-46057461D01*
X109572989Y-46011706D01*
X109624500Y-46000500D01*
X204375500Y-46000500D01*
X204442539Y-46020185D01*
G37*
%TD.AperFunction*%
%TD*%
M02*
