M48
; DRILL file {KiCad 9.0.2} date 2025-07-08T21:38:00-0700
; FORMAT={-:-/ absolute / metric / decimal}
; #@! TF.CreationDate,2025-07-08T21:38:00-07:00
; #@! TF.GenerationSoftware,Kicad,Pcbnew,9.0.2
; #@! TF.FileFunction,Plated,1,2,PTH
FMAT,2
METRIC
; #@! TA.AperFunction,Plated,PTH,ComponentDrill
T1C0.800
; #@! TA.AperFunction,Plated,PTH,ComponentDrill
T2C0.950
%
G90
G05
T1
X120.0Y-49.5
X120.0Y-57.12
X121.69Y-67.88
X121.69Y-75.5
X121.88Y-80.77
X124.23Y-67.88
X124.23Y-75.5
X125.0Y-49.38
X125.0Y-57.0
X126.77Y-67.88
X126.77Y-75.5
X129.31Y-67.88
X129.31Y-75.5
X129.5Y-80.77
X134.0Y-49.5
X134.0Y-57.12
X135.88Y-67.88
X135.88Y-75.5
X135.88Y-80.77
X138.42Y-67.88
X138.42Y-75.5
X139.0Y-49.38
X139.0Y-57.0
X140.96Y-67.88
X140.96Y-75.5
X143.5Y-67.88
X143.5Y-75.5
X143.5Y-80.77
X148.0Y-49.5
X148.0Y-57.12
X149.88Y-68.19
X149.88Y-75.81
X149.88Y-80.77
X152.42Y-68.19
X152.42Y-75.81
X153.0Y-49.5
X153.0Y-57.12
X154.96Y-68.19
X154.96Y-75.81
X157.5Y-68.19
X157.5Y-75.81
X157.5Y-80.77
X162.0Y-49.5
X162.0Y-57.12
X164.19Y-68.19
X164.19Y-75.81
X164.19Y-80.77
X166.73Y-68.19
X166.73Y-75.81
X167.0Y-49.5
X167.0Y-57.12
X169.27Y-68.19
X169.27Y-75.81
X171.81Y-68.19
X171.81Y-75.81
X171.81Y-80.77
X177.19Y-81.0
X177.5Y-49.5
X177.5Y-57.12
X177.69Y-68.19
X177.69Y-75.81
X180.23Y-68.19
X180.23Y-75.81
X182.5Y-49.5
X182.5Y-57.12
X182.77Y-68.19
X182.77Y-75.81
X184.81Y-81.0
X185.31Y-68.19
X185.31Y-75.81
X194.0Y-51.42
X194.0Y-53.96
X194.0Y-56.5
T2
X115.5Y-60.5
X115.5Y-63.0
X115.5Y-65.5
X121.5Y-62.0
X124.0Y-62.0
X126.5Y-62.0
X129.0Y-62.0
X135.5Y-62.0
X138.0Y-62.0
X140.5Y-62.0
X143.0Y-62.0
X149.5Y-62.0
X152.0Y-62.0
X154.5Y-62.0
X157.0Y-62.0
X163.5Y-62.0
X166.0Y-62.0
X168.5Y-62.0
X171.0Y-62.0
X178.5Y-62.0
X181.0Y-62.0
X183.5Y-62.0
X186.0Y-62.0
X194.5Y-70.0
X194.5Y-72.5
X194.5Y-75.0
X194.5Y-77.5
X194.5Y-80.0
M30
