%TF.GenerationSoftware,KiCad,Pcbnew,9.0.2*%
%TF.CreationDate,2025-07-08T21:37:52-07:00*%
%TF.ProjectId,reflectance,7265666c-6563-4746-916e-63652e6b6963,rev?*%
%TF.SameCoordinates,Original*%
%TF.FileFunction,Legend,Top*%
%TF.FilePolarity,Positive*%
%FSLAX46Y46*%
G04 Gerber Fmt 4.6, Leading zero omitted, Abs format (unit mm)*
G04 Created by KiCad (PCBNEW 9.0.2) date 2025-07-08 21:37:52*
%MOMM*%
%LPD*%
G01*
G04 APERTURE LIST*
%ADD10C,0.300000*%
%ADD11C,0.150000*%
%ADD12C,0.120000*%
G04 APERTURE END LIST*
D10*
X197483082Y-71943685D02*
X197554510Y-71872257D01*
X197554510Y-71872257D02*
X197697368Y-71800828D01*
X197697368Y-71800828D02*
X198054510Y-71800828D01*
X198054510Y-71800828D02*
X198197368Y-71872257D01*
X198197368Y-71872257D02*
X198268796Y-71943685D01*
X198268796Y-71943685D02*
X198340225Y-72086542D01*
X198340225Y-72086542D02*
X198340225Y-72229400D01*
X198340225Y-72229400D02*
X198268796Y-72443685D01*
X198268796Y-72443685D02*
X197411653Y-73300828D01*
X197411653Y-73300828D02*
X198340225Y-73300828D01*
X192054510Y-63800828D02*
X192054510Y-62300828D01*
X192054510Y-63015114D02*
X192911653Y-63015114D01*
X192911653Y-63800828D02*
X192911653Y-62300828D01*
X193840225Y-63800828D02*
X193697368Y-63729400D01*
X193697368Y-63729400D02*
X193625939Y-63657971D01*
X193625939Y-63657971D02*
X193554511Y-63515114D01*
X193554511Y-63515114D02*
X193554511Y-63086542D01*
X193554511Y-63086542D02*
X193625939Y-62943685D01*
X193625939Y-62943685D02*
X193697368Y-62872257D01*
X193697368Y-62872257D02*
X193840225Y-62800828D01*
X193840225Y-62800828D02*
X194054511Y-62800828D01*
X194054511Y-62800828D02*
X194197368Y-62872257D01*
X194197368Y-62872257D02*
X194268797Y-62943685D01*
X194268797Y-62943685D02*
X194340225Y-63086542D01*
X194340225Y-63086542D02*
X194340225Y-63515114D01*
X194340225Y-63515114D02*
X194268797Y-63657971D01*
X194268797Y-63657971D02*
X194197368Y-63729400D01*
X194197368Y-63729400D02*
X194054511Y-63800828D01*
X194054511Y-63800828D02*
X193840225Y-63800828D01*
X194768797Y-62800828D02*
X195340225Y-62800828D01*
X194983082Y-62300828D02*
X194983082Y-63586542D01*
X194983082Y-63586542D02*
X195054511Y-63729400D01*
X195054511Y-63729400D02*
X195197368Y-63800828D01*
X195197368Y-63800828D02*
X195340225Y-63800828D01*
X196483083Y-63800828D02*
X196483083Y-62300828D01*
X196483083Y-63729400D02*
X196340225Y-63800828D01*
X196340225Y-63800828D02*
X196054511Y-63800828D01*
X196054511Y-63800828D02*
X195911654Y-63729400D01*
X195911654Y-63729400D02*
X195840225Y-63657971D01*
X195840225Y-63657971D02*
X195768797Y-63515114D01*
X195768797Y-63515114D02*
X195768797Y-63086542D01*
X195768797Y-63086542D02*
X195840225Y-62943685D01*
X195840225Y-62943685D02*
X195911654Y-62872257D01*
X195911654Y-62872257D02*
X196054511Y-62800828D01*
X196054511Y-62800828D02*
X196340225Y-62800828D01*
X196340225Y-62800828D02*
X196483083Y-62872257D01*
X197840226Y-63800828D02*
X197840226Y-63015114D01*
X197840226Y-63015114D02*
X197768797Y-62872257D01*
X197768797Y-62872257D02*
X197625940Y-62800828D01*
X197625940Y-62800828D02*
X197340226Y-62800828D01*
X197340226Y-62800828D02*
X197197368Y-62872257D01*
X197840226Y-63729400D02*
X197697368Y-63800828D01*
X197697368Y-63800828D02*
X197340226Y-63800828D01*
X197340226Y-63800828D02*
X197197368Y-63729400D01*
X197197368Y-63729400D02*
X197125940Y-63586542D01*
X197125940Y-63586542D02*
X197125940Y-63443685D01*
X197125940Y-63443685D02*
X197197368Y-63300828D01*
X197197368Y-63300828D02*
X197340226Y-63229400D01*
X197340226Y-63229400D02*
X197697368Y-63229400D01*
X197697368Y-63229400D02*
X197840226Y-63157971D01*
X198411654Y-62800828D02*
X198697369Y-63800828D01*
X198697369Y-63800828D02*
X198983083Y-63086542D01*
X198983083Y-63086542D02*
X199268797Y-63800828D01*
X199268797Y-63800828D02*
X199554511Y-62800828D01*
X200768798Y-62800828D02*
X200768798Y-64015114D01*
X200768798Y-64015114D02*
X200697369Y-64157971D01*
X200697369Y-64157971D02*
X200625940Y-64229400D01*
X200625940Y-64229400D02*
X200483083Y-64300828D01*
X200483083Y-64300828D02*
X200268798Y-64300828D01*
X200268798Y-64300828D02*
X200125940Y-64229400D01*
X200768798Y-63729400D02*
X200625940Y-63800828D01*
X200625940Y-63800828D02*
X200340226Y-63800828D01*
X200340226Y-63800828D02*
X200197369Y-63729400D01*
X200197369Y-63729400D02*
X200125940Y-63657971D01*
X200125940Y-63657971D02*
X200054512Y-63515114D01*
X200054512Y-63515114D02*
X200054512Y-63086542D01*
X200054512Y-63086542D02*
X200125940Y-62943685D01*
X200125940Y-62943685D02*
X200197369Y-62872257D01*
X200197369Y-62872257D02*
X200340226Y-62800828D01*
X200340226Y-62800828D02*
X200625940Y-62800828D01*
X200625940Y-62800828D02*
X200768798Y-62872257D01*
X201411655Y-63729400D02*
X201554512Y-63800828D01*
X201554512Y-63800828D02*
X201840226Y-63800828D01*
X201840226Y-63800828D02*
X201983083Y-63729400D01*
X201983083Y-63729400D02*
X202054512Y-63586542D01*
X202054512Y-63586542D02*
X202054512Y-63515114D01*
X202054512Y-63515114D02*
X201983083Y-63372257D01*
X201983083Y-63372257D02*
X201840226Y-63300828D01*
X201840226Y-63300828D02*
X201625941Y-63300828D01*
X201625941Y-63300828D02*
X201483083Y-63229400D01*
X201483083Y-63229400D02*
X201411655Y-63086542D01*
X201411655Y-63086542D02*
X201411655Y-63015114D01*
X201411655Y-63015114D02*
X201483083Y-62872257D01*
X201483083Y-62872257D02*
X201625941Y-62800828D01*
X201625941Y-62800828D02*
X201840226Y-62800828D01*
X201840226Y-62800828D02*
X201983083Y-62872257D01*
X197411653Y-74300828D02*
X198340225Y-74300828D01*
X198340225Y-74300828D02*
X197840225Y-74872257D01*
X197840225Y-74872257D02*
X198054510Y-74872257D01*
X198054510Y-74872257D02*
X198197368Y-74943685D01*
X198197368Y-74943685D02*
X198268796Y-75015114D01*
X198268796Y-75015114D02*
X198340225Y-75157971D01*
X198340225Y-75157971D02*
X198340225Y-75515114D01*
X198340225Y-75515114D02*
X198268796Y-75657971D01*
X198268796Y-75657971D02*
X198197368Y-75729400D01*
X198197368Y-75729400D02*
X198054510Y-75800828D01*
X198054510Y-75800828D02*
X197625939Y-75800828D01*
X197625939Y-75800828D02*
X197483082Y-75729400D01*
X197483082Y-75729400D02*
X197411653Y-75657971D01*
X112411653Y-68800828D02*
X113340225Y-68800828D01*
X113340225Y-68800828D02*
X112840225Y-69372257D01*
X112840225Y-69372257D02*
X113054510Y-69372257D01*
X113054510Y-69372257D02*
X113197368Y-69443685D01*
X113197368Y-69443685D02*
X113268796Y-69515114D01*
X113268796Y-69515114D02*
X113340225Y-69657971D01*
X113340225Y-69657971D02*
X113340225Y-70015114D01*
X113340225Y-70015114D02*
X113268796Y-70157971D01*
X113268796Y-70157971D02*
X113197368Y-70229400D01*
X113197368Y-70229400D02*
X113054510Y-70300828D01*
X113054510Y-70300828D02*
X112625939Y-70300828D01*
X112625939Y-70300828D02*
X112483082Y-70229400D01*
X112483082Y-70229400D02*
X112411653Y-70157971D01*
X113768796Y-68800828D02*
X114268796Y-70300828D01*
X114268796Y-70300828D02*
X114768796Y-68800828D01*
X115125938Y-68800828D02*
X116054510Y-68800828D01*
X116054510Y-68800828D02*
X115554510Y-69372257D01*
X115554510Y-69372257D02*
X115768795Y-69372257D01*
X115768795Y-69372257D02*
X115911653Y-69443685D01*
X115911653Y-69443685D02*
X115983081Y-69515114D01*
X115983081Y-69515114D02*
X116054510Y-69657971D01*
X116054510Y-69657971D02*
X116054510Y-70015114D01*
X116054510Y-70015114D02*
X115983081Y-70157971D01*
X115983081Y-70157971D02*
X115911653Y-70229400D01*
X115911653Y-70229400D02*
X115768795Y-70300828D01*
X115768795Y-70300828D02*
X115340224Y-70300828D01*
X115340224Y-70300828D02*
X115197367Y-70229400D01*
X115197367Y-70229400D02*
X115125938Y-70157971D01*
X110872257Y-63659774D02*
X110800828Y-63802632D01*
X110800828Y-63802632D02*
X110800828Y-64016917D01*
X110800828Y-64016917D02*
X110872257Y-64231203D01*
X110872257Y-64231203D02*
X111015114Y-64374060D01*
X111015114Y-64374060D02*
X111157971Y-64445489D01*
X111157971Y-64445489D02*
X111443685Y-64516917D01*
X111443685Y-64516917D02*
X111657971Y-64516917D01*
X111657971Y-64516917D02*
X111943685Y-64445489D01*
X111943685Y-64445489D02*
X112086542Y-64374060D01*
X112086542Y-64374060D02*
X112229400Y-64231203D01*
X112229400Y-64231203D02*
X112300828Y-64016917D01*
X112300828Y-64016917D02*
X112300828Y-63874060D01*
X112300828Y-63874060D02*
X112229400Y-63659774D01*
X112229400Y-63659774D02*
X112157971Y-63588346D01*
X112157971Y-63588346D02*
X111657971Y-63588346D01*
X111657971Y-63588346D02*
X111657971Y-63874060D01*
X112300828Y-62945489D02*
X110800828Y-62945489D01*
X110800828Y-62945489D02*
X112300828Y-62088346D01*
X112300828Y-62088346D02*
X110800828Y-62088346D01*
X112300828Y-61374060D02*
X110800828Y-61374060D01*
X110800828Y-61374060D02*
X110800828Y-61016917D01*
X110800828Y-61016917D02*
X110872257Y-60802631D01*
X110872257Y-60802631D02*
X111015114Y-60659774D01*
X111015114Y-60659774D02*
X111157971Y-60588345D01*
X111157971Y-60588345D02*
X111443685Y-60516917D01*
X111443685Y-60516917D02*
X111657971Y-60516917D01*
X111657971Y-60516917D02*
X111943685Y-60588345D01*
X111943685Y-60588345D02*
X112086542Y-60659774D01*
X112086542Y-60659774D02*
X112229400Y-60802631D01*
X112229400Y-60802631D02*
X112300828Y-61016917D01*
X112300828Y-61016917D02*
X112300828Y-61374060D01*
X112768796Y-55800828D02*
X112054510Y-55800828D01*
X112054510Y-55800828D02*
X111983082Y-56515114D01*
X111983082Y-56515114D02*
X112054510Y-56443685D01*
X112054510Y-56443685D02*
X112197368Y-56372257D01*
X112197368Y-56372257D02*
X112554510Y-56372257D01*
X112554510Y-56372257D02*
X112697368Y-56443685D01*
X112697368Y-56443685D02*
X112768796Y-56515114D01*
X112768796Y-56515114D02*
X112840225Y-56657971D01*
X112840225Y-56657971D02*
X112840225Y-57015114D01*
X112840225Y-57015114D02*
X112768796Y-57157971D01*
X112768796Y-57157971D02*
X112697368Y-57229400D01*
X112697368Y-57229400D02*
X112554510Y-57300828D01*
X112554510Y-57300828D02*
X112197368Y-57300828D01*
X112197368Y-57300828D02*
X112054510Y-57229400D01*
X112054510Y-57229400D02*
X111983082Y-57157971D01*
X113268796Y-55800828D02*
X113768796Y-57300828D01*
X113768796Y-57300828D02*
X114268796Y-55800828D01*
X198340225Y-70800828D02*
X197483082Y-70800828D01*
X197911653Y-70800828D02*
X197911653Y-69300828D01*
X197911653Y-69300828D02*
X197768796Y-69515114D01*
X197768796Y-69515114D02*
X197625939Y-69657971D01*
X197625939Y-69657971D02*
X197483082Y-69729400D01*
X198268796Y-79300828D02*
X197554510Y-79300828D01*
X197554510Y-79300828D02*
X197483082Y-80015114D01*
X197483082Y-80015114D02*
X197554510Y-79943685D01*
X197554510Y-79943685D02*
X197697368Y-79872257D01*
X197697368Y-79872257D02*
X198054510Y-79872257D01*
X198054510Y-79872257D02*
X198197368Y-79943685D01*
X198197368Y-79943685D02*
X198268796Y-80015114D01*
X198268796Y-80015114D02*
X198340225Y-80157971D01*
X198340225Y-80157971D02*
X198340225Y-80515114D01*
X198340225Y-80515114D02*
X198268796Y-80657971D01*
X198268796Y-80657971D02*
X198197368Y-80729400D01*
X198197368Y-80729400D02*
X198054510Y-80800828D01*
X198054510Y-80800828D02*
X197697368Y-80800828D01*
X197697368Y-80800828D02*
X197554510Y-80729400D01*
X197554510Y-80729400D02*
X197483082Y-80657971D01*
X198197368Y-77300828D02*
X198197368Y-78300828D01*
X197840225Y-76729400D02*
X197483082Y-77800828D01*
X197483082Y-77800828D02*
X198411653Y-77800828D01*
D11*
X174584819Y-55095713D02*
X174584819Y-54476666D01*
X174584819Y-54476666D02*
X174965771Y-54809999D01*
X174965771Y-54809999D02*
X174965771Y-54667142D01*
X174965771Y-54667142D02*
X175013390Y-54571904D01*
X175013390Y-54571904D02*
X175061009Y-54524285D01*
X175061009Y-54524285D02*
X175156247Y-54476666D01*
X175156247Y-54476666D02*
X175394342Y-54476666D01*
X175394342Y-54476666D02*
X175489580Y-54524285D01*
X175489580Y-54524285D02*
X175537200Y-54571904D01*
X175537200Y-54571904D02*
X175584819Y-54667142D01*
X175584819Y-54667142D02*
X175584819Y-54952856D01*
X175584819Y-54952856D02*
X175537200Y-55048094D01*
X175537200Y-55048094D02*
X175489580Y-55095713D01*
X174584819Y-54143332D02*
X174584819Y-53524285D01*
X174584819Y-53524285D02*
X174965771Y-53857618D01*
X174965771Y-53857618D02*
X174965771Y-53714761D01*
X174965771Y-53714761D02*
X175013390Y-53619523D01*
X175013390Y-53619523D02*
X175061009Y-53571904D01*
X175061009Y-53571904D02*
X175156247Y-53524285D01*
X175156247Y-53524285D02*
X175394342Y-53524285D01*
X175394342Y-53524285D02*
X175489580Y-53571904D01*
X175489580Y-53571904D02*
X175537200Y-53619523D01*
X175537200Y-53619523D02*
X175584819Y-53714761D01*
X175584819Y-53714761D02*
X175584819Y-54000475D01*
X175584819Y-54000475D02*
X175537200Y-54095713D01*
X175537200Y-54095713D02*
X175489580Y-54143332D01*
X174584819Y-52905237D02*
X174584819Y-52809999D01*
X174584819Y-52809999D02*
X174632438Y-52714761D01*
X174632438Y-52714761D02*
X174680057Y-52667142D01*
X174680057Y-52667142D02*
X174775295Y-52619523D01*
X174775295Y-52619523D02*
X174965771Y-52571904D01*
X174965771Y-52571904D02*
X175203866Y-52571904D01*
X175203866Y-52571904D02*
X175394342Y-52619523D01*
X175394342Y-52619523D02*
X175489580Y-52667142D01*
X175489580Y-52667142D02*
X175537200Y-52714761D01*
X175537200Y-52714761D02*
X175584819Y-52809999D01*
X175584819Y-52809999D02*
X175584819Y-52905237D01*
X175584819Y-52905237D02*
X175537200Y-53000475D01*
X175537200Y-53000475D02*
X175489580Y-53048094D01*
X175489580Y-53048094D02*
X175394342Y-53095713D01*
X175394342Y-53095713D02*
X175203866Y-53143332D01*
X175203866Y-53143332D02*
X174965771Y-53143332D01*
X174965771Y-53143332D02*
X174775295Y-53095713D01*
X174775295Y-53095713D02*
X174680057Y-53048094D01*
X174680057Y-53048094D02*
X174632438Y-53000475D01*
X174632438Y-53000475D02*
X174584819Y-52905237D01*
X175584819Y-51571904D02*
X175108628Y-51905237D01*
X175584819Y-52143332D02*
X174584819Y-52143332D01*
X174584819Y-52143332D02*
X174584819Y-51762380D01*
X174584819Y-51762380D02*
X174632438Y-51667142D01*
X174632438Y-51667142D02*
X174680057Y-51619523D01*
X174680057Y-51619523D02*
X174775295Y-51571904D01*
X174775295Y-51571904D02*
X174918152Y-51571904D01*
X174918152Y-51571904D02*
X175013390Y-51619523D01*
X175013390Y-51619523D02*
X175061009Y-51667142D01*
X175061009Y-51667142D02*
X175108628Y-51762380D01*
X175108628Y-51762380D02*
X175108628Y-52143332D01*
X121448095Y-66019250D02*
X121629524Y-66079726D01*
X121629524Y-66079726D02*
X121931905Y-66079726D01*
X121931905Y-66079726D02*
X122052857Y-66019250D01*
X122052857Y-66019250D02*
X122113333Y-65958773D01*
X122113333Y-65958773D02*
X122173810Y-65837821D01*
X122173810Y-65837821D02*
X122173810Y-65716869D01*
X122173810Y-65716869D02*
X122113333Y-65595916D01*
X122113333Y-65595916D02*
X122052857Y-65535440D01*
X122052857Y-65535440D02*
X121931905Y-65474964D01*
X121931905Y-65474964D02*
X121690000Y-65414488D01*
X121690000Y-65414488D02*
X121569048Y-65354011D01*
X121569048Y-65354011D02*
X121508571Y-65293535D01*
X121508571Y-65293535D02*
X121448095Y-65172583D01*
X121448095Y-65172583D02*
X121448095Y-65051630D01*
X121448095Y-65051630D02*
X121508571Y-64930678D01*
X121508571Y-64930678D02*
X121569048Y-64870202D01*
X121569048Y-64870202D02*
X121690000Y-64809726D01*
X121690000Y-64809726D02*
X121992381Y-64809726D01*
X121992381Y-64809726D02*
X122173810Y-64870202D01*
X123201905Y-66019250D02*
X123080953Y-66079726D01*
X123080953Y-66079726D02*
X122839048Y-66079726D01*
X122839048Y-66079726D02*
X122718095Y-66019250D01*
X122718095Y-66019250D02*
X122657619Y-65898297D01*
X122657619Y-65898297D02*
X122657619Y-65414488D01*
X122657619Y-65414488D02*
X122718095Y-65293535D01*
X122718095Y-65293535D02*
X122839048Y-65233059D01*
X122839048Y-65233059D02*
X123080953Y-65233059D01*
X123080953Y-65233059D02*
X123201905Y-65293535D01*
X123201905Y-65293535D02*
X123262381Y-65414488D01*
X123262381Y-65414488D02*
X123262381Y-65535440D01*
X123262381Y-65535440D02*
X122657619Y-65656392D01*
X123806666Y-65233059D02*
X123806666Y-66079726D01*
X123806666Y-65354011D02*
X123867143Y-65293535D01*
X123867143Y-65293535D02*
X123988095Y-65233059D01*
X123988095Y-65233059D02*
X124169524Y-65233059D01*
X124169524Y-65233059D02*
X124290476Y-65293535D01*
X124290476Y-65293535D02*
X124350952Y-65414488D01*
X124350952Y-65414488D02*
X124350952Y-66079726D01*
X124895238Y-66019250D02*
X125016191Y-66079726D01*
X125016191Y-66079726D02*
X125258095Y-66079726D01*
X125258095Y-66079726D02*
X125379048Y-66019250D01*
X125379048Y-66019250D02*
X125439524Y-65898297D01*
X125439524Y-65898297D02*
X125439524Y-65837821D01*
X125439524Y-65837821D02*
X125379048Y-65716869D01*
X125379048Y-65716869D02*
X125258095Y-65656392D01*
X125258095Y-65656392D02*
X125076667Y-65656392D01*
X125076667Y-65656392D02*
X124955714Y-65595916D01*
X124955714Y-65595916D02*
X124895238Y-65474964D01*
X124895238Y-65474964D02*
X124895238Y-65414488D01*
X124895238Y-65414488D02*
X124955714Y-65293535D01*
X124955714Y-65293535D02*
X125076667Y-65233059D01*
X125076667Y-65233059D02*
X125258095Y-65233059D01*
X125258095Y-65233059D02*
X125379048Y-65293535D01*
X126165238Y-66079726D02*
X126044286Y-66019250D01*
X126044286Y-66019250D02*
X125983809Y-65958773D01*
X125983809Y-65958773D02*
X125923333Y-65837821D01*
X125923333Y-65837821D02*
X125923333Y-65474964D01*
X125923333Y-65474964D02*
X125983809Y-65354011D01*
X125983809Y-65354011D02*
X126044286Y-65293535D01*
X126044286Y-65293535D02*
X126165238Y-65233059D01*
X126165238Y-65233059D02*
X126346667Y-65233059D01*
X126346667Y-65233059D02*
X126467619Y-65293535D01*
X126467619Y-65293535D02*
X126528095Y-65354011D01*
X126528095Y-65354011D02*
X126588571Y-65474964D01*
X126588571Y-65474964D02*
X126588571Y-65837821D01*
X126588571Y-65837821D02*
X126528095Y-65958773D01*
X126528095Y-65958773D02*
X126467619Y-66019250D01*
X126467619Y-66019250D02*
X126346667Y-66079726D01*
X126346667Y-66079726D02*
X126165238Y-66079726D01*
X127132857Y-66079726D02*
X127132857Y-65233059D01*
X127132857Y-65474964D02*
X127193334Y-65354011D01*
X127193334Y-65354011D02*
X127253810Y-65293535D01*
X127253810Y-65293535D02*
X127374762Y-65233059D01*
X127374762Y-65233059D02*
X127495715Y-65233059D01*
X129551905Y-66079726D02*
X128826190Y-66079726D01*
X129189047Y-66079726D02*
X129189047Y-64809726D01*
X129189047Y-64809726D02*
X129068095Y-64991154D01*
X129068095Y-64991154D02*
X128947143Y-65112107D01*
X128947143Y-65112107D02*
X128826190Y-65172583D01*
X125570952Y-78774819D02*
X124999524Y-78774819D01*
X125285238Y-78774819D02*
X125285238Y-77774819D01*
X125285238Y-77774819D02*
X125190000Y-77917676D01*
X125190000Y-77917676D02*
X125094762Y-78012914D01*
X125094762Y-78012914D02*
X124999524Y-78060533D01*
X125999524Y-78774819D02*
X125999524Y-77774819D01*
X126094762Y-78393866D02*
X126380476Y-78774819D01*
X126380476Y-78108152D02*
X125999524Y-78489104D01*
X135448095Y-66019250D02*
X135629524Y-66079726D01*
X135629524Y-66079726D02*
X135931905Y-66079726D01*
X135931905Y-66079726D02*
X136052857Y-66019250D01*
X136052857Y-66019250D02*
X136113333Y-65958773D01*
X136113333Y-65958773D02*
X136173810Y-65837821D01*
X136173810Y-65837821D02*
X136173810Y-65716869D01*
X136173810Y-65716869D02*
X136113333Y-65595916D01*
X136113333Y-65595916D02*
X136052857Y-65535440D01*
X136052857Y-65535440D02*
X135931905Y-65474964D01*
X135931905Y-65474964D02*
X135690000Y-65414488D01*
X135690000Y-65414488D02*
X135569048Y-65354011D01*
X135569048Y-65354011D02*
X135508571Y-65293535D01*
X135508571Y-65293535D02*
X135448095Y-65172583D01*
X135448095Y-65172583D02*
X135448095Y-65051630D01*
X135448095Y-65051630D02*
X135508571Y-64930678D01*
X135508571Y-64930678D02*
X135569048Y-64870202D01*
X135569048Y-64870202D02*
X135690000Y-64809726D01*
X135690000Y-64809726D02*
X135992381Y-64809726D01*
X135992381Y-64809726D02*
X136173810Y-64870202D01*
X137201905Y-66019250D02*
X137080953Y-66079726D01*
X137080953Y-66079726D02*
X136839048Y-66079726D01*
X136839048Y-66079726D02*
X136718095Y-66019250D01*
X136718095Y-66019250D02*
X136657619Y-65898297D01*
X136657619Y-65898297D02*
X136657619Y-65414488D01*
X136657619Y-65414488D02*
X136718095Y-65293535D01*
X136718095Y-65293535D02*
X136839048Y-65233059D01*
X136839048Y-65233059D02*
X137080953Y-65233059D01*
X137080953Y-65233059D02*
X137201905Y-65293535D01*
X137201905Y-65293535D02*
X137262381Y-65414488D01*
X137262381Y-65414488D02*
X137262381Y-65535440D01*
X137262381Y-65535440D02*
X136657619Y-65656392D01*
X137806666Y-65233059D02*
X137806666Y-66079726D01*
X137806666Y-65354011D02*
X137867143Y-65293535D01*
X137867143Y-65293535D02*
X137988095Y-65233059D01*
X137988095Y-65233059D02*
X138169524Y-65233059D01*
X138169524Y-65233059D02*
X138290476Y-65293535D01*
X138290476Y-65293535D02*
X138350952Y-65414488D01*
X138350952Y-65414488D02*
X138350952Y-66079726D01*
X138895238Y-66019250D02*
X139016191Y-66079726D01*
X139016191Y-66079726D02*
X139258095Y-66079726D01*
X139258095Y-66079726D02*
X139379048Y-66019250D01*
X139379048Y-66019250D02*
X139439524Y-65898297D01*
X139439524Y-65898297D02*
X139439524Y-65837821D01*
X139439524Y-65837821D02*
X139379048Y-65716869D01*
X139379048Y-65716869D02*
X139258095Y-65656392D01*
X139258095Y-65656392D02*
X139076667Y-65656392D01*
X139076667Y-65656392D02*
X138955714Y-65595916D01*
X138955714Y-65595916D02*
X138895238Y-65474964D01*
X138895238Y-65474964D02*
X138895238Y-65414488D01*
X138895238Y-65414488D02*
X138955714Y-65293535D01*
X138955714Y-65293535D02*
X139076667Y-65233059D01*
X139076667Y-65233059D02*
X139258095Y-65233059D01*
X139258095Y-65233059D02*
X139379048Y-65293535D01*
X140165238Y-66079726D02*
X140044286Y-66019250D01*
X140044286Y-66019250D02*
X139983809Y-65958773D01*
X139983809Y-65958773D02*
X139923333Y-65837821D01*
X139923333Y-65837821D02*
X139923333Y-65474964D01*
X139923333Y-65474964D02*
X139983809Y-65354011D01*
X139983809Y-65354011D02*
X140044286Y-65293535D01*
X140044286Y-65293535D02*
X140165238Y-65233059D01*
X140165238Y-65233059D02*
X140346667Y-65233059D01*
X140346667Y-65233059D02*
X140467619Y-65293535D01*
X140467619Y-65293535D02*
X140528095Y-65354011D01*
X140528095Y-65354011D02*
X140588571Y-65474964D01*
X140588571Y-65474964D02*
X140588571Y-65837821D01*
X140588571Y-65837821D02*
X140528095Y-65958773D01*
X140528095Y-65958773D02*
X140467619Y-66019250D01*
X140467619Y-66019250D02*
X140346667Y-66079726D01*
X140346667Y-66079726D02*
X140165238Y-66079726D01*
X141132857Y-66079726D02*
X141132857Y-65233059D01*
X141132857Y-65474964D02*
X141193334Y-65354011D01*
X141193334Y-65354011D02*
X141253810Y-65293535D01*
X141253810Y-65293535D02*
X141374762Y-65233059D01*
X141374762Y-65233059D02*
X141495715Y-65233059D01*
X142826190Y-64930678D02*
X142886666Y-64870202D01*
X142886666Y-64870202D02*
X143007619Y-64809726D01*
X143007619Y-64809726D02*
X143310000Y-64809726D01*
X143310000Y-64809726D02*
X143430952Y-64870202D01*
X143430952Y-64870202D02*
X143491428Y-64930678D01*
X143491428Y-64930678D02*
X143551905Y-65051630D01*
X143551905Y-65051630D02*
X143551905Y-65172583D01*
X143551905Y-65172583D02*
X143491428Y-65354011D01*
X143491428Y-65354011D02*
X142765714Y-66079726D01*
X142765714Y-66079726D02*
X143551905Y-66079726D01*
X179918152Y-54000476D02*
X180584819Y-54000476D01*
X179537200Y-54238571D02*
X180251485Y-54476666D01*
X180251485Y-54476666D02*
X180251485Y-53857619D01*
X179584819Y-53571904D02*
X179584819Y-52905238D01*
X179584819Y-52905238D02*
X180584819Y-53333809D01*
X180584819Y-52524285D02*
X179584819Y-52524285D01*
X180203866Y-52429047D02*
X180584819Y-52143333D01*
X179918152Y-52143333D02*
X180299104Y-52524285D01*
X131084819Y-55095713D02*
X131084819Y-54476666D01*
X131084819Y-54476666D02*
X131465771Y-54809999D01*
X131465771Y-54809999D02*
X131465771Y-54667142D01*
X131465771Y-54667142D02*
X131513390Y-54571904D01*
X131513390Y-54571904D02*
X131561009Y-54524285D01*
X131561009Y-54524285D02*
X131656247Y-54476666D01*
X131656247Y-54476666D02*
X131894342Y-54476666D01*
X131894342Y-54476666D02*
X131989580Y-54524285D01*
X131989580Y-54524285D02*
X132037200Y-54571904D01*
X132037200Y-54571904D02*
X132084819Y-54667142D01*
X132084819Y-54667142D02*
X132084819Y-54952856D01*
X132084819Y-54952856D02*
X132037200Y-55048094D01*
X132037200Y-55048094D02*
X131989580Y-55095713D01*
X131084819Y-54143332D02*
X131084819Y-53524285D01*
X131084819Y-53524285D02*
X131465771Y-53857618D01*
X131465771Y-53857618D02*
X131465771Y-53714761D01*
X131465771Y-53714761D02*
X131513390Y-53619523D01*
X131513390Y-53619523D02*
X131561009Y-53571904D01*
X131561009Y-53571904D02*
X131656247Y-53524285D01*
X131656247Y-53524285D02*
X131894342Y-53524285D01*
X131894342Y-53524285D02*
X131989580Y-53571904D01*
X131989580Y-53571904D02*
X132037200Y-53619523D01*
X132037200Y-53619523D02*
X132084819Y-53714761D01*
X132084819Y-53714761D02*
X132084819Y-54000475D01*
X132084819Y-54000475D02*
X132037200Y-54095713D01*
X132037200Y-54095713D02*
X131989580Y-54143332D01*
X131084819Y-52905237D02*
X131084819Y-52809999D01*
X131084819Y-52809999D02*
X131132438Y-52714761D01*
X131132438Y-52714761D02*
X131180057Y-52667142D01*
X131180057Y-52667142D02*
X131275295Y-52619523D01*
X131275295Y-52619523D02*
X131465771Y-52571904D01*
X131465771Y-52571904D02*
X131703866Y-52571904D01*
X131703866Y-52571904D02*
X131894342Y-52619523D01*
X131894342Y-52619523D02*
X131989580Y-52667142D01*
X131989580Y-52667142D02*
X132037200Y-52714761D01*
X132037200Y-52714761D02*
X132084819Y-52809999D01*
X132084819Y-52809999D02*
X132084819Y-52905237D01*
X132084819Y-52905237D02*
X132037200Y-53000475D01*
X132037200Y-53000475D02*
X131989580Y-53048094D01*
X131989580Y-53048094D02*
X131894342Y-53095713D01*
X131894342Y-53095713D02*
X131703866Y-53143332D01*
X131703866Y-53143332D02*
X131465771Y-53143332D01*
X131465771Y-53143332D02*
X131275295Y-53095713D01*
X131275295Y-53095713D02*
X131180057Y-53048094D01*
X131180057Y-53048094D02*
X131132438Y-53000475D01*
X131132438Y-53000475D02*
X131084819Y-52905237D01*
X132084819Y-51571904D02*
X131608628Y-51905237D01*
X132084819Y-52143332D02*
X131084819Y-52143332D01*
X131084819Y-52143332D02*
X131084819Y-51762380D01*
X131084819Y-51762380D02*
X131132438Y-51667142D01*
X131132438Y-51667142D02*
X131180057Y-51619523D01*
X131180057Y-51619523D02*
X131275295Y-51571904D01*
X131275295Y-51571904D02*
X131418152Y-51571904D01*
X131418152Y-51571904D02*
X131513390Y-51619523D01*
X131513390Y-51619523D02*
X131561009Y-51667142D01*
X131561009Y-51667142D02*
X131608628Y-51762380D01*
X131608628Y-51762380D02*
X131608628Y-52143332D01*
X119814819Y-73380476D02*
X119814819Y-73856666D01*
X119814819Y-73856666D02*
X118814819Y-73856666D01*
X119814819Y-73047142D02*
X118814819Y-73047142D01*
X118814819Y-73047142D02*
X119529104Y-72713809D01*
X119529104Y-72713809D02*
X118814819Y-72380476D01*
X118814819Y-72380476D02*
X119814819Y-72380476D01*
X118814819Y-71999523D02*
X118814819Y-71380476D01*
X118814819Y-71380476D02*
X119195771Y-71713809D01*
X119195771Y-71713809D02*
X119195771Y-71570952D01*
X119195771Y-71570952D02*
X119243390Y-71475714D01*
X119243390Y-71475714D02*
X119291009Y-71428095D01*
X119291009Y-71428095D02*
X119386247Y-71380476D01*
X119386247Y-71380476D02*
X119624342Y-71380476D01*
X119624342Y-71380476D02*
X119719580Y-71428095D01*
X119719580Y-71428095D02*
X119767200Y-71475714D01*
X119767200Y-71475714D02*
X119814819Y-71570952D01*
X119814819Y-71570952D02*
X119814819Y-71856666D01*
X119814819Y-71856666D02*
X119767200Y-71951904D01*
X119767200Y-71951904D02*
X119719580Y-71999523D01*
X119814819Y-70428095D02*
X119814819Y-70999523D01*
X119814819Y-70713809D02*
X118814819Y-70713809D01*
X118814819Y-70713809D02*
X118957676Y-70809047D01*
X118957676Y-70809047D02*
X119052914Y-70904285D01*
X119052914Y-70904285D02*
X119100533Y-70999523D01*
X119814819Y-69475714D02*
X119814819Y-70047142D01*
X119814819Y-69761428D02*
X118814819Y-69761428D01*
X118814819Y-69761428D02*
X118957676Y-69856666D01*
X118957676Y-69856666D02*
X119052914Y-69951904D01*
X119052914Y-69951904D02*
X119100533Y-70047142D01*
X145084819Y-55095713D02*
X145084819Y-54476666D01*
X145084819Y-54476666D02*
X145465771Y-54809999D01*
X145465771Y-54809999D02*
X145465771Y-54667142D01*
X145465771Y-54667142D02*
X145513390Y-54571904D01*
X145513390Y-54571904D02*
X145561009Y-54524285D01*
X145561009Y-54524285D02*
X145656247Y-54476666D01*
X145656247Y-54476666D02*
X145894342Y-54476666D01*
X145894342Y-54476666D02*
X145989580Y-54524285D01*
X145989580Y-54524285D02*
X146037200Y-54571904D01*
X146037200Y-54571904D02*
X146084819Y-54667142D01*
X146084819Y-54667142D02*
X146084819Y-54952856D01*
X146084819Y-54952856D02*
X146037200Y-55048094D01*
X146037200Y-55048094D02*
X145989580Y-55095713D01*
X145084819Y-54143332D02*
X145084819Y-53524285D01*
X145084819Y-53524285D02*
X145465771Y-53857618D01*
X145465771Y-53857618D02*
X145465771Y-53714761D01*
X145465771Y-53714761D02*
X145513390Y-53619523D01*
X145513390Y-53619523D02*
X145561009Y-53571904D01*
X145561009Y-53571904D02*
X145656247Y-53524285D01*
X145656247Y-53524285D02*
X145894342Y-53524285D01*
X145894342Y-53524285D02*
X145989580Y-53571904D01*
X145989580Y-53571904D02*
X146037200Y-53619523D01*
X146037200Y-53619523D02*
X146084819Y-53714761D01*
X146084819Y-53714761D02*
X146084819Y-54000475D01*
X146084819Y-54000475D02*
X146037200Y-54095713D01*
X146037200Y-54095713D02*
X145989580Y-54143332D01*
X145084819Y-52905237D02*
X145084819Y-52809999D01*
X145084819Y-52809999D02*
X145132438Y-52714761D01*
X145132438Y-52714761D02*
X145180057Y-52667142D01*
X145180057Y-52667142D02*
X145275295Y-52619523D01*
X145275295Y-52619523D02*
X145465771Y-52571904D01*
X145465771Y-52571904D02*
X145703866Y-52571904D01*
X145703866Y-52571904D02*
X145894342Y-52619523D01*
X145894342Y-52619523D02*
X145989580Y-52667142D01*
X145989580Y-52667142D02*
X146037200Y-52714761D01*
X146037200Y-52714761D02*
X146084819Y-52809999D01*
X146084819Y-52809999D02*
X146084819Y-52905237D01*
X146084819Y-52905237D02*
X146037200Y-53000475D01*
X146037200Y-53000475D02*
X145989580Y-53048094D01*
X145989580Y-53048094D02*
X145894342Y-53095713D01*
X145894342Y-53095713D02*
X145703866Y-53143332D01*
X145703866Y-53143332D02*
X145465771Y-53143332D01*
X145465771Y-53143332D02*
X145275295Y-53095713D01*
X145275295Y-53095713D02*
X145180057Y-53048094D01*
X145180057Y-53048094D02*
X145132438Y-53000475D01*
X145132438Y-53000475D02*
X145084819Y-52905237D01*
X146084819Y-51571904D02*
X145608628Y-51905237D01*
X146084819Y-52143332D02*
X145084819Y-52143332D01*
X145084819Y-52143332D02*
X145084819Y-51762380D01*
X145084819Y-51762380D02*
X145132438Y-51667142D01*
X145132438Y-51667142D02*
X145180057Y-51619523D01*
X145180057Y-51619523D02*
X145275295Y-51571904D01*
X145275295Y-51571904D02*
X145418152Y-51571904D01*
X145418152Y-51571904D02*
X145513390Y-51619523D01*
X145513390Y-51619523D02*
X145561009Y-51667142D01*
X145561009Y-51667142D02*
X145608628Y-51762380D01*
X145608628Y-51762380D02*
X145608628Y-52143332D01*
X150418152Y-54000476D02*
X151084819Y-54000476D01*
X150037200Y-54238571D02*
X150751485Y-54476666D01*
X150751485Y-54476666D02*
X150751485Y-53857619D01*
X150084819Y-53571904D02*
X150084819Y-52905238D01*
X150084819Y-52905238D02*
X151084819Y-53333809D01*
X151084819Y-52524285D02*
X150084819Y-52524285D01*
X150703866Y-52429047D02*
X151084819Y-52143333D01*
X150418152Y-52143333D02*
X150799104Y-52524285D01*
X163448095Y-66019250D02*
X163629524Y-66079726D01*
X163629524Y-66079726D02*
X163931905Y-66079726D01*
X163931905Y-66079726D02*
X164052857Y-66019250D01*
X164052857Y-66019250D02*
X164113333Y-65958773D01*
X164113333Y-65958773D02*
X164173810Y-65837821D01*
X164173810Y-65837821D02*
X164173810Y-65716869D01*
X164173810Y-65716869D02*
X164113333Y-65595916D01*
X164113333Y-65595916D02*
X164052857Y-65535440D01*
X164052857Y-65535440D02*
X163931905Y-65474964D01*
X163931905Y-65474964D02*
X163690000Y-65414488D01*
X163690000Y-65414488D02*
X163569048Y-65354011D01*
X163569048Y-65354011D02*
X163508571Y-65293535D01*
X163508571Y-65293535D02*
X163448095Y-65172583D01*
X163448095Y-65172583D02*
X163448095Y-65051630D01*
X163448095Y-65051630D02*
X163508571Y-64930678D01*
X163508571Y-64930678D02*
X163569048Y-64870202D01*
X163569048Y-64870202D02*
X163690000Y-64809726D01*
X163690000Y-64809726D02*
X163992381Y-64809726D01*
X163992381Y-64809726D02*
X164173810Y-64870202D01*
X165201905Y-66019250D02*
X165080953Y-66079726D01*
X165080953Y-66079726D02*
X164839048Y-66079726D01*
X164839048Y-66079726D02*
X164718095Y-66019250D01*
X164718095Y-66019250D02*
X164657619Y-65898297D01*
X164657619Y-65898297D02*
X164657619Y-65414488D01*
X164657619Y-65414488D02*
X164718095Y-65293535D01*
X164718095Y-65293535D02*
X164839048Y-65233059D01*
X164839048Y-65233059D02*
X165080953Y-65233059D01*
X165080953Y-65233059D02*
X165201905Y-65293535D01*
X165201905Y-65293535D02*
X165262381Y-65414488D01*
X165262381Y-65414488D02*
X165262381Y-65535440D01*
X165262381Y-65535440D02*
X164657619Y-65656392D01*
X165806666Y-65233059D02*
X165806666Y-66079726D01*
X165806666Y-65354011D02*
X165867143Y-65293535D01*
X165867143Y-65293535D02*
X165988095Y-65233059D01*
X165988095Y-65233059D02*
X166169524Y-65233059D01*
X166169524Y-65233059D02*
X166290476Y-65293535D01*
X166290476Y-65293535D02*
X166350952Y-65414488D01*
X166350952Y-65414488D02*
X166350952Y-66079726D01*
X166895238Y-66019250D02*
X167016191Y-66079726D01*
X167016191Y-66079726D02*
X167258095Y-66079726D01*
X167258095Y-66079726D02*
X167379048Y-66019250D01*
X167379048Y-66019250D02*
X167439524Y-65898297D01*
X167439524Y-65898297D02*
X167439524Y-65837821D01*
X167439524Y-65837821D02*
X167379048Y-65716869D01*
X167379048Y-65716869D02*
X167258095Y-65656392D01*
X167258095Y-65656392D02*
X167076667Y-65656392D01*
X167076667Y-65656392D02*
X166955714Y-65595916D01*
X166955714Y-65595916D02*
X166895238Y-65474964D01*
X166895238Y-65474964D02*
X166895238Y-65414488D01*
X166895238Y-65414488D02*
X166955714Y-65293535D01*
X166955714Y-65293535D02*
X167076667Y-65233059D01*
X167076667Y-65233059D02*
X167258095Y-65233059D01*
X167258095Y-65233059D02*
X167379048Y-65293535D01*
X168165238Y-66079726D02*
X168044286Y-66019250D01*
X168044286Y-66019250D02*
X167983809Y-65958773D01*
X167983809Y-65958773D02*
X167923333Y-65837821D01*
X167923333Y-65837821D02*
X167923333Y-65474964D01*
X167923333Y-65474964D02*
X167983809Y-65354011D01*
X167983809Y-65354011D02*
X168044286Y-65293535D01*
X168044286Y-65293535D02*
X168165238Y-65233059D01*
X168165238Y-65233059D02*
X168346667Y-65233059D01*
X168346667Y-65233059D02*
X168467619Y-65293535D01*
X168467619Y-65293535D02*
X168528095Y-65354011D01*
X168528095Y-65354011D02*
X168588571Y-65474964D01*
X168588571Y-65474964D02*
X168588571Y-65837821D01*
X168588571Y-65837821D02*
X168528095Y-65958773D01*
X168528095Y-65958773D02*
X168467619Y-66019250D01*
X168467619Y-66019250D02*
X168346667Y-66079726D01*
X168346667Y-66079726D02*
X168165238Y-66079726D01*
X169132857Y-66079726D02*
X169132857Y-65233059D01*
X169132857Y-65474964D02*
X169193334Y-65354011D01*
X169193334Y-65354011D02*
X169253810Y-65293535D01*
X169253810Y-65293535D02*
X169374762Y-65233059D01*
X169374762Y-65233059D02*
X169495715Y-65233059D01*
X171430952Y-65233059D02*
X171430952Y-66079726D01*
X171128571Y-64749250D02*
X170826190Y-65656392D01*
X170826190Y-65656392D02*
X171612381Y-65656392D01*
X122418152Y-53880476D02*
X123084819Y-53880476D01*
X122037200Y-54118571D02*
X122751485Y-54356666D01*
X122751485Y-54356666D02*
X122751485Y-53737619D01*
X122084819Y-53451904D02*
X122084819Y-52785238D01*
X122084819Y-52785238D02*
X123084819Y-53213809D01*
X123084819Y-52404285D02*
X122084819Y-52404285D01*
X122703866Y-52309047D02*
X123084819Y-52023333D01*
X122418152Y-52023333D02*
X122799104Y-52404285D01*
X159084819Y-55095713D02*
X159084819Y-54476666D01*
X159084819Y-54476666D02*
X159465771Y-54809999D01*
X159465771Y-54809999D02*
X159465771Y-54667142D01*
X159465771Y-54667142D02*
X159513390Y-54571904D01*
X159513390Y-54571904D02*
X159561009Y-54524285D01*
X159561009Y-54524285D02*
X159656247Y-54476666D01*
X159656247Y-54476666D02*
X159894342Y-54476666D01*
X159894342Y-54476666D02*
X159989580Y-54524285D01*
X159989580Y-54524285D02*
X160037200Y-54571904D01*
X160037200Y-54571904D02*
X160084819Y-54667142D01*
X160084819Y-54667142D02*
X160084819Y-54952856D01*
X160084819Y-54952856D02*
X160037200Y-55048094D01*
X160037200Y-55048094D02*
X159989580Y-55095713D01*
X159084819Y-54143332D02*
X159084819Y-53524285D01*
X159084819Y-53524285D02*
X159465771Y-53857618D01*
X159465771Y-53857618D02*
X159465771Y-53714761D01*
X159465771Y-53714761D02*
X159513390Y-53619523D01*
X159513390Y-53619523D02*
X159561009Y-53571904D01*
X159561009Y-53571904D02*
X159656247Y-53524285D01*
X159656247Y-53524285D02*
X159894342Y-53524285D01*
X159894342Y-53524285D02*
X159989580Y-53571904D01*
X159989580Y-53571904D02*
X160037200Y-53619523D01*
X160037200Y-53619523D02*
X160084819Y-53714761D01*
X160084819Y-53714761D02*
X160084819Y-54000475D01*
X160084819Y-54000475D02*
X160037200Y-54095713D01*
X160037200Y-54095713D02*
X159989580Y-54143332D01*
X159084819Y-52905237D02*
X159084819Y-52809999D01*
X159084819Y-52809999D02*
X159132438Y-52714761D01*
X159132438Y-52714761D02*
X159180057Y-52667142D01*
X159180057Y-52667142D02*
X159275295Y-52619523D01*
X159275295Y-52619523D02*
X159465771Y-52571904D01*
X159465771Y-52571904D02*
X159703866Y-52571904D01*
X159703866Y-52571904D02*
X159894342Y-52619523D01*
X159894342Y-52619523D02*
X159989580Y-52667142D01*
X159989580Y-52667142D02*
X160037200Y-52714761D01*
X160037200Y-52714761D02*
X160084819Y-52809999D01*
X160084819Y-52809999D02*
X160084819Y-52905237D01*
X160084819Y-52905237D02*
X160037200Y-53000475D01*
X160037200Y-53000475D02*
X159989580Y-53048094D01*
X159989580Y-53048094D02*
X159894342Y-53095713D01*
X159894342Y-53095713D02*
X159703866Y-53143332D01*
X159703866Y-53143332D02*
X159465771Y-53143332D01*
X159465771Y-53143332D02*
X159275295Y-53095713D01*
X159275295Y-53095713D02*
X159180057Y-53048094D01*
X159180057Y-53048094D02*
X159132438Y-53000475D01*
X159132438Y-53000475D02*
X159084819Y-52905237D01*
X160084819Y-51571904D02*
X159608628Y-51905237D01*
X160084819Y-52143332D02*
X159084819Y-52143332D01*
X159084819Y-52143332D02*
X159084819Y-51762380D01*
X159084819Y-51762380D02*
X159132438Y-51667142D01*
X159132438Y-51667142D02*
X159180057Y-51619523D01*
X159180057Y-51619523D02*
X159275295Y-51571904D01*
X159275295Y-51571904D02*
X159418152Y-51571904D01*
X159418152Y-51571904D02*
X159513390Y-51619523D01*
X159513390Y-51619523D02*
X159561009Y-51667142D01*
X159561009Y-51667142D02*
X159608628Y-51762380D01*
X159608628Y-51762380D02*
X159608628Y-52143332D01*
X149448095Y-66019250D02*
X149629524Y-66079726D01*
X149629524Y-66079726D02*
X149931905Y-66079726D01*
X149931905Y-66079726D02*
X150052857Y-66019250D01*
X150052857Y-66019250D02*
X150113333Y-65958773D01*
X150113333Y-65958773D02*
X150173810Y-65837821D01*
X150173810Y-65837821D02*
X150173810Y-65716869D01*
X150173810Y-65716869D02*
X150113333Y-65595916D01*
X150113333Y-65595916D02*
X150052857Y-65535440D01*
X150052857Y-65535440D02*
X149931905Y-65474964D01*
X149931905Y-65474964D02*
X149690000Y-65414488D01*
X149690000Y-65414488D02*
X149569048Y-65354011D01*
X149569048Y-65354011D02*
X149508571Y-65293535D01*
X149508571Y-65293535D02*
X149448095Y-65172583D01*
X149448095Y-65172583D02*
X149448095Y-65051630D01*
X149448095Y-65051630D02*
X149508571Y-64930678D01*
X149508571Y-64930678D02*
X149569048Y-64870202D01*
X149569048Y-64870202D02*
X149690000Y-64809726D01*
X149690000Y-64809726D02*
X149992381Y-64809726D01*
X149992381Y-64809726D02*
X150173810Y-64870202D01*
X151201905Y-66019250D02*
X151080953Y-66079726D01*
X151080953Y-66079726D02*
X150839048Y-66079726D01*
X150839048Y-66079726D02*
X150718095Y-66019250D01*
X150718095Y-66019250D02*
X150657619Y-65898297D01*
X150657619Y-65898297D02*
X150657619Y-65414488D01*
X150657619Y-65414488D02*
X150718095Y-65293535D01*
X150718095Y-65293535D02*
X150839048Y-65233059D01*
X150839048Y-65233059D02*
X151080953Y-65233059D01*
X151080953Y-65233059D02*
X151201905Y-65293535D01*
X151201905Y-65293535D02*
X151262381Y-65414488D01*
X151262381Y-65414488D02*
X151262381Y-65535440D01*
X151262381Y-65535440D02*
X150657619Y-65656392D01*
X151806666Y-65233059D02*
X151806666Y-66079726D01*
X151806666Y-65354011D02*
X151867143Y-65293535D01*
X151867143Y-65293535D02*
X151988095Y-65233059D01*
X151988095Y-65233059D02*
X152169524Y-65233059D01*
X152169524Y-65233059D02*
X152290476Y-65293535D01*
X152290476Y-65293535D02*
X152350952Y-65414488D01*
X152350952Y-65414488D02*
X152350952Y-66079726D01*
X152895238Y-66019250D02*
X153016191Y-66079726D01*
X153016191Y-66079726D02*
X153258095Y-66079726D01*
X153258095Y-66079726D02*
X153379048Y-66019250D01*
X153379048Y-66019250D02*
X153439524Y-65898297D01*
X153439524Y-65898297D02*
X153439524Y-65837821D01*
X153439524Y-65837821D02*
X153379048Y-65716869D01*
X153379048Y-65716869D02*
X153258095Y-65656392D01*
X153258095Y-65656392D02*
X153076667Y-65656392D01*
X153076667Y-65656392D02*
X152955714Y-65595916D01*
X152955714Y-65595916D02*
X152895238Y-65474964D01*
X152895238Y-65474964D02*
X152895238Y-65414488D01*
X152895238Y-65414488D02*
X152955714Y-65293535D01*
X152955714Y-65293535D02*
X153076667Y-65233059D01*
X153076667Y-65233059D02*
X153258095Y-65233059D01*
X153258095Y-65233059D02*
X153379048Y-65293535D01*
X154165238Y-66079726D02*
X154044286Y-66019250D01*
X154044286Y-66019250D02*
X153983809Y-65958773D01*
X153983809Y-65958773D02*
X153923333Y-65837821D01*
X153923333Y-65837821D02*
X153923333Y-65474964D01*
X153923333Y-65474964D02*
X153983809Y-65354011D01*
X153983809Y-65354011D02*
X154044286Y-65293535D01*
X154044286Y-65293535D02*
X154165238Y-65233059D01*
X154165238Y-65233059D02*
X154346667Y-65233059D01*
X154346667Y-65233059D02*
X154467619Y-65293535D01*
X154467619Y-65293535D02*
X154528095Y-65354011D01*
X154528095Y-65354011D02*
X154588571Y-65474964D01*
X154588571Y-65474964D02*
X154588571Y-65837821D01*
X154588571Y-65837821D02*
X154528095Y-65958773D01*
X154528095Y-65958773D02*
X154467619Y-66019250D01*
X154467619Y-66019250D02*
X154346667Y-66079726D01*
X154346667Y-66079726D02*
X154165238Y-66079726D01*
X155132857Y-66079726D02*
X155132857Y-65233059D01*
X155132857Y-65474964D02*
X155193334Y-65354011D01*
X155193334Y-65354011D02*
X155253810Y-65293535D01*
X155253810Y-65293535D02*
X155374762Y-65233059D01*
X155374762Y-65233059D02*
X155495715Y-65233059D01*
X156765714Y-64809726D02*
X157551905Y-64809726D01*
X157551905Y-64809726D02*
X157128571Y-65293535D01*
X157128571Y-65293535D02*
X157310000Y-65293535D01*
X157310000Y-65293535D02*
X157430952Y-65354011D01*
X157430952Y-65354011D02*
X157491428Y-65414488D01*
X157491428Y-65414488D02*
X157551905Y-65535440D01*
X157551905Y-65535440D02*
X157551905Y-65837821D01*
X157551905Y-65837821D02*
X157491428Y-65958773D01*
X157491428Y-65958773D02*
X157430952Y-66019250D01*
X157430952Y-66019250D02*
X157310000Y-66079726D01*
X157310000Y-66079726D02*
X156947143Y-66079726D01*
X156947143Y-66079726D02*
X156826190Y-66019250D01*
X156826190Y-66019250D02*
X156765714Y-65958773D01*
X134004819Y-73380476D02*
X134004819Y-73856666D01*
X134004819Y-73856666D02*
X133004819Y-73856666D01*
X134004819Y-73047142D02*
X133004819Y-73047142D01*
X133004819Y-73047142D02*
X133719104Y-72713809D01*
X133719104Y-72713809D02*
X133004819Y-72380476D01*
X133004819Y-72380476D02*
X134004819Y-72380476D01*
X133004819Y-71999523D02*
X133004819Y-71380476D01*
X133004819Y-71380476D02*
X133385771Y-71713809D01*
X133385771Y-71713809D02*
X133385771Y-71570952D01*
X133385771Y-71570952D02*
X133433390Y-71475714D01*
X133433390Y-71475714D02*
X133481009Y-71428095D01*
X133481009Y-71428095D02*
X133576247Y-71380476D01*
X133576247Y-71380476D02*
X133814342Y-71380476D01*
X133814342Y-71380476D02*
X133909580Y-71428095D01*
X133909580Y-71428095D02*
X133957200Y-71475714D01*
X133957200Y-71475714D02*
X134004819Y-71570952D01*
X134004819Y-71570952D02*
X134004819Y-71856666D01*
X134004819Y-71856666D02*
X133957200Y-71951904D01*
X133957200Y-71951904D02*
X133909580Y-71999523D01*
X134004819Y-70428095D02*
X134004819Y-70999523D01*
X134004819Y-70713809D02*
X133004819Y-70713809D01*
X133004819Y-70713809D02*
X133147676Y-70809047D01*
X133147676Y-70809047D02*
X133242914Y-70904285D01*
X133242914Y-70904285D02*
X133290533Y-70999523D01*
X134004819Y-69475714D02*
X134004819Y-70047142D01*
X134004819Y-69761428D02*
X133004819Y-69761428D01*
X133004819Y-69761428D02*
X133147676Y-69856666D01*
X133147676Y-69856666D02*
X133242914Y-69951904D01*
X133242914Y-69951904D02*
X133290533Y-70047142D01*
X177948095Y-66019250D02*
X178129524Y-66079726D01*
X178129524Y-66079726D02*
X178431905Y-66079726D01*
X178431905Y-66079726D02*
X178552857Y-66019250D01*
X178552857Y-66019250D02*
X178613333Y-65958773D01*
X178613333Y-65958773D02*
X178673810Y-65837821D01*
X178673810Y-65837821D02*
X178673810Y-65716869D01*
X178673810Y-65716869D02*
X178613333Y-65595916D01*
X178613333Y-65595916D02*
X178552857Y-65535440D01*
X178552857Y-65535440D02*
X178431905Y-65474964D01*
X178431905Y-65474964D02*
X178190000Y-65414488D01*
X178190000Y-65414488D02*
X178069048Y-65354011D01*
X178069048Y-65354011D02*
X178008571Y-65293535D01*
X178008571Y-65293535D02*
X177948095Y-65172583D01*
X177948095Y-65172583D02*
X177948095Y-65051630D01*
X177948095Y-65051630D02*
X178008571Y-64930678D01*
X178008571Y-64930678D02*
X178069048Y-64870202D01*
X178069048Y-64870202D02*
X178190000Y-64809726D01*
X178190000Y-64809726D02*
X178492381Y-64809726D01*
X178492381Y-64809726D02*
X178673810Y-64870202D01*
X179701905Y-66019250D02*
X179580953Y-66079726D01*
X179580953Y-66079726D02*
X179339048Y-66079726D01*
X179339048Y-66079726D02*
X179218095Y-66019250D01*
X179218095Y-66019250D02*
X179157619Y-65898297D01*
X179157619Y-65898297D02*
X179157619Y-65414488D01*
X179157619Y-65414488D02*
X179218095Y-65293535D01*
X179218095Y-65293535D02*
X179339048Y-65233059D01*
X179339048Y-65233059D02*
X179580953Y-65233059D01*
X179580953Y-65233059D02*
X179701905Y-65293535D01*
X179701905Y-65293535D02*
X179762381Y-65414488D01*
X179762381Y-65414488D02*
X179762381Y-65535440D01*
X179762381Y-65535440D02*
X179157619Y-65656392D01*
X180306666Y-65233059D02*
X180306666Y-66079726D01*
X180306666Y-65354011D02*
X180367143Y-65293535D01*
X180367143Y-65293535D02*
X180488095Y-65233059D01*
X180488095Y-65233059D02*
X180669524Y-65233059D01*
X180669524Y-65233059D02*
X180790476Y-65293535D01*
X180790476Y-65293535D02*
X180850952Y-65414488D01*
X180850952Y-65414488D02*
X180850952Y-66079726D01*
X181395238Y-66019250D02*
X181516191Y-66079726D01*
X181516191Y-66079726D02*
X181758095Y-66079726D01*
X181758095Y-66079726D02*
X181879048Y-66019250D01*
X181879048Y-66019250D02*
X181939524Y-65898297D01*
X181939524Y-65898297D02*
X181939524Y-65837821D01*
X181939524Y-65837821D02*
X181879048Y-65716869D01*
X181879048Y-65716869D02*
X181758095Y-65656392D01*
X181758095Y-65656392D02*
X181576667Y-65656392D01*
X181576667Y-65656392D02*
X181455714Y-65595916D01*
X181455714Y-65595916D02*
X181395238Y-65474964D01*
X181395238Y-65474964D02*
X181395238Y-65414488D01*
X181395238Y-65414488D02*
X181455714Y-65293535D01*
X181455714Y-65293535D02*
X181576667Y-65233059D01*
X181576667Y-65233059D02*
X181758095Y-65233059D01*
X181758095Y-65233059D02*
X181879048Y-65293535D01*
X182665238Y-66079726D02*
X182544286Y-66019250D01*
X182544286Y-66019250D02*
X182483809Y-65958773D01*
X182483809Y-65958773D02*
X182423333Y-65837821D01*
X182423333Y-65837821D02*
X182423333Y-65474964D01*
X182423333Y-65474964D02*
X182483809Y-65354011D01*
X182483809Y-65354011D02*
X182544286Y-65293535D01*
X182544286Y-65293535D02*
X182665238Y-65233059D01*
X182665238Y-65233059D02*
X182846667Y-65233059D01*
X182846667Y-65233059D02*
X182967619Y-65293535D01*
X182967619Y-65293535D02*
X183028095Y-65354011D01*
X183028095Y-65354011D02*
X183088571Y-65474964D01*
X183088571Y-65474964D02*
X183088571Y-65837821D01*
X183088571Y-65837821D02*
X183028095Y-65958773D01*
X183028095Y-65958773D02*
X182967619Y-66019250D01*
X182967619Y-66019250D02*
X182846667Y-66079726D01*
X182846667Y-66079726D02*
X182665238Y-66079726D01*
X183632857Y-66079726D02*
X183632857Y-65233059D01*
X183632857Y-65474964D02*
X183693334Y-65354011D01*
X183693334Y-65354011D02*
X183753810Y-65293535D01*
X183753810Y-65293535D02*
X183874762Y-65233059D01*
X183874762Y-65233059D02*
X183995715Y-65233059D01*
X185991428Y-64809726D02*
X185386666Y-64809726D01*
X185386666Y-64809726D02*
X185326190Y-65414488D01*
X185326190Y-65414488D02*
X185386666Y-65354011D01*
X185386666Y-65354011D02*
X185507619Y-65293535D01*
X185507619Y-65293535D02*
X185810000Y-65293535D01*
X185810000Y-65293535D02*
X185930952Y-65354011D01*
X185930952Y-65354011D02*
X185991428Y-65414488D01*
X185991428Y-65414488D02*
X186051905Y-65535440D01*
X186051905Y-65535440D02*
X186051905Y-65837821D01*
X186051905Y-65837821D02*
X185991428Y-65958773D01*
X185991428Y-65958773D02*
X185930952Y-66019250D01*
X185930952Y-66019250D02*
X185810000Y-66079726D01*
X185810000Y-66079726D02*
X185507619Y-66079726D01*
X185507619Y-66079726D02*
X185386666Y-66019250D01*
X185386666Y-66019250D02*
X185326190Y-65958773D01*
X175814819Y-73690476D02*
X175814819Y-74166666D01*
X175814819Y-74166666D02*
X174814819Y-74166666D01*
X175814819Y-73357142D02*
X174814819Y-73357142D01*
X174814819Y-73357142D02*
X175529104Y-73023809D01*
X175529104Y-73023809D02*
X174814819Y-72690476D01*
X174814819Y-72690476D02*
X175814819Y-72690476D01*
X174814819Y-72309523D02*
X174814819Y-71690476D01*
X174814819Y-71690476D02*
X175195771Y-72023809D01*
X175195771Y-72023809D02*
X175195771Y-71880952D01*
X175195771Y-71880952D02*
X175243390Y-71785714D01*
X175243390Y-71785714D02*
X175291009Y-71738095D01*
X175291009Y-71738095D02*
X175386247Y-71690476D01*
X175386247Y-71690476D02*
X175624342Y-71690476D01*
X175624342Y-71690476D02*
X175719580Y-71738095D01*
X175719580Y-71738095D02*
X175767200Y-71785714D01*
X175767200Y-71785714D02*
X175814819Y-71880952D01*
X175814819Y-71880952D02*
X175814819Y-72166666D01*
X175814819Y-72166666D02*
X175767200Y-72261904D01*
X175767200Y-72261904D02*
X175719580Y-72309523D01*
X175814819Y-70738095D02*
X175814819Y-71309523D01*
X175814819Y-71023809D02*
X174814819Y-71023809D01*
X174814819Y-71023809D02*
X174957676Y-71119047D01*
X174957676Y-71119047D02*
X175052914Y-71214285D01*
X175052914Y-71214285D02*
X175100533Y-71309523D01*
X175814819Y-69785714D02*
X175814819Y-70357142D01*
X175814819Y-70071428D02*
X174814819Y-70071428D01*
X174814819Y-70071428D02*
X174957676Y-70166666D01*
X174957676Y-70166666D02*
X175052914Y-70261904D01*
X175052914Y-70261904D02*
X175100533Y-70357142D01*
X139570952Y-78774819D02*
X138999524Y-78774819D01*
X139285238Y-78774819D02*
X139285238Y-77774819D01*
X139285238Y-77774819D02*
X139190000Y-77917676D01*
X139190000Y-77917676D02*
X139094762Y-78012914D01*
X139094762Y-78012914D02*
X138999524Y-78060533D01*
X139999524Y-78774819D02*
X139999524Y-77774819D01*
X140094762Y-78393866D02*
X140380476Y-78774819D01*
X140380476Y-78108152D02*
X139999524Y-78489104D01*
X167880952Y-78774819D02*
X167309524Y-78774819D01*
X167595238Y-78774819D02*
X167595238Y-77774819D01*
X167595238Y-77774819D02*
X167500000Y-77917676D01*
X167500000Y-77917676D02*
X167404762Y-78012914D01*
X167404762Y-78012914D02*
X167309524Y-78060533D01*
X168309524Y-78774819D02*
X168309524Y-77774819D01*
X168404762Y-78393866D02*
X168690476Y-78774819D01*
X168690476Y-78108152D02*
X168309524Y-78489104D01*
X153570952Y-78774819D02*
X152999524Y-78774819D01*
X153285238Y-78774819D02*
X153285238Y-77774819D01*
X153285238Y-77774819D02*
X153190000Y-77917676D01*
X153190000Y-77917676D02*
X153094762Y-78012914D01*
X153094762Y-78012914D02*
X152999524Y-78060533D01*
X153999524Y-78774819D02*
X153999524Y-77774819D01*
X154094762Y-78393866D02*
X154380476Y-78774819D01*
X154380476Y-78108152D02*
X153999524Y-78489104D01*
X162314819Y-73690476D02*
X162314819Y-74166666D01*
X162314819Y-74166666D02*
X161314819Y-74166666D01*
X162314819Y-73357142D02*
X161314819Y-73357142D01*
X161314819Y-73357142D02*
X162029104Y-73023809D01*
X162029104Y-73023809D02*
X161314819Y-72690476D01*
X161314819Y-72690476D02*
X162314819Y-72690476D01*
X161314819Y-72309523D02*
X161314819Y-71690476D01*
X161314819Y-71690476D02*
X161695771Y-72023809D01*
X161695771Y-72023809D02*
X161695771Y-71880952D01*
X161695771Y-71880952D02*
X161743390Y-71785714D01*
X161743390Y-71785714D02*
X161791009Y-71738095D01*
X161791009Y-71738095D02*
X161886247Y-71690476D01*
X161886247Y-71690476D02*
X162124342Y-71690476D01*
X162124342Y-71690476D02*
X162219580Y-71738095D01*
X162219580Y-71738095D02*
X162267200Y-71785714D01*
X162267200Y-71785714D02*
X162314819Y-71880952D01*
X162314819Y-71880952D02*
X162314819Y-72166666D01*
X162314819Y-72166666D02*
X162267200Y-72261904D01*
X162267200Y-72261904D02*
X162219580Y-72309523D01*
X162314819Y-70738095D02*
X162314819Y-71309523D01*
X162314819Y-71023809D02*
X161314819Y-71023809D01*
X161314819Y-71023809D02*
X161457676Y-71119047D01*
X161457676Y-71119047D02*
X161552914Y-71214285D01*
X161552914Y-71214285D02*
X161600533Y-71309523D01*
X162314819Y-69785714D02*
X162314819Y-70357142D01*
X162314819Y-70071428D02*
X161314819Y-70071428D01*
X161314819Y-70071428D02*
X161457676Y-70166666D01*
X161457676Y-70166666D02*
X161552914Y-70261904D01*
X161552914Y-70261904D02*
X161600533Y-70357142D01*
X117084819Y-55095713D02*
X117084819Y-54476666D01*
X117084819Y-54476666D02*
X117465771Y-54809999D01*
X117465771Y-54809999D02*
X117465771Y-54667142D01*
X117465771Y-54667142D02*
X117513390Y-54571904D01*
X117513390Y-54571904D02*
X117561009Y-54524285D01*
X117561009Y-54524285D02*
X117656247Y-54476666D01*
X117656247Y-54476666D02*
X117894342Y-54476666D01*
X117894342Y-54476666D02*
X117989580Y-54524285D01*
X117989580Y-54524285D02*
X118037200Y-54571904D01*
X118037200Y-54571904D02*
X118084819Y-54667142D01*
X118084819Y-54667142D02*
X118084819Y-54952856D01*
X118084819Y-54952856D02*
X118037200Y-55048094D01*
X118037200Y-55048094D02*
X117989580Y-55095713D01*
X117084819Y-54143332D02*
X117084819Y-53524285D01*
X117084819Y-53524285D02*
X117465771Y-53857618D01*
X117465771Y-53857618D02*
X117465771Y-53714761D01*
X117465771Y-53714761D02*
X117513390Y-53619523D01*
X117513390Y-53619523D02*
X117561009Y-53571904D01*
X117561009Y-53571904D02*
X117656247Y-53524285D01*
X117656247Y-53524285D02*
X117894342Y-53524285D01*
X117894342Y-53524285D02*
X117989580Y-53571904D01*
X117989580Y-53571904D02*
X118037200Y-53619523D01*
X118037200Y-53619523D02*
X118084819Y-53714761D01*
X118084819Y-53714761D02*
X118084819Y-54000475D01*
X118084819Y-54000475D02*
X118037200Y-54095713D01*
X118037200Y-54095713D02*
X117989580Y-54143332D01*
X117084819Y-52905237D02*
X117084819Y-52809999D01*
X117084819Y-52809999D02*
X117132438Y-52714761D01*
X117132438Y-52714761D02*
X117180057Y-52667142D01*
X117180057Y-52667142D02*
X117275295Y-52619523D01*
X117275295Y-52619523D02*
X117465771Y-52571904D01*
X117465771Y-52571904D02*
X117703866Y-52571904D01*
X117703866Y-52571904D02*
X117894342Y-52619523D01*
X117894342Y-52619523D02*
X117989580Y-52667142D01*
X117989580Y-52667142D02*
X118037200Y-52714761D01*
X118037200Y-52714761D02*
X118084819Y-52809999D01*
X118084819Y-52809999D02*
X118084819Y-52905237D01*
X118084819Y-52905237D02*
X118037200Y-53000475D01*
X118037200Y-53000475D02*
X117989580Y-53048094D01*
X117989580Y-53048094D02*
X117894342Y-53095713D01*
X117894342Y-53095713D02*
X117703866Y-53143332D01*
X117703866Y-53143332D02*
X117465771Y-53143332D01*
X117465771Y-53143332D02*
X117275295Y-53095713D01*
X117275295Y-53095713D02*
X117180057Y-53048094D01*
X117180057Y-53048094D02*
X117132438Y-53000475D01*
X117132438Y-53000475D02*
X117084819Y-52905237D01*
X118084819Y-51571904D02*
X117608628Y-51905237D01*
X118084819Y-52143332D02*
X117084819Y-52143332D01*
X117084819Y-52143332D02*
X117084819Y-51762380D01*
X117084819Y-51762380D02*
X117132438Y-51667142D01*
X117132438Y-51667142D02*
X117180057Y-51619523D01*
X117180057Y-51619523D02*
X117275295Y-51571904D01*
X117275295Y-51571904D02*
X117418152Y-51571904D01*
X117418152Y-51571904D02*
X117513390Y-51619523D01*
X117513390Y-51619523D02*
X117561009Y-51667142D01*
X117561009Y-51667142D02*
X117608628Y-51762380D01*
X117608628Y-51762380D02*
X117608628Y-52143332D01*
X136418152Y-53880476D02*
X137084819Y-53880476D01*
X136037200Y-54118571D02*
X136751485Y-54356666D01*
X136751485Y-54356666D02*
X136751485Y-53737619D01*
X136084819Y-53451904D02*
X136084819Y-52785238D01*
X136084819Y-52785238D02*
X137084819Y-53213809D01*
X137084819Y-52404285D02*
X136084819Y-52404285D01*
X136703866Y-52309047D02*
X137084819Y-52023333D01*
X136418152Y-52023333D02*
X136799104Y-52404285D01*
X193428571Y-60414819D02*
X192857143Y-60414819D01*
X193142857Y-60414819D02*
X193142857Y-59414819D01*
X193142857Y-59414819D02*
X193047619Y-59557676D01*
X193047619Y-59557676D02*
X192952381Y-59652914D01*
X192952381Y-59652914D02*
X192857143Y-59700533D01*
X194047619Y-59414819D02*
X194142857Y-59414819D01*
X194142857Y-59414819D02*
X194238095Y-59462438D01*
X194238095Y-59462438D02*
X194285714Y-59510057D01*
X194285714Y-59510057D02*
X194333333Y-59605295D01*
X194333333Y-59605295D02*
X194380952Y-59795771D01*
X194380952Y-59795771D02*
X194380952Y-60033866D01*
X194380952Y-60033866D02*
X194333333Y-60224342D01*
X194333333Y-60224342D02*
X194285714Y-60319580D01*
X194285714Y-60319580D02*
X194238095Y-60367200D01*
X194238095Y-60367200D02*
X194142857Y-60414819D01*
X194142857Y-60414819D02*
X194047619Y-60414819D01*
X194047619Y-60414819D02*
X193952381Y-60367200D01*
X193952381Y-60367200D02*
X193904762Y-60319580D01*
X193904762Y-60319580D02*
X193857143Y-60224342D01*
X193857143Y-60224342D02*
X193809524Y-60033866D01*
X193809524Y-60033866D02*
X193809524Y-59795771D01*
X193809524Y-59795771D02*
X193857143Y-59605295D01*
X193857143Y-59605295D02*
X193904762Y-59510057D01*
X193904762Y-59510057D02*
X193952381Y-59462438D01*
X193952381Y-59462438D02*
X194047619Y-59414819D01*
X195000000Y-59414819D02*
X195095238Y-59414819D01*
X195095238Y-59414819D02*
X195190476Y-59462438D01*
X195190476Y-59462438D02*
X195238095Y-59510057D01*
X195238095Y-59510057D02*
X195285714Y-59605295D01*
X195285714Y-59605295D02*
X195333333Y-59795771D01*
X195333333Y-59795771D02*
X195333333Y-60033866D01*
X195333333Y-60033866D02*
X195285714Y-60224342D01*
X195285714Y-60224342D02*
X195238095Y-60319580D01*
X195238095Y-60319580D02*
X195190476Y-60367200D01*
X195190476Y-60367200D02*
X195095238Y-60414819D01*
X195095238Y-60414819D02*
X195000000Y-60414819D01*
X195000000Y-60414819D02*
X194904762Y-60367200D01*
X194904762Y-60367200D02*
X194857143Y-60319580D01*
X194857143Y-60319580D02*
X194809524Y-60224342D01*
X194809524Y-60224342D02*
X194761905Y-60033866D01*
X194761905Y-60033866D02*
X194761905Y-59795771D01*
X194761905Y-59795771D02*
X194809524Y-59605295D01*
X194809524Y-59605295D02*
X194857143Y-59510057D01*
X194857143Y-59510057D02*
X194904762Y-59462438D01*
X194904762Y-59462438D02*
X195000000Y-59414819D01*
X195761905Y-60414819D02*
X195761905Y-59414819D01*
X195857143Y-60033866D02*
X196142857Y-60414819D01*
X196142857Y-59748152D02*
X195761905Y-60129104D01*
X164418152Y-54000476D02*
X165084819Y-54000476D01*
X164037200Y-54238571D02*
X164751485Y-54476666D01*
X164751485Y-54476666D02*
X164751485Y-53857619D01*
X164084819Y-53571904D02*
X164084819Y-52905238D01*
X164084819Y-52905238D02*
X165084819Y-53333809D01*
X165084819Y-52524285D02*
X164084819Y-52524285D01*
X164703866Y-52429047D02*
X165084819Y-52143333D01*
X164418152Y-52143333D02*
X164799104Y-52524285D01*
X180880952Y-78954819D02*
X180309524Y-78954819D01*
X180595238Y-78954819D02*
X180595238Y-77954819D01*
X180595238Y-77954819D02*
X180500000Y-78097676D01*
X180500000Y-78097676D02*
X180404762Y-78192914D01*
X180404762Y-78192914D02*
X180309524Y-78240533D01*
X181309524Y-78954819D02*
X181309524Y-77954819D01*
X181404762Y-78573866D02*
X181690476Y-78954819D01*
X181690476Y-78288152D02*
X181309524Y-78669104D01*
X148004819Y-73690476D02*
X148004819Y-74166666D01*
X148004819Y-74166666D02*
X147004819Y-74166666D01*
X148004819Y-73357142D02*
X147004819Y-73357142D01*
X147004819Y-73357142D02*
X147719104Y-73023809D01*
X147719104Y-73023809D02*
X147004819Y-72690476D01*
X147004819Y-72690476D02*
X148004819Y-72690476D01*
X147004819Y-72309523D02*
X147004819Y-71690476D01*
X147004819Y-71690476D02*
X147385771Y-72023809D01*
X147385771Y-72023809D02*
X147385771Y-71880952D01*
X147385771Y-71880952D02*
X147433390Y-71785714D01*
X147433390Y-71785714D02*
X147481009Y-71738095D01*
X147481009Y-71738095D02*
X147576247Y-71690476D01*
X147576247Y-71690476D02*
X147814342Y-71690476D01*
X147814342Y-71690476D02*
X147909580Y-71738095D01*
X147909580Y-71738095D02*
X147957200Y-71785714D01*
X147957200Y-71785714D02*
X148004819Y-71880952D01*
X148004819Y-71880952D02*
X148004819Y-72166666D01*
X148004819Y-72166666D02*
X147957200Y-72261904D01*
X147957200Y-72261904D02*
X147909580Y-72309523D01*
X148004819Y-70738095D02*
X148004819Y-71309523D01*
X148004819Y-71023809D02*
X147004819Y-71023809D01*
X147004819Y-71023809D02*
X147147676Y-71119047D01*
X147147676Y-71119047D02*
X147242914Y-71214285D01*
X147242914Y-71214285D02*
X147290533Y-71309523D01*
X148004819Y-69785714D02*
X148004819Y-70357142D01*
X148004819Y-70071428D02*
X147004819Y-70071428D01*
X147004819Y-70071428D02*
X147147676Y-70166666D01*
X147147676Y-70166666D02*
X147242914Y-70261904D01*
X147242914Y-70261904D02*
X147290533Y-70357142D01*
D12*
%TO.C,R14*%
X176130000Y-50040000D02*
X176130000Y-56580000D01*
X176130000Y-56580000D02*
X176460000Y-56580000D01*
X176460000Y-50040000D02*
X176130000Y-50040000D01*
X178540000Y-50040000D02*
X178870000Y-50040000D01*
X178870000Y-50040000D02*
X178870000Y-56580000D01*
X178870000Y-56580000D02*
X178540000Y-56580000D01*
%TO.C,J1*%
X118590000Y-62110000D02*
X118590000Y-64610000D01*
X118590000Y-64610000D02*
X121090000Y-64610000D01*
X118890000Y-60290000D02*
X118890000Y-64310000D01*
X118890000Y-62000000D02*
X119390000Y-62000000D01*
X118890000Y-62810000D02*
X119890000Y-62810000D01*
X118890000Y-64310000D02*
X131610000Y-64310000D01*
X119390000Y-60790000D02*
X131110000Y-60790000D01*
X119390000Y-62000000D02*
X119390000Y-60790000D01*
X119890000Y-62810000D02*
X119890000Y-64310000D01*
X130610000Y-62810000D02*
X130610000Y-64310000D01*
X131110000Y-60790000D02*
X131110000Y-62000000D01*
X131110000Y-62000000D02*
X131610000Y-62000000D01*
X131610000Y-60290000D02*
X118890000Y-60290000D01*
X131610000Y-62810000D02*
X130610000Y-62810000D01*
X131610000Y-64310000D02*
X131610000Y-60290000D01*
%TO.C,R3*%
X122420000Y-79400000D02*
X122420000Y-79730000D01*
X122420000Y-82140000D02*
X122420000Y-81810000D01*
X128960000Y-79400000D02*
X122420000Y-79400000D01*
X128960000Y-79730000D02*
X128960000Y-79400000D01*
X128960000Y-81810000D02*
X128960000Y-82140000D01*
X128960000Y-82140000D02*
X122420000Y-82140000D01*
%TO.C,J8*%
X191890000Y-67090000D02*
X191890000Y-69590000D01*
X192190000Y-67390000D02*
X192190000Y-82610000D01*
X192190000Y-82610000D02*
X196210000Y-82610000D01*
X193690000Y-67390000D02*
X193690000Y-68390000D01*
X193690000Y-68390000D02*
X192190000Y-68390000D01*
X193690000Y-81610000D02*
X192190000Y-81610000D01*
X193690000Y-82610000D02*
X193690000Y-81610000D01*
X194390000Y-67090000D02*
X191890000Y-67090000D01*
X194500000Y-67390000D02*
X194500000Y-67890000D01*
X194500000Y-67890000D02*
X195710000Y-67890000D01*
X194500000Y-82110000D02*
X194500000Y-82610000D01*
X195710000Y-67890000D02*
X195710000Y-82110000D01*
X195710000Y-82110000D02*
X194500000Y-82110000D01*
X196210000Y-67390000D02*
X192190000Y-67390000D01*
X196210000Y-82610000D02*
X196210000Y-67390000D01*
%TO.C,J2*%
X132590000Y-62110000D02*
X132590000Y-64610000D01*
X132590000Y-64610000D02*
X135090000Y-64610000D01*
X132890000Y-60290000D02*
X132890000Y-64310000D01*
X132890000Y-62000000D02*
X133390000Y-62000000D01*
X132890000Y-62810000D02*
X133890000Y-62810000D01*
X132890000Y-64310000D02*
X145610000Y-64310000D01*
X133390000Y-60790000D02*
X145110000Y-60790000D01*
X133390000Y-62000000D02*
X133390000Y-60790000D01*
X133890000Y-62810000D02*
X133890000Y-64310000D01*
X144610000Y-62810000D02*
X144610000Y-64310000D01*
X145110000Y-60790000D02*
X145110000Y-62000000D01*
X145110000Y-62000000D02*
X145610000Y-62000000D01*
X145610000Y-60290000D02*
X132890000Y-60290000D01*
X145610000Y-62810000D02*
X144610000Y-62810000D01*
X145610000Y-64310000D02*
X145610000Y-60290000D01*
%TO.C,R15*%
X181130000Y-50040000D02*
X181130000Y-56580000D01*
X181130000Y-56580000D02*
X181460000Y-56580000D01*
X181460000Y-50040000D02*
X181130000Y-50040000D01*
X183540000Y-50040000D02*
X183870000Y-50040000D01*
X183870000Y-50040000D02*
X183870000Y-56580000D01*
X183870000Y-56580000D02*
X183540000Y-56580000D01*
%TO.C,R5*%
X132630000Y-50040000D02*
X132630000Y-56580000D01*
X132630000Y-56580000D02*
X132960000Y-56580000D01*
X132960000Y-50040000D02*
X132630000Y-50040000D01*
X135040000Y-50040000D02*
X135370000Y-50040000D01*
X135370000Y-50040000D02*
X135370000Y-56580000D01*
X135370000Y-56580000D02*
X135040000Y-56580000D01*
%TO.C,U2*%
X120360000Y-69440000D02*
X120360000Y-73940000D01*
X120360000Y-73940000D02*
X130640000Y-73940000D01*
X130640000Y-69440000D02*
X120360000Y-69440000D01*
X130640000Y-70690000D02*
X130640000Y-69440000D01*
X130640000Y-73940000D02*
X130640000Y-72690000D01*
X130700000Y-66440000D02*
X120300000Y-66440000D01*
X120300000Y-76940000D01*
X130700000Y-76940000D01*
X130700000Y-66440000D01*
X130640000Y-72690000D02*
G75*
G02*
X130640000Y-70690000I0J1000000D01*
G01*
%TO.C,R8*%
X146630000Y-50040000D02*
X146630000Y-56580000D01*
X146630000Y-56580000D02*
X146960000Y-56580000D01*
X146960000Y-50040000D02*
X146630000Y-50040000D01*
X149040000Y-50040000D02*
X149370000Y-50040000D01*
X149370000Y-50040000D02*
X149370000Y-56580000D01*
X149370000Y-56580000D02*
X149040000Y-56580000D01*
%TO.C,R7*%
X151630000Y-50040000D02*
X151630000Y-56580000D01*
X151630000Y-56580000D02*
X151960000Y-56580000D01*
X151960000Y-50040000D02*
X151630000Y-50040000D01*
X154040000Y-50040000D02*
X154370000Y-50040000D01*
X154370000Y-50040000D02*
X154370000Y-56580000D01*
X154370000Y-56580000D02*
X154040000Y-56580000D01*
%TO.C,J4*%
X160590000Y-62110000D02*
X160590000Y-64610000D01*
X160590000Y-64610000D02*
X163090000Y-64610000D01*
X160890000Y-60290000D02*
X160890000Y-64310000D01*
X160890000Y-62000000D02*
X161390000Y-62000000D01*
X160890000Y-62810000D02*
X161890000Y-62810000D01*
X160890000Y-64310000D02*
X173610000Y-64310000D01*
X161390000Y-60790000D02*
X173110000Y-60790000D01*
X161390000Y-62000000D02*
X161390000Y-60790000D01*
X161890000Y-62810000D02*
X161890000Y-64310000D01*
X172610000Y-62810000D02*
X172610000Y-64310000D01*
X173110000Y-60790000D02*
X173110000Y-62000000D01*
X173110000Y-62000000D02*
X173610000Y-62000000D01*
X173610000Y-60290000D02*
X160890000Y-60290000D01*
X173610000Y-62810000D02*
X172610000Y-62810000D01*
X173610000Y-64310000D02*
X173610000Y-60290000D01*
%TO.C,R1*%
X123630000Y-49920000D02*
X123630000Y-56460000D01*
X123630000Y-56460000D02*
X123960000Y-56460000D01*
X123960000Y-49920000D02*
X123630000Y-49920000D01*
X126040000Y-49920000D02*
X126370000Y-49920000D01*
X126370000Y-49920000D02*
X126370000Y-56460000D01*
X126370000Y-56460000D02*
X126040000Y-56460000D01*
%TO.C,R11*%
X160630000Y-50040000D02*
X160630000Y-56580000D01*
X160630000Y-56580000D02*
X160960000Y-56580000D01*
X160960000Y-50040000D02*
X160630000Y-50040000D01*
X163040000Y-50040000D02*
X163370000Y-50040000D01*
X163370000Y-50040000D02*
X163370000Y-56580000D01*
X163370000Y-56580000D02*
X163040000Y-56580000D01*
%TO.C,J3*%
X146590000Y-62110000D02*
X146590000Y-64610000D01*
X146590000Y-64610000D02*
X149090000Y-64610000D01*
X146890000Y-60290000D02*
X146890000Y-64310000D01*
X146890000Y-62000000D02*
X147390000Y-62000000D01*
X146890000Y-62810000D02*
X147890000Y-62810000D01*
X146890000Y-64310000D02*
X159610000Y-64310000D01*
X147390000Y-60790000D02*
X159110000Y-60790000D01*
X147390000Y-62000000D02*
X147390000Y-60790000D01*
X147890000Y-62810000D02*
X147890000Y-64310000D01*
X158610000Y-62810000D02*
X158610000Y-64310000D01*
X159110000Y-60790000D02*
X159110000Y-62000000D01*
X159110000Y-62000000D02*
X159610000Y-62000000D01*
X159610000Y-60290000D02*
X146890000Y-60290000D01*
X159610000Y-62810000D02*
X158610000Y-62810000D01*
X159610000Y-64310000D02*
X159610000Y-60290000D01*
%TO.C,U1*%
X134550000Y-69440000D02*
X134550000Y-73940000D01*
X134550000Y-73940000D02*
X144830000Y-73940000D01*
X144830000Y-69440000D02*
X134550000Y-69440000D01*
X144830000Y-70690000D02*
X144830000Y-69440000D01*
X144830000Y-73940000D02*
X144830000Y-72690000D01*
X144890000Y-66440000D02*
X134490000Y-66440000D01*
X134490000Y-76940000D01*
X144890000Y-76940000D01*
X144890000Y-66440000D01*
X144830000Y-72690000D02*
G75*
G02*
X144830000Y-70690000I0J1000000D01*
G01*
%TO.C,J7*%
X175590000Y-62110000D02*
X175590000Y-64610000D01*
X175590000Y-64610000D02*
X178090000Y-64610000D01*
X175890000Y-60290000D02*
X175890000Y-64310000D01*
X175890000Y-62000000D02*
X176390000Y-62000000D01*
X175890000Y-62810000D02*
X176890000Y-62810000D01*
X175890000Y-64310000D02*
X188610000Y-64310000D01*
X176390000Y-60790000D02*
X188110000Y-60790000D01*
X176390000Y-62000000D02*
X176390000Y-60790000D01*
X176890000Y-62810000D02*
X176890000Y-64310000D01*
X187610000Y-62810000D02*
X187610000Y-64310000D01*
X188110000Y-60790000D02*
X188110000Y-62000000D01*
X188110000Y-62000000D02*
X188610000Y-62000000D01*
X188610000Y-60290000D02*
X175890000Y-60290000D01*
X188610000Y-62810000D02*
X187610000Y-62810000D01*
X188610000Y-64310000D02*
X188610000Y-60290000D01*
%TO.C,U5*%
X176360000Y-69750000D02*
X176360000Y-74250000D01*
X176360000Y-74250000D02*
X186640000Y-74250000D01*
X186640000Y-69750000D02*
X176360000Y-69750000D01*
X186640000Y-71000000D02*
X186640000Y-69750000D01*
X186640000Y-74250000D02*
X186640000Y-73000000D01*
X186700000Y-66750000D02*
X176300000Y-66750000D01*
X176300000Y-77250000D01*
X186700000Y-77250000D01*
X186700000Y-66750000D01*
X186640000Y-73000000D02*
G75*
G02*
X186640000Y-71000000I0J1000000D01*
G01*
%TO.C,R6*%
X136420000Y-79400000D02*
X136420000Y-79730000D01*
X136420000Y-82140000D02*
X136420000Y-81810000D01*
X142960000Y-79400000D02*
X136420000Y-79400000D01*
X142960000Y-79730000D02*
X142960000Y-79400000D01*
X142960000Y-81810000D02*
X142960000Y-82140000D01*
X142960000Y-82140000D02*
X136420000Y-82140000D01*
%TO.C,R12*%
X164730000Y-79400000D02*
X164730000Y-79730000D01*
X164730000Y-82140000D02*
X164730000Y-81810000D01*
X171270000Y-79400000D02*
X164730000Y-79400000D01*
X171270000Y-79730000D02*
X171270000Y-79400000D01*
X171270000Y-81810000D02*
X171270000Y-82140000D01*
X171270000Y-82140000D02*
X164730000Y-82140000D01*
%TO.C,R9*%
X150420000Y-79400000D02*
X150420000Y-79730000D01*
X150420000Y-82140000D02*
X150420000Y-81810000D01*
X156960000Y-79400000D02*
X150420000Y-79400000D01*
X156960000Y-79730000D02*
X156960000Y-79400000D01*
X156960000Y-81810000D02*
X156960000Y-82140000D01*
X156960000Y-82140000D02*
X150420000Y-82140000D01*
%TO.C,U4*%
X162860000Y-69750000D02*
X162860000Y-74250000D01*
X162860000Y-74250000D02*
X173140000Y-74250000D01*
X173140000Y-69750000D02*
X162860000Y-69750000D01*
X173140000Y-71000000D02*
X173140000Y-69750000D01*
X173140000Y-74250000D02*
X173140000Y-73000000D01*
X173200000Y-66750000D02*
X162800000Y-66750000D01*
X162800000Y-77250000D01*
X173200000Y-77250000D01*
X173200000Y-66750000D01*
X173140000Y-73000000D02*
G75*
G02*
X173140000Y-71000000I0J1000000D01*
G01*
%TO.C,R2*%
X118630000Y-50040000D02*
X118630000Y-56580000D01*
X118630000Y-56580000D02*
X118960000Y-56580000D01*
X118960000Y-50040000D02*
X118630000Y-50040000D01*
X121040000Y-50040000D02*
X121370000Y-50040000D01*
X121370000Y-50040000D02*
X121370000Y-56580000D01*
X121370000Y-56580000D02*
X121040000Y-56580000D01*
%TO.C,R4*%
X137630000Y-49920000D02*
X137630000Y-56460000D01*
X137630000Y-56460000D02*
X137960000Y-56460000D01*
X137960000Y-49920000D02*
X137630000Y-49920000D01*
X140040000Y-49920000D02*
X140370000Y-49920000D01*
X140370000Y-49920000D02*
X140370000Y-56460000D01*
X140370000Y-56460000D02*
X140040000Y-56460000D01*
%TO.C,RV1*%
X191480000Y-49085000D02*
X196530000Y-49085000D01*
X191480000Y-58835000D02*
X191480000Y-49085000D01*
X191480000Y-58835000D02*
X196530000Y-58835000D01*
X196530000Y-58835000D02*
X196530000Y-49085000D01*
%TO.C,R10*%
X165630000Y-50040000D02*
X165630000Y-56580000D01*
X165630000Y-56580000D02*
X165960000Y-56580000D01*
X165960000Y-50040000D02*
X165630000Y-50040000D01*
X168040000Y-50040000D02*
X168370000Y-50040000D01*
X168370000Y-50040000D02*
X168370000Y-56580000D01*
X168370000Y-56580000D02*
X168040000Y-56580000D01*
%TO.C,J6*%
X112890000Y-57590000D02*
X112890000Y-60090000D01*
X113190000Y-57890000D02*
X113190000Y-68110000D01*
X113190000Y-68110000D02*
X117210000Y-68110000D01*
X114690000Y-57890000D02*
X114690000Y-58890000D01*
X114690000Y-58890000D02*
X113190000Y-58890000D01*
X114690000Y-67110000D02*
X113190000Y-67110000D01*
X114690000Y-68110000D02*
X114690000Y-67110000D01*
X115390000Y-57590000D02*
X112890000Y-57590000D01*
X115500000Y-57890000D02*
X115500000Y-58390000D01*
X115500000Y-58390000D02*
X116710000Y-58390000D01*
X115500000Y-67610000D02*
X115500000Y-68110000D01*
X116710000Y-58390000D02*
X116710000Y-67610000D01*
X116710000Y-67610000D02*
X115500000Y-67610000D01*
X117210000Y-57890000D02*
X113190000Y-57890000D01*
X117210000Y-68110000D02*
X117210000Y-57890000D01*
%TO.C,R16*%
X177730000Y-79630000D02*
X177730000Y-79960000D01*
X177730000Y-82370000D02*
X177730000Y-82040000D01*
X184270000Y-79630000D02*
X177730000Y-79630000D01*
X184270000Y-79960000D02*
X184270000Y-79630000D01*
X184270000Y-82040000D02*
X184270000Y-82370000D01*
X184270000Y-82370000D02*
X177730000Y-82370000D01*
%TO.C,U3*%
X148550000Y-69750000D02*
X148550000Y-74250000D01*
X148550000Y-74250000D02*
X158830000Y-74250000D01*
X158830000Y-69750000D02*
X148550000Y-69750000D01*
X158830000Y-71000000D02*
X158830000Y-69750000D01*
X158830000Y-74250000D02*
X158830000Y-73000000D01*
X158890000Y-66750000D02*
X148490000Y-66750000D01*
X148490000Y-77250000D01*
X158890000Y-77250000D01*
X158890000Y-66750000D01*
X158830000Y-73000000D02*
G75*
G02*
X158830000Y-71000000I0J1000000D01*
G01*
%TD*%
M02*
