%TF.GenerationSoftware,KiCad,Pcbnew,9.0.2*%
%TF.CreationDate,2025-07-08T21:37:53-07:00*%
%TF.ProjectId,reflectance,7265666c-6563-4746-916e-63652e6b6963,rev?*%
%TF.SameCoordinates,Original*%
%TF.FileFunction,Soldermask,Top*%
%TF.FilePolarity,Negative*%
%FSLAX46Y46*%
G04 Gerber Fmt 4.6, Leading zero omitted, Abs format (unit mm)*
G04 Created by KiCad (PCBNEW 9.0.2) date 2025-07-08 21:37:53*
%MOMM*%
%LPD*%
G01*
G04 APERTURE LIST*
G04 Aperture macros list*
%AMRoundRect*
0 Rectangle with rounded corners*
0 $1 Rounding radius*
0 $2 $3 $4 $5 $6 $7 $8 $9 X,Y pos of 4 corners*
0 Add a 4 corners polygon primitive as box body*
4,1,4,$2,$3,$4,$5,$6,$7,$8,$9,$2,$3,0*
0 Add four circle primitives for the rounded corners*
1,1,$1+$1,$2,$3*
1,1,$1+$1,$4,$5*
1,1,$1+$1,$6,$7*
1,1,$1+$1,$8,$9*
0 Add four rect primitives between the rounded corners*
20,1,$1+$1,$2,$3,$4,$5,0*
20,1,$1+$1,$4,$5,$6,$7,0*
20,1,$1+$1,$6,$7,$8,$9,0*
20,1,$1+$1,$8,$9,$2,$3,0*%
G04 Aperture macros list end*
%ADD10C,1.600000*%
%ADD11RoundRect,0.250000X-0.600000X-0.725000X0.600000X-0.725000X0.600000X0.725000X-0.600000X0.725000X0*%
%ADD12O,1.700000X1.950000*%
%ADD13RoundRect,0.250000X-0.725000X0.600000X-0.725000X-0.600000X0.725000X-0.600000X0.725000X0.600000X0*%
%ADD14O,1.950000X1.700000*%
%ADD15RoundRect,0.250000X-0.550000X0.950000X-0.550000X-0.950000X0.550000X-0.950000X0.550000X0.950000X0*%
%ADD16O,1.600000X2.400000*%
%ADD17C,3.200000*%
%ADD18C,1.440000*%
G04 APERTURE END LIST*
D10*
%TO.C,R14*%
X177500000Y-49500000D03*
X177500000Y-57120000D03*
%TD*%
D11*
%TO.C,J1*%
X121500000Y-62000000D03*
D12*
X124000000Y-62000000D03*
X126500000Y-62000000D03*
X129000000Y-62000000D03*
%TD*%
D10*
%TO.C,R3*%
X129500000Y-80770000D03*
X121880000Y-80770000D03*
%TD*%
D13*
%TO.C,J8*%
X194500000Y-70000000D03*
D14*
X194500000Y-72500000D03*
X194500000Y-75000000D03*
X194500000Y-77500000D03*
X194500000Y-80000000D03*
%TD*%
D11*
%TO.C,J2*%
X135500000Y-62000000D03*
D12*
X138000000Y-62000000D03*
X140500000Y-62000000D03*
X143000000Y-62000000D03*
%TD*%
D10*
%TO.C,R15*%
X182500000Y-49500000D03*
X182500000Y-57120000D03*
%TD*%
%TO.C,R5*%
X134000000Y-49500000D03*
X134000000Y-57120000D03*
%TD*%
D15*
%TO.C,U2*%
X129310000Y-67880000D03*
D16*
X126770000Y-67880000D03*
X124230000Y-67880000D03*
X121690000Y-67880000D03*
X121690000Y-75500000D03*
X124230000Y-75500000D03*
X126770000Y-75500000D03*
X129310000Y-75500000D03*
%TD*%
D10*
%TO.C,R8*%
X148000000Y-49500000D03*
X148000000Y-57120000D03*
%TD*%
D17*
%TO.C,H3*%
X201500000Y-82500000D03*
%TD*%
D10*
%TO.C,R7*%
X153000000Y-49500000D03*
X153000000Y-57120000D03*
%TD*%
D11*
%TO.C,J4*%
X163500000Y-62000000D03*
D12*
X166000000Y-62000000D03*
X168500000Y-62000000D03*
X171000000Y-62000000D03*
%TD*%
D17*
%TO.C,H4*%
X112500000Y-82500000D03*
%TD*%
D10*
%TO.C,R1*%
X125000000Y-49380000D03*
X125000000Y-57000000D03*
%TD*%
%TO.C,R11*%
X162000000Y-49500000D03*
X162000000Y-57120000D03*
%TD*%
D11*
%TO.C,J3*%
X149500000Y-62000000D03*
D12*
X152000000Y-62000000D03*
X154500000Y-62000000D03*
X157000000Y-62000000D03*
%TD*%
D15*
%TO.C,U1*%
X143500000Y-67880000D03*
D16*
X140960000Y-67880000D03*
X138420000Y-67880000D03*
X135880000Y-67880000D03*
X135880000Y-75500000D03*
X138420000Y-75500000D03*
X140960000Y-75500000D03*
X143500000Y-75500000D03*
%TD*%
D11*
%TO.C,J7*%
X178500000Y-62000000D03*
D12*
X181000000Y-62000000D03*
X183500000Y-62000000D03*
X186000000Y-62000000D03*
%TD*%
D15*
%TO.C,U5*%
X185310000Y-68190000D03*
D16*
X182770000Y-68190000D03*
X180230000Y-68190000D03*
X177690000Y-68190000D03*
X177690000Y-75810000D03*
X180230000Y-75810000D03*
X182770000Y-75810000D03*
X185310000Y-75810000D03*
%TD*%
D10*
%TO.C,R6*%
X143500000Y-80770000D03*
X135880000Y-80770000D03*
%TD*%
D17*
%TO.C,H1*%
X112500000Y-49000000D03*
%TD*%
D10*
%TO.C,R12*%
X171810000Y-80770000D03*
X164190000Y-80770000D03*
%TD*%
%TO.C,R9*%
X157500000Y-80770000D03*
X149880000Y-80770000D03*
%TD*%
D15*
%TO.C,U4*%
X171810000Y-68190000D03*
D16*
X169270000Y-68190000D03*
X166730000Y-68190000D03*
X164190000Y-68190000D03*
X164190000Y-75810000D03*
X166730000Y-75810000D03*
X169270000Y-75810000D03*
X171810000Y-75810000D03*
%TD*%
D17*
%TO.C,H2*%
X201500000Y-49000000D03*
%TD*%
D10*
%TO.C,R2*%
X120000000Y-49500000D03*
X120000000Y-57120000D03*
%TD*%
%TO.C,R4*%
X139000000Y-49380000D03*
X139000000Y-57000000D03*
%TD*%
D18*
%TO.C,RV1*%
X194000000Y-51420000D03*
X194000000Y-53960000D03*
X194000000Y-56500000D03*
%TD*%
D10*
%TO.C,R10*%
X167000000Y-49500000D03*
X167000000Y-57120000D03*
%TD*%
D13*
%TO.C,J6*%
X115500000Y-60500000D03*
D14*
X115500000Y-63000000D03*
X115500000Y-65500000D03*
%TD*%
D10*
%TO.C,R16*%
X184810000Y-81000000D03*
X177190000Y-81000000D03*
%TD*%
D15*
%TO.C,U3*%
X157500000Y-68190000D03*
D16*
X154960000Y-68190000D03*
X152420000Y-68190000D03*
X149880000Y-68190000D03*
X149880000Y-75810000D03*
X152420000Y-75810000D03*
X154960000Y-75810000D03*
X157500000Y-75810000D03*
%TD*%
M02*
