M48
; DRILL file {KiCad 9.0.2} date 2025-07-08T23:57:02-0700
; FORMAT={-:-/ absolute / metric / decimal}
; #@! TF.CreationDate,2025-07-08T23:57:02-07:00
; #@! TF.GenerationSoftware,Kicad,Pcbnew,9.0.2
; #@! TF.FileFunction,Plated,1,2,PTH
FMAT,2
METRIC
; #@! TA.AperFunction,Plated,PTH,ComponentDrill
T1C0.750
; #@! TA.AperFunction,Plated,PTH,ComponentDrill
T2C0.800
; #@! TA.AperFunction,Plated,PTH,ComponentDrill
T3C1.000
; #@! TA.AperFunction,Plated,PTH,ComponentDrill
T4C1.050
; #@! TA.AperFunction,Plated,PTH,ComponentDrill
T5C1.100
; #@! TA.AperFunction,Plated,PTH,ComponentDrill
T6C1.200
%
G90
G05
T1
X115.68Y-128.67
X116.95Y-127.4
X116.95Y-129.94
X122.39Y-90.9
X123.66Y-89.63
X123.66Y-92.17
X138.45Y-114.38
X138.45Y-116.92
X138.45Y-120.13
X138.45Y-122.67
X138.51Y-85.9
X138.53Y-79.13
X139.72Y-115.65
X139.72Y-121.4
X139.78Y-84.63
X139.78Y-87.17
X139.8Y-77.86
X139.8Y-80.4
X162.91Y-91.29
X164.04Y-107.86
X164.18Y-90.02
X165.31Y-106.59
X165.31Y-109.13
X165.45Y-91.29
X193.68Y-104.532
X193.75Y-89.86
X193.75Y-92.4
X194.95Y-105.802
X195.02Y-91.13
X196.22Y-104.532
T2
X91.95Y-74.55
X91.95Y-87.25
X91.95Y-109.05
X91.95Y-121.75
X98.45Y-82.6
X98.45Y-95.3
X98.45Y-100.35
X98.45Y-113.05
X101.1Y-75.4
X103.25Y-95.4
X103.25Y-100.4
X103.89Y-104.09
X103.89Y-106.63
X103.89Y-109.17
X103.89Y-111.71
X104.16Y-83.95
X104.16Y-86.49
X104.16Y-89.03
X104.16Y-91.57
X104.2Y-117.4
X104.2Y-130.1
X111.45Y-115.55
X111.45Y-128.25
X111.51Y-104.09
X111.51Y-106.63
X111.51Y-109.17
X111.51Y-111.71
X111.78Y-83.95
X111.78Y-86.49
X111.78Y-89.03
X111.78Y-91.57
X113.8Y-75.4
X115.95Y-95.4
X115.95Y-100.4
X119.45Y-102.9
X121.75Y-95.7
X121.95Y-102.9
X125.95Y-126.4
X125.95Y-130.4
X127.1Y-68.9
X127.1Y-73.4
X134.45Y-95.7
X134.7Y-102.15
X134.7Y-104.65
X138.65Y-126.4
X138.65Y-130.4
X139.8Y-68.9
X139.8Y-73.4
X147.33Y-84.08
X147.33Y-86.62
X147.33Y-89.16
X147.33Y-91.7
X147.33Y-94.24
X147.33Y-96.78
X147.33Y-99.32
X147.33Y-101.86
X147.33Y-104.4
X147.33Y-106.94
X149.95Y-80.66
X149.95Y-110.41
X150.95Y-75.66
X150.95Y-115.16
X153.45Y-75.66
X153.45Y-115.16
X154.95Y-80.66
X154.95Y-84.08
X154.95Y-86.62
X154.95Y-89.16
X154.95Y-91.7
X154.95Y-94.24
X154.95Y-96.78
X154.95Y-99.32
X154.95Y-101.86
X154.95Y-104.4
X154.95Y-106.94
X154.95Y-110.41
X174.975Y-96.9
X174.975Y-99.4
X176.95Y-78.4
X177.45Y-119.8
X181.95Y-78.4
X182.45Y-119.8
T3
X91.95Y-92.9
X91.95Y-95.4
X91.95Y-97.9
X91.95Y-100.4
X91.95Y-102.9
X178.2Y-74.15
X178.5Y-124.2
X180.7Y-74.15
X181.0Y-124.2
T4
X182.45Y-96.9
X182.45Y-99.4
T5
X125.7Y-103.65
X125.7Y-106.19
X125.7Y-108.73
X169.45Y-73.94
X169.45Y-76.48
X169.45Y-79.02
X170.35Y-106.61
X170.35Y-109.15
X170.35Y-111.69
X171.45Y-84.82
X171.45Y-87.36
X171.45Y-89.9
X172.4Y-117.32
X172.4Y-119.86
X172.4Y-122.4
X187.45Y-73.88
X187.45Y-76.42
X187.45Y-78.96
X187.55Y-106.45
X187.55Y-108.99
X187.55Y-111.53
X189.25Y-84.9
X189.25Y-87.44
X189.25Y-89.98
X189.55Y-117.17
X189.55Y-119.71
X189.55Y-122.25
T6
X117.95Y-111.55
X117.95Y-124.25
X118.3Y-78.2
X118.3Y-90.9
X121.6Y-115.65
X121.6Y-121.34
X122.6Y-79.19
X122.68Y-85.88
X134.3Y-115.65
X134.3Y-121.34
X135.3Y-79.19
X135.38Y-85.88
X164.45Y-74.02
X164.45Y-86.72
X165.45Y-112.34
X165.45Y-125.04
X194.95Y-109.532
X194.95Y-122.232
X195.25Y-73.55
X195.25Y-86.25
M30
