%TF.GenerationSoftware,KiCad,Pcbnew,9.0.2*%
%TF.CreationDate,2025-07-11T15:27:11-07:00*%
%TF.ProjectId,I2C mux buffer,49324320-6d75-4782-9062-75666665722e,rev?*%
%TF.SameCoordinates,Original*%
%TF.FileFunction,Legend,Top*%
%TF.FilePolarity,Positive*%
%FSLAX46Y46*%
G04 Gerber Fmt 4.6, Leading zero omitted, Abs format (unit mm)*
G04 Created by KiCad (PCBNEW 9.0.2) date 2025-07-11 15:27:11*
%MOMM*%
%LPD*%
G01*
G04 APERTURE LIST*
%ADD10C,0.150000*%
%ADD11C,0.125000*%
%ADD12C,0.200000*%
%ADD13C,0.120000*%
G04 APERTURE END LIST*
D10*
X49336779Y-74509875D02*
X49336779Y-73509875D01*
X49765350Y-73605113D02*
X49812969Y-73557494D01*
X49812969Y-73557494D02*
X49908207Y-73509875D01*
X49908207Y-73509875D02*
X50146302Y-73509875D01*
X50146302Y-73509875D02*
X50241540Y-73557494D01*
X50241540Y-73557494D02*
X50289159Y-73605113D01*
X50289159Y-73605113D02*
X50336778Y-73700351D01*
X50336778Y-73700351D02*
X50336778Y-73795589D01*
X50336778Y-73795589D02*
X50289159Y-73938446D01*
X50289159Y-73938446D02*
X49717731Y-74509875D01*
X49717731Y-74509875D02*
X50336778Y-74509875D01*
X51336778Y-74414636D02*
X51289159Y-74462256D01*
X51289159Y-74462256D02*
X51146302Y-74509875D01*
X51146302Y-74509875D02*
X51051064Y-74509875D01*
X51051064Y-74509875D02*
X50908207Y-74462256D01*
X50908207Y-74462256D02*
X50812969Y-74367017D01*
X50812969Y-74367017D02*
X50765350Y-74271779D01*
X50765350Y-74271779D02*
X50717731Y-74081303D01*
X50717731Y-74081303D02*
X50717731Y-73938446D01*
X50717731Y-73938446D02*
X50765350Y-73747970D01*
X50765350Y-73747970D02*
X50812969Y-73652732D01*
X50812969Y-73652732D02*
X50908207Y-73557494D01*
X50908207Y-73557494D02*
X51051064Y-73509875D01*
X51051064Y-73509875D02*
X51146302Y-73509875D01*
X51146302Y-73509875D02*
X51289159Y-73557494D01*
X51289159Y-73557494D02*
X51336778Y-73605113D01*
X52527255Y-74509875D02*
X52527255Y-73509875D01*
X52527255Y-73509875D02*
X52860588Y-74224160D01*
X52860588Y-74224160D02*
X53193921Y-73509875D01*
X53193921Y-73509875D02*
X53193921Y-74509875D01*
X54098683Y-73843208D02*
X54098683Y-74509875D01*
X53670112Y-73843208D02*
X53670112Y-74367017D01*
X53670112Y-74367017D02*
X53717731Y-74462256D01*
X53717731Y-74462256D02*
X53812969Y-74509875D01*
X53812969Y-74509875D02*
X53955826Y-74509875D01*
X53955826Y-74509875D02*
X54051064Y-74462256D01*
X54051064Y-74462256D02*
X54098683Y-74414636D01*
X54479636Y-74509875D02*
X55003445Y-73843208D01*
X54479636Y-73843208D02*
X55003445Y-74509875D01*
X56146303Y-74128922D02*
X56908208Y-74128922D01*
X56527255Y-74509875D02*
X56527255Y-73747970D01*
X58479636Y-73986065D02*
X58622493Y-74033684D01*
X58622493Y-74033684D02*
X58670112Y-74081303D01*
X58670112Y-74081303D02*
X58717731Y-74176541D01*
X58717731Y-74176541D02*
X58717731Y-74319398D01*
X58717731Y-74319398D02*
X58670112Y-74414636D01*
X58670112Y-74414636D02*
X58622493Y-74462256D01*
X58622493Y-74462256D02*
X58527255Y-74509875D01*
X58527255Y-74509875D02*
X58146303Y-74509875D01*
X58146303Y-74509875D02*
X58146303Y-73509875D01*
X58146303Y-73509875D02*
X58479636Y-73509875D01*
X58479636Y-73509875D02*
X58574874Y-73557494D01*
X58574874Y-73557494D02*
X58622493Y-73605113D01*
X58622493Y-73605113D02*
X58670112Y-73700351D01*
X58670112Y-73700351D02*
X58670112Y-73795589D01*
X58670112Y-73795589D02*
X58622493Y-73890827D01*
X58622493Y-73890827D02*
X58574874Y-73938446D01*
X58574874Y-73938446D02*
X58479636Y-73986065D01*
X58479636Y-73986065D02*
X58146303Y-73986065D01*
X59574874Y-73843208D02*
X59574874Y-74509875D01*
X59146303Y-73843208D02*
X59146303Y-74367017D01*
X59146303Y-74367017D02*
X59193922Y-74462256D01*
X59193922Y-74462256D02*
X59289160Y-74509875D01*
X59289160Y-74509875D02*
X59432017Y-74509875D01*
X59432017Y-74509875D02*
X59527255Y-74462256D01*
X59527255Y-74462256D02*
X59574874Y-74414636D01*
X59908208Y-73843208D02*
X60289160Y-73843208D01*
X60051065Y-74509875D02*
X60051065Y-73652732D01*
X60051065Y-73652732D02*
X60098684Y-73557494D01*
X60098684Y-73557494D02*
X60193922Y-73509875D01*
X60193922Y-73509875D02*
X60289160Y-73509875D01*
X60479637Y-73843208D02*
X60860589Y-73843208D01*
X60622494Y-74509875D02*
X60622494Y-73652732D01*
X60622494Y-73652732D02*
X60670113Y-73557494D01*
X60670113Y-73557494D02*
X60765351Y-73509875D01*
X60765351Y-73509875D02*
X60860589Y-73509875D01*
X61574875Y-74462256D02*
X61479637Y-74509875D01*
X61479637Y-74509875D02*
X61289161Y-74509875D01*
X61289161Y-74509875D02*
X61193923Y-74462256D01*
X61193923Y-74462256D02*
X61146304Y-74367017D01*
X61146304Y-74367017D02*
X61146304Y-73986065D01*
X61146304Y-73986065D02*
X61193923Y-73890827D01*
X61193923Y-73890827D02*
X61289161Y-73843208D01*
X61289161Y-73843208D02*
X61479637Y-73843208D01*
X61479637Y-73843208D02*
X61574875Y-73890827D01*
X61574875Y-73890827D02*
X61622494Y-73986065D01*
X61622494Y-73986065D02*
X61622494Y-74081303D01*
X61622494Y-74081303D02*
X61146304Y-74176541D01*
X62051066Y-74509875D02*
X62051066Y-73843208D01*
X62051066Y-74033684D02*
X62098685Y-73938446D01*
X62098685Y-73938446D02*
X62146304Y-73890827D01*
X62146304Y-73890827D02*
X62241542Y-73843208D01*
X62241542Y-73843208D02*
X62336780Y-73843208D01*
X63289162Y-73509875D02*
X63622495Y-74509875D01*
X63622495Y-74509875D02*
X63955828Y-73509875D01*
X64812971Y-74509875D02*
X64241543Y-74509875D01*
X64527257Y-74509875D02*
X64527257Y-73509875D01*
X64527257Y-73509875D02*
X64432019Y-73652732D01*
X64432019Y-73652732D02*
X64336781Y-73747970D01*
X64336781Y-73747970D02*
X64241543Y-73795589D01*
X65241543Y-74414636D02*
X65289162Y-74462256D01*
X65289162Y-74462256D02*
X65241543Y-74509875D01*
X65241543Y-74509875D02*
X65193924Y-74462256D01*
X65193924Y-74462256D02*
X65241543Y-74414636D01*
X65241543Y-74414636D02*
X65241543Y-74509875D01*
X65908209Y-73509875D02*
X66003447Y-73509875D01*
X66003447Y-73509875D02*
X66098685Y-73557494D01*
X66098685Y-73557494D02*
X66146304Y-73605113D01*
X66146304Y-73605113D02*
X66193923Y-73700351D01*
X66193923Y-73700351D02*
X66241542Y-73890827D01*
X66241542Y-73890827D02*
X66241542Y-74128922D01*
X66241542Y-74128922D02*
X66193923Y-74319398D01*
X66193923Y-74319398D02*
X66146304Y-74414636D01*
X66146304Y-74414636D02*
X66098685Y-74462256D01*
X66098685Y-74462256D02*
X66003447Y-74509875D01*
X66003447Y-74509875D02*
X65908209Y-74509875D01*
X65908209Y-74509875D02*
X65812971Y-74462256D01*
X65812971Y-74462256D02*
X65765352Y-74414636D01*
X65765352Y-74414636D02*
X65717733Y-74319398D01*
X65717733Y-74319398D02*
X65670114Y-74128922D01*
X65670114Y-74128922D02*
X65670114Y-73890827D01*
X65670114Y-73890827D02*
X65717733Y-73700351D01*
X65717733Y-73700351D02*
X65765352Y-73605113D01*
X65765352Y-73605113D02*
X65812971Y-73557494D01*
X65812971Y-73557494D02*
X65908209Y-73509875D01*
X49193922Y-75119819D02*
X49765350Y-75119819D01*
X49479636Y-76119819D02*
X49479636Y-75119819D01*
X50479636Y-76072200D02*
X50384398Y-76119819D01*
X50384398Y-76119819D02*
X50193922Y-76119819D01*
X50193922Y-76119819D02*
X50098684Y-76072200D01*
X50098684Y-76072200D02*
X50051065Y-75976961D01*
X50051065Y-75976961D02*
X50051065Y-75596009D01*
X50051065Y-75596009D02*
X50098684Y-75500771D01*
X50098684Y-75500771D02*
X50193922Y-75453152D01*
X50193922Y-75453152D02*
X50384398Y-75453152D01*
X50384398Y-75453152D02*
X50479636Y-75500771D01*
X50479636Y-75500771D02*
X50527255Y-75596009D01*
X50527255Y-75596009D02*
X50527255Y-75691247D01*
X50527255Y-75691247D02*
X50051065Y-75786485D01*
X51384398Y-76119819D02*
X51384398Y-75596009D01*
X51384398Y-75596009D02*
X51336779Y-75500771D01*
X51336779Y-75500771D02*
X51241541Y-75453152D01*
X51241541Y-75453152D02*
X51051065Y-75453152D01*
X51051065Y-75453152D02*
X50955827Y-75500771D01*
X51384398Y-76072200D02*
X51289160Y-76119819D01*
X51289160Y-76119819D02*
X51051065Y-76119819D01*
X51051065Y-76119819D02*
X50955827Y-76072200D01*
X50955827Y-76072200D02*
X50908208Y-75976961D01*
X50908208Y-75976961D02*
X50908208Y-75881723D01*
X50908208Y-75881723D02*
X50955827Y-75786485D01*
X50955827Y-75786485D02*
X51051065Y-75738866D01*
X51051065Y-75738866D02*
X51289160Y-75738866D01*
X51289160Y-75738866D02*
X51384398Y-75691247D01*
X51860589Y-76119819D02*
X51860589Y-75453152D01*
X51860589Y-75548390D02*
X51908208Y-75500771D01*
X51908208Y-75500771D02*
X52003446Y-75453152D01*
X52003446Y-75453152D02*
X52146303Y-75453152D01*
X52146303Y-75453152D02*
X52241541Y-75500771D01*
X52241541Y-75500771D02*
X52289160Y-75596009D01*
X52289160Y-75596009D02*
X52289160Y-76119819D01*
X52289160Y-75596009D02*
X52336779Y-75500771D01*
X52336779Y-75500771D02*
X52432017Y-75453152D01*
X52432017Y-75453152D02*
X52574874Y-75453152D01*
X52574874Y-75453152D02*
X52670113Y-75500771D01*
X52670113Y-75500771D02*
X52717732Y-75596009D01*
X52717732Y-75596009D02*
X52717732Y-76119819D01*
X54384398Y-75453152D02*
X54384398Y-76119819D01*
X54146303Y-75072200D02*
X53908208Y-75786485D01*
X53908208Y-75786485D02*
X54527255Y-75786485D01*
X55670113Y-75738866D02*
X56432018Y-75738866D01*
X57670113Y-76119819D02*
X57670113Y-75119819D01*
X57670113Y-75596009D02*
X58241541Y-75596009D01*
X58241541Y-76119819D02*
X58241541Y-75119819D01*
X58860589Y-76119819D02*
X58765351Y-76072200D01*
X58765351Y-76072200D02*
X58717732Y-76024580D01*
X58717732Y-76024580D02*
X58670113Y-75929342D01*
X58670113Y-75929342D02*
X58670113Y-75643628D01*
X58670113Y-75643628D02*
X58717732Y-75548390D01*
X58717732Y-75548390D02*
X58765351Y-75500771D01*
X58765351Y-75500771D02*
X58860589Y-75453152D01*
X58860589Y-75453152D02*
X59003446Y-75453152D01*
X59003446Y-75453152D02*
X59098684Y-75500771D01*
X59098684Y-75500771D02*
X59146303Y-75548390D01*
X59146303Y-75548390D02*
X59193922Y-75643628D01*
X59193922Y-75643628D02*
X59193922Y-75929342D01*
X59193922Y-75929342D02*
X59146303Y-76024580D01*
X59146303Y-76024580D02*
X59098684Y-76072200D01*
X59098684Y-76072200D02*
X59003446Y-76119819D01*
X59003446Y-76119819D02*
X58860589Y-76119819D01*
X59479637Y-75453152D02*
X59860589Y-75453152D01*
X59622494Y-75119819D02*
X59622494Y-75976961D01*
X59622494Y-75976961D02*
X59670113Y-76072200D01*
X59670113Y-76072200D02*
X59765351Y-76119819D01*
X59765351Y-76119819D02*
X59860589Y-76119819D01*
X60955828Y-76119819D02*
X60955828Y-75119819D01*
X60955828Y-75119819D02*
X61193923Y-75119819D01*
X61193923Y-75119819D02*
X61336780Y-75167438D01*
X61336780Y-75167438D02*
X61432018Y-75262676D01*
X61432018Y-75262676D02*
X61479637Y-75357914D01*
X61479637Y-75357914D02*
X61527256Y-75548390D01*
X61527256Y-75548390D02*
X61527256Y-75691247D01*
X61527256Y-75691247D02*
X61479637Y-75881723D01*
X61479637Y-75881723D02*
X61432018Y-75976961D01*
X61432018Y-75976961D02*
X61336780Y-76072200D01*
X61336780Y-76072200D02*
X61193923Y-76119819D01*
X61193923Y-76119819D02*
X60955828Y-76119819D01*
X62384399Y-76119819D02*
X62384399Y-75596009D01*
X62384399Y-75596009D02*
X62336780Y-75500771D01*
X62336780Y-75500771D02*
X62241542Y-75453152D01*
X62241542Y-75453152D02*
X62051066Y-75453152D01*
X62051066Y-75453152D02*
X61955828Y-75500771D01*
X62384399Y-76072200D02*
X62289161Y-76119819D01*
X62289161Y-76119819D02*
X62051066Y-76119819D01*
X62051066Y-76119819D02*
X61955828Y-76072200D01*
X61955828Y-76072200D02*
X61908209Y-75976961D01*
X61908209Y-75976961D02*
X61908209Y-75881723D01*
X61908209Y-75881723D02*
X61955828Y-75786485D01*
X61955828Y-75786485D02*
X62051066Y-75738866D01*
X62051066Y-75738866D02*
X62289161Y-75738866D01*
X62289161Y-75738866D02*
X62384399Y-75691247D01*
X62765352Y-75453152D02*
X62955828Y-76119819D01*
X62955828Y-76119819D02*
X63146304Y-75643628D01*
X63146304Y-75643628D02*
X63336780Y-76119819D01*
X63336780Y-76119819D02*
X63527256Y-75453152D01*
X64336780Y-75453152D02*
X64336780Y-76262676D01*
X64336780Y-76262676D02*
X64289161Y-76357914D01*
X64289161Y-76357914D02*
X64241542Y-76405533D01*
X64241542Y-76405533D02*
X64146304Y-76453152D01*
X64146304Y-76453152D02*
X64003447Y-76453152D01*
X64003447Y-76453152D02*
X63908209Y-76405533D01*
X64336780Y-76072200D02*
X64241542Y-76119819D01*
X64241542Y-76119819D02*
X64051066Y-76119819D01*
X64051066Y-76119819D02*
X63955828Y-76072200D01*
X63955828Y-76072200D02*
X63908209Y-76024580D01*
X63908209Y-76024580D02*
X63860590Y-75929342D01*
X63860590Y-75929342D02*
X63860590Y-75643628D01*
X63860590Y-75643628D02*
X63908209Y-75548390D01*
X63908209Y-75548390D02*
X63955828Y-75500771D01*
X63955828Y-75500771D02*
X64051066Y-75453152D01*
X64051066Y-75453152D02*
X64241542Y-75453152D01*
X64241542Y-75453152D02*
X64336780Y-75500771D01*
X64765352Y-76072200D02*
X64860590Y-76119819D01*
X64860590Y-76119819D02*
X65051066Y-76119819D01*
X65051066Y-76119819D02*
X65146304Y-76072200D01*
X65146304Y-76072200D02*
X65193923Y-75976961D01*
X65193923Y-75976961D02*
X65193923Y-75929342D01*
X65193923Y-75929342D02*
X65146304Y-75834104D01*
X65146304Y-75834104D02*
X65051066Y-75786485D01*
X65051066Y-75786485D02*
X64908209Y-75786485D01*
X64908209Y-75786485D02*
X64812971Y-75738866D01*
X64812971Y-75738866D02*
X64765352Y-75643628D01*
X64765352Y-75643628D02*
X64765352Y-75596009D01*
X64765352Y-75596009D02*
X64812971Y-75500771D01*
X64812971Y-75500771D02*
X64908209Y-75453152D01*
X64908209Y-75453152D02*
X65051066Y-75453152D01*
X65051066Y-75453152D02*
X65146304Y-75500771D01*
D11*
X52456119Y-88226190D02*
X51979928Y-88392856D01*
X52456119Y-88511904D02*
X51456119Y-88511904D01*
X51456119Y-88511904D02*
X51456119Y-88321428D01*
X51456119Y-88321428D02*
X51503738Y-88273809D01*
X51503738Y-88273809D02*
X51551357Y-88249999D01*
X51551357Y-88249999D02*
X51646595Y-88226190D01*
X51646595Y-88226190D02*
X51789452Y-88226190D01*
X51789452Y-88226190D02*
X51884690Y-88249999D01*
X51884690Y-88249999D02*
X51932309Y-88273809D01*
X51932309Y-88273809D02*
X51979928Y-88321428D01*
X51979928Y-88321428D02*
X51979928Y-88511904D01*
X51932309Y-88011904D02*
X51932309Y-87845237D01*
X52456119Y-87773809D02*
X52456119Y-88011904D01*
X52456119Y-88011904D02*
X51456119Y-88011904D01*
X51456119Y-88011904D02*
X51456119Y-87773809D01*
X52408500Y-87583332D02*
X52456119Y-87511904D01*
X52456119Y-87511904D02*
X52456119Y-87392856D01*
X52456119Y-87392856D02*
X52408500Y-87345237D01*
X52408500Y-87345237D02*
X52360880Y-87321428D01*
X52360880Y-87321428D02*
X52265642Y-87297618D01*
X52265642Y-87297618D02*
X52170404Y-87297618D01*
X52170404Y-87297618D02*
X52075166Y-87321428D01*
X52075166Y-87321428D02*
X52027547Y-87345237D01*
X52027547Y-87345237D02*
X51979928Y-87392856D01*
X51979928Y-87392856D02*
X51932309Y-87488094D01*
X51932309Y-87488094D02*
X51884690Y-87535713D01*
X51884690Y-87535713D02*
X51837071Y-87559523D01*
X51837071Y-87559523D02*
X51741833Y-87583332D01*
X51741833Y-87583332D02*
X51646595Y-87583332D01*
X51646595Y-87583332D02*
X51551357Y-87559523D01*
X51551357Y-87559523D02*
X51503738Y-87535713D01*
X51503738Y-87535713D02*
X51456119Y-87488094D01*
X51456119Y-87488094D02*
X51456119Y-87369047D01*
X51456119Y-87369047D02*
X51503738Y-87297618D01*
X51932309Y-87083333D02*
X51932309Y-86916666D01*
X52456119Y-86845238D02*
X52456119Y-87083333D01*
X52456119Y-87083333D02*
X51456119Y-87083333D01*
X51456119Y-87083333D02*
X51456119Y-86845238D01*
X51456119Y-86702380D02*
X51456119Y-86416666D01*
X52456119Y-86559523D02*
X51456119Y-86559523D01*
X61238095Y-94863595D02*
X60952381Y-94863595D01*
X61095238Y-94863595D02*
X61095238Y-94063595D01*
X61095238Y-94063595D02*
X61047619Y-94177880D01*
X61047619Y-94177880D02*
X61000000Y-94254071D01*
X61000000Y-94254071D02*
X60952381Y-94292166D01*
X61452380Y-94863595D02*
X61452380Y-94063595D01*
X61499999Y-94558833D02*
X61642856Y-94863595D01*
X61642856Y-94330261D02*
X61452380Y-94635023D01*
X73392858Y-97408500D02*
X73464286Y-97456119D01*
X73464286Y-97456119D02*
X73583334Y-97456119D01*
X73583334Y-97456119D02*
X73630953Y-97408500D01*
X73630953Y-97408500D02*
X73654762Y-97360880D01*
X73654762Y-97360880D02*
X73678572Y-97265642D01*
X73678572Y-97265642D02*
X73678572Y-97170404D01*
X73678572Y-97170404D02*
X73654762Y-97075166D01*
X73654762Y-97075166D02*
X73630953Y-97027547D01*
X73630953Y-97027547D02*
X73583334Y-96979928D01*
X73583334Y-96979928D02*
X73488096Y-96932309D01*
X73488096Y-96932309D02*
X73440477Y-96884690D01*
X73440477Y-96884690D02*
X73416667Y-96837071D01*
X73416667Y-96837071D02*
X73392858Y-96741833D01*
X73392858Y-96741833D02*
X73392858Y-96646595D01*
X73392858Y-96646595D02*
X73416667Y-96551357D01*
X73416667Y-96551357D02*
X73440477Y-96503738D01*
X73440477Y-96503738D02*
X73488096Y-96456119D01*
X73488096Y-96456119D02*
X73607143Y-96456119D01*
X73607143Y-96456119D02*
X73678572Y-96503738D01*
X73892857Y-97456119D02*
X73892857Y-96456119D01*
X73892857Y-96456119D02*
X74011905Y-96456119D01*
X74011905Y-96456119D02*
X74083333Y-96503738D01*
X74083333Y-96503738D02*
X74130952Y-96598976D01*
X74130952Y-96598976D02*
X74154762Y-96694214D01*
X74154762Y-96694214D02*
X74178571Y-96884690D01*
X74178571Y-96884690D02*
X74178571Y-97027547D01*
X74178571Y-97027547D02*
X74154762Y-97218023D01*
X74154762Y-97218023D02*
X74130952Y-97313261D01*
X74130952Y-97313261D02*
X74083333Y-97408500D01*
X74083333Y-97408500D02*
X74011905Y-97456119D01*
X74011905Y-97456119D02*
X73892857Y-97456119D01*
X74369048Y-97170404D02*
X74607143Y-97170404D01*
X74321429Y-97456119D02*
X74488095Y-96456119D01*
X74488095Y-96456119D02*
X74654762Y-97456119D01*
X103908500Y-86607141D02*
X103956119Y-86535713D01*
X103956119Y-86535713D02*
X103956119Y-86416665D01*
X103956119Y-86416665D02*
X103908500Y-86369046D01*
X103908500Y-86369046D02*
X103860880Y-86345237D01*
X103860880Y-86345237D02*
X103765642Y-86321427D01*
X103765642Y-86321427D02*
X103670404Y-86321427D01*
X103670404Y-86321427D02*
X103575166Y-86345237D01*
X103575166Y-86345237D02*
X103527547Y-86369046D01*
X103527547Y-86369046D02*
X103479928Y-86416665D01*
X103479928Y-86416665D02*
X103432309Y-86511903D01*
X103432309Y-86511903D02*
X103384690Y-86559522D01*
X103384690Y-86559522D02*
X103337071Y-86583332D01*
X103337071Y-86583332D02*
X103241833Y-86607141D01*
X103241833Y-86607141D02*
X103146595Y-86607141D01*
X103146595Y-86607141D02*
X103051357Y-86583332D01*
X103051357Y-86583332D02*
X103003738Y-86559522D01*
X103003738Y-86559522D02*
X102956119Y-86511903D01*
X102956119Y-86511903D02*
X102956119Y-86392856D01*
X102956119Y-86392856D02*
X103003738Y-86321427D01*
X103956119Y-86107142D02*
X102956119Y-86107142D01*
X102956119Y-86107142D02*
X102956119Y-85988094D01*
X102956119Y-85988094D02*
X103003738Y-85916666D01*
X103003738Y-85916666D02*
X103098976Y-85869047D01*
X103098976Y-85869047D02*
X103194214Y-85845237D01*
X103194214Y-85845237D02*
X103384690Y-85821428D01*
X103384690Y-85821428D02*
X103527547Y-85821428D01*
X103527547Y-85821428D02*
X103718023Y-85845237D01*
X103718023Y-85845237D02*
X103813261Y-85869047D01*
X103813261Y-85869047D02*
X103908500Y-85916666D01*
X103908500Y-85916666D02*
X103956119Y-85988094D01*
X103956119Y-85988094D02*
X103956119Y-86107142D01*
X103670404Y-85630951D02*
X103670404Y-85392856D01*
X103956119Y-85678570D02*
X102956119Y-85511904D01*
X102956119Y-85511904D02*
X103956119Y-85345237D01*
X103003738Y-81380952D02*
X102956119Y-81428571D01*
X102956119Y-81428571D02*
X102956119Y-81500000D01*
X102956119Y-81500000D02*
X103003738Y-81571428D01*
X103003738Y-81571428D02*
X103098976Y-81619047D01*
X103098976Y-81619047D02*
X103194214Y-81642857D01*
X103194214Y-81642857D02*
X103384690Y-81666666D01*
X103384690Y-81666666D02*
X103527547Y-81666666D01*
X103527547Y-81666666D02*
X103718023Y-81642857D01*
X103718023Y-81642857D02*
X103813261Y-81619047D01*
X103813261Y-81619047D02*
X103908500Y-81571428D01*
X103908500Y-81571428D02*
X103956119Y-81500000D01*
X103956119Y-81500000D02*
X103956119Y-81452381D01*
X103956119Y-81452381D02*
X103908500Y-81380952D01*
X103908500Y-81380952D02*
X103860880Y-81357143D01*
X103860880Y-81357143D02*
X103527547Y-81357143D01*
X103527547Y-81357143D02*
X103527547Y-81452381D01*
X103956119Y-81142857D02*
X102956119Y-81142857D01*
X102956119Y-81142857D02*
X103956119Y-80857143D01*
X103956119Y-80857143D02*
X102956119Y-80857143D01*
X103956119Y-80619047D02*
X102956119Y-80619047D01*
X102956119Y-80619047D02*
X102956119Y-80499999D01*
X102956119Y-80499999D02*
X103003738Y-80428571D01*
X103003738Y-80428571D02*
X103098976Y-80380952D01*
X103098976Y-80380952D02*
X103194214Y-80357142D01*
X103194214Y-80357142D02*
X103384690Y-80333333D01*
X103384690Y-80333333D02*
X103527547Y-80333333D01*
X103527547Y-80333333D02*
X103718023Y-80357142D01*
X103718023Y-80357142D02*
X103813261Y-80380952D01*
X103813261Y-80380952D02*
X103908500Y-80428571D01*
X103908500Y-80428571D02*
X103956119Y-80499999D01*
X103956119Y-80499999D02*
X103956119Y-80619047D01*
X61440476Y-88363595D02*
X61154762Y-88363595D01*
X61297619Y-88363595D02*
X61297619Y-87563595D01*
X61297619Y-87563595D02*
X61250000Y-87677880D01*
X61250000Y-87677880D02*
X61202381Y-87754071D01*
X61202381Y-87754071D02*
X61154762Y-87792166D01*
X61654761Y-88363595D02*
X61654761Y-87563595D01*
X61702380Y-88058833D02*
X61845237Y-88363595D01*
X61845237Y-87830261D02*
X61654761Y-88135023D01*
X75904762Y-97408500D02*
X75976190Y-97456119D01*
X75976190Y-97456119D02*
X76095238Y-97456119D01*
X76095238Y-97456119D02*
X76142857Y-97408500D01*
X76142857Y-97408500D02*
X76166666Y-97360880D01*
X76166666Y-97360880D02*
X76190476Y-97265642D01*
X76190476Y-97265642D02*
X76190476Y-97170404D01*
X76190476Y-97170404D02*
X76166666Y-97075166D01*
X76166666Y-97075166D02*
X76142857Y-97027547D01*
X76142857Y-97027547D02*
X76095238Y-96979928D01*
X76095238Y-96979928D02*
X76000000Y-96932309D01*
X76000000Y-96932309D02*
X75952381Y-96884690D01*
X75952381Y-96884690D02*
X75928571Y-96837071D01*
X75928571Y-96837071D02*
X75904762Y-96741833D01*
X75904762Y-96741833D02*
X75904762Y-96646595D01*
X75904762Y-96646595D02*
X75928571Y-96551357D01*
X75928571Y-96551357D02*
X75952381Y-96503738D01*
X75952381Y-96503738D02*
X76000000Y-96456119D01*
X76000000Y-96456119D02*
X76119047Y-96456119D01*
X76119047Y-96456119D02*
X76190476Y-96503738D01*
X76690475Y-97360880D02*
X76666666Y-97408500D01*
X76666666Y-97408500D02*
X76595237Y-97456119D01*
X76595237Y-97456119D02*
X76547618Y-97456119D01*
X76547618Y-97456119D02*
X76476190Y-97408500D01*
X76476190Y-97408500D02*
X76428571Y-97313261D01*
X76428571Y-97313261D02*
X76404761Y-97218023D01*
X76404761Y-97218023D02*
X76380952Y-97027547D01*
X76380952Y-97027547D02*
X76380952Y-96884690D01*
X76380952Y-96884690D02*
X76404761Y-96694214D01*
X76404761Y-96694214D02*
X76428571Y-96598976D01*
X76428571Y-96598976D02*
X76476190Y-96503738D01*
X76476190Y-96503738D02*
X76547618Y-96456119D01*
X76547618Y-96456119D02*
X76595237Y-96456119D01*
X76595237Y-96456119D02*
X76666666Y-96503738D01*
X76666666Y-96503738D02*
X76690475Y-96551357D01*
X77142856Y-97456119D02*
X76904761Y-97456119D01*
X76904761Y-97456119D02*
X76904761Y-96456119D01*
X84226191Y-86363595D02*
X83940477Y-86363595D01*
X84083334Y-86363595D02*
X84083334Y-85563595D01*
X84083334Y-85563595D02*
X84035715Y-85677880D01*
X84035715Y-85677880D02*
X83988096Y-85754071D01*
X83988096Y-85754071D02*
X83940477Y-85792166D01*
X84535714Y-85563595D02*
X84583333Y-85563595D01*
X84583333Y-85563595D02*
X84630952Y-85601690D01*
X84630952Y-85601690D02*
X84654762Y-85639785D01*
X84654762Y-85639785D02*
X84678571Y-85715976D01*
X84678571Y-85715976D02*
X84702381Y-85868357D01*
X84702381Y-85868357D02*
X84702381Y-86058833D01*
X84702381Y-86058833D02*
X84678571Y-86211214D01*
X84678571Y-86211214D02*
X84654762Y-86287404D01*
X84654762Y-86287404D02*
X84630952Y-86325500D01*
X84630952Y-86325500D02*
X84583333Y-86363595D01*
X84583333Y-86363595D02*
X84535714Y-86363595D01*
X84535714Y-86363595D02*
X84488095Y-86325500D01*
X84488095Y-86325500D02*
X84464286Y-86287404D01*
X84464286Y-86287404D02*
X84440476Y-86211214D01*
X84440476Y-86211214D02*
X84416667Y-86058833D01*
X84416667Y-86058833D02*
X84416667Y-85868357D01*
X84416667Y-85868357D02*
X84440476Y-85715976D01*
X84440476Y-85715976D02*
X84464286Y-85639785D01*
X84464286Y-85639785D02*
X84488095Y-85601690D01*
X84488095Y-85601690D02*
X84535714Y-85563595D01*
X85011904Y-85563595D02*
X85059523Y-85563595D01*
X85059523Y-85563595D02*
X85107142Y-85601690D01*
X85107142Y-85601690D02*
X85130952Y-85639785D01*
X85130952Y-85639785D02*
X85154761Y-85715976D01*
X85154761Y-85715976D02*
X85178571Y-85868357D01*
X85178571Y-85868357D02*
X85178571Y-86058833D01*
X85178571Y-86058833D02*
X85154761Y-86211214D01*
X85154761Y-86211214D02*
X85130952Y-86287404D01*
X85130952Y-86287404D02*
X85107142Y-86325500D01*
X85107142Y-86325500D02*
X85059523Y-86363595D01*
X85059523Y-86363595D02*
X85011904Y-86363595D01*
X85011904Y-86363595D02*
X84964285Y-86325500D01*
X84964285Y-86325500D02*
X84940476Y-86287404D01*
X84940476Y-86287404D02*
X84916666Y-86211214D01*
X84916666Y-86211214D02*
X84892857Y-86058833D01*
X84892857Y-86058833D02*
X84892857Y-85868357D01*
X84892857Y-85868357D02*
X84916666Y-85715976D01*
X84916666Y-85715976D02*
X84940476Y-85639785D01*
X84940476Y-85639785D02*
X84964285Y-85601690D01*
X84964285Y-85601690D02*
X85011904Y-85563595D01*
X85392856Y-85830261D02*
X85392856Y-86363595D01*
X85392856Y-85906452D02*
X85416666Y-85868357D01*
X85416666Y-85868357D02*
X85464285Y-85830261D01*
X85464285Y-85830261D02*
X85535713Y-85830261D01*
X85535713Y-85830261D02*
X85583332Y-85868357D01*
X85583332Y-85868357D02*
X85607142Y-85944547D01*
X85607142Y-85944547D02*
X85607142Y-86363595D01*
X86011904Y-85944547D02*
X85845237Y-85944547D01*
X85845237Y-86363595D02*
X85845237Y-85563595D01*
X85845237Y-85563595D02*
X86083332Y-85563595D01*
X89940476Y-77363595D02*
X89654762Y-77363595D01*
X89797619Y-77363595D02*
X89797619Y-76563595D01*
X89797619Y-76563595D02*
X89750000Y-76677880D01*
X89750000Y-76677880D02*
X89702381Y-76754071D01*
X89702381Y-76754071D02*
X89654762Y-76792166D01*
X90154761Y-77363595D02*
X90154761Y-76563595D01*
X90202380Y-77058833D02*
X90345237Y-77363595D01*
X90345237Y-76830261D02*
X90154761Y-77135023D01*
X70880953Y-96456119D02*
X71190477Y-96456119D01*
X71190477Y-96456119D02*
X71023810Y-96837071D01*
X71023810Y-96837071D02*
X71095239Y-96837071D01*
X71095239Y-96837071D02*
X71142858Y-96884690D01*
X71142858Y-96884690D02*
X71166667Y-96932309D01*
X71166667Y-96932309D02*
X71190477Y-97027547D01*
X71190477Y-97027547D02*
X71190477Y-97265642D01*
X71190477Y-97265642D02*
X71166667Y-97360880D01*
X71166667Y-97360880D02*
X71142858Y-97408500D01*
X71142858Y-97408500D02*
X71095239Y-97456119D01*
X71095239Y-97456119D02*
X70952382Y-97456119D01*
X70952382Y-97456119D02*
X70904763Y-97408500D01*
X70904763Y-97408500D02*
X70880953Y-97360880D01*
X71333334Y-96456119D02*
X71500000Y-97456119D01*
X71500000Y-97456119D02*
X71666667Y-96456119D01*
X71785714Y-96456119D02*
X72095238Y-96456119D01*
X72095238Y-96456119D02*
X71928571Y-96837071D01*
X71928571Y-96837071D02*
X72000000Y-96837071D01*
X72000000Y-96837071D02*
X72047619Y-96884690D01*
X72047619Y-96884690D02*
X72071428Y-96932309D01*
X72071428Y-96932309D02*
X72095238Y-97027547D01*
X72095238Y-97027547D02*
X72095238Y-97265642D01*
X72095238Y-97265642D02*
X72071428Y-97360880D01*
X72071428Y-97360880D02*
X72047619Y-97408500D01*
X72047619Y-97408500D02*
X72000000Y-97456119D01*
X72000000Y-97456119D02*
X71857143Y-97456119D01*
X71857143Y-97456119D02*
X71809524Y-97408500D01*
X71809524Y-97408500D02*
X71785714Y-97360880D01*
X61440476Y-81863595D02*
X61154762Y-81863595D01*
X61297619Y-81863595D02*
X61297619Y-81063595D01*
X61297619Y-81063595D02*
X61250000Y-81177880D01*
X61250000Y-81177880D02*
X61202381Y-81254071D01*
X61202381Y-81254071D02*
X61154762Y-81292166D01*
X61654761Y-81863595D02*
X61654761Y-81063595D01*
X61702380Y-81558833D02*
X61845237Y-81863595D01*
X61845237Y-81330261D02*
X61654761Y-81635023D01*
X52408500Y-83607141D02*
X52456119Y-83535713D01*
X52456119Y-83535713D02*
X52456119Y-83416665D01*
X52456119Y-83416665D02*
X52408500Y-83369046D01*
X52408500Y-83369046D02*
X52360880Y-83345237D01*
X52360880Y-83345237D02*
X52265642Y-83321427D01*
X52265642Y-83321427D02*
X52170404Y-83321427D01*
X52170404Y-83321427D02*
X52075166Y-83345237D01*
X52075166Y-83345237D02*
X52027547Y-83369046D01*
X52027547Y-83369046D02*
X51979928Y-83416665D01*
X51979928Y-83416665D02*
X51932309Y-83511903D01*
X51932309Y-83511903D02*
X51884690Y-83559522D01*
X51884690Y-83559522D02*
X51837071Y-83583332D01*
X51837071Y-83583332D02*
X51741833Y-83607141D01*
X51741833Y-83607141D02*
X51646595Y-83607141D01*
X51646595Y-83607141D02*
X51551357Y-83583332D01*
X51551357Y-83583332D02*
X51503738Y-83559522D01*
X51503738Y-83559522D02*
X51456119Y-83511903D01*
X51456119Y-83511903D02*
X51456119Y-83392856D01*
X51456119Y-83392856D02*
X51503738Y-83321427D01*
X52456119Y-83107142D02*
X51456119Y-83107142D01*
X51456119Y-83107142D02*
X51456119Y-82988094D01*
X51456119Y-82988094D02*
X51503738Y-82916666D01*
X51503738Y-82916666D02*
X51598976Y-82869047D01*
X51598976Y-82869047D02*
X51694214Y-82845237D01*
X51694214Y-82845237D02*
X51884690Y-82821428D01*
X51884690Y-82821428D02*
X52027547Y-82821428D01*
X52027547Y-82821428D02*
X52218023Y-82845237D01*
X52218023Y-82845237D02*
X52313261Y-82869047D01*
X52313261Y-82869047D02*
X52408500Y-82916666D01*
X52408500Y-82916666D02*
X52456119Y-82988094D01*
X52456119Y-82988094D02*
X52456119Y-83107142D01*
X52170404Y-82630951D02*
X52170404Y-82392856D01*
X52456119Y-82678570D02*
X51456119Y-82511904D01*
X51456119Y-82511904D02*
X52456119Y-82345237D01*
X103908500Y-84095237D02*
X103956119Y-84023809D01*
X103956119Y-84023809D02*
X103956119Y-83904761D01*
X103956119Y-83904761D02*
X103908500Y-83857142D01*
X103908500Y-83857142D02*
X103860880Y-83833333D01*
X103860880Y-83833333D02*
X103765642Y-83809523D01*
X103765642Y-83809523D02*
X103670404Y-83809523D01*
X103670404Y-83809523D02*
X103575166Y-83833333D01*
X103575166Y-83833333D02*
X103527547Y-83857142D01*
X103527547Y-83857142D02*
X103479928Y-83904761D01*
X103479928Y-83904761D02*
X103432309Y-83999999D01*
X103432309Y-83999999D02*
X103384690Y-84047618D01*
X103384690Y-84047618D02*
X103337071Y-84071428D01*
X103337071Y-84071428D02*
X103241833Y-84095237D01*
X103241833Y-84095237D02*
X103146595Y-84095237D01*
X103146595Y-84095237D02*
X103051357Y-84071428D01*
X103051357Y-84071428D02*
X103003738Y-84047618D01*
X103003738Y-84047618D02*
X102956119Y-83999999D01*
X102956119Y-83999999D02*
X102956119Y-83880952D01*
X102956119Y-83880952D02*
X103003738Y-83809523D01*
X103860880Y-83309524D02*
X103908500Y-83333333D01*
X103908500Y-83333333D02*
X103956119Y-83404762D01*
X103956119Y-83404762D02*
X103956119Y-83452381D01*
X103956119Y-83452381D02*
X103908500Y-83523809D01*
X103908500Y-83523809D02*
X103813261Y-83571428D01*
X103813261Y-83571428D02*
X103718023Y-83595238D01*
X103718023Y-83595238D02*
X103527547Y-83619047D01*
X103527547Y-83619047D02*
X103384690Y-83619047D01*
X103384690Y-83619047D02*
X103194214Y-83595238D01*
X103194214Y-83595238D02*
X103098976Y-83571428D01*
X103098976Y-83571428D02*
X103003738Y-83523809D01*
X103003738Y-83523809D02*
X102956119Y-83452381D01*
X102956119Y-83452381D02*
X102956119Y-83404762D01*
X102956119Y-83404762D02*
X103003738Y-83333333D01*
X103003738Y-83333333D02*
X103051357Y-83309524D01*
X103956119Y-82857143D02*
X103956119Y-83095238D01*
X103956119Y-83095238D02*
X102956119Y-83095238D01*
X79119047Y-96503738D02*
X79071428Y-96456119D01*
X79071428Y-96456119D02*
X78999999Y-96456119D01*
X78999999Y-96456119D02*
X78928571Y-96503738D01*
X78928571Y-96503738D02*
X78880952Y-96598976D01*
X78880952Y-96598976D02*
X78857142Y-96694214D01*
X78857142Y-96694214D02*
X78833333Y-96884690D01*
X78833333Y-96884690D02*
X78833333Y-97027547D01*
X78833333Y-97027547D02*
X78857142Y-97218023D01*
X78857142Y-97218023D02*
X78880952Y-97313261D01*
X78880952Y-97313261D02*
X78928571Y-97408500D01*
X78928571Y-97408500D02*
X78999999Y-97456119D01*
X78999999Y-97456119D02*
X79047618Y-97456119D01*
X79047618Y-97456119D02*
X79119047Y-97408500D01*
X79119047Y-97408500D02*
X79142856Y-97360880D01*
X79142856Y-97360880D02*
X79142856Y-97027547D01*
X79142856Y-97027547D02*
X79047618Y-97027547D01*
X79357142Y-97456119D02*
X79357142Y-96456119D01*
X79357142Y-96456119D02*
X79642856Y-97456119D01*
X79642856Y-97456119D02*
X79642856Y-96456119D01*
X79880952Y-97456119D02*
X79880952Y-96456119D01*
X79880952Y-96456119D02*
X80000000Y-96456119D01*
X80000000Y-96456119D02*
X80071428Y-96503738D01*
X80071428Y-96503738D02*
X80119047Y-96598976D01*
X80119047Y-96598976D02*
X80142857Y-96694214D01*
X80142857Y-96694214D02*
X80166666Y-96884690D01*
X80166666Y-96884690D02*
X80166666Y-97027547D01*
X80166666Y-97027547D02*
X80142857Y-97218023D01*
X80142857Y-97218023D02*
X80119047Y-97313261D01*
X80119047Y-97313261D02*
X80071428Y-97408500D01*
X80071428Y-97408500D02*
X80000000Y-97456119D01*
X80000000Y-97456119D02*
X79880952Y-97456119D01*
X51456119Y-81619046D02*
X51456119Y-81309522D01*
X51456119Y-81309522D02*
X51837071Y-81476189D01*
X51837071Y-81476189D02*
X51837071Y-81404760D01*
X51837071Y-81404760D02*
X51884690Y-81357141D01*
X51884690Y-81357141D02*
X51932309Y-81333332D01*
X51932309Y-81333332D02*
X52027547Y-81309522D01*
X52027547Y-81309522D02*
X52265642Y-81309522D01*
X52265642Y-81309522D02*
X52360880Y-81333332D01*
X52360880Y-81333332D02*
X52408500Y-81357141D01*
X52408500Y-81357141D02*
X52456119Y-81404760D01*
X52456119Y-81404760D02*
X52456119Y-81547617D01*
X52456119Y-81547617D02*
X52408500Y-81595236D01*
X52408500Y-81595236D02*
X52360880Y-81619046D01*
X51456119Y-81166665D02*
X52456119Y-80999999D01*
X52456119Y-80999999D02*
X51456119Y-80833332D01*
X51456119Y-80714285D02*
X51456119Y-80404761D01*
X51456119Y-80404761D02*
X51837071Y-80571428D01*
X51837071Y-80571428D02*
X51837071Y-80499999D01*
X51837071Y-80499999D02*
X51884690Y-80452380D01*
X51884690Y-80452380D02*
X51932309Y-80428571D01*
X51932309Y-80428571D02*
X52027547Y-80404761D01*
X52027547Y-80404761D02*
X52265642Y-80404761D01*
X52265642Y-80404761D02*
X52360880Y-80428571D01*
X52360880Y-80428571D02*
X52408500Y-80452380D01*
X52408500Y-80452380D02*
X52456119Y-80499999D01*
X52456119Y-80499999D02*
X52456119Y-80642856D01*
X52456119Y-80642856D02*
X52408500Y-80690475D01*
X52408500Y-80690475D02*
X52360880Y-80714285D01*
X102956119Y-89119046D02*
X102956119Y-88809522D01*
X102956119Y-88809522D02*
X103337071Y-88976189D01*
X103337071Y-88976189D02*
X103337071Y-88904760D01*
X103337071Y-88904760D02*
X103384690Y-88857141D01*
X103384690Y-88857141D02*
X103432309Y-88833332D01*
X103432309Y-88833332D02*
X103527547Y-88809522D01*
X103527547Y-88809522D02*
X103765642Y-88809522D01*
X103765642Y-88809522D02*
X103860880Y-88833332D01*
X103860880Y-88833332D02*
X103908500Y-88857141D01*
X103908500Y-88857141D02*
X103956119Y-88904760D01*
X103956119Y-88904760D02*
X103956119Y-89047617D01*
X103956119Y-89047617D02*
X103908500Y-89095236D01*
X103908500Y-89095236D02*
X103860880Y-89119046D01*
X102956119Y-88666665D02*
X103956119Y-88499999D01*
X103956119Y-88499999D02*
X102956119Y-88333332D01*
X102956119Y-88214285D02*
X102956119Y-87904761D01*
X102956119Y-87904761D02*
X103337071Y-88071428D01*
X103337071Y-88071428D02*
X103337071Y-87999999D01*
X103337071Y-87999999D02*
X103384690Y-87952380D01*
X103384690Y-87952380D02*
X103432309Y-87928571D01*
X103432309Y-87928571D02*
X103527547Y-87904761D01*
X103527547Y-87904761D02*
X103765642Y-87904761D01*
X103765642Y-87904761D02*
X103860880Y-87928571D01*
X103860880Y-87928571D02*
X103908500Y-87952380D01*
X103908500Y-87952380D02*
X103956119Y-87999999D01*
X103956119Y-87999999D02*
X103956119Y-88142856D01*
X103956119Y-88142856D02*
X103908500Y-88190475D01*
X103908500Y-88190475D02*
X103860880Y-88214285D01*
X51503738Y-90380952D02*
X51456119Y-90428571D01*
X51456119Y-90428571D02*
X51456119Y-90500000D01*
X51456119Y-90500000D02*
X51503738Y-90571428D01*
X51503738Y-90571428D02*
X51598976Y-90619047D01*
X51598976Y-90619047D02*
X51694214Y-90642857D01*
X51694214Y-90642857D02*
X51884690Y-90666666D01*
X51884690Y-90666666D02*
X52027547Y-90666666D01*
X52027547Y-90666666D02*
X52218023Y-90642857D01*
X52218023Y-90642857D02*
X52313261Y-90619047D01*
X52313261Y-90619047D02*
X52408500Y-90571428D01*
X52408500Y-90571428D02*
X52456119Y-90500000D01*
X52456119Y-90500000D02*
X52456119Y-90452381D01*
X52456119Y-90452381D02*
X52408500Y-90380952D01*
X52408500Y-90380952D02*
X52360880Y-90357143D01*
X52360880Y-90357143D02*
X52027547Y-90357143D01*
X52027547Y-90357143D02*
X52027547Y-90452381D01*
X52456119Y-90142857D02*
X51456119Y-90142857D01*
X51456119Y-90142857D02*
X52456119Y-89857143D01*
X52456119Y-89857143D02*
X51456119Y-89857143D01*
X52456119Y-89619047D02*
X51456119Y-89619047D01*
X51456119Y-89619047D02*
X51456119Y-89499999D01*
X51456119Y-89499999D02*
X51503738Y-89428571D01*
X51503738Y-89428571D02*
X51598976Y-89380952D01*
X51598976Y-89380952D02*
X51694214Y-89357142D01*
X51694214Y-89357142D02*
X51884690Y-89333333D01*
X51884690Y-89333333D02*
X52027547Y-89333333D01*
X52027547Y-89333333D02*
X52218023Y-89357142D01*
X52218023Y-89357142D02*
X52313261Y-89380952D01*
X52313261Y-89380952D02*
X52408500Y-89428571D01*
X52408500Y-89428571D02*
X52456119Y-89499999D01*
X52456119Y-89499999D02*
X52456119Y-89619047D01*
X52408500Y-85595237D02*
X52456119Y-85523809D01*
X52456119Y-85523809D02*
X52456119Y-85404761D01*
X52456119Y-85404761D02*
X52408500Y-85357142D01*
X52408500Y-85357142D02*
X52360880Y-85333333D01*
X52360880Y-85333333D02*
X52265642Y-85309523D01*
X52265642Y-85309523D02*
X52170404Y-85309523D01*
X52170404Y-85309523D02*
X52075166Y-85333333D01*
X52075166Y-85333333D02*
X52027547Y-85357142D01*
X52027547Y-85357142D02*
X51979928Y-85404761D01*
X51979928Y-85404761D02*
X51932309Y-85499999D01*
X51932309Y-85499999D02*
X51884690Y-85547618D01*
X51884690Y-85547618D02*
X51837071Y-85571428D01*
X51837071Y-85571428D02*
X51741833Y-85595237D01*
X51741833Y-85595237D02*
X51646595Y-85595237D01*
X51646595Y-85595237D02*
X51551357Y-85571428D01*
X51551357Y-85571428D02*
X51503738Y-85547618D01*
X51503738Y-85547618D02*
X51456119Y-85499999D01*
X51456119Y-85499999D02*
X51456119Y-85380952D01*
X51456119Y-85380952D02*
X51503738Y-85309523D01*
X52360880Y-84809524D02*
X52408500Y-84833333D01*
X52408500Y-84833333D02*
X52456119Y-84904762D01*
X52456119Y-84904762D02*
X52456119Y-84952381D01*
X52456119Y-84952381D02*
X52408500Y-85023809D01*
X52408500Y-85023809D02*
X52313261Y-85071428D01*
X52313261Y-85071428D02*
X52218023Y-85095238D01*
X52218023Y-85095238D02*
X52027547Y-85119047D01*
X52027547Y-85119047D02*
X51884690Y-85119047D01*
X51884690Y-85119047D02*
X51694214Y-85095238D01*
X51694214Y-85095238D02*
X51598976Y-85071428D01*
X51598976Y-85071428D02*
X51503738Y-85023809D01*
X51503738Y-85023809D02*
X51456119Y-84952381D01*
X51456119Y-84952381D02*
X51456119Y-84904762D01*
X51456119Y-84904762D02*
X51503738Y-84833333D01*
X51503738Y-84833333D02*
X51551357Y-84809524D01*
X52456119Y-84357143D02*
X52456119Y-84595238D01*
X52456119Y-84595238D02*
X51456119Y-84595238D01*
X85619049Y-90563595D02*
X85619049Y-91211214D01*
X85619049Y-91211214D02*
X85642859Y-91287404D01*
X85642859Y-91287404D02*
X85666668Y-91325500D01*
X85666668Y-91325500D02*
X85714287Y-91363595D01*
X85714287Y-91363595D02*
X85809525Y-91363595D01*
X85809525Y-91363595D02*
X85857144Y-91325500D01*
X85857144Y-91325500D02*
X85880954Y-91287404D01*
X85880954Y-91287404D02*
X85904763Y-91211214D01*
X85904763Y-91211214D02*
X85904763Y-90563595D01*
X86119050Y-90639785D02*
X86142859Y-90601690D01*
X86142859Y-90601690D02*
X86190478Y-90563595D01*
X86190478Y-90563595D02*
X86309526Y-90563595D01*
X86309526Y-90563595D02*
X86357145Y-90601690D01*
X86357145Y-90601690D02*
X86380954Y-90639785D01*
X86380954Y-90639785D02*
X86404764Y-90715976D01*
X86404764Y-90715976D02*
X86404764Y-90792166D01*
X86404764Y-90792166D02*
X86380954Y-90906452D01*
X86380954Y-90906452D02*
X86095240Y-91363595D01*
X86095240Y-91363595D02*
X86404764Y-91363595D01*
X88916666Y-97363595D02*
X88750000Y-96982642D01*
X88630952Y-97363595D02*
X88630952Y-96563595D01*
X88630952Y-96563595D02*
X88821428Y-96563595D01*
X88821428Y-96563595D02*
X88869047Y-96601690D01*
X88869047Y-96601690D02*
X88892857Y-96639785D01*
X88892857Y-96639785D02*
X88916666Y-96715976D01*
X88916666Y-96715976D02*
X88916666Y-96830261D01*
X88916666Y-96830261D02*
X88892857Y-96906452D01*
X88892857Y-96906452D02*
X88869047Y-96944547D01*
X88869047Y-96944547D02*
X88821428Y-96982642D01*
X88821428Y-96982642D02*
X88630952Y-96982642D01*
X89345238Y-96563595D02*
X89250000Y-96563595D01*
X89250000Y-96563595D02*
X89202381Y-96601690D01*
X89202381Y-96601690D02*
X89178571Y-96639785D01*
X89178571Y-96639785D02*
X89130952Y-96754071D01*
X89130952Y-96754071D02*
X89107143Y-96906452D01*
X89107143Y-96906452D02*
X89107143Y-97211214D01*
X89107143Y-97211214D02*
X89130952Y-97287404D01*
X89130952Y-97287404D02*
X89154762Y-97325500D01*
X89154762Y-97325500D02*
X89202381Y-97363595D01*
X89202381Y-97363595D02*
X89297619Y-97363595D01*
X89297619Y-97363595D02*
X89345238Y-97325500D01*
X89345238Y-97325500D02*
X89369047Y-97287404D01*
X89369047Y-97287404D02*
X89392857Y-97211214D01*
X89392857Y-97211214D02*
X89392857Y-97020738D01*
X89392857Y-97020738D02*
X89369047Y-96944547D01*
X89369047Y-96944547D02*
X89345238Y-96906452D01*
X89345238Y-96906452D02*
X89297619Y-96868357D01*
X89297619Y-96868357D02*
X89202381Y-96868357D01*
X89202381Y-96868357D02*
X89154762Y-96906452D01*
X89154762Y-96906452D02*
X89130952Y-96944547D01*
X89130952Y-96944547D02*
X89107143Y-97020738D01*
X91202381Y-97363595D02*
X90916667Y-97363595D01*
X91059524Y-97363595D02*
X91059524Y-96563595D01*
X91059524Y-96563595D02*
X91011905Y-96677880D01*
X91011905Y-96677880D02*
X90964286Y-96754071D01*
X90964286Y-96754071D02*
X90916667Y-96792166D01*
X91511904Y-96563595D02*
X91559523Y-96563595D01*
X91559523Y-96563595D02*
X91607142Y-96601690D01*
X91607142Y-96601690D02*
X91630952Y-96639785D01*
X91630952Y-96639785D02*
X91654761Y-96715976D01*
X91654761Y-96715976D02*
X91678571Y-96868357D01*
X91678571Y-96868357D02*
X91678571Y-97058833D01*
X91678571Y-97058833D02*
X91654761Y-97211214D01*
X91654761Y-97211214D02*
X91630952Y-97287404D01*
X91630952Y-97287404D02*
X91607142Y-97325500D01*
X91607142Y-97325500D02*
X91559523Y-97363595D01*
X91559523Y-97363595D02*
X91511904Y-97363595D01*
X91511904Y-97363595D02*
X91464285Y-97325500D01*
X91464285Y-97325500D02*
X91440476Y-97287404D01*
X91440476Y-97287404D02*
X91416666Y-97211214D01*
X91416666Y-97211214D02*
X91392857Y-97058833D01*
X91392857Y-97058833D02*
X91392857Y-96868357D01*
X91392857Y-96868357D02*
X91416666Y-96715976D01*
X91416666Y-96715976D02*
X91440476Y-96639785D01*
X91440476Y-96639785D02*
X91464285Y-96601690D01*
X91464285Y-96601690D02*
X91511904Y-96563595D01*
X91892856Y-97363595D02*
X91892856Y-96563595D01*
X91940475Y-97058833D02*
X92083332Y-97363595D01*
X92083332Y-96830261D02*
X91892856Y-97135023D01*
X75083333Y-90563595D02*
X75083333Y-91135023D01*
X75083333Y-91135023D02*
X75059524Y-91249309D01*
X75059524Y-91249309D02*
X75011905Y-91325500D01*
X75011905Y-91325500D02*
X74940476Y-91363595D01*
X74940476Y-91363595D02*
X74892857Y-91363595D01*
X75583333Y-91363595D02*
X75297619Y-91363595D01*
X75440476Y-91363595D02*
X75440476Y-90563595D01*
X75440476Y-90563595D02*
X75392857Y-90677880D01*
X75392857Y-90677880D02*
X75345238Y-90754071D01*
X75345238Y-90754071D02*
X75297619Y-90792166D01*
X73287404Y-78683333D02*
X73325500Y-78707142D01*
X73325500Y-78707142D02*
X73363595Y-78778571D01*
X73363595Y-78778571D02*
X73363595Y-78826190D01*
X73363595Y-78826190D02*
X73325500Y-78897618D01*
X73325500Y-78897618D02*
X73249309Y-78945237D01*
X73249309Y-78945237D02*
X73173119Y-78969047D01*
X73173119Y-78969047D02*
X73020738Y-78992856D01*
X73020738Y-78992856D02*
X72906452Y-78992856D01*
X72906452Y-78992856D02*
X72754071Y-78969047D01*
X72754071Y-78969047D02*
X72677880Y-78945237D01*
X72677880Y-78945237D02*
X72601690Y-78897618D01*
X72601690Y-78897618D02*
X72563595Y-78826190D01*
X72563595Y-78826190D02*
X72563595Y-78778571D01*
X72563595Y-78778571D02*
X72601690Y-78707142D01*
X72601690Y-78707142D02*
X72639785Y-78683333D01*
X72563595Y-78516666D02*
X72563595Y-78207142D01*
X72563595Y-78207142D02*
X72868357Y-78373809D01*
X72868357Y-78373809D02*
X72868357Y-78302380D01*
X72868357Y-78302380D02*
X72906452Y-78254761D01*
X72906452Y-78254761D02*
X72944547Y-78230952D01*
X72944547Y-78230952D02*
X73020738Y-78207142D01*
X73020738Y-78207142D02*
X73211214Y-78207142D01*
X73211214Y-78207142D02*
X73287404Y-78230952D01*
X73287404Y-78230952D02*
X73325500Y-78254761D01*
X73325500Y-78254761D02*
X73363595Y-78302380D01*
X73363595Y-78302380D02*
X73363595Y-78445237D01*
X73363595Y-78445237D02*
X73325500Y-78492856D01*
X73325500Y-78492856D02*
X73287404Y-78516666D01*
X73363595Y-76873808D02*
X73363595Y-77159522D01*
X73363595Y-77016665D02*
X72563595Y-77016665D01*
X72563595Y-77016665D02*
X72677880Y-77064284D01*
X72677880Y-77064284D02*
X72754071Y-77111903D01*
X72754071Y-77111903D02*
X72792166Y-77159522D01*
X72563595Y-76564285D02*
X72563595Y-76516666D01*
X72563595Y-76516666D02*
X72601690Y-76469047D01*
X72601690Y-76469047D02*
X72639785Y-76445237D01*
X72639785Y-76445237D02*
X72715976Y-76421428D01*
X72715976Y-76421428D02*
X72868357Y-76397618D01*
X72868357Y-76397618D02*
X73058833Y-76397618D01*
X73058833Y-76397618D02*
X73211214Y-76421428D01*
X73211214Y-76421428D02*
X73287404Y-76445237D01*
X73287404Y-76445237D02*
X73325500Y-76469047D01*
X73325500Y-76469047D02*
X73363595Y-76516666D01*
X73363595Y-76516666D02*
X73363595Y-76564285D01*
X73363595Y-76564285D02*
X73325500Y-76611904D01*
X73325500Y-76611904D02*
X73287404Y-76635713D01*
X73287404Y-76635713D02*
X73211214Y-76659523D01*
X73211214Y-76659523D02*
X73058833Y-76683332D01*
X73058833Y-76683332D02*
X72868357Y-76683332D01*
X72868357Y-76683332D02*
X72715976Y-76659523D01*
X72715976Y-76659523D02*
X72639785Y-76635713D01*
X72639785Y-76635713D02*
X72601690Y-76611904D01*
X72601690Y-76611904D02*
X72563595Y-76564285D01*
X72563595Y-76088095D02*
X72563595Y-76040476D01*
X72563595Y-76040476D02*
X72601690Y-75992857D01*
X72601690Y-75992857D02*
X72639785Y-75969047D01*
X72639785Y-75969047D02*
X72715976Y-75945238D01*
X72715976Y-75945238D02*
X72868357Y-75921428D01*
X72868357Y-75921428D02*
X73058833Y-75921428D01*
X73058833Y-75921428D02*
X73211214Y-75945238D01*
X73211214Y-75945238D02*
X73287404Y-75969047D01*
X73287404Y-75969047D02*
X73325500Y-75992857D01*
X73325500Y-75992857D02*
X73363595Y-76040476D01*
X73363595Y-76040476D02*
X73363595Y-76088095D01*
X73363595Y-76088095D02*
X73325500Y-76135714D01*
X73325500Y-76135714D02*
X73287404Y-76159523D01*
X73287404Y-76159523D02*
X73211214Y-76183333D01*
X73211214Y-76183333D02*
X73058833Y-76207142D01*
X73058833Y-76207142D02*
X72868357Y-76207142D01*
X72868357Y-76207142D02*
X72715976Y-76183333D01*
X72715976Y-76183333D02*
X72639785Y-76159523D01*
X72639785Y-76159523D02*
X72601690Y-76135714D01*
X72601690Y-76135714D02*
X72563595Y-76088095D01*
X72830261Y-75707143D02*
X73363595Y-75707143D01*
X72906452Y-75707143D02*
X72868357Y-75683333D01*
X72868357Y-75683333D02*
X72830261Y-75635714D01*
X72830261Y-75635714D02*
X72830261Y-75564286D01*
X72830261Y-75564286D02*
X72868357Y-75516667D01*
X72868357Y-75516667D02*
X72944547Y-75492857D01*
X72944547Y-75492857D02*
X73363595Y-75492857D01*
X72944547Y-75088095D02*
X72944547Y-75254762D01*
X73363595Y-75254762D02*
X72563595Y-75254762D01*
X72563595Y-75254762D02*
X72563595Y-75016667D01*
X79087404Y-79133333D02*
X79125500Y-79157142D01*
X79125500Y-79157142D02*
X79163595Y-79228571D01*
X79163595Y-79228571D02*
X79163595Y-79276190D01*
X79163595Y-79276190D02*
X79125500Y-79347618D01*
X79125500Y-79347618D02*
X79049309Y-79395237D01*
X79049309Y-79395237D02*
X78973119Y-79419047D01*
X78973119Y-79419047D02*
X78820738Y-79442856D01*
X78820738Y-79442856D02*
X78706452Y-79442856D01*
X78706452Y-79442856D02*
X78554071Y-79419047D01*
X78554071Y-79419047D02*
X78477880Y-79395237D01*
X78477880Y-79395237D02*
X78401690Y-79347618D01*
X78401690Y-79347618D02*
X78363595Y-79276190D01*
X78363595Y-79276190D02*
X78363595Y-79228571D01*
X78363595Y-79228571D02*
X78401690Y-79157142D01*
X78401690Y-79157142D02*
X78439785Y-79133333D01*
X78630261Y-78704761D02*
X79163595Y-78704761D01*
X78325500Y-78823809D02*
X78896928Y-78942856D01*
X78896928Y-78942856D02*
X78896928Y-78633333D01*
X79163595Y-77085713D02*
X79163595Y-77371427D01*
X79163595Y-77228570D02*
X78363595Y-77228570D01*
X78363595Y-77228570D02*
X78477880Y-77276189D01*
X78477880Y-77276189D02*
X78554071Y-77323808D01*
X78554071Y-77323808D02*
X78592166Y-77371427D01*
X78363595Y-76776190D02*
X78363595Y-76728571D01*
X78363595Y-76728571D02*
X78401690Y-76680952D01*
X78401690Y-76680952D02*
X78439785Y-76657142D01*
X78439785Y-76657142D02*
X78515976Y-76633333D01*
X78515976Y-76633333D02*
X78668357Y-76609523D01*
X78668357Y-76609523D02*
X78858833Y-76609523D01*
X78858833Y-76609523D02*
X79011214Y-76633333D01*
X79011214Y-76633333D02*
X79087404Y-76657142D01*
X79087404Y-76657142D02*
X79125500Y-76680952D01*
X79125500Y-76680952D02*
X79163595Y-76728571D01*
X79163595Y-76728571D02*
X79163595Y-76776190D01*
X79163595Y-76776190D02*
X79125500Y-76823809D01*
X79125500Y-76823809D02*
X79087404Y-76847618D01*
X79087404Y-76847618D02*
X79011214Y-76871428D01*
X79011214Y-76871428D02*
X78858833Y-76895237D01*
X78858833Y-76895237D02*
X78668357Y-76895237D01*
X78668357Y-76895237D02*
X78515976Y-76871428D01*
X78515976Y-76871428D02*
X78439785Y-76847618D01*
X78439785Y-76847618D02*
X78401690Y-76823809D01*
X78401690Y-76823809D02*
X78363595Y-76776190D01*
X78630261Y-76180952D02*
X79163595Y-76180952D01*
X78630261Y-76395238D02*
X79049309Y-76395238D01*
X79049309Y-76395238D02*
X79125500Y-76371428D01*
X79125500Y-76371428D02*
X79163595Y-76323809D01*
X79163595Y-76323809D02*
X79163595Y-76252381D01*
X79163595Y-76252381D02*
X79125500Y-76204762D01*
X79125500Y-76204762D02*
X79087404Y-76180952D01*
X78744547Y-75776190D02*
X78744547Y-75942857D01*
X79163595Y-75942857D02*
X78363595Y-75942857D01*
X78363595Y-75942857D02*
X78363595Y-75704762D01*
X87916666Y-86287404D02*
X87892857Y-86325500D01*
X87892857Y-86325500D02*
X87821428Y-86363595D01*
X87821428Y-86363595D02*
X87773809Y-86363595D01*
X87773809Y-86363595D02*
X87702381Y-86325500D01*
X87702381Y-86325500D02*
X87654762Y-86249309D01*
X87654762Y-86249309D02*
X87630952Y-86173119D01*
X87630952Y-86173119D02*
X87607143Y-86020738D01*
X87607143Y-86020738D02*
X87607143Y-85906452D01*
X87607143Y-85906452D02*
X87630952Y-85754071D01*
X87630952Y-85754071D02*
X87654762Y-85677880D01*
X87654762Y-85677880D02*
X87702381Y-85601690D01*
X87702381Y-85601690D02*
X87773809Y-85563595D01*
X87773809Y-85563595D02*
X87821428Y-85563595D01*
X87821428Y-85563595D02*
X87892857Y-85601690D01*
X87892857Y-85601690D02*
X87916666Y-85639785D01*
X88392857Y-86363595D02*
X88107143Y-86363595D01*
X88250000Y-86363595D02*
X88250000Y-85563595D01*
X88250000Y-85563595D02*
X88202381Y-85677880D01*
X88202381Y-85677880D02*
X88154762Y-85754071D01*
X88154762Y-85754071D02*
X88107143Y-85792166D01*
X89726191Y-86363595D02*
X89440477Y-86363595D01*
X89583334Y-86363595D02*
X89583334Y-85563595D01*
X89583334Y-85563595D02*
X89535715Y-85677880D01*
X89535715Y-85677880D02*
X89488096Y-85754071D01*
X89488096Y-85754071D02*
X89440477Y-85792166D01*
X90035714Y-85563595D02*
X90083333Y-85563595D01*
X90083333Y-85563595D02*
X90130952Y-85601690D01*
X90130952Y-85601690D02*
X90154762Y-85639785D01*
X90154762Y-85639785D02*
X90178571Y-85715976D01*
X90178571Y-85715976D02*
X90202381Y-85868357D01*
X90202381Y-85868357D02*
X90202381Y-86058833D01*
X90202381Y-86058833D02*
X90178571Y-86211214D01*
X90178571Y-86211214D02*
X90154762Y-86287404D01*
X90154762Y-86287404D02*
X90130952Y-86325500D01*
X90130952Y-86325500D02*
X90083333Y-86363595D01*
X90083333Y-86363595D02*
X90035714Y-86363595D01*
X90035714Y-86363595D02*
X89988095Y-86325500D01*
X89988095Y-86325500D02*
X89964286Y-86287404D01*
X89964286Y-86287404D02*
X89940476Y-86211214D01*
X89940476Y-86211214D02*
X89916667Y-86058833D01*
X89916667Y-86058833D02*
X89916667Y-85868357D01*
X89916667Y-85868357D02*
X89940476Y-85715976D01*
X89940476Y-85715976D02*
X89964286Y-85639785D01*
X89964286Y-85639785D02*
X89988095Y-85601690D01*
X89988095Y-85601690D02*
X90035714Y-85563595D01*
X90511904Y-85563595D02*
X90559523Y-85563595D01*
X90559523Y-85563595D02*
X90607142Y-85601690D01*
X90607142Y-85601690D02*
X90630952Y-85639785D01*
X90630952Y-85639785D02*
X90654761Y-85715976D01*
X90654761Y-85715976D02*
X90678571Y-85868357D01*
X90678571Y-85868357D02*
X90678571Y-86058833D01*
X90678571Y-86058833D02*
X90654761Y-86211214D01*
X90654761Y-86211214D02*
X90630952Y-86287404D01*
X90630952Y-86287404D02*
X90607142Y-86325500D01*
X90607142Y-86325500D02*
X90559523Y-86363595D01*
X90559523Y-86363595D02*
X90511904Y-86363595D01*
X90511904Y-86363595D02*
X90464285Y-86325500D01*
X90464285Y-86325500D02*
X90440476Y-86287404D01*
X90440476Y-86287404D02*
X90416666Y-86211214D01*
X90416666Y-86211214D02*
X90392857Y-86058833D01*
X90392857Y-86058833D02*
X90392857Y-85868357D01*
X90392857Y-85868357D02*
X90416666Y-85715976D01*
X90416666Y-85715976D02*
X90440476Y-85639785D01*
X90440476Y-85639785D02*
X90464285Y-85601690D01*
X90464285Y-85601690D02*
X90511904Y-85563595D01*
X90892856Y-85830261D02*
X90892856Y-86363595D01*
X90892856Y-85906452D02*
X90916666Y-85868357D01*
X90916666Y-85868357D02*
X90964285Y-85830261D01*
X90964285Y-85830261D02*
X91035713Y-85830261D01*
X91035713Y-85830261D02*
X91083332Y-85868357D01*
X91083332Y-85868357D02*
X91107142Y-85944547D01*
X91107142Y-85944547D02*
X91107142Y-86363595D01*
X91511904Y-85944547D02*
X91345237Y-85944547D01*
X91345237Y-86363595D02*
X91345237Y-85563595D01*
X91345237Y-85563595D02*
X91583332Y-85563595D01*
X69238595Y-85743452D02*
X69886214Y-85743452D01*
X69886214Y-85743452D02*
X69962404Y-85719642D01*
X69962404Y-85719642D02*
X70000500Y-85695833D01*
X70000500Y-85695833D02*
X70038595Y-85648214D01*
X70038595Y-85648214D02*
X70038595Y-85552976D01*
X70038595Y-85552976D02*
X70000500Y-85505357D01*
X70000500Y-85505357D02*
X69962404Y-85481547D01*
X69962404Y-85481547D02*
X69886214Y-85457738D01*
X69886214Y-85457738D02*
X69238595Y-85457738D01*
X70038595Y-84957737D02*
X70038595Y-85243451D01*
X70038595Y-85100594D02*
X69238595Y-85100594D01*
X69238595Y-85100594D02*
X69352880Y-85148213D01*
X69352880Y-85148213D02*
X69429071Y-85195832D01*
X69429071Y-85195832D02*
X69467166Y-85243451D01*
X87416666Y-82363595D02*
X87250000Y-81982642D01*
X87130952Y-82363595D02*
X87130952Y-81563595D01*
X87130952Y-81563595D02*
X87321428Y-81563595D01*
X87321428Y-81563595D02*
X87369047Y-81601690D01*
X87369047Y-81601690D02*
X87392857Y-81639785D01*
X87392857Y-81639785D02*
X87416666Y-81715976D01*
X87416666Y-81715976D02*
X87416666Y-81830261D01*
X87416666Y-81830261D02*
X87392857Y-81906452D01*
X87392857Y-81906452D02*
X87369047Y-81944547D01*
X87369047Y-81944547D02*
X87321428Y-81982642D01*
X87321428Y-81982642D02*
X87130952Y-81982642D01*
X87869047Y-81563595D02*
X87630952Y-81563595D01*
X87630952Y-81563595D02*
X87607143Y-81944547D01*
X87607143Y-81944547D02*
X87630952Y-81906452D01*
X87630952Y-81906452D02*
X87678571Y-81868357D01*
X87678571Y-81868357D02*
X87797619Y-81868357D01*
X87797619Y-81868357D02*
X87845238Y-81906452D01*
X87845238Y-81906452D02*
X87869047Y-81944547D01*
X87869047Y-81944547D02*
X87892857Y-82020738D01*
X87892857Y-82020738D02*
X87892857Y-82211214D01*
X87892857Y-82211214D02*
X87869047Y-82287404D01*
X87869047Y-82287404D02*
X87845238Y-82325500D01*
X87845238Y-82325500D02*
X87797619Y-82363595D01*
X87797619Y-82363595D02*
X87678571Y-82363595D01*
X87678571Y-82363595D02*
X87630952Y-82325500D01*
X87630952Y-82325500D02*
X87607143Y-82287404D01*
X89940476Y-82363595D02*
X89654762Y-82363595D01*
X89797619Y-82363595D02*
X89797619Y-81563595D01*
X89797619Y-81563595D02*
X89750000Y-81677880D01*
X89750000Y-81677880D02*
X89702381Y-81754071D01*
X89702381Y-81754071D02*
X89654762Y-81792166D01*
X90154761Y-82363595D02*
X90154761Y-81563595D01*
X90202380Y-82058833D02*
X90345237Y-82363595D01*
X90345237Y-81830261D02*
X90154761Y-82135023D01*
X82416666Y-86287404D02*
X82392857Y-86325500D01*
X82392857Y-86325500D02*
X82321428Y-86363595D01*
X82321428Y-86363595D02*
X82273809Y-86363595D01*
X82273809Y-86363595D02*
X82202381Y-86325500D01*
X82202381Y-86325500D02*
X82154762Y-86249309D01*
X82154762Y-86249309D02*
X82130952Y-86173119D01*
X82130952Y-86173119D02*
X82107143Y-86020738D01*
X82107143Y-86020738D02*
X82107143Y-85906452D01*
X82107143Y-85906452D02*
X82130952Y-85754071D01*
X82130952Y-85754071D02*
X82154762Y-85677880D01*
X82154762Y-85677880D02*
X82202381Y-85601690D01*
X82202381Y-85601690D02*
X82273809Y-85563595D01*
X82273809Y-85563595D02*
X82321428Y-85563595D01*
X82321428Y-85563595D02*
X82392857Y-85601690D01*
X82392857Y-85601690D02*
X82416666Y-85639785D01*
X82607143Y-85639785D02*
X82630952Y-85601690D01*
X82630952Y-85601690D02*
X82678571Y-85563595D01*
X82678571Y-85563595D02*
X82797619Y-85563595D01*
X82797619Y-85563595D02*
X82845238Y-85601690D01*
X82845238Y-85601690D02*
X82869047Y-85639785D01*
X82869047Y-85639785D02*
X82892857Y-85715976D01*
X82892857Y-85715976D02*
X82892857Y-85792166D01*
X82892857Y-85792166D02*
X82869047Y-85906452D01*
X82869047Y-85906452D02*
X82583333Y-86363595D01*
X82583333Y-86363595D02*
X82892857Y-86363595D01*
X59416666Y-81863595D02*
X59250000Y-81482642D01*
X59130952Y-81863595D02*
X59130952Y-81063595D01*
X59130952Y-81063595D02*
X59321428Y-81063595D01*
X59321428Y-81063595D02*
X59369047Y-81101690D01*
X59369047Y-81101690D02*
X59392857Y-81139785D01*
X59392857Y-81139785D02*
X59416666Y-81215976D01*
X59416666Y-81215976D02*
X59416666Y-81330261D01*
X59416666Y-81330261D02*
X59392857Y-81406452D01*
X59392857Y-81406452D02*
X59369047Y-81444547D01*
X59369047Y-81444547D02*
X59321428Y-81482642D01*
X59321428Y-81482642D02*
X59130952Y-81482642D01*
X59607143Y-81139785D02*
X59630952Y-81101690D01*
X59630952Y-81101690D02*
X59678571Y-81063595D01*
X59678571Y-81063595D02*
X59797619Y-81063595D01*
X59797619Y-81063595D02*
X59845238Y-81101690D01*
X59845238Y-81101690D02*
X59869047Y-81139785D01*
X59869047Y-81139785D02*
X59892857Y-81215976D01*
X59892857Y-81215976D02*
X59892857Y-81292166D01*
X59892857Y-81292166D02*
X59869047Y-81406452D01*
X59869047Y-81406452D02*
X59583333Y-81863595D01*
X59583333Y-81863595D02*
X59892857Y-81863595D01*
X87416666Y-77363595D02*
X87250000Y-76982642D01*
X87130952Y-77363595D02*
X87130952Y-76563595D01*
X87130952Y-76563595D02*
X87321428Y-76563595D01*
X87321428Y-76563595D02*
X87369047Y-76601690D01*
X87369047Y-76601690D02*
X87392857Y-76639785D01*
X87392857Y-76639785D02*
X87416666Y-76715976D01*
X87416666Y-76715976D02*
X87416666Y-76830261D01*
X87416666Y-76830261D02*
X87392857Y-76906452D01*
X87392857Y-76906452D02*
X87369047Y-76944547D01*
X87369047Y-76944547D02*
X87321428Y-76982642D01*
X87321428Y-76982642D02*
X87130952Y-76982642D01*
X87845238Y-76830261D02*
X87845238Y-77363595D01*
X87726190Y-76525500D02*
X87607143Y-77096928D01*
X87607143Y-77096928D02*
X87916666Y-77096928D01*
X44563595Y-85666666D02*
X45135023Y-85666666D01*
X45135023Y-85666666D02*
X45249309Y-85690475D01*
X45249309Y-85690475D02*
X45325500Y-85738094D01*
X45325500Y-85738094D02*
X45363595Y-85809523D01*
X45363595Y-85809523D02*
X45363595Y-85857142D01*
X44563595Y-85476190D02*
X44563595Y-85166666D01*
X44563595Y-85166666D02*
X44868357Y-85333333D01*
X44868357Y-85333333D02*
X44868357Y-85261904D01*
X44868357Y-85261904D02*
X44906452Y-85214285D01*
X44906452Y-85214285D02*
X44944547Y-85190476D01*
X44944547Y-85190476D02*
X45020738Y-85166666D01*
X45020738Y-85166666D02*
X45211214Y-85166666D01*
X45211214Y-85166666D02*
X45287404Y-85190476D01*
X45287404Y-85190476D02*
X45325500Y-85214285D01*
X45325500Y-85214285D02*
X45363595Y-85261904D01*
X45363595Y-85261904D02*
X45363595Y-85404761D01*
X45363595Y-85404761D02*
X45325500Y-85452380D01*
X45325500Y-85452380D02*
X45287404Y-85476190D01*
X97063595Y-84916666D02*
X97635023Y-84916666D01*
X97635023Y-84916666D02*
X97749309Y-84940475D01*
X97749309Y-84940475D02*
X97825500Y-84988094D01*
X97825500Y-84988094D02*
X97863595Y-85059523D01*
X97863595Y-85059523D02*
X97863595Y-85107142D01*
X97139785Y-84702380D02*
X97101690Y-84678571D01*
X97101690Y-84678571D02*
X97063595Y-84630952D01*
X97063595Y-84630952D02*
X97063595Y-84511904D01*
X97063595Y-84511904D02*
X97101690Y-84464285D01*
X97101690Y-84464285D02*
X97139785Y-84440476D01*
X97139785Y-84440476D02*
X97215976Y-84416666D01*
X97215976Y-84416666D02*
X97292166Y-84416666D01*
X97292166Y-84416666D02*
X97406452Y-84440476D01*
X97406452Y-84440476D02*
X97863595Y-84726190D01*
X97863595Y-84726190D02*
X97863595Y-84416666D01*
X59416666Y-88363595D02*
X59250000Y-87982642D01*
X59130952Y-88363595D02*
X59130952Y-87563595D01*
X59130952Y-87563595D02*
X59321428Y-87563595D01*
X59321428Y-87563595D02*
X59369047Y-87601690D01*
X59369047Y-87601690D02*
X59392857Y-87639785D01*
X59392857Y-87639785D02*
X59416666Y-87715976D01*
X59416666Y-87715976D02*
X59416666Y-87830261D01*
X59416666Y-87830261D02*
X59392857Y-87906452D01*
X59392857Y-87906452D02*
X59369047Y-87944547D01*
X59369047Y-87944547D02*
X59321428Y-87982642D01*
X59321428Y-87982642D02*
X59130952Y-87982642D01*
X59892857Y-88363595D02*
X59607143Y-88363595D01*
X59750000Y-88363595D02*
X59750000Y-87563595D01*
X59750000Y-87563595D02*
X59702381Y-87677880D01*
X59702381Y-87677880D02*
X59654762Y-87754071D01*
X59654762Y-87754071D02*
X59607143Y-87792166D01*
X59214285Y-94863595D02*
X59047619Y-94482642D01*
X58928571Y-94863595D02*
X58928571Y-94063595D01*
X58928571Y-94063595D02*
X59119047Y-94063595D01*
X59119047Y-94063595D02*
X59166666Y-94101690D01*
X59166666Y-94101690D02*
X59190476Y-94139785D01*
X59190476Y-94139785D02*
X59214285Y-94215976D01*
X59214285Y-94215976D02*
X59214285Y-94330261D01*
X59214285Y-94330261D02*
X59190476Y-94406452D01*
X59190476Y-94406452D02*
X59166666Y-94444547D01*
X59166666Y-94444547D02*
X59119047Y-94482642D01*
X59119047Y-94482642D02*
X58928571Y-94482642D01*
X59380952Y-94063595D02*
X59690476Y-94063595D01*
X59690476Y-94063595D02*
X59523809Y-94368357D01*
X59523809Y-94368357D02*
X59595238Y-94368357D01*
X59595238Y-94368357D02*
X59642857Y-94406452D01*
X59642857Y-94406452D02*
X59666666Y-94444547D01*
X59666666Y-94444547D02*
X59690476Y-94520738D01*
X59690476Y-94520738D02*
X59690476Y-94711214D01*
X59690476Y-94711214D02*
X59666666Y-94787404D01*
X59666666Y-94787404D02*
X59642857Y-94825500D01*
X59642857Y-94825500D02*
X59595238Y-94863595D01*
X59595238Y-94863595D02*
X59452381Y-94863595D01*
X59452381Y-94863595D02*
X59404762Y-94825500D01*
X59404762Y-94825500D02*
X59380952Y-94787404D01*
D12*
%TO.C,U2*%
X85050002Y-87649999D02*
X85750003Y-86949998D01*
X85050002Y-90049997D02*
X85050002Y-87649999D01*
X85050002Y-90049997D02*
X86950001Y-90049997D01*
X85750003Y-86949998D02*
X86950001Y-86949998D01*
X86950001Y-90049997D02*
X86950001Y-86949998D01*
D13*
%TO.C,R6*%
X84840000Y-94000000D02*
X85530000Y-94000000D01*
X95460000Y-94000000D02*
X94770000Y-94000000D01*
X94770000Y-95720000D02*
X85530000Y-95720000D01*
X85530000Y-92280000D01*
X94770000Y-92280000D01*
X94770000Y-95720000D01*
%TO.C,J1*%
X68590000Y-93610000D02*
X68590000Y-96110000D01*
X68590000Y-96110000D02*
X71090000Y-96110000D01*
X68890000Y-91790000D02*
X68890000Y-95810000D01*
X68890000Y-93500000D02*
X69390000Y-93500000D01*
X68890000Y-94310000D02*
X69890000Y-94310000D01*
X68890000Y-95810000D02*
X81610000Y-95810000D01*
X69390000Y-92290000D02*
X81110000Y-92290000D01*
X69390000Y-93500000D02*
X69390000Y-92290000D01*
X69890000Y-94310000D02*
X69890000Y-95810000D01*
X80610000Y-94310000D02*
X80610000Y-95810000D01*
X81110000Y-92290000D02*
X81110000Y-93500000D01*
X81110000Y-93500000D02*
X81610000Y-93500000D01*
X81610000Y-91790000D02*
X68890000Y-91790000D01*
X81610000Y-94310000D02*
X80610000Y-94310000D01*
X81610000Y-95810000D02*
X81610000Y-91790000D01*
%TO.C,C3*%
X70080000Y-78365000D02*
X70080000Y-76835000D01*
X71920000Y-76835000D02*
X71920000Y-78365000D01*
%TO.C,C4*%
X75880000Y-78315000D02*
X75880000Y-76785000D01*
X77720000Y-76785000D02*
X77720000Y-78315000D01*
%TO.C,C1*%
X88485000Y-83080000D02*
X90015000Y-83080000D01*
X90015000Y-84920000D02*
X88485000Y-84920000D01*
%TO.C,U1*%
X70490000Y-85362500D02*
X70490000Y-83162500D01*
X70490000Y-85362500D02*
X70490000Y-87562500D01*
X78560000Y-85362500D02*
X78560000Y-83162500D01*
X78560000Y-85362500D02*
X78560000Y-87562500D01*
X71190000Y-89552500D02*
X70710000Y-89552500D01*
X70950000Y-89222500D01*
X71190000Y-89552500D01*
G36*
X71190000Y-89552500D02*
G01*
X70710000Y-89552500D01*
X70950000Y-89222500D01*
X71190000Y-89552500D01*
G37*
%TO.C,R5*%
X83190000Y-79500000D02*
X83880000Y-79500000D01*
X93810000Y-79500000D02*
X93120000Y-79500000D01*
X83880000Y-77780000D02*
X93120000Y-77780000D01*
X93120000Y-81220000D01*
X83880000Y-81220000D01*
X83880000Y-77780000D01*
%TO.C,C2*%
X82985000Y-83080000D02*
X84515000Y-83080000D01*
X84515000Y-84920000D02*
X82985000Y-84920000D01*
%TO.C,R2*%
X55190000Y-79000000D02*
X55880000Y-79000000D01*
X65810000Y-79000000D02*
X65120000Y-79000000D01*
X55880000Y-77280000D02*
X65120000Y-77280000D01*
X65120000Y-80720000D01*
X55880000Y-80720000D01*
X55880000Y-77280000D01*
%TO.C,R4*%
X83190000Y-74500000D02*
X83880000Y-74500000D01*
X93810000Y-74500000D02*
X93120000Y-74500000D01*
X83880000Y-72780000D02*
X93120000Y-72780000D01*
X93120000Y-76220000D01*
X83880000Y-76220000D01*
X83880000Y-72780000D01*
%TO.C,J3*%
X45890000Y-90610000D02*
X45890000Y-91860000D01*
X45890000Y-91860000D02*
X47140000Y-91860000D01*
X45990000Y-89800000D02*
X45990000Y-90100000D01*
X45990000Y-90100000D02*
X46190000Y-90100000D01*
X46090000Y-89800000D02*
X46090000Y-90100000D01*
X46190000Y-79440000D02*
X46190000Y-91560000D01*
X46190000Y-89000000D02*
X46800000Y-89000000D01*
X46190000Y-89800000D02*
X45990000Y-89800000D01*
X46190000Y-91560000D02*
X50910000Y-91560000D01*
X46800000Y-80050000D02*
X46800000Y-82000000D01*
X46800000Y-82000000D02*
X46190000Y-82000000D01*
X46800000Y-89000000D02*
X46800000Y-90950000D01*
X46800000Y-90950000D02*
X50300000Y-90950000D01*
X47500000Y-79440000D02*
X47500000Y-80050000D01*
X47500000Y-91560000D02*
X47500000Y-90950000D01*
X48800000Y-79440000D02*
X48800000Y-80050000D01*
X48800000Y-91560000D02*
X48800000Y-90950000D01*
X49800000Y-82400000D02*
X50300000Y-82400000D01*
X49800000Y-82600000D02*
X49800000Y-82400000D01*
X49800000Y-84400000D02*
X50300000Y-84400000D01*
X49800000Y-84600000D02*
X49800000Y-84400000D01*
X49800000Y-86400000D02*
X50300000Y-86400000D01*
X49800000Y-86600000D02*
X49800000Y-86400000D01*
X49800000Y-88400000D02*
X50300000Y-88400000D01*
X49800000Y-88600000D02*
X49800000Y-88400000D01*
X50300000Y-80050000D02*
X46800000Y-80050000D01*
X50300000Y-82500000D02*
X49800000Y-82500000D01*
X50300000Y-82600000D02*
X49800000Y-82600000D01*
X50300000Y-84500000D02*
X49800000Y-84500000D01*
X50300000Y-84600000D02*
X49800000Y-84600000D01*
X50300000Y-86500000D02*
X49800000Y-86500000D01*
X50300000Y-86600000D02*
X49800000Y-86600000D01*
X50300000Y-88500000D02*
X49800000Y-88500000D01*
X50300000Y-88600000D02*
X49800000Y-88600000D01*
X50300000Y-90950000D02*
X50300000Y-80050000D01*
X50910000Y-79440000D02*
X46190000Y-79440000D01*
X50910000Y-91560000D02*
X50910000Y-79440000D01*
%TO.C,J2*%
X98290000Y-78390000D02*
X98290000Y-91110000D01*
X98290000Y-91110000D02*
X102310000Y-91110000D01*
X98790000Y-78890000D02*
X100000000Y-78890000D01*
X98790000Y-90610000D02*
X98790000Y-78890000D01*
X100000000Y-78890000D02*
X100000000Y-78390000D01*
X100000000Y-90610000D02*
X98790000Y-90610000D01*
X100000000Y-91110000D02*
X100000000Y-90610000D01*
X100110000Y-91410000D02*
X102610000Y-91410000D01*
X100810000Y-78390000D02*
X100810000Y-79390000D01*
X100810000Y-79390000D02*
X102310000Y-79390000D01*
X100810000Y-90110000D02*
X102310000Y-90110000D01*
X100810000Y-91110000D02*
X100810000Y-90110000D01*
X102310000Y-78390000D02*
X98290000Y-78390000D01*
X102310000Y-91110000D02*
X102310000Y-78390000D01*
X102610000Y-91410000D02*
X102610000Y-88910000D01*
%TO.C,R1*%
X55190000Y-85500000D02*
X55880000Y-85500000D01*
X65810000Y-85500000D02*
X65120000Y-85500000D01*
X55880000Y-83780000D02*
X65120000Y-83780000D01*
X65120000Y-87220000D01*
X55880000Y-87220000D01*
X55880000Y-83780000D01*
%TO.C,R3*%
X55190000Y-91750000D02*
X55880000Y-91750000D01*
X65810000Y-91750000D02*
X65120000Y-91750000D01*
X55880000Y-90030000D02*
X65120000Y-90030000D01*
X65120000Y-93470000D01*
X55880000Y-93470000D01*
X55880000Y-90030000D01*
%TD*%
M02*
