%TF.GenerationSoftware,KiCad,Pcbnew,9.0.2*%
%TF.CreationDate,2025-07-11T15:27:11-07:00*%
%TF.ProjectId,I2C mux buffer,49324320-6d75-4782-9062-75666665722e,rev?*%
%TF.SameCoordinates,Original*%
%TF.FileFunction,Copper,L1,Top*%
%TF.FilePolarity,Positive*%
%FSLAX46Y46*%
G04 Gerber Fmt 4.6, Leading zero omitted, Abs format (unit mm)*
G04 Created by KiCad (PCBNEW 9.0.2) date 2025-07-11 15:27:11*
%MOMM*%
%LPD*%
G01*
G04 APERTURE LIST*
G04 Aperture macros list*
%AMRoundRect*
0 Rectangle with rounded corners*
0 $1 Rounding radius*
0 $2 $3 $4 $5 $6 $7 $8 $9 X,Y pos of 4 corners*
0 Add a 4 corners polygon primitive as box body*
4,1,4,$2,$3,$4,$5,$6,$7,$8,$9,$2,$3,0*
0 Add four circle primitives for the rounded corners*
1,1,$1+$1,$2,$3*
1,1,$1+$1,$4,$5*
1,1,$1+$1,$6,$7*
1,1,$1+$1,$8,$9*
0 Add four rect primitives between the rounded corners*
20,1,$1+$1,$2,$3,$4,$5,0*
20,1,$1+$1,$4,$5,$6,$7,0*
20,1,$1+$1,$6,$7,$8,$9,0*
20,1,$1+$1,$8,$9,$2,$3,0*%
G04 Aperture macros list end*
%TA.AperFunction,SMDPad,CuDef*%
%ADD10O,1.699999X0.449999*%
%TD*%
%TA.AperFunction,ComponentPad*%
%ADD11C,1.600000*%
%TD*%
%TA.AperFunction,ComponentPad*%
%ADD12RoundRect,0.250000X-0.600000X-0.725000X0.600000X-0.725000X0.600000X0.725000X-0.600000X0.725000X0*%
%TD*%
%TA.AperFunction,ComponentPad*%
%ADD13O,1.700000X1.950000*%
%TD*%
%TA.AperFunction,SMDPad,CuDef*%
%ADD14RoundRect,0.100000X0.100000X-0.637500X0.100000X0.637500X-0.100000X0.637500X-0.100000X-0.637500X0*%
%TD*%
%TA.AperFunction,ComponentPad*%
%ADD15RoundRect,0.250000X0.625000X-0.350000X0.625000X0.350000X-0.625000X0.350000X-0.625000X-0.350000X0*%
%TD*%
%TA.AperFunction,ComponentPad*%
%ADD16O,1.750000X1.200000*%
%TD*%
%TA.AperFunction,ComponentPad*%
%ADD17RoundRect,0.250000X0.725000X-0.600000X0.725000X0.600000X-0.725000X0.600000X-0.725000X-0.600000X0*%
%TD*%
%TA.AperFunction,ComponentPad*%
%ADD18O,1.950000X1.700000*%
%TD*%
%TA.AperFunction,ViaPad*%
%ADD19C,0.600000*%
%TD*%
%TA.AperFunction,Conductor*%
%ADD20C,0.200000*%
%TD*%
G04 APERTURE END LIST*
D10*
%TO.P,U2,1,VCCA*%
%TO.N,Net-(U2-VCCA)*%
X83900002Y-87524998D03*
%TO.P,U2,2,SCLA*%
%TO.N,Net-(U1-SC4)*%
X83900002Y-88174999D03*
%TO.P,U2,3,SDAA*%
%TO.N,Net-(U1-SD4)*%
X83900002Y-88824998D03*
%TO.P,U2,4,GND*%
%TO.N,GND*%
X83900002Y-89474999D03*
%TO.P,U2,5,EN*%
%TO.N,Net-(U2-EN)*%
X88100001Y-89474999D03*
%TO.P,U2,6,SDAB*%
%TO.N,Net-(J2-Pin_2)*%
X88100001Y-88824998D03*
%TO.P,U2,7,SCLB*%
%TO.N,Net-(J2-Pin_3)*%
X88100001Y-88174999D03*
%TO.P,U2,8,VCCB*%
%TO.N,Net-(U2-VCCB)*%
X88100001Y-87524998D03*
%TD*%
D11*
%TO.P,R6,1*%
%TO.N,Net-(U2-EN)*%
X96500000Y-94000000D03*
%TO.P,R6,2*%
%TO.N,+3V3*%
X83800000Y-94000000D03*
%TD*%
D12*
%TO.P,J1,1,Pin_1*%
%TO.N,+3V3*%
X71500000Y-93500000D03*
D13*
%TO.P,J1,2,Pin_2*%
%TO.N,Net-(J1-Pin_2)*%
X74000000Y-93500000D03*
%TO.P,J1,3,Pin_3*%
%TO.N,Net-(J1-Pin_3)*%
X76500000Y-93500000D03*
%TO.P,J1,4,Pin_4*%
%TO.N,GND*%
X79000000Y-93500000D03*
%TD*%
D11*
%TO.P,C3,1*%
%TO.N,+3V3*%
X71000000Y-78850000D03*
%TO.P,C3,2*%
%TO.N,GND*%
X71000000Y-76350000D03*
%TD*%
%TO.P,C4,1*%
%TO.N,+3V3*%
X76800000Y-78800000D03*
%TO.P,C4,2*%
%TO.N,GND*%
X76800000Y-76300000D03*
%TD*%
%TO.P,C1,1*%
%TO.N,+3V3*%
X88000000Y-84000000D03*
%TO.P,C1,2*%
%TO.N,Net-(U2-VCCB)*%
X90500000Y-84000000D03*
%TD*%
D14*
%TO.P,U1,1,A0*%
%TO.N,GND*%
X70950000Y-88225000D03*
%TO.P,U1,2,A1*%
X71600000Y-88225000D03*
%TO.P,U1,3,~{RESET}*%
%TO.N,Net-(J3-Pin_2)*%
X72250000Y-88225000D03*
%TO.P,U1,4,SD0*%
%TO.N,unconnected-(U1-SD0-Pad4)*%
X72900000Y-88225000D03*
%TO.P,U1,5,SC0*%
%TO.N,unconnected-(U1-SC0-Pad5)*%
X73550000Y-88225000D03*
%TO.P,U1,6,SD1*%
%TO.N,Net-(J1-Pin_2)*%
X74200000Y-88225000D03*
%TO.P,U1,7,SC1*%
%TO.N,Net-(J1-Pin_3)*%
X74850000Y-88225000D03*
%TO.P,U1,8,SD2*%
%TO.N,unconnected-(U1-SD2-Pad8)*%
X75500000Y-88225000D03*
%TO.P,U1,9,SC2*%
%TO.N,unconnected-(U1-SC2-Pad9)*%
X76150000Y-88225000D03*
%TO.P,U1,10,SD3*%
%TO.N,unconnected-(U1-SD3-Pad10)*%
X76800000Y-88225000D03*
%TO.P,U1,11,SC3*%
%TO.N,unconnected-(U1-SC3-Pad11)*%
X77450000Y-88225000D03*
%TO.P,U1,12,GND*%
%TO.N,GND*%
X78100000Y-88225000D03*
%TO.P,U1,13,SD4*%
%TO.N,Net-(U1-SD4)*%
X78100000Y-82500000D03*
%TO.P,U1,14,SC4*%
%TO.N,Net-(U1-SC4)*%
X77450000Y-82500000D03*
%TO.P,U1,15,SD5*%
%TO.N,unconnected-(U1-SD5-Pad15)*%
X76800000Y-82500000D03*
%TO.P,U1,16,SC5*%
%TO.N,unconnected-(U1-SC5-Pad16)*%
X76150000Y-82500000D03*
%TO.P,U1,17,SD6*%
%TO.N,unconnected-(U1-SD6-Pad17)*%
X75500000Y-82500000D03*
%TO.P,U1,18,SC6*%
%TO.N,unconnected-(U1-SC6-Pad18)*%
X74850000Y-82500000D03*
%TO.P,U1,19,SD7*%
%TO.N,unconnected-(U1-SD7-Pad19)*%
X74200000Y-82500000D03*
%TO.P,U1,20,SC7*%
%TO.N,unconnected-(U1-SC7-Pad20)*%
X73550000Y-82500000D03*
%TO.P,U1,21,A2*%
%TO.N,GND*%
X72900000Y-82500000D03*
%TO.P,U1,22,SCL*%
%TO.N,Net-(J3-Pin_3)*%
X72250000Y-82500000D03*
%TO.P,U1,23,SDA*%
%TO.N,Net-(J3-Pin_4)*%
X71600000Y-82500000D03*
%TO.P,U1,24,VCC*%
%TO.N,+3V3*%
X70950000Y-82500000D03*
%TD*%
D11*
%TO.P,R5,1*%
%TO.N,Net-(U1-SD4)*%
X82150000Y-79500000D03*
%TO.P,R5,2*%
%TO.N,+3V3*%
X94850000Y-79500000D03*
%TD*%
%TO.P,C2,1*%
%TO.N,+3V3*%
X82500000Y-84000000D03*
%TO.P,C2,2*%
%TO.N,Net-(U2-VCCA)*%
X85000000Y-84000000D03*
%TD*%
%TO.P,R2,1*%
%TO.N,+3V3*%
X54150000Y-79000000D03*
%TO.P,R2,2*%
%TO.N,Net-(J3-Pin_4)*%
X66850000Y-79000000D03*
%TD*%
%TO.P,R4,1*%
%TO.N,Net-(U1-SC4)*%
X82150000Y-74500000D03*
%TO.P,R4,2*%
%TO.N,+3V3*%
X94850000Y-74500000D03*
%TD*%
D15*
%TO.P,J3,1,Pin_1*%
%TO.N,GND*%
X48000000Y-89500000D03*
D16*
%TO.P,J3,2,Pin_2*%
%TO.N,Net-(J3-Pin_2)*%
X48000000Y-87500000D03*
%TO.P,J3,3,Pin_3*%
%TO.N,Net-(J3-Pin_3)*%
X48000000Y-85500000D03*
%TO.P,J3,4,Pin_4*%
%TO.N,Net-(J3-Pin_4)*%
X48000000Y-83500000D03*
%TO.P,J3,5,Pin_5*%
%TO.N,+3V3*%
X48000000Y-81500000D03*
%TD*%
D17*
%TO.P,J2,1,Pin_1*%
%TO.N,+3V3*%
X100000000Y-88500000D03*
D18*
%TO.P,J2,2,Pin_2*%
%TO.N,Net-(J2-Pin_2)*%
X100000000Y-86000000D03*
%TO.P,J2,3,Pin_3*%
%TO.N,Net-(J2-Pin_3)*%
X100000000Y-83500000D03*
%TO.P,J2,4,Pin_4*%
%TO.N,GND*%
X100000000Y-81000000D03*
%TD*%
D11*
%TO.P,R1,1*%
%TO.N,+3V3*%
X54150000Y-85500000D03*
%TO.P,R1,2*%
%TO.N,Net-(J3-Pin_3)*%
X66850000Y-85500000D03*
%TD*%
%TO.P,R3,1*%
%TO.N,+3V3*%
X54150000Y-91750000D03*
%TO.P,R3,2*%
%TO.N,Net-(J3-Pin_2)*%
X66850000Y-91750000D03*
%TD*%
D19*
%TO.N,Net-(U1-SC4)*%
X78500000Y-80500000D03*
X80500000Y-87000000D03*
%TD*%
D20*
%TO.N,GND*%
X72900000Y-86267630D02*
X71600000Y-87567630D01*
X72900000Y-82500000D02*
X72900000Y-86267630D01*
X71600000Y-87567630D02*
X71600000Y-88225000D01*
X70950000Y-88225000D02*
X71600000Y-88225000D01*
%TO.N,Net-(J3-Pin_2)*%
X67850000Y-90750000D02*
X71250000Y-90750000D01*
X71250000Y-90750000D02*
X72250000Y-89750000D01*
X72250000Y-89750000D02*
X72250000Y-88225000D01*
X66850000Y-91750000D02*
X67850000Y-90750000D01*
%TO.N,Net-(J3-Pin_3)*%
X65700000Y-82500000D02*
X66850000Y-83650000D01*
X66850000Y-83650000D02*
X66850000Y-85500000D01*
X51000000Y-82500000D02*
X65700000Y-82500000D01*
X48000000Y-85500000D02*
X51000000Y-82500000D01*
%TO.N,+3V3*%
X71050000Y-78800000D02*
X71000000Y-78850000D01*
X76800000Y-78800000D02*
X71050000Y-78800000D01*
X71000000Y-82450000D02*
X70950000Y-82500000D01*
X71000000Y-78850000D02*
X71000000Y-82450000D01*
%TO.N,Net-(J3-Pin_4)*%
X69400000Y-84000000D02*
X71000000Y-84000000D01*
X66850000Y-81450000D02*
X69400000Y-84000000D01*
X66850000Y-79000000D02*
X66850000Y-81450000D01*
X71000000Y-84000000D02*
X71600000Y-83400000D01*
X71600000Y-83400000D02*
X71600000Y-82500000D01*
%TO.N,Net-(J3-Pin_3)*%
X71100000Y-85500000D02*
X72250000Y-84350000D01*
X72250000Y-84350000D02*
X72250000Y-82500000D01*
X66850000Y-85500000D02*
X71100000Y-85500000D01*
%TO.N,Net-(J3-Pin_4)*%
X49900000Y-81600000D02*
X64250000Y-81600000D01*
X48000000Y-83500000D02*
X49900000Y-81600000D01*
X64250000Y-81600000D02*
X66850000Y-79000000D01*
%TO.N,+3V3*%
X97000000Y-96500000D02*
X98000000Y-95500000D01*
X83800000Y-94000000D02*
X83800000Y-95300000D01*
X82500000Y-83000000D02*
X82500000Y-84000000D01*
X85000000Y-96500000D02*
X97000000Y-96500000D01*
X100000000Y-88500000D02*
X98000000Y-90500000D01*
X83800000Y-95300000D02*
X85000000Y-96500000D01*
X94850000Y-81150000D02*
X94850000Y-80000000D01*
X88000000Y-84000000D02*
X86500000Y-82500000D01*
X98000000Y-90500000D02*
X98000000Y-95500000D01*
X94850000Y-80000000D02*
X94850000Y-74500000D01*
X56000000Y-93500000D02*
X71500000Y-93500000D01*
X83000000Y-82500000D02*
X82500000Y-83000000D01*
X55900000Y-93500000D02*
X56000000Y-93500000D01*
X54150000Y-91750000D02*
X55900000Y-93500000D01*
X50500000Y-79000000D02*
X52000000Y-79000000D01*
X93500000Y-82500000D02*
X94850000Y-81150000D01*
X48000000Y-81500000D02*
X50500000Y-79000000D01*
X89500000Y-82500000D02*
X93500000Y-82500000D01*
X52000000Y-79000000D02*
X54150000Y-79000000D01*
X88000000Y-84000000D02*
X89500000Y-82500000D01*
X86500000Y-82500000D02*
X83000000Y-82500000D01*
%TO.N,Net-(U2-VCCB)*%
X90500000Y-84000000D02*
X90500000Y-84500000D01*
X88100001Y-86899999D02*
X88100001Y-87524998D01*
X90500000Y-84500000D02*
X88100001Y-86899999D01*
%TO.N,Net-(U2-VCCA)*%
X83900002Y-85099998D02*
X85000000Y-84000000D01*
X83900002Y-87524998D02*
X83900002Y-85099998D01*
%TO.N,Net-(J1-Pin_3)*%
X76500000Y-93500000D02*
X74850000Y-91850000D01*
X74850000Y-91850000D02*
X74850000Y-88225000D01*
%TO.N,Net-(J1-Pin_2)*%
X74200000Y-93300000D02*
X74200000Y-88225000D01*
X74000000Y-93500000D02*
X74200000Y-93300000D01*
%TO.N,Net-(J2-Pin_2)*%
X93175002Y-88824998D02*
X88100001Y-88824998D01*
X100000000Y-86000000D02*
X96000000Y-86000000D01*
X96000000Y-86000000D02*
X93175002Y-88824998D01*
%TO.N,Net-(J2-Pin_3)*%
X88100001Y-88174999D02*
X92825001Y-88174999D01*
X97500000Y-83500000D02*
X92825001Y-88174999D01*
X100000000Y-83500000D02*
X97500000Y-83500000D01*
%TO.N,Net-(J3-Pin_2)*%
X52000000Y-88500000D02*
X65500000Y-88500000D01*
X65500000Y-88500000D02*
X66850000Y-89850000D01*
X48000000Y-87500000D02*
X51000000Y-87500000D01*
X66850000Y-89850000D02*
X66850000Y-91750000D01*
X51000000Y-87500000D02*
X52000000Y-88500000D01*
%TO.N,Net-(U2-EN)*%
X96500000Y-94000000D02*
X96500000Y-92000000D01*
X93974999Y-89474999D02*
X88100001Y-89474999D01*
X96500000Y-92000000D02*
X93974999Y-89474999D01*
%TO.N,Net-(U1-SC4)*%
X78500000Y-80500000D02*
X82150000Y-76850000D01*
X77450000Y-81550000D02*
X77450000Y-82500000D01*
X81674999Y-88174999D02*
X83900002Y-88174999D01*
X80500000Y-87000000D02*
X81674999Y-88174999D01*
X78500000Y-80500000D02*
X77450000Y-81550000D01*
X82150000Y-76850000D02*
X82150000Y-74500000D01*
%TO.N,Net-(U1-SD4)*%
X79750000Y-87250000D02*
X79750000Y-82750000D01*
X78100000Y-82500000D02*
X78800000Y-81800000D01*
X80600000Y-80000000D02*
X82150000Y-80000000D01*
X79750000Y-82750000D02*
X78800000Y-81800000D01*
X83900002Y-88824998D02*
X81324998Y-88824998D01*
X81324998Y-88824998D02*
X79750000Y-87250000D01*
X78800000Y-81800000D02*
X80600000Y-80000000D01*
%TD*%
%TA.AperFunction,Conductor*%
%TO.N,GND*%
G36*
X102504043Y-72500765D02*
G01*
X102752895Y-72517075D01*
X102768953Y-72519190D01*
X102976105Y-72560395D01*
X103009535Y-72567045D01*
X103025202Y-72571243D01*
X103194947Y-72628863D01*
X103257481Y-72650091D01*
X103272458Y-72656294D01*
X103481799Y-72759529D01*
X103492460Y-72764787D01*
X103506508Y-72772897D01*
X103710464Y-72909177D01*
X103723328Y-72919048D01*
X103907749Y-73080781D01*
X103919218Y-73092250D01*
X104056196Y-73248444D01*
X104080951Y-73276671D01*
X104090825Y-73289539D01*
X104227102Y-73493492D01*
X104235212Y-73507539D01*
X104343702Y-73727534D01*
X104349909Y-73742520D01*
X104428756Y-73974797D01*
X104432954Y-73990464D01*
X104480807Y-74231035D01*
X104482925Y-74247116D01*
X104499235Y-74495956D01*
X104499500Y-74504066D01*
X104499500Y-95495933D01*
X104499235Y-95504043D01*
X104482925Y-95752883D01*
X104480807Y-95768964D01*
X104432954Y-96009535D01*
X104428756Y-96025202D01*
X104349909Y-96257479D01*
X104343702Y-96272465D01*
X104235212Y-96492460D01*
X104227102Y-96506507D01*
X104090825Y-96710460D01*
X104080951Y-96723328D01*
X103919218Y-96907749D01*
X103907749Y-96919218D01*
X103723328Y-97080951D01*
X103710460Y-97090825D01*
X103506507Y-97227102D01*
X103492460Y-97235212D01*
X103272465Y-97343702D01*
X103257479Y-97349909D01*
X103025202Y-97428756D01*
X103009535Y-97432954D01*
X102768964Y-97480807D01*
X102752883Y-97482925D01*
X102504043Y-97499235D01*
X102495933Y-97499500D01*
X46004067Y-97499500D01*
X45995957Y-97499235D01*
X45747116Y-97482925D01*
X45731035Y-97480807D01*
X45490464Y-97432954D01*
X45474797Y-97428756D01*
X45242520Y-97349909D01*
X45227534Y-97343702D01*
X45007539Y-97235212D01*
X44993492Y-97227102D01*
X44789539Y-97090825D01*
X44776671Y-97080951D01*
X44719303Y-97030641D01*
X44592250Y-96919218D01*
X44580781Y-96907749D01*
X44443804Y-96751557D01*
X44419045Y-96723325D01*
X44409174Y-96710460D01*
X44272897Y-96506507D01*
X44264787Y-96492460D01*
X44158855Y-96277652D01*
X44156294Y-96272458D01*
X44150090Y-96257479D01*
X44071243Y-96025202D01*
X44067045Y-96009535D01*
X44059186Y-95970026D01*
X44019190Y-95768953D01*
X44017075Y-95752895D01*
X44000765Y-95504043D01*
X44000500Y-95495933D01*
X44000500Y-95393713D01*
X44649500Y-95393713D01*
X44649500Y-95606286D01*
X44678215Y-95787590D01*
X44682754Y-95816243D01*
X44732721Y-95970026D01*
X44748444Y-96018414D01*
X44844951Y-96207820D01*
X44969890Y-96379786D01*
X45120213Y-96530109D01*
X45292179Y-96655048D01*
X45292181Y-96655049D01*
X45292184Y-96655051D01*
X45481588Y-96751557D01*
X45683757Y-96817246D01*
X45893713Y-96850500D01*
X45893714Y-96850500D01*
X46106286Y-96850500D01*
X46106287Y-96850500D01*
X46316243Y-96817246D01*
X46518412Y-96751557D01*
X46707816Y-96655051D01*
X46729789Y-96639086D01*
X46879786Y-96530109D01*
X46879788Y-96530106D01*
X46879792Y-96530104D01*
X47030104Y-96379792D01*
X47030106Y-96379788D01*
X47030109Y-96379786D01*
X47155048Y-96207820D01*
X47155047Y-96207820D01*
X47155051Y-96207816D01*
X47251557Y-96018412D01*
X47317246Y-95816243D01*
X47350500Y-95606287D01*
X47350500Y-95393713D01*
X47317246Y-95183757D01*
X47251557Y-94981588D01*
X47155051Y-94792184D01*
X47155049Y-94792181D01*
X47155048Y-94792179D01*
X47030109Y-94620213D01*
X46879786Y-94469890D01*
X46707820Y-94344951D01*
X46518414Y-94248444D01*
X46518413Y-94248443D01*
X46518412Y-94248443D01*
X46316243Y-94182754D01*
X46316241Y-94182753D01*
X46316240Y-94182753D01*
X46154957Y-94157208D01*
X46106287Y-94149500D01*
X45893713Y-94149500D01*
X45845042Y-94157208D01*
X45683760Y-94182753D01*
X45481585Y-94248444D01*
X45292179Y-94344951D01*
X45120213Y-94469890D01*
X44969890Y-94620213D01*
X44844951Y-94792179D01*
X44748444Y-94981585D01*
X44682753Y-95183760D01*
X44649500Y-95393713D01*
X44000500Y-95393713D01*
X44000500Y-81413389D01*
X46624500Y-81413389D01*
X46624500Y-81586611D01*
X46651598Y-81757701D01*
X46705127Y-81922445D01*
X46783768Y-82076788D01*
X46885586Y-82216928D01*
X47008072Y-82339414D01*
X47022653Y-82350008D01*
X47091023Y-82399683D01*
X47133689Y-82455013D01*
X47139667Y-82524626D01*
X47107061Y-82586421D01*
X47091023Y-82600317D01*
X47008078Y-82660581D01*
X47008069Y-82660588D01*
X46885588Y-82783069D01*
X46885588Y-82783070D01*
X46885586Y-82783072D01*
X46878966Y-82792184D01*
X46783768Y-82923211D01*
X46705128Y-83077552D01*
X46651597Y-83242302D01*
X46629692Y-83380607D01*
X46624500Y-83413389D01*
X46624500Y-83586611D01*
X46624819Y-83588623D01*
X46648645Y-83739060D01*
X46651598Y-83757701D01*
X46705127Y-83922445D01*
X46783768Y-84076788D01*
X46885586Y-84216928D01*
X47008072Y-84339414D01*
X47008078Y-84339418D01*
X47091023Y-84399683D01*
X47133689Y-84455013D01*
X47139667Y-84524626D01*
X47107061Y-84586421D01*
X47091023Y-84600317D01*
X47008078Y-84660581D01*
X47008069Y-84660588D01*
X46885588Y-84783069D01*
X46885588Y-84783070D01*
X46885586Y-84783072D01*
X46884965Y-84783927D01*
X46783768Y-84923211D01*
X46705128Y-85077552D01*
X46651597Y-85242302D01*
X46629378Y-85382591D01*
X46624500Y-85413389D01*
X46624500Y-85586611D01*
X46651598Y-85757701D01*
X46705127Y-85922445D01*
X46783768Y-86076788D01*
X46885586Y-86216928D01*
X47008072Y-86339414D01*
X47018815Y-86347219D01*
X47091023Y-86399683D01*
X47133689Y-86455013D01*
X47139667Y-86524626D01*
X47107061Y-86586421D01*
X47091023Y-86600317D01*
X47008078Y-86660581D01*
X47008069Y-86660588D01*
X46885588Y-86783069D01*
X46885588Y-86783070D01*
X46885586Y-86783072D01*
X46872924Y-86800500D01*
X46783768Y-86923211D01*
X46705128Y-87077552D01*
X46651597Y-87242302D01*
X46624500Y-87413389D01*
X46624500Y-87586610D01*
X46649934Y-87747200D01*
X46651598Y-87757701D01*
X46705127Y-87922445D01*
X46783768Y-88076788D01*
X46885586Y-88216928D01*
X46885588Y-88216930D01*
X46993491Y-88324833D01*
X47026976Y-88386156D01*
X47021992Y-88455848D01*
X46980120Y-88511781D01*
X46970907Y-88518053D01*
X46906654Y-88557684D01*
X46782684Y-88681654D01*
X46690643Y-88830875D01*
X46690641Y-88830880D01*
X46635494Y-88997302D01*
X46635493Y-88997309D01*
X46625000Y-89100013D01*
X46625000Y-89250000D01*
X47719670Y-89250000D01*
X47699925Y-89269745D01*
X47650556Y-89355255D01*
X47625000Y-89450630D01*
X47625000Y-89549370D01*
X47650556Y-89644745D01*
X47699925Y-89730255D01*
X47719670Y-89750000D01*
X46625001Y-89750000D01*
X46625001Y-89899986D01*
X46635494Y-90002697D01*
X46690641Y-90169119D01*
X46690643Y-90169124D01*
X46782684Y-90318345D01*
X46906654Y-90442315D01*
X47055875Y-90534356D01*
X47055880Y-90534358D01*
X47222302Y-90589505D01*
X47222309Y-90589506D01*
X47325019Y-90599999D01*
X47749999Y-90599999D01*
X47750000Y-90599998D01*
X47750000Y-89780330D01*
X47769745Y-89800075D01*
X47855255Y-89849444D01*
X47950630Y-89875000D01*
X48049370Y-89875000D01*
X48144745Y-89849444D01*
X48230255Y-89800075D01*
X48250000Y-89780330D01*
X48250000Y-90599999D01*
X48674972Y-90599999D01*
X48674986Y-90599998D01*
X48777697Y-90589505D01*
X48944119Y-90534358D01*
X48944124Y-90534356D01*
X49093345Y-90442315D01*
X49217315Y-90318345D01*
X49309356Y-90169124D01*
X49309358Y-90169119D01*
X49364505Y-90002697D01*
X49364506Y-90002690D01*
X49374999Y-89899986D01*
X49375000Y-89899973D01*
X49375000Y-89750000D01*
X48280330Y-89750000D01*
X48300075Y-89730255D01*
X48349444Y-89644745D01*
X48375000Y-89549370D01*
X48375000Y-89450630D01*
X48349444Y-89355255D01*
X48300075Y-89269745D01*
X48280330Y-89250000D01*
X49374999Y-89250000D01*
X49374999Y-89100028D01*
X49374998Y-89100013D01*
X49364505Y-88997302D01*
X49309358Y-88830880D01*
X49309356Y-88830875D01*
X49217315Y-88681654D01*
X49093343Y-88557682D01*
X49029093Y-88518053D01*
X48982368Y-88466105D01*
X48971145Y-88397143D01*
X48998988Y-88333061D01*
X49006486Y-88324855D01*
X49114414Y-88216928D01*
X49161868Y-88151613D01*
X49217197Y-88108949D01*
X49262185Y-88100500D01*
X50699903Y-88100500D01*
X50766942Y-88120185D01*
X50787583Y-88136818D01*
X51631284Y-88980520D01*
X51631286Y-88980521D01*
X51631290Y-88980524D01*
X51728449Y-89036618D01*
X51768216Y-89059577D01*
X51920943Y-89100501D01*
X51920945Y-89100501D01*
X52086654Y-89100501D01*
X52086670Y-89100500D01*
X65199903Y-89100500D01*
X65266942Y-89120185D01*
X65287584Y-89136819D01*
X66213181Y-90062416D01*
X66246666Y-90123739D01*
X66249500Y-90150097D01*
X66249500Y-90520397D01*
X66229815Y-90587436D01*
X66181800Y-90630879D01*
X66168389Y-90637712D01*
X66002786Y-90758028D01*
X65858028Y-90902786D01*
X65737715Y-91068386D01*
X65644781Y-91250776D01*
X65581522Y-91445465D01*
X65549500Y-91647648D01*
X65549500Y-91852351D01*
X65581522Y-92054534D01*
X65644781Y-92249223D01*
X65737715Y-92431613D01*
X65858028Y-92597213D01*
X65948634Y-92687819D01*
X65982119Y-92749142D01*
X65977135Y-92818834D01*
X65935263Y-92874767D01*
X65869799Y-92899184D01*
X65860953Y-92899500D01*
X56200098Y-92899500D01*
X56133059Y-92879815D01*
X56112417Y-92863181D01*
X55444077Y-92194841D01*
X55410592Y-92133518D01*
X55413827Y-92068842D01*
X55418477Y-92054534D01*
X55450500Y-91852352D01*
X55450500Y-91647648D01*
X55439193Y-91576261D01*
X55418477Y-91445465D01*
X55361296Y-91269481D01*
X55355220Y-91250781D01*
X55355218Y-91250778D01*
X55355218Y-91250776D01*
X55287929Y-91118716D01*
X55262287Y-91068390D01*
X55254556Y-91057749D01*
X55141971Y-90902786D01*
X54997213Y-90758028D01*
X54831613Y-90637715D01*
X54831612Y-90637714D01*
X54831610Y-90637713D01*
X54757592Y-90599999D01*
X54649223Y-90544781D01*
X54454534Y-90481522D01*
X54279995Y-90453878D01*
X54252352Y-90449500D01*
X54047648Y-90449500D01*
X54023329Y-90453351D01*
X53845465Y-90481522D01*
X53650776Y-90544781D01*
X53468386Y-90637715D01*
X53302786Y-90758028D01*
X53158028Y-90902786D01*
X53037715Y-91068386D01*
X52944781Y-91250776D01*
X52881522Y-91445465D01*
X52849500Y-91647648D01*
X52849500Y-91852351D01*
X52881522Y-92054534D01*
X52944781Y-92249223D01*
X53037715Y-92431613D01*
X53158028Y-92597213D01*
X53302786Y-92741971D01*
X53455746Y-92853101D01*
X53468390Y-92862287D01*
X53584360Y-92921377D01*
X53650776Y-92955218D01*
X53650778Y-92955218D01*
X53650781Y-92955220D01*
X53755137Y-92989127D01*
X53845465Y-93018477D01*
X53946557Y-93034488D01*
X54047648Y-93050500D01*
X54047649Y-93050500D01*
X54252351Y-93050500D01*
X54252352Y-93050500D01*
X54454534Y-93018477D01*
X54468842Y-93013827D01*
X54538679Y-93011831D01*
X54594841Y-93044077D01*
X55531284Y-93980520D01*
X55531286Y-93980521D01*
X55531290Y-93980524D01*
X55668209Y-94059573D01*
X55668216Y-94059577D01*
X55820943Y-94100501D01*
X55820945Y-94100501D01*
X55986654Y-94100501D01*
X55986670Y-94100500D01*
X70025501Y-94100500D01*
X70092540Y-94120185D01*
X70138295Y-94172989D01*
X70149501Y-94224500D01*
X70149501Y-94275018D01*
X70160000Y-94377796D01*
X70160001Y-94377799D01*
X70205894Y-94516294D01*
X70215186Y-94544334D01*
X70307288Y-94693656D01*
X70431344Y-94817712D01*
X70580666Y-94909814D01*
X70747203Y-94964999D01*
X70849991Y-94975500D01*
X72150008Y-94975499D01*
X72252797Y-94964999D01*
X72419334Y-94909814D01*
X72568656Y-94817712D01*
X72692712Y-94693656D01*
X72784814Y-94544334D01*
X72784814Y-94544331D01*
X72788178Y-94538879D01*
X72840126Y-94492154D01*
X72909088Y-94480931D01*
X72973170Y-94508774D01*
X72981398Y-94516294D01*
X73120213Y-94655109D01*
X73292179Y-94780048D01*
X73292181Y-94780049D01*
X73292184Y-94780051D01*
X73481588Y-94876557D01*
X73683757Y-94942246D01*
X73893713Y-94975500D01*
X73893714Y-94975500D01*
X74106286Y-94975500D01*
X74106287Y-94975500D01*
X74316243Y-94942246D01*
X74518412Y-94876557D01*
X74707816Y-94780051D01*
X74729789Y-94764086D01*
X74879786Y-94655109D01*
X74879788Y-94655106D01*
X74879792Y-94655104D01*
X75030104Y-94504792D01*
X75149683Y-94340204D01*
X75205011Y-94297540D01*
X75274624Y-94291561D01*
X75336420Y-94324166D01*
X75350313Y-94340199D01*
X75444543Y-94469896D01*
X75469896Y-94504792D01*
X75620213Y-94655109D01*
X75792179Y-94780048D01*
X75792181Y-94780049D01*
X75792184Y-94780051D01*
X75981588Y-94876557D01*
X76183757Y-94942246D01*
X76393713Y-94975500D01*
X76393714Y-94975500D01*
X76606286Y-94975500D01*
X76606287Y-94975500D01*
X76816243Y-94942246D01*
X77018412Y-94876557D01*
X77207816Y-94780051D01*
X77229789Y-94764086D01*
X77379786Y-94655109D01*
X77379788Y-94655106D01*
X77379792Y-94655104D01*
X77530104Y-94504792D01*
X77649991Y-94339779D01*
X77705320Y-94297115D01*
X77774933Y-94291136D01*
X77836729Y-94323741D01*
X77850627Y-94339781D01*
X77970272Y-94504459D01*
X77970276Y-94504464D01*
X78120535Y-94654723D01*
X78120540Y-94654727D01*
X78292442Y-94779620D01*
X78481782Y-94876095D01*
X78683871Y-94941757D01*
X78750000Y-94952231D01*
X78750000Y-93904145D01*
X78816657Y-93942630D01*
X78937465Y-93975000D01*
X79062535Y-93975000D01*
X79183343Y-93942630D01*
X79250000Y-93904145D01*
X79250000Y-94952230D01*
X79316126Y-94941757D01*
X79316129Y-94941757D01*
X79518217Y-94876095D01*
X79707557Y-94779620D01*
X79879459Y-94654727D01*
X79879464Y-94654723D01*
X80029723Y-94504464D01*
X80029727Y-94504459D01*
X80154620Y-94332557D01*
X80251095Y-94143217D01*
X80316757Y-93941130D01*
X80316757Y-93941127D01*
X80347030Y-93750000D01*
X79404146Y-93750000D01*
X79442630Y-93683343D01*
X79475000Y-93562535D01*
X79475000Y-93437465D01*
X79442630Y-93316657D01*
X79404146Y-93250000D01*
X80347030Y-93250000D01*
X80316757Y-93058872D01*
X80316757Y-93058869D01*
X80251095Y-92856782D01*
X80154620Y-92667442D01*
X80029727Y-92495540D01*
X80029723Y-92495535D01*
X79879464Y-92345276D01*
X79879459Y-92345272D01*
X79707557Y-92220379D01*
X79518215Y-92123903D01*
X79316124Y-92058241D01*
X79250000Y-92047768D01*
X79250000Y-93095854D01*
X79183343Y-93057370D01*
X79062535Y-93025000D01*
X78937465Y-93025000D01*
X78816657Y-93057370D01*
X78750000Y-93095854D01*
X78750000Y-92047768D01*
X78749999Y-92047768D01*
X78683875Y-92058241D01*
X78481784Y-92123903D01*
X78292442Y-92220379D01*
X78120540Y-92345272D01*
X78120535Y-92345276D01*
X77970276Y-92495535D01*
X77970272Y-92495540D01*
X77850627Y-92660218D01*
X77795297Y-92702884D01*
X77725684Y-92708863D01*
X77663889Y-92676257D01*
X77649991Y-92660218D01*
X77530109Y-92495214D01*
X77530105Y-92495209D01*
X77379786Y-92344890D01*
X77207820Y-92219951D01*
X77018414Y-92123444D01*
X77018413Y-92123443D01*
X77018412Y-92123443D01*
X76816243Y-92057754D01*
X76816241Y-92057753D01*
X76816240Y-92057753D01*
X76654957Y-92032208D01*
X76606287Y-92024500D01*
X76393713Y-92024500D01*
X76345042Y-92032208D01*
X76183760Y-92057753D01*
X76183757Y-92057754D01*
X76047129Y-92102147D01*
X75977290Y-92104142D01*
X75921132Y-92071897D01*
X75486819Y-91637584D01*
X75453334Y-91576261D01*
X75450500Y-91549903D01*
X75450500Y-89586999D01*
X75470185Y-89519960D01*
X75522989Y-89474205D01*
X75574500Y-89462999D01*
X75639362Y-89462999D01*
X75661520Y-89460081D01*
X75756762Y-89447544D01*
X75777545Y-89438934D01*
X75847014Y-89431465D01*
X75872453Y-89438934D01*
X75893238Y-89447544D01*
X76010639Y-89463000D01*
X76289360Y-89462999D01*
X76289361Y-89462999D01*
X76301594Y-89461388D01*
X76406762Y-89447544D01*
X76427545Y-89438934D01*
X76497014Y-89431465D01*
X76522453Y-89438934D01*
X76543238Y-89447544D01*
X76660639Y-89463000D01*
X76939360Y-89462999D01*
X76939361Y-89462999D01*
X76951594Y-89461388D01*
X77056762Y-89447544D01*
X77077545Y-89438934D01*
X77147014Y-89431465D01*
X77172453Y-89438934D01*
X77193238Y-89447544D01*
X77310639Y-89463000D01*
X77589360Y-89462999D01*
X77589361Y-89462999D01*
X77603018Y-89461201D01*
X77706762Y-89447544D01*
X77728200Y-89438663D01*
X77797668Y-89431194D01*
X77823106Y-89438663D01*
X77843365Y-89447054D01*
X77843377Y-89447058D01*
X77899998Y-89454511D01*
X77900000Y-89454510D01*
X77900000Y-89411999D01*
X77919685Y-89344960D01*
X77930338Y-89330738D01*
X77938558Y-89321262D01*
X77978282Y-89290782D01*
X78074536Y-89165341D01*
X78075175Y-89163796D01*
X78082338Y-89155541D01*
X78108729Y-89138603D01*
X78134052Y-89120113D01*
X78137896Y-89119883D01*
X78141139Y-89117803D01*
X78172496Y-89117822D01*
X78203798Y-89115958D01*
X78207157Y-89117844D01*
X78211009Y-89117847D01*
X78237371Y-89134812D01*
X78264718Y-89150170D01*
X78266524Y-89153573D01*
X78269763Y-89155658D01*
X78282771Y-89184187D01*
X78297471Y-89211887D01*
X78298063Y-89217728D01*
X78298749Y-89219231D01*
X78298436Y-89221396D01*
X78300000Y-89236802D01*
X78300000Y-89454510D01*
X78300001Y-89454511D01*
X78356627Y-89447057D01*
X78356633Y-89447055D01*
X78502585Y-89386600D01*
X78627924Y-89290424D01*
X78724100Y-89165086D01*
X78784554Y-89019134D01*
X78784555Y-89019130D01*
X78799999Y-88901830D01*
X78800000Y-88901816D01*
X78800000Y-88425000D01*
X78274500Y-88425000D01*
X78265814Y-88422449D01*
X78256854Y-88423738D01*
X78232815Y-88412759D01*
X78207461Y-88405315D01*
X78201533Y-88398473D01*
X78193298Y-88394713D01*
X78179009Y-88372479D01*
X78161706Y-88352511D01*
X78159418Y-88341997D01*
X78155523Y-88335936D01*
X78150500Y-88301001D01*
X78150499Y-88149001D01*
X78170183Y-88081961D01*
X78222987Y-88036206D01*
X78274499Y-88025000D01*
X78799999Y-88025000D01*
X78799999Y-87548175D01*
X78784557Y-87430871D01*
X78784555Y-87430866D01*
X78724100Y-87284914D01*
X78627924Y-87159575D01*
X78502586Y-87063399D01*
X78356631Y-87002944D01*
X78300000Y-86995487D01*
X78300000Y-87213197D01*
X78292565Y-87238515D01*
X78288826Y-87264639D01*
X78282876Y-87271514D01*
X78280315Y-87280236D01*
X78260375Y-87297513D01*
X78243104Y-87317471D01*
X78234380Y-87320038D01*
X78227511Y-87325991D01*
X78201393Y-87329746D01*
X78176077Y-87337197D01*
X78167352Y-87334641D01*
X78158353Y-87335935D01*
X78134348Y-87324972D01*
X78109025Y-87317554D01*
X78100064Y-87309315D01*
X78094797Y-87306910D01*
X78082337Y-87294458D01*
X78075176Y-87286204D01*
X78074536Y-87284659D01*
X77978282Y-87159218D01*
X77938560Y-87128738D01*
X77930337Y-87119260D01*
X77920811Y-87098435D01*
X77907310Y-87079944D01*
X77904206Y-87062134D01*
X77901273Y-87055722D01*
X77902091Y-87050001D01*
X77900000Y-87037999D01*
X77900000Y-86995487D01*
X77843370Y-87002943D01*
X77823103Y-87011338D01*
X77753633Y-87018804D01*
X77728203Y-87011337D01*
X77706762Y-87002456D01*
X77706760Y-87002455D01*
X77589361Y-86987000D01*
X77310636Y-86987000D01*
X77193246Y-87002453D01*
X77193234Y-87002457D01*
X77172450Y-87011066D01*
X77102981Y-87018533D01*
X77077550Y-87011066D01*
X77056765Y-87002457D01*
X77056760Y-87002455D01*
X76939361Y-86987000D01*
X76660636Y-86987000D01*
X76543246Y-87002453D01*
X76543234Y-87002457D01*
X76522450Y-87011066D01*
X76452981Y-87018533D01*
X76427550Y-87011066D01*
X76406765Y-87002457D01*
X76406760Y-87002455D01*
X76289361Y-86987000D01*
X76010636Y-86987000D01*
X75893246Y-87002453D01*
X75893234Y-87002457D01*
X75872450Y-87011066D01*
X75802981Y-87018533D01*
X75777550Y-87011066D01*
X75756765Y-87002457D01*
X75756760Y-87002455D01*
X75639361Y-86987000D01*
X75360636Y-86987000D01*
X75243246Y-87002453D01*
X75243234Y-87002457D01*
X75222450Y-87011066D01*
X75152981Y-87018533D01*
X75127550Y-87011066D01*
X75106765Y-87002457D01*
X75106760Y-87002455D01*
X74989361Y-86987000D01*
X74710636Y-86987000D01*
X74593246Y-87002453D01*
X74593234Y-87002457D01*
X74572450Y-87011066D01*
X74502981Y-87018533D01*
X74477550Y-87011066D01*
X74456765Y-87002457D01*
X74456760Y-87002455D01*
X74339361Y-86987000D01*
X74060636Y-86987000D01*
X73943246Y-87002453D01*
X73943234Y-87002457D01*
X73922450Y-87011066D01*
X73852981Y-87018533D01*
X73827550Y-87011066D01*
X73806765Y-87002457D01*
X73806760Y-87002455D01*
X73689361Y-86987000D01*
X73410636Y-86987000D01*
X73293246Y-87002453D01*
X73293234Y-87002457D01*
X73272450Y-87011066D01*
X73202981Y-87018533D01*
X73177550Y-87011066D01*
X73156765Y-87002457D01*
X73156760Y-87002455D01*
X73039361Y-86987000D01*
X72760636Y-86987000D01*
X72643246Y-87002453D01*
X72643234Y-87002457D01*
X72622450Y-87011066D01*
X72552981Y-87018533D01*
X72527550Y-87011066D01*
X72506765Y-87002457D01*
X72506760Y-87002455D01*
X72389361Y-86987000D01*
X72110636Y-86987000D01*
X71993241Y-87002454D01*
X71993239Y-87002455D01*
X71971796Y-87011337D01*
X71902327Y-87018804D01*
X71876895Y-87011337D01*
X71856631Y-87002944D01*
X71800000Y-86995487D01*
X71800000Y-87037999D01*
X71780315Y-87105038D01*
X71769663Y-87119260D01*
X71761439Y-87128738D01*
X71721718Y-87159218D01*
X71625464Y-87284659D01*
X71624823Y-87286204D01*
X71617663Y-87294458D01*
X71591271Y-87311395D01*
X71565948Y-87329886D01*
X71562103Y-87330115D01*
X71558861Y-87332196D01*
X71527503Y-87332176D01*
X71496202Y-87334041D01*
X71492842Y-87332154D01*
X71488991Y-87332152D01*
X71462627Y-87315185D01*
X71435281Y-87299829D01*
X71433474Y-87296425D01*
X71430237Y-87294342D01*
X71417228Y-87265810D01*
X71402529Y-87238111D01*
X71401936Y-87232270D01*
X71401251Y-87230768D01*
X71401563Y-87228602D01*
X71400000Y-87213197D01*
X71400000Y-86995487D01*
X71343370Y-87002943D01*
X71322449Y-87011609D01*
X71252980Y-87019075D01*
X71227551Y-87011609D01*
X71206629Y-87002943D01*
X71150000Y-86995487D01*
X71150000Y-89454510D01*
X71150001Y-89454511D01*
X71206622Y-89447058D01*
X71206627Y-89447056D01*
X71227545Y-89438392D01*
X71297014Y-89430923D01*
X71301122Y-89431736D01*
X71422429Y-89457878D01*
X71448865Y-89472246D01*
X71476388Y-89484422D01*
X71479250Y-89488762D01*
X71483817Y-89491244D01*
X71498289Y-89517625D01*
X71514859Y-89542747D01*
X71514920Y-89547944D01*
X71517421Y-89552502D01*
X71515332Y-89582527D01*
X71515690Y-89612612D01*
X71512908Y-89617363D01*
X71512572Y-89622203D01*
X71500960Y-89637776D01*
X71483987Y-89666776D01*
X71037584Y-90113181D01*
X70976261Y-90146666D01*
X70949903Y-90149500D01*
X67936670Y-90149500D01*
X67936654Y-90149499D01*
X67929058Y-90149499D01*
X67770943Y-90149499D01*
X67618216Y-90190423D01*
X67618214Y-90190424D01*
X67610366Y-90192527D01*
X67609739Y-90190190D01*
X67552472Y-90196342D01*
X67489996Y-90165061D01*
X67454349Y-90104969D01*
X67450500Y-90074314D01*
X67450500Y-89770946D01*
X67450500Y-89770943D01*
X67433309Y-89706783D01*
X67409577Y-89618215D01*
X67380639Y-89568095D01*
X67330520Y-89481284D01*
X67218716Y-89369480D01*
X67218715Y-89369479D01*
X67214385Y-89365149D01*
X67214374Y-89365139D01*
X66751059Y-88901824D01*
X70250001Y-88901824D01*
X70265442Y-89019128D01*
X70265444Y-89019133D01*
X70325899Y-89165085D01*
X70422075Y-89290424D01*
X70547414Y-89386600D01*
X70693366Y-89447055D01*
X70693372Y-89447057D01*
X70749998Y-89454511D01*
X70750000Y-89454510D01*
X70750000Y-88425000D01*
X70250001Y-88425000D01*
X70250001Y-88901824D01*
X66751059Y-88901824D01*
X65987590Y-88138355D01*
X65987588Y-88138352D01*
X65868717Y-88019481D01*
X65868716Y-88019480D01*
X65781904Y-87969360D01*
X65781904Y-87969359D01*
X65781900Y-87969358D01*
X65731785Y-87940423D01*
X65579057Y-87899499D01*
X65420943Y-87899499D01*
X65413347Y-87899499D01*
X65413331Y-87899500D01*
X52300098Y-87899500D01*
X52233059Y-87879815D01*
X52212417Y-87863181D01*
X51981035Y-87631799D01*
X51897405Y-87548169D01*
X70250000Y-87548169D01*
X70250000Y-88025000D01*
X70750000Y-88025000D01*
X70750000Y-86995487D01*
X70693368Y-87002944D01*
X70547413Y-87063399D01*
X70422075Y-87159575D01*
X70325899Y-87284913D01*
X70265445Y-87430865D01*
X70265444Y-87430869D01*
X70250000Y-87548169D01*
X51897405Y-87548169D01*
X51487590Y-87138355D01*
X51487588Y-87138352D01*
X51368717Y-87019481D01*
X51368716Y-87019480D01*
X51268232Y-86961466D01*
X51231785Y-86940423D01*
X51079057Y-86899499D01*
X50920943Y-86899499D01*
X50913347Y-86899499D01*
X50913331Y-86899500D01*
X49262185Y-86899500D01*
X49195146Y-86879815D01*
X49161867Y-86848386D01*
X49146606Y-86827381D01*
X49114414Y-86783072D01*
X48991928Y-86660586D01*
X48908975Y-86600317D01*
X48866311Y-86544988D01*
X48860332Y-86475374D01*
X48892938Y-86413579D01*
X48908976Y-86399682D01*
X48991928Y-86339414D01*
X49114414Y-86216928D01*
X49216232Y-86076788D01*
X49294873Y-85922445D01*
X49348402Y-85757701D01*
X49375500Y-85586611D01*
X49375500Y-85413389D01*
X49373007Y-85397648D01*
X52849500Y-85397648D01*
X52849500Y-85602351D01*
X52881522Y-85804534D01*
X52944781Y-85999223D01*
X52983647Y-86075500D01*
X53036798Y-86179815D01*
X53037715Y-86181613D01*
X53158028Y-86347213D01*
X53302786Y-86491971D01*
X53432788Y-86586421D01*
X53468390Y-86612287D01*
X53563182Y-86660586D01*
X53650776Y-86705218D01*
X53650778Y-86705218D01*
X53650781Y-86705220D01*
X53741136Y-86734578D01*
X53845465Y-86768477D01*
X53937595Y-86783069D01*
X54047648Y-86800500D01*
X54047649Y-86800500D01*
X54252351Y-86800500D01*
X54252352Y-86800500D01*
X54454534Y-86768477D01*
X54649219Y-86705220D01*
X54831610Y-86612287D01*
X54924590Y-86544732D01*
X54997213Y-86491971D01*
X54997215Y-86491968D01*
X54997219Y-86491966D01*
X55141966Y-86347219D01*
X55141968Y-86347215D01*
X55141971Y-86347213D01*
X55226938Y-86230264D01*
X55262287Y-86181610D01*
X55355220Y-85999219D01*
X55418477Y-85804534D01*
X55450500Y-85602352D01*
X55450500Y-85397648D01*
X55446225Y-85370654D01*
X55418477Y-85195465D01*
X55380164Y-85077552D01*
X55355220Y-85000781D01*
X55355218Y-85000778D01*
X55355218Y-85000776D01*
X55321503Y-84934607D01*
X55262287Y-84818390D01*
X55245285Y-84794989D01*
X55141971Y-84652786D01*
X54997213Y-84508028D01*
X54831613Y-84387715D01*
X54831612Y-84387714D01*
X54831610Y-84387713D01*
X54774653Y-84358691D01*
X54649223Y-84294781D01*
X54454534Y-84231522D01*
X54279995Y-84203878D01*
X54252352Y-84199500D01*
X54047648Y-84199500D01*
X54023329Y-84203351D01*
X53845465Y-84231522D01*
X53650776Y-84294781D01*
X53468386Y-84387715D01*
X53302786Y-84508028D01*
X53158028Y-84652786D01*
X53037715Y-84818386D01*
X52944781Y-85000776D01*
X52881522Y-85195465D01*
X52849500Y-85397648D01*
X49373007Y-85397648D01*
X49351812Y-85263828D01*
X49348403Y-85242303D01*
X49348402Y-85242301D01*
X49348402Y-85242299D01*
X49312665Y-85132315D01*
X49310671Y-85062475D01*
X49342914Y-85006319D01*
X51212417Y-83136819D01*
X51273740Y-83103334D01*
X51300098Y-83100500D01*
X65399903Y-83100500D01*
X65466942Y-83120185D01*
X65487584Y-83136819D01*
X66213181Y-83862416D01*
X66246666Y-83923739D01*
X66249500Y-83950097D01*
X66249500Y-84270397D01*
X66229815Y-84337436D01*
X66181800Y-84380879D01*
X66168389Y-84387712D01*
X66002786Y-84508028D01*
X65858028Y-84652786D01*
X65737715Y-84818386D01*
X65644781Y-85000776D01*
X65581522Y-85195465D01*
X65549500Y-85397648D01*
X65549500Y-85602351D01*
X65581522Y-85804534D01*
X65644781Y-85999223D01*
X65683647Y-86075500D01*
X65736798Y-86179815D01*
X65737715Y-86181613D01*
X65858028Y-86347213D01*
X66002786Y-86491971D01*
X66132788Y-86586421D01*
X66168390Y-86612287D01*
X66263182Y-86660586D01*
X66350776Y-86705218D01*
X66350778Y-86705218D01*
X66350781Y-86705220D01*
X66441136Y-86734578D01*
X66545465Y-86768477D01*
X66637595Y-86783069D01*
X66747648Y-86800500D01*
X66747649Y-86800500D01*
X66952351Y-86800500D01*
X66952352Y-86800500D01*
X67154534Y-86768477D01*
X67349219Y-86705220D01*
X67531610Y-86612287D01*
X67624590Y-86544732D01*
X67697213Y-86491971D01*
X67697215Y-86491968D01*
X67697219Y-86491966D01*
X67841966Y-86347219D01*
X67841968Y-86347215D01*
X67841971Y-86347213D01*
X67962284Y-86181614D01*
X67962285Y-86181613D01*
X67962287Y-86181610D01*
X67969117Y-86168204D01*
X68017091Y-86117409D01*
X68079602Y-86100500D01*
X71013331Y-86100500D01*
X71013347Y-86100501D01*
X71020943Y-86100501D01*
X71179054Y-86100501D01*
X71179057Y-86100501D01*
X71331785Y-86059577D01*
X71381904Y-86030639D01*
X71468716Y-85980520D01*
X71580520Y-85868716D01*
X71580520Y-85868714D01*
X71590728Y-85858507D01*
X71590729Y-85858504D01*
X72730520Y-84718716D01*
X72809577Y-84581784D01*
X72850501Y-84429057D01*
X72850501Y-84270942D01*
X72850501Y-84263347D01*
X72850500Y-84263329D01*
X72850500Y-83685848D01*
X72854500Y-83672224D01*
X72853656Y-83658049D01*
X72864149Y-83639364D01*
X72870185Y-83618809D01*
X72880914Y-83609511D01*
X72887869Y-83597129D01*
X72906797Y-83587083D01*
X72922989Y-83573054D01*
X72937043Y-83571033D01*
X72949586Y-83564377D01*
X72970937Y-83566159D01*
X72992147Y-83563110D01*
X73006420Y-83569121D01*
X73019213Y-83570190D01*
X73049979Y-83587467D01*
X73051489Y-83588626D01*
X73092689Y-83645052D01*
X73100000Y-83686999D01*
X73100000Y-83729510D01*
X73156631Y-83722055D01*
X73176887Y-83713665D01*
X73246356Y-83706193D01*
X73271798Y-83713663D01*
X73293238Y-83722544D01*
X73410639Y-83738000D01*
X73689360Y-83737999D01*
X73689361Y-83737999D01*
X73701594Y-83736388D01*
X73806762Y-83722544D01*
X73827545Y-83713934D01*
X73897014Y-83706465D01*
X73922453Y-83713934D01*
X73943238Y-83722544D01*
X74060639Y-83738000D01*
X74339360Y-83737999D01*
X74339361Y-83737999D01*
X74351594Y-83736388D01*
X74456762Y-83722544D01*
X74477545Y-83713934D01*
X74547014Y-83706465D01*
X74572453Y-83713934D01*
X74593238Y-83722544D01*
X74710639Y-83738000D01*
X74989360Y-83737999D01*
X74989361Y-83737999D01*
X75001594Y-83736388D01*
X75106762Y-83722544D01*
X75127545Y-83713934D01*
X75197014Y-83706465D01*
X75222453Y-83713934D01*
X75243238Y-83722544D01*
X75360639Y-83738000D01*
X75639360Y-83737999D01*
X75639361Y-83737999D01*
X75651594Y-83736388D01*
X75756762Y-83722544D01*
X75777545Y-83713934D01*
X75847014Y-83706465D01*
X75872453Y-83713934D01*
X75893238Y-83722544D01*
X76010639Y-83738000D01*
X76289360Y-83737999D01*
X76289361Y-83737999D01*
X76301594Y-83736388D01*
X76406762Y-83722544D01*
X76427545Y-83713934D01*
X76497014Y-83706465D01*
X76522453Y-83713934D01*
X76543238Y-83722544D01*
X76660639Y-83738000D01*
X76939360Y-83737999D01*
X76939361Y-83737999D01*
X76951594Y-83736388D01*
X77056762Y-83722544D01*
X77077545Y-83713934D01*
X77147014Y-83706465D01*
X77172453Y-83713934D01*
X77193238Y-83722544D01*
X77310639Y-83738000D01*
X77589360Y-83737999D01*
X77589361Y-83737999D01*
X77601594Y-83736388D01*
X77706762Y-83722544D01*
X77727545Y-83713934D01*
X77797014Y-83706465D01*
X77822453Y-83713934D01*
X77843238Y-83722544D01*
X77960639Y-83738000D01*
X78239360Y-83737999D01*
X78239363Y-83737999D01*
X78356753Y-83722546D01*
X78356757Y-83722544D01*
X78356762Y-83722544D01*
X78502841Y-83662036D01*
X78628282Y-83565782D01*
X78724536Y-83440341D01*
X78785044Y-83294262D01*
X78800500Y-83176861D01*
X78800499Y-82949095D01*
X78806737Y-82927850D01*
X78808317Y-82905762D01*
X78816388Y-82894979D01*
X78820183Y-82882057D01*
X78836919Y-82867555D01*
X78850189Y-82849829D01*
X78862807Y-82845122D01*
X78872987Y-82836302D01*
X78894905Y-82833150D01*
X78915653Y-82825412D01*
X78928813Y-82828274D01*
X78942146Y-82826358D01*
X78962288Y-82835557D01*
X78983926Y-82840264D01*
X79001652Y-82853534D01*
X79005701Y-82855383D01*
X79012180Y-82861415D01*
X79113181Y-82962416D01*
X79146666Y-83023739D01*
X79149500Y-83050097D01*
X79149500Y-87163330D01*
X79149499Y-87163348D01*
X79149499Y-87329054D01*
X79149498Y-87329054D01*
X79149721Y-87329886D01*
X79190423Y-87481785D01*
X79190424Y-87481787D01*
X79190423Y-87481787D01*
X79203986Y-87505277D01*
X79203987Y-87505279D01*
X79269475Y-87618709D01*
X79269481Y-87618717D01*
X79388349Y-87737585D01*
X79388354Y-87737589D01*
X80956282Y-89305518D01*
X80956284Y-89305519D01*
X80956288Y-89305522D01*
X81059567Y-89365149D01*
X81093214Y-89384575D01*
X81245941Y-89425499D01*
X81245943Y-89425499D01*
X81411652Y-89425499D01*
X81411668Y-89425498D01*
X82830235Y-89425498D01*
X82847982Y-89430709D01*
X82866478Y-89430913D01*
X82895420Y-89444638D01*
X82897274Y-89445183D01*
X82898419Y-89445927D01*
X82898821Y-89446191D01*
X82931350Y-89467927D01*
X82932662Y-89468470D01*
X82938672Y-89472427D01*
X82957738Y-89494926D01*
X82978781Y-89515594D01*
X82980072Y-89521282D01*
X82983843Y-89525732D01*
X82987718Y-89554966D01*
X82994247Y-89583730D01*
X82992257Y-89589214D01*
X82993024Y-89594996D01*
X82980477Y-89621686D01*
X82970420Y-89649412D01*
X82965782Y-89652949D01*
X82963301Y-89658228D01*
X82938316Y-89673898D01*
X82914866Y-89691785D01*
X82907677Y-89693115D01*
X82904110Y-89695353D01*
X82896065Y-89695264D01*
X82870488Y-89699998D01*
X82583466Y-89699998D01*
X82632514Y-89818412D01*
X82632519Y-89818421D01*
X82711857Y-89937158D01*
X82711860Y-89937162D01*
X82812838Y-90038140D01*
X82812846Y-90038146D01*
X82931584Y-90117484D01*
X82931587Y-90117486D01*
X83063523Y-90172135D01*
X83063535Y-90172138D01*
X83203591Y-90199997D01*
X83203595Y-90199998D01*
X83675003Y-90199998D01*
X83675003Y-89674497D01*
X83677553Y-89665811D01*
X83676265Y-89656850D01*
X83687243Y-89632809D01*
X83694688Y-89607458D01*
X83701528Y-89601530D01*
X83705290Y-89593294D01*
X83727524Y-89579004D01*
X83747492Y-89561703D01*
X83758006Y-89559415D01*
X83764068Y-89555520D01*
X83799003Y-89550497D01*
X84001001Y-89550497D01*
X84068040Y-89570182D01*
X84113795Y-89622986D01*
X84125001Y-89674497D01*
X84125001Y-90199998D01*
X84596409Y-90199998D01*
X84596412Y-90199997D01*
X84736468Y-90172138D01*
X84736480Y-90172135D01*
X84868416Y-90117486D01*
X84868419Y-90117484D01*
X84987157Y-90038146D01*
X84987165Y-90038140D01*
X85088143Y-89937162D01*
X85088146Y-89937158D01*
X85167484Y-89818421D01*
X85167489Y-89818412D01*
X85216538Y-89699998D01*
X84929516Y-89699998D01*
X84862477Y-89680313D01*
X84816722Y-89627509D01*
X84806778Y-89558351D01*
X84835803Y-89494795D01*
X84864154Y-89472157D01*
X84863589Y-89471312D01*
X84932153Y-89425498D01*
X84987480Y-89388530D01*
X85031050Y-89344960D01*
X85089692Y-89286319D01*
X85151015Y-89252834D01*
X85177373Y-89250000D01*
X85216538Y-89250000D01*
X85216537Y-89249999D01*
X85195041Y-89198103D01*
X85187572Y-89128634D01*
X85195036Y-89103210D01*
X85222620Y-89036618D01*
X85246728Y-88915422D01*
X85250501Y-88896455D01*
X85250501Y-88753540D01*
X85222621Y-88613384D01*
X85222620Y-88613379D01*
X85222620Y-88613378D01*
X85195311Y-88547449D01*
X85187843Y-88477981D01*
X85195312Y-88452546D01*
X85222620Y-88386619D01*
X85250501Y-88246454D01*
X85250501Y-88103544D01*
X85250501Y-88103541D01*
X85222621Y-87963384D01*
X85222620Y-87963383D01*
X85222620Y-87963379D01*
X85195310Y-87897448D01*
X85187842Y-87827982D01*
X85195307Y-87802554D01*
X85222620Y-87736618D01*
X85243470Y-87631799D01*
X85250501Y-87596455D01*
X85250501Y-87453540D01*
X85222621Y-87313383D01*
X85222620Y-87313382D01*
X85222620Y-87313378D01*
X85220098Y-87307289D01*
X85167934Y-87181352D01*
X85167927Y-87181339D01*
X85088534Y-87062520D01*
X85088531Y-87062516D01*
X84987482Y-86961467D01*
X84987479Y-86961465D01*
X84868660Y-86882072D01*
X84868647Y-86882065D01*
X84736626Y-86827381D01*
X84736616Y-86827378D01*
X84600310Y-86800264D01*
X84538399Y-86767878D01*
X84503825Y-86707162D01*
X84500502Y-86678647D01*
X84500502Y-85400095D01*
X84509146Y-85370654D01*
X84515670Y-85340668D01*
X84519424Y-85335652D01*
X84520187Y-85333056D01*
X84536821Y-85312414D01*
X84555158Y-85294077D01*
X84616481Y-85260592D01*
X84681157Y-85263827D01*
X84695466Y-85268477D01*
X84897648Y-85300500D01*
X84897649Y-85300500D01*
X85102351Y-85300500D01*
X85102352Y-85300500D01*
X85304534Y-85268477D01*
X85499219Y-85205220D01*
X85681610Y-85112287D01*
X85774590Y-85044732D01*
X85847213Y-84991971D01*
X85847215Y-84991968D01*
X85847219Y-84991966D01*
X85991966Y-84847219D01*
X85991968Y-84847215D01*
X85991971Y-84847213D01*
X86062599Y-84750000D01*
X86112287Y-84681610D01*
X86205220Y-84499219D01*
X86268477Y-84304534D01*
X86300500Y-84102352D01*
X86300500Y-83897648D01*
X86271402Y-83713935D01*
X86268477Y-83695465D01*
X86233108Y-83586611D01*
X86205220Y-83500781D01*
X86205218Y-83500778D01*
X86205218Y-83500776D01*
X86112287Y-83318390D01*
X86097026Y-83297385D01*
X86092794Y-83285524D01*
X86084551Y-83276011D01*
X86081277Y-83253245D01*
X86073547Y-83231578D01*
X86076398Y-83219314D01*
X86074607Y-83206853D01*
X86084162Y-83185928D01*
X86089373Y-83163524D01*
X86098401Y-83154749D01*
X86103632Y-83143297D01*
X86122983Y-83130860D01*
X86139479Y-83114830D01*
X86153224Y-83111426D01*
X86162410Y-83105523D01*
X86197345Y-83100500D01*
X86199903Y-83100500D01*
X86266942Y-83120185D01*
X86287584Y-83136819D01*
X86705922Y-83555157D01*
X86739407Y-83616480D01*
X86736173Y-83681155D01*
X86731522Y-83695468D01*
X86699500Y-83897648D01*
X86699500Y-84102351D01*
X86731522Y-84304534D01*
X86794781Y-84499223D01*
X86846292Y-84600317D01*
X86883320Y-84672989D01*
X86887715Y-84681613D01*
X87008028Y-84847213D01*
X87152786Y-84991971D01*
X87288036Y-85090234D01*
X87318390Y-85112287D01*
X87407051Y-85157462D01*
X87500776Y-85205218D01*
X87500778Y-85205218D01*
X87500781Y-85205220D01*
X87605137Y-85239127D01*
X87695465Y-85268477D01*
X87796557Y-85284488D01*
X87897648Y-85300500D01*
X87897649Y-85300500D01*
X88102351Y-85300500D01*
X88102352Y-85300500D01*
X88304534Y-85268477D01*
X88499219Y-85205220D01*
X88681610Y-85112287D01*
X88711964Y-85090234D01*
X88777770Y-85066753D01*
X88845824Y-85082578D01*
X88894519Y-85132683D01*
X88908395Y-85201161D01*
X88883047Y-85266270D01*
X88872531Y-85278232D01*
X87733758Y-86417005D01*
X87733749Y-86417014D01*
X87731287Y-86419477D01*
X87731285Y-86419479D01*
X87619481Y-86531283D01*
X87603613Y-86558768D01*
X87597221Y-86569837D01*
X87597219Y-86569841D01*
X87558550Y-86636819D01*
X87540424Y-86668214D01*
X87529871Y-86707594D01*
X87493508Y-86767253D01*
X87430661Y-86797782D01*
X87410098Y-86799499D01*
X87403544Y-86799499D01*
X87263386Y-86827378D01*
X87263376Y-86827381D01*
X87131355Y-86882065D01*
X87131342Y-86882072D01*
X87012523Y-86961465D01*
X87012521Y-86961467D01*
X86911471Y-87062516D01*
X86911468Y-87062520D01*
X86832075Y-87181339D01*
X86832068Y-87181352D01*
X86777384Y-87313373D01*
X86777381Y-87313383D01*
X86749502Y-87453540D01*
X86749502Y-87453543D01*
X86749502Y-87596453D01*
X86749502Y-87596455D01*
X86749501Y-87596455D01*
X86777381Y-87736611D01*
X86777383Y-87736619D01*
X86804691Y-87802546D01*
X86812160Y-87872015D01*
X86804694Y-87897442D01*
X86777383Y-87963379D01*
X86777381Y-87963385D01*
X86749502Y-88103541D01*
X86749502Y-88103544D01*
X86749502Y-88246454D01*
X86749502Y-88246456D01*
X86749501Y-88246456D01*
X86777381Y-88386612D01*
X86777382Y-88386616D01*
X86804690Y-88452546D01*
X86812157Y-88522016D01*
X86804690Y-88547447D01*
X86777384Y-88613372D01*
X86777382Y-88613379D01*
X86749502Y-88753540D01*
X86749502Y-88753543D01*
X86749502Y-88896453D01*
X86749502Y-88896455D01*
X86749501Y-88896455D01*
X86777381Y-89036611D01*
X86777383Y-89036619D01*
X86802363Y-89096926D01*
X86803843Y-89100500D01*
X86804691Y-89102546D01*
X86812160Y-89172015D01*
X86804694Y-89197442D01*
X86781751Y-89252834D01*
X86777381Y-89263385D01*
X86749502Y-89403541D01*
X86749502Y-89403544D01*
X86749502Y-89546454D01*
X86749502Y-89546456D01*
X86749501Y-89546456D01*
X86777381Y-89686613D01*
X86777384Y-89686623D01*
X86832068Y-89818644D01*
X86832075Y-89818657D01*
X86911468Y-89937476D01*
X86911471Y-89937480D01*
X87012519Y-90038528D01*
X87012523Y-90038531D01*
X87131342Y-90117924D01*
X87131355Y-90117931D01*
X87263376Y-90172615D01*
X87263381Y-90172617D01*
X87263385Y-90172617D01*
X87263386Y-90172618D01*
X87403543Y-90200498D01*
X87403546Y-90200498D01*
X88796458Y-90200498D01*
X88890752Y-90181740D01*
X88936621Y-90172617D01*
X89066751Y-90118716D01*
X89068646Y-90117931D01*
X89068646Y-90117930D01*
X89068653Y-90117928D01*
X89088047Y-90104969D01*
X89100877Y-90096397D01*
X89167554Y-90075519D01*
X89169768Y-90075499D01*
X93674902Y-90075499D01*
X93741941Y-90095184D01*
X93762583Y-90111818D01*
X95863181Y-92212416D01*
X95896666Y-92273739D01*
X95899500Y-92300097D01*
X95899500Y-92770397D01*
X95879815Y-92837436D01*
X95831800Y-92880879D01*
X95818389Y-92887712D01*
X95652786Y-93008028D01*
X95508028Y-93152786D01*
X95387715Y-93318386D01*
X95294781Y-93500776D01*
X95231522Y-93695465D01*
X95199500Y-93897648D01*
X95199500Y-94102351D01*
X95231522Y-94304534D01*
X95294781Y-94499223D01*
X95317767Y-94544334D01*
X95374207Y-94655104D01*
X95387715Y-94681613D01*
X95508028Y-94847213D01*
X95652786Y-94991971D01*
X95779676Y-95084160D01*
X95818390Y-95112287D01*
X95899499Y-95153614D01*
X96000776Y-95205218D01*
X96000778Y-95205218D01*
X96000781Y-95205220D01*
X96075815Y-95229600D01*
X96195465Y-95268477D01*
X96296557Y-95284488D01*
X96397648Y-95300500D01*
X96397649Y-95300500D01*
X96602351Y-95300500D01*
X96602352Y-95300500D01*
X96804534Y-95268477D01*
X96999219Y-95205220D01*
X97181610Y-95112287D01*
X97202614Y-95097026D01*
X97214474Y-95092794D01*
X97223989Y-95084550D01*
X97246753Y-95081276D01*
X97268419Y-95073546D01*
X97280684Y-95076397D01*
X97293147Y-95074606D01*
X97314068Y-95084160D01*
X97336473Y-95089370D01*
X97345249Y-95098400D01*
X97356703Y-95103631D01*
X97369137Y-95122979D01*
X97385169Y-95139475D01*
X97388573Y-95153223D01*
X97394477Y-95162409D01*
X97399500Y-95197344D01*
X97399500Y-95199902D01*
X97379815Y-95266941D01*
X97363181Y-95287583D01*
X96787584Y-95863181D01*
X96726261Y-95896666D01*
X96699903Y-95899500D01*
X85300097Y-95899500D01*
X85233058Y-95879815D01*
X85212416Y-95863181D01*
X84572637Y-95223402D01*
X84539152Y-95162079D01*
X84544136Y-95092387D01*
X84586008Y-95036454D01*
X84587434Y-95035402D01*
X84647215Y-94991969D01*
X84647215Y-94991968D01*
X84647219Y-94991966D01*
X84791966Y-94847219D01*
X84791968Y-94847215D01*
X84791971Y-94847213D01*
X84903534Y-94693657D01*
X84912287Y-94681610D01*
X85005220Y-94499219D01*
X85068477Y-94304534D01*
X85100500Y-94102352D01*
X85100500Y-93897648D01*
X85083712Y-93791657D01*
X85068477Y-93695465D01*
X85005218Y-93500776D01*
X84971503Y-93434607D01*
X84912287Y-93318390D01*
X84876195Y-93268713D01*
X84791971Y-93152786D01*
X84647213Y-93008028D01*
X84481613Y-92887715D01*
X84481612Y-92887714D01*
X84481610Y-92887713D01*
X84413680Y-92853101D01*
X84299223Y-92794781D01*
X84104534Y-92731522D01*
X83923717Y-92702884D01*
X83902352Y-92699500D01*
X83697648Y-92699500D01*
X83676283Y-92702884D01*
X83495465Y-92731522D01*
X83300776Y-92794781D01*
X83118386Y-92887715D01*
X82952786Y-93008028D01*
X82808028Y-93152786D01*
X82687715Y-93318386D01*
X82594781Y-93500776D01*
X82531522Y-93695465D01*
X82499500Y-93897648D01*
X82499500Y-94102351D01*
X82531522Y-94304534D01*
X82594781Y-94499223D01*
X82617767Y-94544334D01*
X82674207Y-94655104D01*
X82687715Y-94681613D01*
X82808028Y-94847213D01*
X82808034Y-94847219D01*
X82952781Y-94991966D01*
X83118390Y-95112287D01*
X83131791Y-95119115D01*
X83182587Y-95167085D01*
X83199499Y-95229600D01*
X83199499Y-95379054D01*
X83199498Y-95379054D01*
X83199499Y-95379057D01*
X83240423Y-95531785D01*
X83260115Y-95565892D01*
X83283437Y-95606287D01*
X83319479Y-95668714D01*
X83319481Y-95668717D01*
X83438349Y-95787585D01*
X83438355Y-95787590D01*
X84515139Y-96864374D01*
X84515149Y-96864385D01*
X84519479Y-96868715D01*
X84519480Y-96868716D01*
X84631284Y-96980520D01*
X84718095Y-97030639D01*
X84718097Y-97030641D01*
X84768213Y-97059576D01*
X84768215Y-97059577D01*
X84920942Y-97100500D01*
X84920943Y-97100500D01*
X96913331Y-97100500D01*
X96913347Y-97100501D01*
X96920943Y-97100501D01*
X97079054Y-97100501D01*
X97079057Y-97100501D01*
X97231785Y-97059577D01*
X97281904Y-97030639D01*
X97368716Y-96980520D01*
X97480520Y-96868716D01*
X97480520Y-96868714D01*
X97490728Y-96858507D01*
X97490729Y-96858504D01*
X98480520Y-95868716D01*
X98559577Y-95731784D01*
X98600501Y-95579057D01*
X98600501Y-95420942D01*
X98600501Y-95413347D01*
X98600500Y-95413329D01*
X98600500Y-95393713D01*
X101149500Y-95393713D01*
X101149500Y-95606286D01*
X101178215Y-95787590D01*
X101182754Y-95816243D01*
X101232721Y-95970026D01*
X101248444Y-96018414D01*
X101344951Y-96207820D01*
X101469890Y-96379786D01*
X101620213Y-96530109D01*
X101792179Y-96655048D01*
X101792181Y-96655049D01*
X101792184Y-96655051D01*
X101981588Y-96751557D01*
X102183757Y-96817246D01*
X102393713Y-96850500D01*
X102393714Y-96850500D01*
X102606286Y-96850500D01*
X102606287Y-96850500D01*
X102816243Y-96817246D01*
X103018412Y-96751557D01*
X103207816Y-96655051D01*
X103229789Y-96639086D01*
X103379786Y-96530109D01*
X103379788Y-96530106D01*
X103379792Y-96530104D01*
X103530104Y-96379792D01*
X103530106Y-96379788D01*
X103530109Y-96379786D01*
X103655048Y-96207820D01*
X103655047Y-96207820D01*
X103655051Y-96207816D01*
X103751557Y-96018412D01*
X103817246Y-95816243D01*
X103850500Y-95606287D01*
X103850500Y-95393713D01*
X103817246Y-95183757D01*
X103751557Y-94981588D01*
X103655051Y-94792184D01*
X103655049Y-94792181D01*
X103655048Y-94792179D01*
X103530109Y-94620213D01*
X103379786Y-94469890D01*
X103207820Y-94344951D01*
X103018414Y-94248444D01*
X103018413Y-94248443D01*
X103018412Y-94248443D01*
X102816243Y-94182754D01*
X102816241Y-94182753D01*
X102816240Y-94182753D01*
X102654957Y-94157208D01*
X102606287Y-94149500D01*
X102393713Y-94149500D01*
X102345042Y-94157208D01*
X102183760Y-94182753D01*
X101981585Y-94248444D01*
X101792179Y-94344951D01*
X101620213Y-94469890D01*
X101469890Y-94620213D01*
X101344951Y-94792179D01*
X101248444Y-94981585D01*
X101182753Y-95183760D01*
X101149500Y-95393713D01*
X98600500Y-95393713D01*
X98600500Y-90800096D01*
X98620185Y-90733057D01*
X98636815Y-90712419D01*
X99462416Y-89886817D01*
X99523739Y-89853333D01*
X99550097Y-89850499D01*
X100775002Y-89850499D01*
X100775008Y-89850499D01*
X100877797Y-89839999D01*
X101044334Y-89784814D01*
X101193656Y-89692712D01*
X101317712Y-89568656D01*
X101409814Y-89419334D01*
X101464999Y-89252797D01*
X101475500Y-89150009D01*
X101475499Y-87849992D01*
X101464999Y-87747203D01*
X101409814Y-87580666D01*
X101317712Y-87431344D01*
X101193656Y-87307288D01*
X101044334Y-87215186D01*
X101044333Y-87215185D01*
X101038878Y-87211821D01*
X100992154Y-87159873D01*
X100980931Y-87090910D01*
X101008775Y-87026828D01*
X101016272Y-87018623D01*
X101155104Y-86879792D01*
X101280051Y-86707816D01*
X101376557Y-86518412D01*
X101442246Y-86316243D01*
X101475500Y-86106287D01*
X101475500Y-85893713D01*
X101442246Y-85683757D01*
X101376557Y-85481588D01*
X101280051Y-85292184D01*
X101280049Y-85292181D01*
X101280048Y-85292179D01*
X101155109Y-85120213D01*
X101004792Y-84969896D01*
X101004784Y-84969890D01*
X100840204Y-84850316D01*
X100797540Y-84794989D01*
X100791561Y-84725376D01*
X100824166Y-84663580D01*
X100840199Y-84649686D01*
X101004792Y-84530104D01*
X101155104Y-84379792D01*
X101155106Y-84379788D01*
X101155109Y-84379786D01*
X101280048Y-84207820D01*
X101280047Y-84207820D01*
X101280051Y-84207816D01*
X101376557Y-84018412D01*
X101442246Y-83816243D01*
X101475500Y-83606287D01*
X101475500Y-83393713D01*
X101442246Y-83183757D01*
X101376557Y-82981588D01*
X101280051Y-82792184D01*
X101280049Y-82792181D01*
X101280048Y-82792179D01*
X101155109Y-82620213D01*
X101004790Y-82469894D01*
X101004785Y-82469890D01*
X100839781Y-82350008D01*
X100797115Y-82294678D01*
X100791136Y-82225065D01*
X100823741Y-82163270D01*
X100839781Y-82149371D01*
X101004466Y-82029721D01*
X101154723Y-81879464D01*
X101154727Y-81879459D01*
X101279620Y-81707557D01*
X101376095Y-81518217D01*
X101441757Y-81316129D01*
X101441757Y-81316126D01*
X101452231Y-81250000D01*
X100404146Y-81250000D01*
X100442630Y-81183343D01*
X100475000Y-81062535D01*
X100475000Y-80937465D01*
X100442630Y-80816657D01*
X100404146Y-80750000D01*
X101452231Y-80750000D01*
X101441757Y-80683873D01*
X101441757Y-80683870D01*
X101376095Y-80481782D01*
X101279620Y-80292442D01*
X101154727Y-80120540D01*
X101154723Y-80120535D01*
X101004464Y-79970276D01*
X101004459Y-79970272D01*
X100832557Y-79845379D01*
X100643217Y-79748904D01*
X100441128Y-79683242D01*
X100250000Y-79652969D01*
X100250000Y-80595854D01*
X100183343Y-80557370D01*
X100062535Y-80525000D01*
X99937465Y-80525000D01*
X99816657Y-80557370D01*
X99750000Y-80595854D01*
X99750000Y-79652969D01*
X99558872Y-79683242D01*
X99558869Y-79683242D01*
X99356782Y-79748904D01*
X99167442Y-79845379D01*
X98995540Y-79970272D01*
X98995535Y-79970276D01*
X98845276Y-80120535D01*
X98845272Y-80120540D01*
X98720379Y-80292442D01*
X98623904Y-80481782D01*
X98558242Y-80683870D01*
X98558242Y-80683873D01*
X98547769Y-80750000D01*
X99595854Y-80750000D01*
X99557370Y-80816657D01*
X99525000Y-80937465D01*
X99525000Y-81062535D01*
X99557370Y-81183343D01*
X99595854Y-81250000D01*
X98547769Y-81250000D01*
X98558242Y-81316126D01*
X98558242Y-81316129D01*
X98623904Y-81518217D01*
X98720379Y-81707557D01*
X98845272Y-81879459D01*
X98845276Y-81879464D01*
X98995535Y-82029723D01*
X98995540Y-82029727D01*
X99160218Y-82149372D01*
X99202884Y-82204701D01*
X99208863Y-82274315D01*
X99176258Y-82336110D01*
X99160218Y-82350008D01*
X98995214Y-82469890D01*
X98995209Y-82469894D01*
X98844890Y-82620213D01*
X98719948Y-82792184D01*
X98719947Y-82792185D01*
X98699765Y-82831795D01*
X98651791Y-82882591D01*
X98589281Y-82899500D01*
X97586669Y-82899500D01*
X97586653Y-82899499D01*
X97579057Y-82899499D01*
X97420943Y-82899499D01*
X97315137Y-82927850D01*
X97268210Y-82940424D01*
X97268209Y-82940425D01*
X97218096Y-82969359D01*
X97218095Y-82969360D01*
X97174689Y-82994420D01*
X97131285Y-83019479D01*
X97131284Y-83019480D01*
X97019480Y-83131284D01*
X97019478Y-83131286D01*
X94802032Y-85348733D01*
X92612585Y-87538180D01*
X92551262Y-87571665D01*
X92524904Y-87574499D01*
X89574500Y-87574499D01*
X89507461Y-87554814D01*
X89461706Y-87502010D01*
X89452451Y-87459469D01*
X89451097Y-87459603D01*
X89450500Y-87453540D01*
X89422620Y-87313383D01*
X89422619Y-87313382D01*
X89422619Y-87313378D01*
X89420097Y-87307289D01*
X89367933Y-87181352D01*
X89367926Y-87181339D01*
X89288533Y-87062520D01*
X89288530Y-87062516D01*
X89187481Y-86961467D01*
X89187478Y-86961465D01*
X89133445Y-86925361D01*
X89088640Y-86871749D01*
X89079933Y-86802424D01*
X89110088Y-86739396D01*
X89114635Y-86734598D01*
X90512416Y-85336819D01*
X90573739Y-85303334D01*
X90600097Y-85300500D01*
X90602351Y-85300500D01*
X90602352Y-85300500D01*
X90804534Y-85268477D01*
X90999219Y-85205220D01*
X91181610Y-85112287D01*
X91274590Y-85044732D01*
X91347213Y-84991971D01*
X91347215Y-84991968D01*
X91347219Y-84991966D01*
X91491966Y-84847219D01*
X91491968Y-84847215D01*
X91491971Y-84847213D01*
X91562599Y-84750000D01*
X91612287Y-84681610D01*
X91705220Y-84499219D01*
X91768477Y-84304534D01*
X91800500Y-84102352D01*
X91800500Y-83897648D01*
X91771402Y-83713935D01*
X91768477Y-83695465D01*
X91733108Y-83586611D01*
X91705220Y-83500781D01*
X91705218Y-83500778D01*
X91705218Y-83500776D01*
X91612287Y-83318390D01*
X91597026Y-83297385D01*
X91573547Y-83231578D01*
X91589373Y-83163524D01*
X91639479Y-83114830D01*
X91697345Y-83100500D01*
X93413331Y-83100500D01*
X93413347Y-83100501D01*
X93420943Y-83100501D01*
X93579054Y-83100501D01*
X93579057Y-83100501D01*
X93731785Y-83059577D01*
X93801233Y-83019481D01*
X93868716Y-82980520D01*
X93980520Y-82868716D01*
X93980520Y-82868714D01*
X93990724Y-82858511D01*
X93990728Y-82858506D01*
X95208506Y-81640728D01*
X95208511Y-81640724D01*
X95218714Y-81630520D01*
X95218716Y-81630520D01*
X95330520Y-81518716D01*
X95343308Y-81496566D01*
X95386969Y-81420944D01*
X95386970Y-81420942D01*
X95409574Y-81381790D01*
X95409573Y-81381790D01*
X95409577Y-81381785D01*
X95450500Y-81229058D01*
X95450500Y-81070943D01*
X95450500Y-80729601D01*
X95470185Y-80662562D01*
X95518206Y-80619116D01*
X95531610Y-80612287D01*
X95697219Y-80491966D01*
X95841966Y-80347219D01*
X95841968Y-80347215D01*
X95841971Y-80347213D01*
X95900613Y-80266498D01*
X95962287Y-80181610D01*
X96055220Y-79999219D01*
X96118477Y-79804534D01*
X96150500Y-79602352D01*
X96150500Y-79397648D01*
X96142830Y-79349223D01*
X96118477Y-79195465D01*
X96055218Y-79000776D01*
X96002671Y-78897648D01*
X95962287Y-78818390D01*
X95954556Y-78807749D01*
X95841971Y-78652786D01*
X95697213Y-78508028D01*
X95531610Y-78387712D01*
X95518200Y-78380879D01*
X95467406Y-78332903D01*
X95450500Y-78270397D01*
X95450500Y-75729601D01*
X95470185Y-75662562D01*
X95518206Y-75619116D01*
X95531610Y-75612287D01*
X95697219Y-75491966D01*
X95841966Y-75347219D01*
X95841968Y-75347215D01*
X95841971Y-75347213D01*
X95916307Y-75244896D01*
X95962287Y-75181610D01*
X96055220Y-74999219D01*
X96118477Y-74804534D01*
X96150500Y-74602352D01*
X96150500Y-74397648D01*
X96149877Y-74393713D01*
X101149500Y-74393713D01*
X101149500Y-74606286D01*
X101182753Y-74816239D01*
X101248444Y-75018414D01*
X101344951Y-75207820D01*
X101469890Y-75379786D01*
X101620213Y-75530109D01*
X101792179Y-75655048D01*
X101792181Y-75655049D01*
X101792184Y-75655051D01*
X101981588Y-75751557D01*
X102183757Y-75817246D01*
X102393713Y-75850500D01*
X102393714Y-75850500D01*
X102606286Y-75850500D01*
X102606287Y-75850500D01*
X102816243Y-75817246D01*
X103018412Y-75751557D01*
X103207816Y-75655051D01*
X103319268Y-75574077D01*
X103379786Y-75530109D01*
X103379788Y-75530106D01*
X103379792Y-75530104D01*
X103530104Y-75379792D01*
X103530106Y-75379788D01*
X103530109Y-75379786D01*
X103655048Y-75207820D01*
X103655049Y-75207819D01*
X103655051Y-75207816D01*
X103751557Y-75018412D01*
X103817246Y-74816243D01*
X103850500Y-74606287D01*
X103850500Y-74393713D01*
X103817246Y-74183757D01*
X103751557Y-73981588D01*
X103655051Y-73792184D01*
X103655049Y-73792181D01*
X103655048Y-73792179D01*
X103530109Y-73620213D01*
X103379786Y-73469890D01*
X103207820Y-73344951D01*
X103018414Y-73248444D01*
X103018413Y-73248443D01*
X103018412Y-73248443D01*
X102816243Y-73182754D01*
X102816241Y-73182753D01*
X102816240Y-73182753D01*
X102654957Y-73157208D01*
X102606287Y-73149500D01*
X102393713Y-73149500D01*
X102345042Y-73157208D01*
X102183760Y-73182753D01*
X101981585Y-73248444D01*
X101792179Y-73344951D01*
X101620213Y-73469890D01*
X101469890Y-73620213D01*
X101344951Y-73792179D01*
X101248444Y-73981585D01*
X101182753Y-74183760D01*
X101149500Y-74393713D01*
X96149877Y-74393713D01*
X96118477Y-74195466D01*
X96114673Y-74183760D01*
X96055218Y-74000776D01*
X96021503Y-73934607D01*
X95962287Y-73818390D01*
X95954556Y-73807749D01*
X95841971Y-73652786D01*
X95697213Y-73508028D01*
X95531613Y-73387715D01*
X95531612Y-73387714D01*
X95531610Y-73387713D01*
X95447681Y-73344949D01*
X95349223Y-73294781D01*
X95154534Y-73231522D01*
X94979995Y-73203878D01*
X94952352Y-73199500D01*
X94747648Y-73199500D01*
X94723329Y-73203351D01*
X94545465Y-73231522D01*
X94350776Y-73294781D01*
X94168386Y-73387715D01*
X94002786Y-73508028D01*
X93858028Y-73652786D01*
X93737715Y-73818386D01*
X93644781Y-74000776D01*
X93581522Y-74195465D01*
X93549500Y-74397648D01*
X93549500Y-74602351D01*
X93581522Y-74804534D01*
X93644781Y-74999223D01*
X93737715Y-75181613D01*
X93858028Y-75347213D01*
X93858034Y-75347219D01*
X94002781Y-75491966D01*
X94168390Y-75612287D01*
X94181793Y-75619116D01*
X94232589Y-75667088D01*
X94249500Y-75729601D01*
X94249500Y-78270397D01*
X94229815Y-78337436D01*
X94181800Y-78380879D01*
X94168389Y-78387712D01*
X94002786Y-78508028D01*
X93858028Y-78652786D01*
X93737715Y-78818386D01*
X93644781Y-79000776D01*
X93581522Y-79195465D01*
X93549500Y-79397648D01*
X93549500Y-79602351D01*
X93581522Y-79804534D01*
X93644781Y-79999223D01*
X93702391Y-80112287D01*
X93723448Y-80153614D01*
X93737715Y-80181613D01*
X93858028Y-80347213D01*
X93858034Y-80347219D01*
X94002781Y-80491966D01*
X94168390Y-80612287D01*
X94181793Y-80619116D01*
X94192856Y-80629564D01*
X94206703Y-80635888D01*
X94217744Y-80653068D01*
X94232589Y-80667088D01*
X94236830Y-80682768D01*
X94244477Y-80694666D01*
X94249500Y-80729601D01*
X94249500Y-80849903D01*
X94229815Y-80916942D01*
X94213181Y-80937584D01*
X93287584Y-81863181D01*
X93226261Y-81896666D01*
X93199903Y-81899500D01*
X89420940Y-81899500D01*
X89380019Y-81910464D01*
X89380019Y-81910465D01*
X89342751Y-81920451D01*
X89268214Y-81940423D01*
X89268209Y-81940426D01*
X89131290Y-82019475D01*
X89131282Y-82019481D01*
X89019478Y-82131286D01*
X88444842Y-82705921D01*
X88383519Y-82739406D01*
X88318848Y-82736173D01*
X88304534Y-82731522D01*
X88129995Y-82703878D01*
X88102352Y-82699500D01*
X87897648Y-82699500D01*
X87859599Y-82705526D01*
X87695468Y-82731522D01*
X87686717Y-82734365D01*
X87681154Y-82736173D01*
X87611313Y-82738167D01*
X87555157Y-82705922D01*
X86987590Y-82138355D01*
X86987588Y-82138352D01*
X86868717Y-82019481D01*
X86868709Y-82019475D01*
X86780789Y-81968715D01*
X86780788Y-81968715D01*
X86760077Y-81956757D01*
X86731785Y-81940423D01*
X86579057Y-81899499D01*
X86420943Y-81899499D01*
X86413347Y-81899499D01*
X86413331Y-81899500D01*
X83086670Y-81899500D01*
X83086654Y-81899499D01*
X83079058Y-81899499D01*
X82920943Y-81899499D01*
X82844579Y-81919961D01*
X82768214Y-81940423D01*
X82768209Y-81940426D01*
X82631290Y-82019475D01*
X82631282Y-82019481D01*
X82124217Y-82526546D01*
X82124214Y-82526548D01*
X82124215Y-82526549D01*
X82019478Y-82631286D01*
X81991967Y-82678937D01*
X81991961Y-82678947D01*
X81990324Y-82681784D01*
X81940423Y-82768215D01*
X81933566Y-82793801D01*
X81927683Y-82805374D01*
X81912261Y-82821731D01*
X81900558Y-82840931D01*
X81882210Y-82853605D01*
X81879753Y-82856212D01*
X81877697Y-82856722D01*
X81873447Y-82859659D01*
X81818386Y-82887714D01*
X81652786Y-83008028D01*
X81508028Y-83152786D01*
X81387715Y-83318386D01*
X81294781Y-83500776D01*
X81231522Y-83695465D01*
X81199500Y-83897648D01*
X81199500Y-84102351D01*
X81231522Y-84304534D01*
X81294781Y-84499223D01*
X81346292Y-84600317D01*
X81383320Y-84672989D01*
X81387715Y-84681613D01*
X81508028Y-84847213D01*
X81652786Y-84991971D01*
X81788036Y-85090234D01*
X81818390Y-85112287D01*
X81907051Y-85157462D01*
X82000776Y-85205218D01*
X82000778Y-85205218D01*
X82000781Y-85205220D01*
X82105137Y-85239127D01*
X82195465Y-85268477D01*
X82296557Y-85284488D01*
X82397648Y-85300500D01*
X82397649Y-85300500D01*
X82602351Y-85300500D01*
X82602352Y-85300500D01*
X82804534Y-85268477D01*
X82999219Y-85205220D01*
X83119207Y-85144082D01*
X83187875Y-85131186D01*
X83252616Y-85157462D01*
X83292874Y-85214568D01*
X83299502Y-85254567D01*
X83299502Y-86678647D01*
X83279817Y-86745686D01*
X83227013Y-86791441D01*
X83199694Y-86800264D01*
X83063387Y-86827378D01*
X83063377Y-86827381D01*
X82931356Y-86882065D01*
X82931343Y-86882072D01*
X82812524Y-86961465D01*
X82812522Y-86961467D01*
X82711472Y-87062516D01*
X82711469Y-87062520D01*
X82632076Y-87181339D01*
X82632069Y-87181352D01*
X82577385Y-87313373D01*
X82577382Y-87313383D01*
X82549502Y-87453540D01*
X82548906Y-87459603D01*
X82546888Y-87459404D01*
X82529818Y-87517538D01*
X82477014Y-87563293D01*
X82425503Y-87574499D01*
X81975097Y-87574499D01*
X81908058Y-87554814D01*
X81887416Y-87538180D01*
X81334573Y-86985337D01*
X81301088Y-86924014D01*
X81300637Y-86921847D01*
X81292272Y-86879792D01*
X81269737Y-86766503D01*
X81269735Y-86766498D01*
X81209397Y-86620827D01*
X81209390Y-86620814D01*
X81121789Y-86489711D01*
X81121786Y-86489707D01*
X81010292Y-86378213D01*
X81010288Y-86378210D01*
X80879185Y-86290609D01*
X80879172Y-86290602D01*
X80733501Y-86230264D01*
X80733489Y-86230261D01*
X80578845Y-86199500D01*
X80578842Y-86199500D01*
X80474500Y-86199500D01*
X80407461Y-86179815D01*
X80361706Y-86127011D01*
X80350500Y-86075500D01*
X80350500Y-82839059D01*
X80350501Y-82839046D01*
X80350501Y-82670945D01*
X80350501Y-82670943D01*
X80309577Y-82518215D01*
X80280639Y-82468095D01*
X80230520Y-82381284D01*
X80118716Y-82269480D01*
X80118715Y-82269479D01*
X80114385Y-82265149D01*
X80114374Y-82265139D01*
X79736916Y-81887681D01*
X79703431Y-81826358D01*
X79708415Y-81756666D01*
X79736916Y-81712319D01*
X80812416Y-80636819D01*
X80873739Y-80603334D01*
X80900097Y-80600500D01*
X81415488Y-80600500D01*
X81471779Y-80614014D01*
X81549499Y-80653614D01*
X81650776Y-80705218D01*
X81650778Y-80705218D01*
X81650781Y-80705220D01*
X81725818Y-80729601D01*
X81845465Y-80768477D01*
X81937595Y-80783069D01*
X82047648Y-80800500D01*
X82047649Y-80800500D01*
X82252351Y-80800500D01*
X82252352Y-80800500D01*
X82454534Y-80768477D01*
X82649219Y-80705220D01*
X82831610Y-80612287D01*
X82924590Y-80544732D01*
X82997213Y-80491971D01*
X82997215Y-80491968D01*
X82997219Y-80491966D01*
X83141966Y-80347219D01*
X83141968Y-80347215D01*
X83141971Y-80347213D01*
X83200613Y-80266498D01*
X83262287Y-80181610D01*
X83355220Y-79999219D01*
X83418477Y-79804534D01*
X83450500Y-79602352D01*
X83450500Y-79397648D01*
X83442830Y-79349223D01*
X83418477Y-79195465D01*
X83355218Y-79000776D01*
X83302671Y-78897648D01*
X83262287Y-78818390D01*
X83254556Y-78807749D01*
X83141971Y-78652786D01*
X82997213Y-78508028D01*
X82831613Y-78387715D01*
X82831612Y-78387714D01*
X82831610Y-78387713D01*
X82759117Y-78350776D01*
X82649223Y-78294781D01*
X82454534Y-78231522D01*
X82279995Y-78203878D01*
X82252352Y-78199500D01*
X82047648Y-78199500D01*
X81951783Y-78214683D01*
X81882490Y-78205728D01*
X81829038Y-78160732D01*
X81808399Y-78093980D01*
X81827124Y-78026666D01*
X81844699Y-78004535D01*
X82630520Y-77218716D01*
X82709577Y-77081784D01*
X82750501Y-76929057D01*
X82750501Y-76770942D01*
X82750501Y-76763347D01*
X82750500Y-76763329D01*
X82750500Y-75729601D01*
X82770185Y-75662562D01*
X82818206Y-75619116D01*
X82831610Y-75612287D01*
X82997219Y-75491966D01*
X83141966Y-75347219D01*
X83141968Y-75347215D01*
X83141971Y-75347213D01*
X83216307Y-75244896D01*
X83262287Y-75181610D01*
X83355220Y-74999219D01*
X83418477Y-74804534D01*
X83450500Y-74602352D01*
X83450500Y-74397648D01*
X83418477Y-74195466D01*
X83414673Y-74183760D01*
X83355218Y-74000776D01*
X83321503Y-73934607D01*
X83262287Y-73818390D01*
X83254556Y-73807749D01*
X83141971Y-73652786D01*
X82997213Y-73508028D01*
X82831613Y-73387715D01*
X82831612Y-73387714D01*
X82831610Y-73387713D01*
X82747681Y-73344949D01*
X82649223Y-73294781D01*
X82454534Y-73231522D01*
X82279995Y-73203878D01*
X82252352Y-73199500D01*
X82047648Y-73199500D01*
X82023329Y-73203351D01*
X81845465Y-73231522D01*
X81650776Y-73294781D01*
X81468386Y-73387715D01*
X81302786Y-73508028D01*
X81158028Y-73652786D01*
X81037715Y-73818386D01*
X80944781Y-74000776D01*
X80881522Y-74195465D01*
X80849500Y-74397648D01*
X80849500Y-74602351D01*
X80881522Y-74804534D01*
X80944781Y-74999223D01*
X81037715Y-75181613D01*
X81158028Y-75347213D01*
X81158034Y-75347219D01*
X81302781Y-75491966D01*
X81468390Y-75612287D01*
X81481793Y-75619116D01*
X81532589Y-75667088D01*
X81549500Y-75729601D01*
X81549500Y-76549902D01*
X81529815Y-76616941D01*
X81513181Y-76637583D01*
X78485339Y-79665425D01*
X78424016Y-79698910D01*
X78421850Y-79699361D01*
X78266508Y-79730261D01*
X78266498Y-79730264D01*
X78120827Y-79790602D01*
X78120814Y-79790609D01*
X77989711Y-79878210D01*
X77989707Y-79878213D01*
X77878213Y-79989707D01*
X77878210Y-79989711D01*
X77790609Y-80120814D01*
X77790602Y-80120827D01*
X77730264Y-80266498D01*
X77730261Y-80266508D01*
X77699361Y-80421850D01*
X77666976Y-80483761D01*
X77665425Y-80485339D01*
X76969482Y-81181281D01*
X76969477Y-81181287D01*
X76958671Y-81200004D01*
X76908102Y-81248218D01*
X76851287Y-81262000D01*
X76660636Y-81262000D01*
X76543246Y-81277453D01*
X76543234Y-81277457D01*
X76522450Y-81286066D01*
X76452981Y-81293533D01*
X76427550Y-81286066D01*
X76406765Y-81277457D01*
X76406760Y-81277455D01*
X76289361Y-81262000D01*
X76010636Y-81262000D01*
X75893246Y-81277453D01*
X75893234Y-81277457D01*
X75872450Y-81286066D01*
X75802981Y-81293533D01*
X75777550Y-81286066D01*
X75756765Y-81277457D01*
X75756760Y-81277455D01*
X75639361Y-81262000D01*
X75360636Y-81262000D01*
X75243246Y-81277453D01*
X75243234Y-81277457D01*
X75222450Y-81286066D01*
X75152981Y-81293533D01*
X75127550Y-81286066D01*
X75106765Y-81277457D01*
X75106760Y-81277455D01*
X74989361Y-81262000D01*
X74710636Y-81262000D01*
X74593246Y-81277453D01*
X74593234Y-81277457D01*
X74572450Y-81286066D01*
X74502981Y-81293533D01*
X74477550Y-81286066D01*
X74456765Y-81277457D01*
X74456760Y-81277455D01*
X74339361Y-81262000D01*
X74060636Y-81262000D01*
X73943246Y-81277453D01*
X73943234Y-81277457D01*
X73922450Y-81286066D01*
X73852981Y-81293533D01*
X73827550Y-81286066D01*
X73806765Y-81277457D01*
X73806760Y-81277455D01*
X73689361Y-81262000D01*
X73410636Y-81262000D01*
X73293241Y-81277454D01*
X73293239Y-81277455D01*
X73271796Y-81286337D01*
X73202327Y-81293804D01*
X73176895Y-81286337D01*
X73156631Y-81277944D01*
X73100000Y-81270487D01*
X73100000Y-81312999D01*
X73091372Y-81342380D01*
X73084892Y-81372316D01*
X73081374Y-81376428D01*
X73080315Y-81380038D01*
X73063769Y-81400592D01*
X73057977Y-81406395D01*
X73021718Y-81434218D01*
X72993466Y-81471035D01*
X72987769Y-81476745D01*
X72963913Y-81489802D01*
X72941948Y-81505841D01*
X72933715Y-81506331D01*
X72926480Y-81510292D01*
X72899349Y-81508378D01*
X72872202Y-81509996D01*
X72865010Y-81505957D01*
X72856783Y-81505377D01*
X72834994Y-81489100D01*
X72811281Y-81475783D01*
X72801630Y-81464646D01*
X72778282Y-81434218D01*
X72778280Y-81434217D01*
X72778280Y-81434216D01*
X72748511Y-81411373D01*
X72707310Y-81354944D01*
X72700000Y-81312999D01*
X72700000Y-81270487D01*
X72643370Y-81277943D01*
X72623103Y-81286338D01*
X72553633Y-81293804D01*
X72528203Y-81286337D01*
X72506762Y-81277456D01*
X72506760Y-81277455D01*
X72389361Y-81262000D01*
X72110636Y-81262000D01*
X71993246Y-81277453D01*
X71993234Y-81277457D01*
X71972450Y-81286066D01*
X71904563Y-81293808D01*
X71890610Y-81291476D01*
X71856762Y-81277456D01*
X71739361Y-81262000D01*
X71714212Y-81262000D01*
X71704063Y-81260304D01*
X71681506Y-81249375D01*
X71657461Y-81242315D01*
X71650607Y-81234405D01*
X71641184Y-81229840D01*
X71628114Y-81208447D01*
X71611706Y-81189511D01*
X71609029Y-81177209D01*
X71604758Y-81170217D01*
X71605018Y-81158771D01*
X71600500Y-81138000D01*
X71600500Y-80079601D01*
X71620185Y-80012562D01*
X71668206Y-79969116D01*
X71681610Y-79962287D01*
X71847219Y-79841966D01*
X71991966Y-79697219D01*
X71991968Y-79697215D01*
X71991971Y-79697213D01*
X72112286Y-79531611D01*
X72144593Y-79468206D01*
X72192567Y-79417409D01*
X72255078Y-79400500D01*
X75570398Y-79400500D01*
X75637437Y-79420185D01*
X75680882Y-79468204D01*
X75686821Y-79479859D01*
X75687715Y-79481614D01*
X75808028Y-79647213D01*
X75952786Y-79791971D01*
X76107749Y-79904556D01*
X76118390Y-79912287D01*
X76229921Y-79969115D01*
X76300776Y-80005218D01*
X76300778Y-80005218D01*
X76300781Y-80005220D01*
X76405137Y-80039127D01*
X76495465Y-80068477D01*
X76565699Y-80079601D01*
X76697648Y-80100500D01*
X76697649Y-80100500D01*
X76902351Y-80100500D01*
X76902352Y-80100500D01*
X77104534Y-80068477D01*
X77299219Y-80005220D01*
X77481610Y-79912287D01*
X77578401Y-79841965D01*
X77647213Y-79791971D01*
X77647215Y-79791968D01*
X77647219Y-79791966D01*
X77791966Y-79647219D01*
X77791968Y-79647215D01*
X77791971Y-79647213D01*
X77875960Y-79531610D01*
X77912287Y-79481610D01*
X78005220Y-79299219D01*
X78068477Y-79104534D01*
X78100500Y-78902352D01*
X78100500Y-78697648D01*
X78068477Y-78495466D01*
X78059994Y-78469359D01*
X78021464Y-78350776D01*
X78005220Y-78300781D01*
X78005218Y-78300778D01*
X78005218Y-78300776D01*
X77956788Y-78205728D01*
X77912287Y-78118390D01*
X77894552Y-78093980D01*
X77791971Y-77952786D01*
X77647213Y-77808028D01*
X77481611Y-77687713D01*
X77427621Y-77660203D01*
X77376825Y-77612228D01*
X77360031Y-77544407D01*
X77382569Y-77478272D01*
X77427624Y-77439233D01*
X77481349Y-77411859D01*
X77525921Y-77379474D01*
X76846447Y-76700000D01*
X76852661Y-76700000D01*
X76954394Y-76672741D01*
X77045606Y-76620080D01*
X77120080Y-76545606D01*
X77172741Y-76454394D01*
X77200000Y-76352661D01*
X77200000Y-76346447D01*
X77879474Y-77025921D01*
X77911859Y-76981349D01*
X78004755Y-76799031D01*
X78067990Y-76604417D01*
X78100000Y-76402317D01*
X78100000Y-76197682D01*
X78067990Y-75995582D01*
X78004755Y-75800968D01*
X77911859Y-75618650D01*
X77879474Y-75574077D01*
X77879474Y-75574076D01*
X77200000Y-76253551D01*
X77200000Y-76247339D01*
X77172741Y-76145606D01*
X77120080Y-76054394D01*
X77045606Y-75979920D01*
X76954394Y-75927259D01*
X76852661Y-75900000D01*
X76846446Y-75900000D01*
X77525922Y-75220524D01*
X77525921Y-75220523D01*
X77481359Y-75188147D01*
X77481350Y-75188141D01*
X77299031Y-75095244D01*
X77104417Y-75032009D01*
X76902317Y-75000000D01*
X76697683Y-75000000D01*
X76495582Y-75032009D01*
X76300968Y-75095244D01*
X76118644Y-75188143D01*
X76074077Y-75220523D01*
X76074077Y-75220524D01*
X76753554Y-75900000D01*
X76747339Y-75900000D01*
X76645606Y-75927259D01*
X76554394Y-75979920D01*
X76479920Y-76054394D01*
X76427259Y-76145606D01*
X76400000Y-76247339D01*
X76400000Y-76253553D01*
X75720524Y-75574077D01*
X75720523Y-75574077D01*
X75688143Y-75618644D01*
X75595244Y-75800968D01*
X75532009Y-75995582D01*
X75500000Y-76197682D01*
X75500000Y-76402317D01*
X75532009Y-76604417D01*
X75595244Y-76799031D01*
X75688141Y-76981350D01*
X75688147Y-76981359D01*
X75720523Y-77025921D01*
X75720524Y-77025922D01*
X76400000Y-76346446D01*
X76400000Y-76352661D01*
X76427259Y-76454394D01*
X76479920Y-76545606D01*
X76554394Y-76620080D01*
X76645606Y-76672741D01*
X76747339Y-76700000D01*
X76753553Y-76700000D01*
X76074076Y-77379474D01*
X76118652Y-77411861D01*
X76172376Y-77439234D01*
X76223172Y-77487208D01*
X76239968Y-77555028D01*
X76217431Y-77621164D01*
X76172379Y-77660203D01*
X76118386Y-77687714D01*
X75952786Y-77808028D01*
X75808028Y-77952786D01*
X75687715Y-78118385D01*
X75680883Y-78131795D01*
X75632909Y-78182591D01*
X75570398Y-78199500D01*
X72198071Y-78199500D01*
X72131032Y-78179815D01*
X72097754Y-78148386D01*
X71991966Y-78002781D01*
X71847219Y-77858034D01*
X71847213Y-77858028D01*
X71681611Y-77737713D01*
X71627621Y-77710203D01*
X71576825Y-77662228D01*
X71560031Y-77594407D01*
X71582569Y-77528272D01*
X71627624Y-77489233D01*
X71681349Y-77461859D01*
X71725921Y-77429474D01*
X71046447Y-76750000D01*
X71052661Y-76750000D01*
X71154394Y-76722741D01*
X71245606Y-76670080D01*
X71320080Y-76595606D01*
X71372741Y-76504394D01*
X71400000Y-76402661D01*
X71400000Y-76396447D01*
X72079474Y-77075921D01*
X72111859Y-77031349D01*
X72204755Y-76849031D01*
X72267990Y-76654417D01*
X72300000Y-76452317D01*
X72300000Y-76247683D01*
X72294382Y-76212215D01*
X72294382Y-76212214D01*
X72267990Y-76045582D01*
X72204755Y-75850968D01*
X72111859Y-75668650D01*
X72079474Y-75624077D01*
X72079474Y-75624076D01*
X71400000Y-76303551D01*
X71400000Y-76297339D01*
X71372741Y-76195606D01*
X71320080Y-76104394D01*
X71245606Y-76029920D01*
X71154394Y-75977259D01*
X71052661Y-75950000D01*
X71046446Y-75950000D01*
X71725922Y-75270524D01*
X71725921Y-75270523D01*
X71681359Y-75238147D01*
X71681350Y-75238141D01*
X71499031Y-75145244D01*
X71304417Y-75082009D01*
X71102317Y-75050000D01*
X70897683Y-75050000D01*
X70695582Y-75082009D01*
X70500968Y-75145244D01*
X70318644Y-75238143D01*
X70274077Y-75270523D01*
X70274077Y-75270524D01*
X70953554Y-75950000D01*
X70947339Y-75950000D01*
X70845606Y-75977259D01*
X70754394Y-76029920D01*
X70679920Y-76104394D01*
X70627259Y-76195606D01*
X70600000Y-76297339D01*
X70600000Y-76303553D01*
X69920524Y-75624077D01*
X69920523Y-75624077D01*
X69888143Y-75668644D01*
X69795244Y-75850968D01*
X69732009Y-76045582D01*
X69700000Y-76247682D01*
X69700000Y-76452317D01*
X69732009Y-76654417D01*
X69795244Y-76849031D01*
X69888141Y-77031350D01*
X69888147Y-77031359D01*
X69920523Y-77075921D01*
X69920524Y-77075922D01*
X70600000Y-76396446D01*
X70600000Y-76402661D01*
X70627259Y-76504394D01*
X70679920Y-76595606D01*
X70754394Y-76670080D01*
X70845606Y-76722741D01*
X70947339Y-76750000D01*
X70953553Y-76750000D01*
X70274076Y-77429474D01*
X70318652Y-77461861D01*
X70372376Y-77489234D01*
X70423172Y-77537208D01*
X70439968Y-77605028D01*
X70417431Y-77671164D01*
X70372379Y-77710203D01*
X70318386Y-77737714D01*
X70152786Y-77858028D01*
X70008028Y-78002786D01*
X69887715Y-78168386D01*
X69794781Y-78350776D01*
X69731522Y-78545465D01*
X69699500Y-78747648D01*
X69699500Y-78952351D01*
X69731522Y-79154534D01*
X69794781Y-79349223D01*
X69887715Y-79531613D01*
X70008028Y-79697213D01*
X70008034Y-79697219D01*
X70152781Y-79841966D01*
X70318390Y-79962287D01*
X70331793Y-79969116D01*
X70382589Y-80017088D01*
X70399500Y-80079601D01*
X70399500Y-81421080D01*
X70379815Y-81488119D01*
X70373876Y-81496566D01*
X70325464Y-81559657D01*
X70264956Y-81705737D01*
X70264955Y-81705739D01*
X70249501Y-81823129D01*
X70249500Y-81823145D01*
X70249500Y-83176863D01*
X70260355Y-83259317D01*
X70249589Y-83328352D01*
X70203208Y-83380607D01*
X70137416Y-83399500D01*
X69700098Y-83399500D01*
X69633059Y-83379815D01*
X69612417Y-83363181D01*
X67486819Y-81237583D01*
X67453334Y-81176260D01*
X67450500Y-81149902D01*
X67450500Y-80229601D01*
X67470185Y-80162562D01*
X67518206Y-80119116D01*
X67531610Y-80112287D01*
X67697219Y-79991966D01*
X67841966Y-79847219D01*
X67841968Y-79847215D01*
X67841971Y-79847213D01*
X67926938Y-79730264D01*
X67962287Y-79681610D01*
X68055220Y-79499219D01*
X68118477Y-79304534D01*
X68150500Y-79102352D01*
X68150500Y-78897648D01*
X68118477Y-78695466D01*
X68104609Y-78652786D01*
X68069739Y-78545466D01*
X68055220Y-78500781D01*
X68055218Y-78500778D01*
X68055218Y-78500776D01*
X68006905Y-78405958D01*
X67962287Y-78318390D01*
X67945134Y-78294781D01*
X67841971Y-78152786D01*
X67697213Y-78008028D01*
X67531613Y-77887715D01*
X67531612Y-77887714D01*
X67531610Y-77887713D01*
X67473350Y-77858028D01*
X67349223Y-77794781D01*
X67154534Y-77731522D01*
X66979995Y-77703878D01*
X66952352Y-77699500D01*
X66747648Y-77699500D01*
X66723329Y-77703351D01*
X66545465Y-77731522D01*
X66350776Y-77794781D01*
X66168386Y-77887715D01*
X66002786Y-78008028D01*
X65858028Y-78152786D01*
X65737715Y-78318386D01*
X65644781Y-78500776D01*
X65581522Y-78695465D01*
X65549500Y-78897648D01*
X65549500Y-79102351D01*
X65581522Y-79304534D01*
X65586173Y-79318848D01*
X65588165Y-79388690D01*
X65555921Y-79444842D01*
X64037584Y-80963181D01*
X63976261Y-80996666D01*
X63949903Y-80999500D01*
X49986670Y-80999500D01*
X49986654Y-80999499D01*
X49979058Y-80999499D01*
X49820943Y-80999499D01*
X49744579Y-81019961D01*
X49668214Y-81040423D01*
X49668211Y-81040425D01*
X49633538Y-81060443D01*
X49565637Y-81076914D01*
X49499611Y-81054061D01*
X49456421Y-80999139D01*
X49449781Y-80929585D01*
X49481799Y-80867483D01*
X49483811Y-80865422D01*
X50712416Y-79636819D01*
X50773739Y-79603334D01*
X50800097Y-79600500D01*
X51920943Y-79600500D01*
X52920398Y-79600500D01*
X52987437Y-79620185D01*
X53030883Y-79668205D01*
X53037715Y-79681614D01*
X53158028Y-79847213D01*
X53302786Y-79991971D01*
X53408090Y-80068477D01*
X53468390Y-80112287D01*
X53549499Y-80153614D01*
X53650776Y-80205218D01*
X53650778Y-80205218D01*
X53650781Y-80205220D01*
X53725818Y-80229601D01*
X53845465Y-80268477D01*
X53946557Y-80284488D01*
X54047648Y-80300500D01*
X54047649Y-80300500D01*
X54252351Y-80300500D01*
X54252352Y-80300500D01*
X54454534Y-80268477D01*
X54649219Y-80205220D01*
X54831610Y-80112287D01*
X54924590Y-80044732D01*
X54997213Y-79991971D01*
X54997215Y-79991968D01*
X54997219Y-79991966D01*
X55141966Y-79847219D01*
X55141968Y-79847215D01*
X55141971Y-79847213D01*
X55226938Y-79730264D01*
X55262287Y-79681610D01*
X55355220Y-79499219D01*
X55418477Y-79304534D01*
X55450500Y-79102352D01*
X55450500Y-78897648D01*
X55418477Y-78695466D01*
X55404609Y-78652786D01*
X55369739Y-78545466D01*
X55355220Y-78500781D01*
X55355218Y-78500778D01*
X55355218Y-78500776D01*
X55306905Y-78405958D01*
X55262287Y-78318390D01*
X55245134Y-78294781D01*
X55141971Y-78152786D01*
X54997213Y-78008028D01*
X54831613Y-77887715D01*
X54831612Y-77887714D01*
X54831610Y-77887713D01*
X54773350Y-77858028D01*
X54649223Y-77794781D01*
X54454534Y-77731522D01*
X54279995Y-77703878D01*
X54252352Y-77699500D01*
X54047648Y-77699500D01*
X54023329Y-77703351D01*
X53845465Y-77731522D01*
X53650776Y-77794781D01*
X53468386Y-77887715D01*
X53302786Y-78008028D01*
X53158028Y-78152786D01*
X53037715Y-78318385D01*
X53030883Y-78331795D01*
X52982909Y-78382591D01*
X52920398Y-78399500D01*
X50586669Y-78399500D01*
X50586653Y-78399499D01*
X50579057Y-78399499D01*
X50420943Y-78399499D01*
X50313587Y-78428265D01*
X50268210Y-78440424D01*
X50268209Y-78440425D01*
X50218096Y-78469359D01*
X50218095Y-78469360D01*
X50174689Y-78494420D01*
X50131285Y-78519479D01*
X50131282Y-78519481D01*
X50019480Y-78631284D01*
X50019478Y-78631286D01*
X49151542Y-79499223D01*
X48287584Y-80363181D01*
X48226261Y-80396666D01*
X48199903Y-80399500D01*
X47638389Y-80399500D01*
X47598728Y-80405781D01*
X47467302Y-80426597D01*
X47302552Y-80480128D01*
X47148211Y-80558768D01*
X47090773Y-80600500D01*
X47008072Y-80660586D01*
X47008070Y-80660588D01*
X47008069Y-80660588D01*
X46885588Y-80783069D01*
X46885588Y-80783070D01*
X46885586Y-80783072D01*
X46872924Y-80800500D01*
X46783768Y-80923211D01*
X46705128Y-81077552D01*
X46651597Y-81242302D01*
X46629505Y-81381787D01*
X46624500Y-81413389D01*
X44000500Y-81413389D01*
X44000500Y-74504066D01*
X44000765Y-74495956D01*
X44004819Y-74434108D01*
X44007466Y-74393713D01*
X44649500Y-74393713D01*
X44649500Y-74606286D01*
X44682753Y-74816239D01*
X44748444Y-75018414D01*
X44844951Y-75207820D01*
X44969890Y-75379786D01*
X45120213Y-75530109D01*
X45292179Y-75655048D01*
X45292181Y-75655049D01*
X45292184Y-75655051D01*
X45481588Y-75751557D01*
X45683757Y-75817246D01*
X45893713Y-75850500D01*
X45893714Y-75850500D01*
X46106286Y-75850500D01*
X46106287Y-75850500D01*
X46316243Y-75817246D01*
X46518412Y-75751557D01*
X46707816Y-75655051D01*
X46819268Y-75574077D01*
X46879786Y-75530109D01*
X46879788Y-75530106D01*
X46879792Y-75530104D01*
X47030104Y-75379792D01*
X47155051Y-75207816D01*
X47251557Y-75018412D01*
X47317246Y-74816243D01*
X47350500Y-74606287D01*
X47350500Y-74393713D01*
X47317246Y-74183757D01*
X47251557Y-73981588D01*
X47155051Y-73792184D01*
X47155049Y-73792181D01*
X47155048Y-73792179D01*
X47030109Y-73620213D01*
X46879786Y-73469890D01*
X46707820Y-73344951D01*
X46518414Y-73248444D01*
X46518413Y-73248443D01*
X46518412Y-73248443D01*
X46316243Y-73182754D01*
X46316241Y-73182753D01*
X46316240Y-73182753D01*
X46154957Y-73157208D01*
X46106287Y-73149500D01*
X45893713Y-73149500D01*
X45845042Y-73157208D01*
X45683760Y-73182753D01*
X45481585Y-73248444D01*
X45292179Y-73344951D01*
X45120213Y-73469890D01*
X44969890Y-73620213D01*
X44844951Y-73792179D01*
X44748444Y-73981585D01*
X44682753Y-74183760D01*
X44649500Y-74393713D01*
X44007466Y-74393713D01*
X44017075Y-74247104D01*
X44019190Y-74231048D01*
X44067045Y-73990462D01*
X44071243Y-73974797D01*
X44124337Y-73818386D01*
X44150093Y-73742512D01*
X44156291Y-73727547D01*
X44264790Y-73507533D01*
X44272893Y-73493498D01*
X44409182Y-73289527D01*
X44419039Y-73276681D01*
X44580786Y-73092244D01*
X44592244Y-73080786D01*
X44776681Y-72919039D01*
X44789527Y-72909182D01*
X44993498Y-72772893D01*
X45007533Y-72764790D01*
X45227547Y-72656291D01*
X45242512Y-72650093D01*
X45406762Y-72594337D01*
X45474797Y-72571243D01*
X45490464Y-72567045D01*
X45731048Y-72519190D01*
X45747102Y-72517075D01*
X45995957Y-72500765D01*
X46004067Y-72500500D01*
X46065892Y-72500500D01*
X102434108Y-72500500D01*
X102495933Y-72500500D01*
X102504043Y-72500765D01*
G37*
%TD.AperFunction*%
%TD*%
M02*
