%TF.GenerationSoftware,KiCad,Pcbnew,9.0.2*%
%TF.CreationDate,2025-07-11T15:27:11-07:00*%
%TF.ProjectId,I2C mux buffer,49324320-6d75-4782-9062-75666665722e,rev?*%
%TF.SameCoordinates,Original*%
%TF.FileFunction,Copper,L2,Bot*%
%TF.FilePolarity,Positive*%
%FSLAX46Y46*%
G04 Gerber Fmt 4.6, Leading zero omitted, Abs format (unit mm)*
G04 Created by KiCad (PCBNEW 9.0.2) date 2025-07-11 15:27:11*
%MOMM*%
%LPD*%
G01*
G04 APERTURE LIST*
G04 Aperture macros list*
%AMRoundRect*
0 Rectangle with rounded corners*
0 $1 Rounding radius*
0 $2 $3 $4 $5 $6 $7 $8 $9 X,Y pos of 4 corners*
0 Add a 4 corners polygon primitive as box body*
4,1,4,$2,$3,$4,$5,$6,$7,$8,$9,$2,$3,0*
0 Add four circle primitives for the rounded corners*
1,1,$1+$1,$2,$3*
1,1,$1+$1,$4,$5*
1,1,$1+$1,$6,$7*
1,1,$1+$1,$8,$9*
0 Add four rect primitives between the rounded corners*
20,1,$1+$1,$2,$3,$4,$5,0*
20,1,$1+$1,$4,$5,$6,$7,0*
20,1,$1+$1,$6,$7,$8,$9,0*
20,1,$1+$1,$8,$9,$2,$3,0*%
G04 Aperture macros list end*
%TA.AperFunction,ComponentPad*%
%ADD10C,1.600000*%
%TD*%
%TA.AperFunction,ComponentPad*%
%ADD11RoundRect,0.250000X-0.600000X-0.725000X0.600000X-0.725000X0.600000X0.725000X-0.600000X0.725000X0*%
%TD*%
%TA.AperFunction,ComponentPad*%
%ADD12O,1.700000X1.950000*%
%TD*%
%TA.AperFunction,ComponentPad*%
%ADD13RoundRect,0.250000X0.625000X-0.350000X0.625000X0.350000X-0.625000X0.350000X-0.625000X-0.350000X0*%
%TD*%
%TA.AperFunction,ComponentPad*%
%ADD14O,1.750000X1.200000*%
%TD*%
%TA.AperFunction,ComponentPad*%
%ADD15RoundRect,0.250000X0.725000X-0.600000X0.725000X0.600000X-0.725000X0.600000X-0.725000X-0.600000X0*%
%TD*%
%TA.AperFunction,ComponentPad*%
%ADD16O,1.950000X1.700000*%
%TD*%
%TA.AperFunction,ViaPad*%
%ADD17C,0.600000*%
%TD*%
%TA.AperFunction,Conductor*%
%ADD18C,0.200000*%
%TD*%
G04 APERTURE END LIST*
D10*
%TO.P,R6,1*%
%TO.N,Net-(U2-EN)*%
X96500000Y-94000000D03*
%TO.P,R6,2*%
%TO.N,+3V3*%
X83800000Y-94000000D03*
%TD*%
D11*
%TO.P,J1,1,Pin_1*%
%TO.N,+3V3*%
X71500000Y-93500000D03*
D12*
%TO.P,J1,2,Pin_2*%
%TO.N,Net-(J1-Pin_2)*%
X74000000Y-93500000D03*
%TO.P,J1,3,Pin_3*%
%TO.N,Net-(J1-Pin_3)*%
X76500000Y-93500000D03*
%TO.P,J1,4,Pin_4*%
%TO.N,GND*%
X79000000Y-93500000D03*
%TD*%
D10*
%TO.P,C3,1*%
%TO.N,+3V3*%
X71000000Y-78850000D03*
%TO.P,C3,2*%
%TO.N,GND*%
X71000000Y-76350000D03*
%TD*%
%TO.P,C4,1*%
%TO.N,+3V3*%
X76800000Y-78800000D03*
%TO.P,C4,2*%
%TO.N,GND*%
X76800000Y-76300000D03*
%TD*%
%TO.P,C1,1*%
%TO.N,+3V3*%
X88000000Y-84000000D03*
%TO.P,C1,2*%
%TO.N,Net-(U2-VCCB)*%
X90500000Y-84000000D03*
%TD*%
%TO.P,R5,1*%
%TO.N,Net-(U1-SD4)*%
X82150000Y-79500000D03*
%TO.P,R5,2*%
%TO.N,+3V3*%
X94850000Y-79500000D03*
%TD*%
%TO.P,C2,1*%
%TO.N,+3V3*%
X82500000Y-84000000D03*
%TO.P,C2,2*%
%TO.N,Net-(U2-VCCA)*%
X85000000Y-84000000D03*
%TD*%
%TO.P,R2,1*%
%TO.N,+3V3*%
X54150000Y-79000000D03*
%TO.P,R2,2*%
%TO.N,Net-(J3-Pin_4)*%
X66850000Y-79000000D03*
%TD*%
%TO.P,R4,1*%
%TO.N,Net-(U1-SC4)*%
X82150000Y-74500000D03*
%TO.P,R4,2*%
%TO.N,+3V3*%
X94850000Y-74500000D03*
%TD*%
D13*
%TO.P,J3,1,Pin_1*%
%TO.N,GND*%
X48000000Y-89500000D03*
D14*
%TO.P,J3,2,Pin_2*%
%TO.N,Net-(J3-Pin_2)*%
X48000000Y-87500000D03*
%TO.P,J3,3,Pin_3*%
%TO.N,Net-(J3-Pin_3)*%
X48000000Y-85500000D03*
%TO.P,J3,4,Pin_4*%
%TO.N,Net-(J3-Pin_4)*%
X48000000Y-83500000D03*
%TO.P,J3,5,Pin_5*%
%TO.N,+3V3*%
X48000000Y-81500000D03*
%TD*%
D15*
%TO.P,J2,1,Pin_1*%
%TO.N,+3V3*%
X100000000Y-88500000D03*
D16*
%TO.P,J2,2,Pin_2*%
%TO.N,Net-(J2-Pin_2)*%
X100000000Y-86000000D03*
%TO.P,J2,3,Pin_3*%
%TO.N,Net-(J2-Pin_3)*%
X100000000Y-83500000D03*
%TO.P,J2,4,Pin_4*%
%TO.N,GND*%
X100000000Y-81000000D03*
%TD*%
D10*
%TO.P,R1,1*%
%TO.N,+3V3*%
X54150000Y-85500000D03*
%TO.P,R1,2*%
%TO.N,Net-(J3-Pin_3)*%
X66850000Y-85500000D03*
%TD*%
%TO.P,R3,1*%
%TO.N,+3V3*%
X54150000Y-91750000D03*
%TO.P,R3,2*%
%TO.N,Net-(J3-Pin_2)*%
X66850000Y-91750000D03*
%TD*%
D17*
%TO.N,Net-(U1-SC4)*%
X78500000Y-80500000D03*
X80500000Y-87000000D03*
%TD*%
D18*
%TO.N,+3V3*%
X54150000Y-78850000D02*
X54150000Y-79000000D01*
X57000000Y-76000000D02*
X54150000Y-78850000D01*
X68150000Y-76000000D02*
X57000000Y-76000000D01*
X71000000Y-78850000D02*
X68150000Y-76000000D01*
X78250000Y-78750000D02*
X82500000Y-83000000D01*
X76800000Y-78800000D02*
X76850000Y-78750000D01*
X76850000Y-78750000D02*
X78250000Y-78750000D01*
X82500000Y-83000000D02*
X82500000Y-84000000D01*
%TO.N,Net-(U1-SC4)*%
X80500000Y-82500000D02*
X80500000Y-87000000D01*
X78517835Y-80517835D02*
X80500000Y-82500000D01*
X78500000Y-80500000D02*
X78482165Y-80517835D01*
X78482165Y-80517835D02*
X78517835Y-80517835D01*
%TO.N,+3V3*%
X73000000Y-90500000D02*
X82000000Y-90500000D01*
X71500000Y-93500000D02*
X71500000Y-92000000D01*
X82000000Y-90500000D02*
X83800000Y-92300000D01*
X83800000Y-92300000D02*
X83800000Y-94000000D01*
X54150000Y-81000000D02*
X54150000Y-91750000D01*
X54150000Y-79000000D02*
X54150000Y-81000000D01*
X71500000Y-92000000D02*
X73000000Y-90500000D01*
%TD*%
%TA.AperFunction,Conductor*%
%TO.N,GND*%
G36*
X102504043Y-72500765D02*
G01*
X102752895Y-72517075D01*
X102768953Y-72519190D01*
X102976105Y-72560395D01*
X103009535Y-72567045D01*
X103025202Y-72571243D01*
X103194947Y-72628863D01*
X103257481Y-72650091D01*
X103272458Y-72656294D01*
X103481799Y-72759529D01*
X103492460Y-72764787D01*
X103506508Y-72772897D01*
X103710464Y-72909177D01*
X103723328Y-72919048D01*
X103907749Y-73080781D01*
X103919218Y-73092250D01*
X104056196Y-73248444D01*
X104080951Y-73276671D01*
X104090825Y-73289539D01*
X104227102Y-73493492D01*
X104235212Y-73507539D01*
X104343702Y-73727534D01*
X104349909Y-73742520D01*
X104428756Y-73974797D01*
X104432954Y-73990464D01*
X104480807Y-74231035D01*
X104482925Y-74247116D01*
X104499235Y-74495956D01*
X104499500Y-74504066D01*
X104499500Y-95495933D01*
X104499235Y-95504043D01*
X104482925Y-95752883D01*
X104480807Y-95768964D01*
X104432954Y-96009535D01*
X104428756Y-96025202D01*
X104349909Y-96257479D01*
X104343702Y-96272465D01*
X104235212Y-96492460D01*
X104227102Y-96506507D01*
X104090825Y-96710460D01*
X104080951Y-96723328D01*
X103919218Y-96907749D01*
X103907749Y-96919218D01*
X103723328Y-97080951D01*
X103710460Y-97090825D01*
X103506507Y-97227102D01*
X103492460Y-97235212D01*
X103272465Y-97343702D01*
X103257479Y-97349909D01*
X103025202Y-97428756D01*
X103009535Y-97432954D01*
X102768964Y-97480807D01*
X102752883Y-97482925D01*
X102504043Y-97499235D01*
X102495933Y-97499500D01*
X46004067Y-97499500D01*
X45995957Y-97499235D01*
X45747116Y-97482925D01*
X45731035Y-97480807D01*
X45490464Y-97432954D01*
X45474797Y-97428756D01*
X45242520Y-97349909D01*
X45227534Y-97343702D01*
X45007539Y-97235212D01*
X44993492Y-97227102D01*
X44789539Y-97090825D01*
X44776671Y-97080951D01*
X44592250Y-96919218D01*
X44580781Y-96907749D01*
X44443804Y-96751557D01*
X44419045Y-96723325D01*
X44409174Y-96710460D01*
X44272897Y-96506507D01*
X44264787Y-96492460D01*
X44158855Y-96277652D01*
X44156294Y-96272458D01*
X44150090Y-96257479D01*
X44071243Y-96025202D01*
X44067045Y-96009535D01*
X44059186Y-95970026D01*
X44019190Y-95768953D01*
X44017075Y-95752895D01*
X44000765Y-95504043D01*
X44000500Y-95495933D01*
X44000500Y-95393713D01*
X44649500Y-95393713D01*
X44649500Y-95606286D01*
X44675265Y-95768964D01*
X44682754Y-95816243D01*
X44732721Y-95970026D01*
X44748444Y-96018414D01*
X44844951Y-96207820D01*
X44969890Y-96379786D01*
X45120213Y-96530109D01*
X45292179Y-96655048D01*
X45292181Y-96655049D01*
X45292184Y-96655051D01*
X45481588Y-96751557D01*
X45683757Y-96817246D01*
X45893713Y-96850500D01*
X45893714Y-96850500D01*
X46106286Y-96850500D01*
X46106287Y-96850500D01*
X46316243Y-96817246D01*
X46518412Y-96751557D01*
X46707816Y-96655051D01*
X46729789Y-96639086D01*
X46879786Y-96530109D01*
X46879788Y-96530106D01*
X46879792Y-96530104D01*
X47030104Y-96379792D01*
X47030106Y-96379788D01*
X47030109Y-96379786D01*
X47155048Y-96207820D01*
X47155047Y-96207820D01*
X47155051Y-96207816D01*
X47251557Y-96018412D01*
X47317246Y-95816243D01*
X47350500Y-95606287D01*
X47350500Y-95393713D01*
X101149500Y-95393713D01*
X101149500Y-95606286D01*
X101175265Y-95768964D01*
X101182754Y-95816243D01*
X101232721Y-95970026D01*
X101248444Y-96018414D01*
X101344951Y-96207820D01*
X101469890Y-96379786D01*
X101620213Y-96530109D01*
X101792179Y-96655048D01*
X101792181Y-96655049D01*
X101792184Y-96655051D01*
X101981588Y-96751557D01*
X102183757Y-96817246D01*
X102393713Y-96850500D01*
X102393714Y-96850500D01*
X102606286Y-96850500D01*
X102606287Y-96850500D01*
X102816243Y-96817246D01*
X103018412Y-96751557D01*
X103207816Y-96655051D01*
X103229789Y-96639086D01*
X103379786Y-96530109D01*
X103379788Y-96530106D01*
X103379792Y-96530104D01*
X103530104Y-96379792D01*
X103530106Y-96379788D01*
X103530109Y-96379786D01*
X103655048Y-96207820D01*
X103655047Y-96207820D01*
X103655051Y-96207816D01*
X103751557Y-96018412D01*
X103817246Y-95816243D01*
X103850500Y-95606287D01*
X103850500Y-95393713D01*
X103817246Y-95183757D01*
X103751557Y-94981588D01*
X103655051Y-94792184D01*
X103655049Y-94792181D01*
X103655048Y-94792179D01*
X103530109Y-94620213D01*
X103379786Y-94469890D01*
X103207820Y-94344951D01*
X103018414Y-94248444D01*
X103018413Y-94248443D01*
X103018412Y-94248443D01*
X102816243Y-94182754D01*
X102816241Y-94182753D01*
X102816240Y-94182753D01*
X102654957Y-94157208D01*
X102606287Y-94149500D01*
X102393713Y-94149500D01*
X102345042Y-94157208D01*
X102183760Y-94182753D01*
X101981585Y-94248444D01*
X101792179Y-94344951D01*
X101620213Y-94469890D01*
X101469890Y-94620213D01*
X101344951Y-94792179D01*
X101248444Y-94981585D01*
X101182753Y-95183760D01*
X101149500Y-95393713D01*
X47350500Y-95393713D01*
X47317246Y-95183757D01*
X47251557Y-94981588D01*
X47155051Y-94792184D01*
X47155049Y-94792181D01*
X47155048Y-94792179D01*
X47030109Y-94620213D01*
X46879786Y-94469890D01*
X46707820Y-94344951D01*
X46518414Y-94248444D01*
X46518413Y-94248443D01*
X46518412Y-94248443D01*
X46316243Y-94182754D01*
X46316241Y-94182753D01*
X46316240Y-94182753D01*
X46154957Y-94157208D01*
X46106287Y-94149500D01*
X45893713Y-94149500D01*
X45845042Y-94157208D01*
X45683760Y-94182753D01*
X45481585Y-94248444D01*
X45292179Y-94344951D01*
X45120213Y-94469890D01*
X44969890Y-94620213D01*
X44844951Y-94792179D01*
X44748444Y-94981585D01*
X44682753Y-95183760D01*
X44649500Y-95393713D01*
X44000500Y-95393713D01*
X44000500Y-81413389D01*
X46624500Y-81413389D01*
X46624500Y-81586611D01*
X46651598Y-81757701D01*
X46705127Y-81922445D01*
X46783768Y-82076788D01*
X46885586Y-82216928D01*
X47008072Y-82339414D01*
X47022653Y-82350008D01*
X47091023Y-82399683D01*
X47133689Y-82455013D01*
X47139667Y-82524626D01*
X47107061Y-82586421D01*
X47091023Y-82600317D01*
X47008078Y-82660581D01*
X47008069Y-82660588D01*
X46885588Y-82783069D01*
X46885588Y-82783070D01*
X46885586Y-82783072D01*
X46878966Y-82792184D01*
X46783768Y-82923211D01*
X46705128Y-83077552D01*
X46651597Y-83242302D01*
X46627616Y-83393713D01*
X46624500Y-83413389D01*
X46624500Y-83586611D01*
X46651598Y-83757701D01*
X46705127Y-83922445D01*
X46783768Y-84076788D01*
X46885586Y-84216928D01*
X47008072Y-84339414D01*
X47008078Y-84339418D01*
X47091023Y-84399683D01*
X47133689Y-84455013D01*
X47139667Y-84524626D01*
X47107061Y-84586421D01*
X47091023Y-84600317D01*
X47008078Y-84660581D01*
X47008069Y-84660588D01*
X46885588Y-84783069D01*
X46885588Y-84783070D01*
X46885586Y-84783072D01*
X46876928Y-84794989D01*
X46783768Y-84923211D01*
X46705128Y-85077552D01*
X46651597Y-85242302D01*
X46643697Y-85292184D01*
X46624500Y-85413389D01*
X46624500Y-85586611D01*
X46651598Y-85757701D01*
X46705127Y-85922445D01*
X46783768Y-86076788D01*
X46885586Y-86216928D01*
X47008072Y-86339414D01*
X47018815Y-86347219D01*
X47091023Y-86399683D01*
X47133689Y-86455013D01*
X47139667Y-86524626D01*
X47107061Y-86586421D01*
X47091023Y-86600317D01*
X47008078Y-86660581D01*
X47008069Y-86660588D01*
X46885588Y-86783069D01*
X46885588Y-86783070D01*
X46885586Y-86783072D01*
X46872924Y-86800500D01*
X46783768Y-86923211D01*
X46705128Y-87077552D01*
X46651597Y-87242302D01*
X46624500Y-87413389D01*
X46624500Y-87586610D01*
X46649934Y-87747200D01*
X46651598Y-87757701D01*
X46705127Y-87922445D01*
X46783768Y-88076788D01*
X46885586Y-88216928D01*
X46885588Y-88216930D01*
X46993491Y-88324833D01*
X47026976Y-88386156D01*
X47021992Y-88455848D01*
X46980120Y-88511781D01*
X46970907Y-88518053D01*
X46906654Y-88557684D01*
X46782684Y-88681654D01*
X46690643Y-88830875D01*
X46690641Y-88830880D01*
X46635494Y-88997302D01*
X46635493Y-88997309D01*
X46625000Y-89100013D01*
X46625000Y-89250000D01*
X47719670Y-89250000D01*
X47699925Y-89269745D01*
X47650556Y-89355255D01*
X47625000Y-89450630D01*
X47625000Y-89549370D01*
X47650556Y-89644745D01*
X47699925Y-89730255D01*
X47719670Y-89750000D01*
X46625001Y-89750000D01*
X46625001Y-89899986D01*
X46635494Y-90002697D01*
X46690641Y-90169119D01*
X46690643Y-90169124D01*
X46782684Y-90318345D01*
X46906654Y-90442315D01*
X47055875Y-90534356D01*
X47055880Y-90534358D01*
X47222302Y-90589505D01*
X47222309Y-90589506D01*
X47325019Y-90599999D01*
X47749999Y-90599999D01*
X47750000Y-90599998D01*
X47750000Y-89780330D01*
X47769745Y-89800075D01*
X47855255Y-89849444D01*
X47950630Y-89875000D01*
X48049370Y-89875000D01*
X48144745Y-89849444D01*
X48230255Y-89800075D01*
X48250000Y-89780330D01*
X48250000Y-90599999D01*
X48674972Y-90599999D01*
X48674986Y-90599998D01*
X48777697Y-90589505D01*
X48944119Y-90534358D01*
X48944124Y-90534356D01*
X49093345Y-90442315D01*
X49217315Y-90318345D01*
X49309356Y-90169124D01*
X49309358Y-90169119D01*
X49364505Y-90002697D01*
X49364506Y-90002690D01*
X49374999Y-89899986D01*
X49375000Y-89899973D01*
X49375000Y-89750000D01*
X48280330Y-89750000D01*
X48300075Y-89730255D01*
X48349444Y-89644745D01*
X48375000Y-89549370D01*
X48375000Y-89450630D01*
X48349444Y-89355255D01*
X48300075Y-89269745D01*
X48280330Y-89250000D01*
X49374999Y-89250000D01*
X49374999Y-89100028D01*
X49374998Y-89100013D01*
X49364505Y-88997302D01*
X49309358Y-88830880D01*
X49309356Y-88830875D01*
X49217315Y-88681654D01*
X49093343Y-88557682D01*
X49029093Y-88518053D01*
X48982368Y-88466105D01*
X48971145Y-88397143D01*
X48998988Y-88333061D01*
X49006486Y-88324855D01*
X49114414Y-88216928D01*
X49216232Y-88076788D01*
X49294873Y-87922445D01*
X49348402Y-87757701D01*
X49375500Y-87586611D01*
X49375500Y-87413389D01*
X49348402Y-87242299D01*
X49294873Y-87077555D01*
X49216232Y-86923212D01*
X49114414Y-86783072D01*
X48991928Y-86660586D01*
X48908975Y-86600317D01*
X48866311Y-86544988D01*
X48860332Y-86475374D01*
X48892938Y-86413579D01*
X48908976Y-86399682D01*
X48991928Y-86339414D01*
X49114414Y-86216928D01*
X49216232Y-86076788D01*
X49294873Y-85922445D01*
X49348402Y-85757701D01*
X49375500Y-85586611D01*
X49375500Y-85413389D01*
X49348402Y-85242299D01*
X49294873Y-85077555D01*
X49216232Y-84923212D01*
X49114414Y-84783072D01*
X48991928Y-84660586D01*
X48908975Y-84600317D01*
X48866311Y-84544988D01*
X48860332Y-84475374D01*
X48892938Y-84413579D01*
X48908976Y-84399682D01*
X48991928Y-84339414D01*
X49114414Y-84216928D01*
X49216232Y-84076788D01*
X49294873Y-83922445D01*
X49348402Y-83757701D01*
X49375500Y-83586611D01*
X49375500Y-83413389D01*
X49348402Y-83242299D01*
X49294873Y-83077555D01*
X49216232Y-82923212D01*
X49114414Y-82783072D01*
X48991928Y-82660586D01*
X48908975Y-82600317D01*
X48866311Y-82544988D01*
X48860332Y-82475374D01*
X48892938Y-82413579D01*
X48908976Y-82399682D01*
X48991928Y-82339414D01*
X49114414Y-82216928D01*
X49216232Y-82076788D01*
X49294873Y-81922445D01*
X49348402Y-81757701D01*
X49375500Y-81586611D01*
X49375500Y-81413389D01*
X49348402Y-81242299D01*
X49294873Y-81077555D01*
X49216232Y-80923212D01*
X49114414Y-80783072D01*
X48991928Y-80660586D01*
X48851788Y-80558768D01*
X48697445Y-80480127D01*
X48532701Y-80426598D01*
X48532699Y-80426597D01*
X48532698Y-80426597D01*
X48401271Y-80405781D01*
X48361611Y-80399500D01*
X47638389Y-80399500D01*
X47598728Y-80405781D01*
X47467302Y-80426597D01*
X47302552Y-80480128D01*
X47148211Y-80558768D01*
X47074554Y-80612284D01*
X47008072Y-80660586D01*
X47008070Y-80660588D01*
X47008069Y-80660588D01*
X46885588Y-80783069D01*
X46885588Y-80783070D01*
X46885586Y-80783072D01*
X46872924Y-80800500D01*
X46783768Y-80923211D01*
X46705128Y-81077552D01*
X46651597Y-81242302D01*
X46636983Y-81334574D01*
X46624500Y-81413389D01*
X44000500Y-81413389D01*
X44000500Y-78897648D01*
X52849500Y-78897648D01*
X52849500Y-79102351D01*
X52881522Y-79304534D01*
X52944781Y-79499223D01*
X53037715Y-79681613D01*
X53158028Y-79847213D01*
X53158034Y-79847219D01*
X53302781Y-79991966D01*
X53468390Y-80112287D01*
X53481793Y-80119116D01*
X53532589Y-80167088D01*
X53549500Y-80229601D01*
X53549500Y-84270397D01*
X53529815Y-84337436D01*
X53481800Y-84380879D01*
X53468389Y-84387712D01*
X53302786Y-84508028D01*
X53158028Y-84652786D01*
X53037715Y-84818386D01*
X52944781Y-85000776D01*
X52881522Y-85195465D01*
X52849500Y-85397648D01*
X52849500Y-85602351D01*
X52881522Y-85804534D01*
X52944781Y-85999223D01*
X53037715Y-86181613D01*
X53158028Y-86347213D01*
X53158034Y-86347219D01*
X53302781Y-86491966D01*
X53468390Y-86612287D01*
X53481793Y-86619116D01*
X53532589Y-86667088D01*
X53549500Y-86729601D01*
X53549500Y-90520397D01*
X53529815Y-90587436D01*
X53481800Y-90630879D01*
X53468389Y-90637712D01*
X53302786Y-90758028D01*
X53158028Y-90902786D01*
X53037715Y-91068386D01*
X52944781Y-91250776D01*
X52881522Y-91445465D01*
X52849500Y-91647648D01*
X52849500Y-91852351D01*
X52881522Y-92054534D01*
X52944781Y-92249223D01*
X53037715Y-92431613D01*
X53158028Y-92597213D01*
X53302786Y-92741971D01*
X53456340Y-92853532D01*
X53468390Y-92862287D01*
X53584607Y-92921503D01*
X53650776Y-92955218D01*
X53650778Y-92955218D01*
X53650781Y-92955220D01*
X53755137Y-92989127D01*
X53845465Y-93018477D01*
X53946557Y-93034488D01*
X54047648Y-93050500D01*
X54047649Y-93050500D01*
X54252351Y-93050500D01*
X54252352Y-93050500D01*
X54454534Y-93018477D01*
X54649219Y-92955220D01*
X54831610Y-92862287D01*
X54958087Y-92770397D01*
X54997213Y-92741971D01*
X54997215Y-92741968D01*
X54997219Y-92741966D01*
X55141966Y-92597219D01*
X55141968Y-92597215D01*
X55141971Y-92597213D01*
X55203731Y-92512206D01*
X55262287Y-92431610D01*
X55355220Y-92249219D01*
X55418477Y-92054534D01*
X55450500Y-91852352D01*
X55450500Y-91647648D01*
X65549500Y-91647648D01*
X65549500Y-91852351D01*
X65581522Y-92054534D01*
X65644781Y-92249223D01*
X65737715Y-92431613D01*
X65858028Y-92597213D01*
X66002786Y-92741971D01*
X66156340Y-92853532D01*
X66168390Y-92862287D01*
X66284607Y-92921503D01*
X66350776Y-92955218D01*
X66350778Y-92955218D01*
X66350781Y-92955220D01*
X66455137Y-92989127D01*
X66545465Y-93018477D01*
X66646557Y-93034488D01*
X66747648Y-93050500D01*
X66747649Y-93050500D01*
X66952351Y-93050500D01*
X66952352Y-93050500D01*
X67154534Y-93018477D01*
X67349219Y-92955220D01*
X67531610Y-92862287D01*
X67658087Y-92770397D01*
X67697213Y-92741971D01*
X67697215Y-92741968D01*
X67697219Y-92741966D01*
X67714202Y-92724983D01*
X70149500Y-92724983D01*
X70149500Y-94275001D01*
X70149501Y-94275018D01*
X70160000Y-94377796D01*
X70160001Y-94377799D01*
X70205894Y-94516294D01*
X70215186Y-94544334D01*
X70307288Y-94693656D01*
X70431344Y-94817712D01*
X70580666Y-94909814D01*
X70747203Y-94964999D01*
X70849991Y-94975500D01*
X72150008Y-94975499D01*
X72252797Y-94964999D01*
X72419334Y-94909814D01*
X72568656Y-94817712D01*
X72692712Y-94693656D01*
X72784814Y-94544334D01*
X72784814Y-94544331D01*
X72788178Y-94538879D01*
X72840126Y-94492154D01*
X72909088Y-94480931D01*
X72973170Y-94508774D01*
X72981398Y-94516294D01*
X73120213Y-94655109D01*
X73292179Y-94780048D01*
X73292181Y-94780049D01*
X73292184Y-94780051D01*
X73481588Y-94876557D01*
X73683757Y-94942246D01*
X73893713Y-94975500D01*
X73893714Y-94975500D01*
X74106286Y-94975500D01*
X74106287Y-94975500D01*
X74316243Y-94942246D01*
X74518412Y-94876557D01*
X74707816Y-94780051D01*
X74729789Y-94764086D01*
X74879786Y-94655109D01*
X74879788Y-94655106D01*
X74879792Y-94655104D01*
X75030104Y-94504792D01*
X75149683Y-94340204D01*
X75205011Y-94297540D01*
X75274624Y-94291561D01*
X75336420Y-94324166D01*
X75350313Y-94340199D01*
X75444543Y-94469896D01*
X75469896Y-94504792D01*
X75620213Y-94655109D01*
X75792179Y-94780048D01*
X75792181Y-94780049D01*
X75792184Y-94780051D01*
X75981588Y-94876557D01*
X76183757Y-94942246D01*
X76393713Y-94975500D01*
X76393714Y-94975500D01*
X76606286Y-94975500D01*
X76606287Y-94975500D01*
X76816243Y-94942246D01*
X77018412Y-94876557D01*
X77207816Y-94780051D01*
X77229789Y-94764086D01*
X77379786Y-94655109D01*
X77379788Y-94655106D01*
X77379792Y-94655104D01*
X77530104Y-94504792D01*
X77649991Y-94339779D01*
X77705320Y-94297115D01*
X77774933Y-94291136D01*
X77836729Y-94323741D01*
X77850627Y-94339781D01*
X77970272Y-94504459D01*
X77970276Y-94504464D01*
X78120535Y-94654723D01*
X78120540Y-94654727D01*
X78292442Y-94779620D01*
X78481782Y-94876095D01*
X78683871Y-94941757D01*
X78750000Y-94952231D01*
X78750000Y-93904145D01*
X78816657Y-93942630D01*
X78937465Y-93975000D01*
X79062535Y-93975000D01*
X79183343Y-93942630D01*
X79250000Y-93904145D01*
X79250000Y-94952230D01*
X79316126Y-94941757D01*
X79316129Y-94941757D01*
X79518217Y-94876095D01*
X79707557Y-94779620D01*
X79879459Y-94654727D01*
X79879464Y-94654723D01*
X80029723Y-94504464D01*
X80029727Y-94504459D01*
X80154620Y-94332557D01*
X80251095Y-94143217D01*
X80316757Y-93941130D01*
X80316757Y-93941127D01*
X80347030Y-93750000D01*
X79404146Y-93750000D01*
X79442630Y-93683343D01*
X79475000Y-93562535D01*
X79475000Y-93437465D01*
X79442630Y-93316657D01*
X79404146Y-93250000D01*
X80347030Y-93250000D01*
X80316757Y-93058872D01*
X80316757Y-93058869D01*
X80251095Y-92856782D01*
X80154620Y-92667442D01*
X80029727Y-92495540D01*
X80029723Y-92495535D01*
X79879464Y-92345276D01*
X79879459Y-92345272D01*
X79707557Y-92220379D01*
X79518215Y-92123903D01*
X79316124Y-92058241D01*
X79250000Y-92047768D01*
X79250000Y-93095854D01*
X79183343Y-93057370D01*
X79062535Y-93025000D01*
X78937465Y-93025000D01*
X78816657Y-93057370D01*
X78750000Y-93095854D01*
X78750000Y-92047768D01*
X78749999Y-92047768D01*
X78683875Y-92058241D01*
X78481784Y-92123903D01*
X78292442Y-92220379D01*
X78120540Y-92345272D01*
X78120535Y-92345276D01*
X77970276Y-92495535D01*
X77970272Y-92495540D01*
X77850627Y-92660218D01*
X77795297Y-92702884D01*
X77725684Y-92708863D01*
X77663889Y-92676257D01*
X77649991Y-92660218D01*
X77530109Y-92495214D01*
X77530105Y-92495209D01*
X77379786Y-92344890D01*
X77207820Y-92219951D01*
X77018414Y-92123444D01*
X77018413Y-92123443D01*
X77018412Y-92123443D01*
X76816243Y-92057754D01*
X76816241Y-92057753D01*
X76816240Y-92057753D01*
X76654957Y-92032208D01*
X76606287Y-92024500D01*
X76393713Y-92024500D01*
X76345042Y-92032208D01*
X76183760Y-92057753D01*
X75981585Y-92123444D01*
X75792179Y-92219951D01*
X75620213Y-92344890D01*
X75469894Y-92495209D01*
X75469890Y-92495214D01*
X75350318Y-92659793D01*
X75294989Y-92702459D01*
X75225375Y-92708438D01*
X75163580Y-92675833D01*
X75149682Y-92659793D01*
X75030109Y-92495214D01*
X75030105Y-92495209D01*
X74879786Y-92344890D01*
X74707820Y-92219951D01*
X74518414Y-92123444D01*
X74518413Y-92123443D01*
X74518412Y-92123443D01*
X74316243Y-92057754D01*
X74316241Y-92057753D01*
X74316240Y-92057753D01*
X74154957Y-92032208D01*
X74106287Y-92024500D01*
X73893713Y-92024500D01*
X73845042Y-92032208D01*
X73683760Y-92057753D01*
X73481585Y-92123444D01*
X73292179Y-92219951D01*
X73120215Y-92344889D01*
X72981398Y-92483706D01*
X72920075Y-92517190D01*
X72850383Y-92512206D01*
X72794450Y-92470334D01*
X72788178Y-92461120D01*
X72692712Y-92306344D01*
X72568655Y-92182287D01*
X72473254Y-92123444D01*
X72453671Y-92111365D01*
X72406947Y-92059418D01*
X72395724Y-91990456D01*
X72423567Y-91926374D01*
X72431074Y-91918159D01*
X73212416Y-91136819D01*
X73273739Y-91103334D01*
X73300097Y-91100500D01*
X81699903Y-91100500D01*
X81766942Y-91120185D01*
X81787584Y-91136819D01*
X83163181Y-92512416D01*
X83177884Y-92539343D01*
X83194477Y-92565162D01*
X83195368Y-92571362D01*
X83196666Y-92573739D01*
X83199500Y-92600097D01*
X83199500Y-92770397D01*
X83179815Y-92837436D01*
X83131800Y-92880879D01*
X83118389Y-92887712D01*
X82952786Y-93008028D01*
X82808028Y-93152786D01*
X82687715Y-93318386D01*
X82594781Y-93500776D01*
X82531522Y-93695465D01*
X82499500Y-93897648D01*
X82499500Y-94102351D01*
X82531522Y-94304534D01*
X82594781Y-94499223D01*
X82617767Y-94544334D01*
X82674207Y-94655104D01*
X82687715Y-94681613D01*
X82808028Y-94847213D01*
X82952786Y-94991971D01*
X83107749Y-95104556D01*
X83118390Y-95112287D01*
X83234607Y-95171503D01*
X83300776Y-95205218D01*
X83300778Y-95205218D01*
X83300781Y-95205220D01*
X83405137Y-95239127D01*
X83495465Y-95268477D01*
X83596557Y-95284488D01*
X83697648Y-95300500D01*
X83697649Y-95300500D01*
X83902351Y-95300500D01*
X83902352Y-95300500D01*
X84104534Y-95268477D01*
X84299219Y-95205220D01*
X84481610Y-95112287D01*
X84574590Y-95044732D01*
X84647213Y-94991971D01*
X84647215Y-94991968D01*
X84647219Y-94991966D01*
X84791966Y-94847219D01*
X84791968Y-94847215D01*
X84791971Y-94847213D01*
X84903534Y-94693657D01*
X84912287Y-94681610D01*
X85005220Y-94499219D01*
X85068477Y-94304534D01*
X85100500Y-94102352D01*
X85100500Y-93897648D01*
X95199500Y-93897648D01*
X95199500Y-94102351D01*
X95231522Y-94304534D01*
X95294781Y-94499223D01*
X95317767Y-94544334D01*
X95374207Y-94655104D01*
X95387715Y-94681613D01*
X95508028Y-94847213D01*
X95652786Y-94991971D01*
X95807749Y-95104556D01*
X95818390Y-95112287D01*
X95934607Y-95171503D01*
X96000776Y-95205218D01*
X96000778Y-95205218D01*
X96000781Y-95205220D01*
X96105137Y-95239127D01*
X96195465Y-95268477D01*
X96296557Y-95284488D01*
X96397648Y-95300500D01*
X96397649Y-95300500D01*
X96602351Y-95300500D01*
X96602352Y-95300500D01*
X96804534Y-95268477D01*
X96999219Y-95205220D01*
X97181610Y-95112287D01*
X97274590Y-95044732D01*
X97347213Y-94991971D01*
X97347215Y-94991968D01*
X97347219Y-94991966D01*
X97491966Y-94847219D01*
X97491968Y-94847215D01*
X97491971Y-94847213D01*
X97603534Y-94693657D01*
X97612287Y-94681610D01*
X97705220Y-94499219D01*
X97768477Y-94304534D01*
X97800500Y-94102352D01*
X97800500Y-93897648D01*
X97783712Y-93791657D01*
X97768477Y-93695465D01*
X97705218Y-93500776D01*
X97671503Y-93434607D01*
X97612287Y-93318390D01*
X97576195Y-93268713D01*
X97491971Y-93152786D01*
X97347213Y-93008028D01*
X97181613Y-92887715D01*
X97181612Y-92887714D01*
X97181610Y-92887713D01*
X97114526Y-92853532D01*
X96999223Y-92794781D01*
X96804534Y-92731522D01*
X96621034Y-92702459D01*
X96602352Y-92699500D01*
X96397648Y-92699500D01*
X96378966Y-92702459D01*
X96195465Y-92731522D01*
X96000776Y-92794781D01*
X95818386Y-92887715D01*
X95652786Y-93008028D01*
X95508028Y-93152786D01*
X95387715Y-93318386D01*
X95294781Y-93500776D01*
X95231522Y-93695465D01*
X95199500Y-93897648D01*
X85100500Y-93897648D01*
X85083712Y-93791657D01*
X85068477Y-93695465D01*
X85005218Y-93500776D01*
X84971503Y-93434607D01*
X84912287Y-93318390D01*
X84876195Y-93268713D01*
X84791971Y-93152786D01*
X84647213Y-93008028D01*
X84481610Y-92887712D01*
X84468200Y-92880879D01*
X84417406Y-92832903D01*
X84400500Y-92770397D01*
X84400500Y-92220945D01*
X84400500Y-92220943D01*
X84359577Y-92068216D01*
X84349229Y-92050292D01*
X84280524Y-91931290D01*
X84280521Y-91931286D01*
X84280520Y-91931284D01*
X84168716Y-91819480D01*
X84168715Y-91819479D01*
X84164385Y-91815149D01*
X84164374Y-91815139D01*
X82487590Y-90138355D01*
X82487588Y-90138352D01*
X82368717Y-90019481D01*
X82368716Y-90019480D01*
X82281904Y-89969360D01*
X82281904Y-89969359D01*
X82281900Y-89969358D01*
X82231785Y-89940423D01*
X82079057Y-89899499D01*
X81920943Y-89899499D01*
X81913347Y-89899499D01*
X81913331Y-89899500D01*
X72920940Y-89899500D01*
X72880019Y-89910464D01*
X72880019Y-89910465D01*
X72842751Y-89920451D01*
X72768214Y-89940423D01*
X72768209Y-89940426D01*
X72631290Y-90019475D01*
X72631282Y-90019481D01*
X71019479Y-91631284D01*
X71010032Y-91647648D01*
X70980096Y-91699500D01*
X70940423Y-91768215D01*
X70899499Y-91920943D01*
X70899499Y-91920945D01*
X70899152Y-91923581D01*
X70898241Y-91925639D01*
X70897396Y-91928794D01*
X70896903Y-91928662D01*
X70870883Y-91987477D01*
X70812557Y-92025946D01*
X70788815Y-92030750D01*
X70747202Y-92035001D01*
X70747200Y-92035001D01*
X70580668Y-92090185D01*
X70580663Y-92090187D01*
X70431342Y-92182289D01*
X70307289Y-92306342D01*
X70215187Y-92455663D01*
X70215185Y-92455668D01*
X70210325Y-92470334D01*
X70160001Y-92622203D01*
X70160001Y-92622204D01*
X70160000Y-92622204D01*
X70149500Y-92724983D01*
X67714202Y-92724983D01*
X67841966Y-92597219D01*
X67841968Y-92597215D01*
X67841971Y-92597213D01*
X67903731Y-92512206D01*
X67962287Y-92431610D01*
X68055220Y-92249219D01*
X68118477Y-92054534D01*
X68150500Y-91852352D01*
X68150500Y-91647648D01*
X68118477Y-91445466D01*
X68055220Y-91250781D01*
X68055218Y-91250778D01*
X68055218Y-91250776D01*
X67997153Y-91136819D01*
X67962287Y-91068390D01*
X67954556Y-91057749D01*
X67841971Y-90902786D01*
X67697213Y-90758028D01*
X67531613Y-90637715D01*
X67531612Y-90637714D01*
X67531610Y-90637713D01*
X67457592Y-90599999D01*
X67349223Y-90544781D01*
X67154534Y-90481522D01*
X66979995Y-90453878D01*
X66952352Y-90449500D01*
X66747648Y-90449500D01*
X66723329Y-90453351D01*
X66545465Y-90481522D01*
X66350776Y-90544781D01*
X66168386Y-90637715D01*
X66002786Y-90758028D01*
X65858028Y-90902786D01*
X65737715Y-91068386D01*
X65644781Y-91250776D01*
X65581522Y-91445465D01*
X65549500Y-91647648D01*
X55450500Y-91647648D01*
X55418477Y-91445466D01*
X55355220Y-91250781D01*
X55355218Y-91250778D01*
X55355218Y-91250776D01*
X55297153Y-91136819D01*
X55262287Y-91068390D01*
X55254556Y-91057749D01*
X55141971Y-90902786D01*
X54997213Y-90758028D01*
X54831610Y-90637712D01*
X54818200Y-90630879D01*
X54767406Y-90582903D01*
X54750500Y-90520397D01*
X54750500Y-86729601D01*
X54770185Y-86662562D01*
X54818206Y-86619116D01*
X54831610Y-86612287D01*
X54997219Y-86491966D01*
X55141966Y-86347219D01*
X55141968Y-86347215D01*
X55141971Y-86347213D01*
X55194732Y-86274590D01*
X55262287Y-86181610D01*
X55355220Y-85999219D01*
X55418477Y-85804534D01*
X55450500Y-85602352D01*
X55450500Y-85397648D01*
X65549500Y-85397648D01*
X65549500Y-85602351D01*
X65581522Y-85804534D01*
X65644781Y-85999223D01*
X65737715Y-86181613D01*
X65858028Y-86347213D01*
X66002786Y-86491971D01*
X66132788Y-86586421D01*
X66168390Y-86612287D01*
X66263182Y-86660586D01*
X66350776Y-86705218D01*
X66350778Y-86705218D01*
X66350781Y-86705220D01*
X66425818Y-86729601D01*
X66545465Y-86768477D01*
X66637595Y-86783069D01*
X66747648Y-86800500D01*
X66747649Y-86800500D01*
X66952351Y-86800500D01*
X66952352Y-86800500D01*
X67154534Y-86768477D01*
X67349219Y-86705220D01*
X67531610Y-86612287D01*
X67652266Y-86524626D01*
X67697213Y-86491971D01*
X67697215Y-86491968D01*
X67697219Y-86491966D01*
X67841966Y-86347219D01*
X67841968Y-86347215D01*
X67841971Y-86347213D01*
X67894732Y-86274590D01*
X67962287Y-86181610D01*
X68055220Y-85999219D01*
X68118477Y-85804534D01*
X68150500Y-85602352D01*
X68150500Y-85397648D01*
X68118477Y-85195466D01*
X68055220Y-85000781D01*
X68055218Y-85000778D01*
X68055218Y-85000776D01*
X68021503Y-84934607D01*
X67962287Y-84818390D01*
X67930490Y-84774625D01*
X67841971Y-84652786D01*
X67697213Y-84508028D01*
X67531613Y-84387715D01*
X67531612Y-84387714D01*
X67531610Y-84387713D01*
X67474653Y-84358691D01*
X67349223Y-84294781D01*
X67154534Y-84231522D01*
X66979995Y-84203878D01*
X66952352Y-84199500D01*
X66747648Y-84199500D01*
X66723329Y-84203351D01*
X66545465Y-84231522D01*
X66350776Y-84294781D01*
X66168386Y-84387715D01*
X66002786Y-84508028D01*
X65858028Y-84652786D01*
X65737715Y-84818386D01*
X65644781Y-85000776D01*
X65581522Y-85195465D01*
X65549500Y-85397648D01*
X55450500Y-85397648D01*
X55418477Y-85195466D01*
X55355220Y-85000781D01*
X55355218Y-85000778D01*
X55355218Y-85000776D01*
X55321503Y-84934607D01*
X55262287Y-84818390D01*
X55230490Y-84774625D01*
X55141971Y-84652786D01*
X54997213Y-84508028D01*
X54831610Y-84387712D01*
X54818200Y-84380879D01*
X54767406Y-84332903D01*
X54750500Y-84270397D01*
X54750500Y-80229601D01*
X54770185Y-80162562D01*
X54818206Y-80119116D01*
X54831610Y-80112287D01*
X54997219Y-79991966D01*
X55141966Y-79847219D01*
X55141968Y-79847215D01*
X55141971Y-79847213D01*
X55213395Y-79748904D01*
X55262287Y-79681610D01*
X55355220Y-79499219D01*
X55418477Y-79304534D01*
X55450500Y-79102352D01*
X55450500Y-78897648D01*
X65549500Y-78897648D01*
X65549500Y-79102351D01*
X65581522Y-79304534D01*
X65644781Y-79499223D01*
X65737715Y-79681613D01*
X65858028Y-79847213D01*
X66002786Y-79991971D01*
X66089843Y-80055220D01*
X66168390Y-80112287D01*
X66249499Y-80153614D01*
X66350776Y-80205218D01*
X66350778Y-80205218D01*
X66350781Y-80205220D01*
X66425818Y-80229601D01*
X66545465Y-80268477D01*
X66646557Y-80284488D01*
X66747648Y-80300500D01*
X66747649Y-80300500D01*
X66952351Y-80300500D01*
X66952352Y-80300500D01*
X67154534Y-80268477D01*
X67349219Y-80205220D01*
X67531610Y-80112287D01*
X67624590Y-80044732D01*
X67697213Y-79991971D01*
X67697215Y-79991968D01*
X67697219Y-79991966D01*
X67841966Y-79847219D01*
X67841968Y-79847215D01*
X67841971Y-79847213D01*
X67913395Y-79748904D01*
X67962287Y-79681610D01*
X68055220Y-79499219D01*
X68118477Y-79304534D01*
X68150500Y-79102352D01*
X68150500Y-78897648D01*
X68126742Y-78747648D01*
X68118477Y-78695465D01*
X68069739Y-78545466D01*
X68055220Y-78500781D01*
X68055218Y-78500778D01*
X68055218Y-78500776D01*
X67997610Y-78387715D01*
X67962287Y-78318390D01*
X67945134Y-78294781D01*
X67841971Y-78152786D01*
X67697213Y-78008028D01*
X67531613Y-77887715D01*
X67531612Y-77887714D01*
X67531610Y-77887713D01*
X67473350Y-77858028D01*
X67349223Y-77794781D01*
X67154534Y-77731522D01*
X66979995Y-77703878D01*
X66952352Y-77699500D01*
X66747648Y-77699500D01*
X66723329Y-77703351D01*
X66545465Y-77731522D01*
X66350776Y-77794781D01*
X66168386Y-77887715D01*
X66002786Y-78008028D01*
X65858028Y-78152786D01*
X65737715Y-78318386D01*
X65644781Y-78500776D01*
X65581522Y-78695465D01*
X65549500Y-78897648D01*
X55450500Y-78897648D01*
X55418477Y-78695466D01*
X55418476Y-78695462D01*
X55418476Y-78695461D01*
X55377042Y-78567940D01*
X55375047Y-78498099D01*
X55407290Y-78441943D01*
X57212417Y-76636819D01*
X57273740Y-76603334D01*
X57300098Y-76600500D01*
X67849903Y-76600500D01*
X67916942Y-76620185D01*
X67937584Y-76636819D01*
X69705921Y-78405157D01*
X69739406Y-78466480D01*
X69736173Y-78531149D01*
X69731523Y-78545460D01*
X69731523Y-78545462D01*
X69699500Y-78747648D01*
X69699500Y-78952351D01*
X69731522Y-79154534D01*
X69794781Y-79349223D01*
X69841310Y-79440540D01*
X69861049Y-79479280D01*
X69887715Y-79531613D01*
X70008028Y-79697213D01*
X70152786Y-79841971D01*
X70249566Y-79912284D01*
X70318390Y-79962287D01*
X70402647Y-80005218D01*
X70500776Y-80055218D01*
X70500778Y-80055218D01*
X70500781Y-80055220D01*
X70605137Y-80089127D01*
X70695465Y-80118477D01*
X70796557Y-80134488D01*
X70897648Y-80150500D01*
X70897649Y-80150500D01*
X71102351Y-80150500D01*
X71102352Y-80150500D01*
X71304534Y-80118477D01*
X71499219Y-80055220D01*
X71681610Y-79962287D01*
X71797333Y-79878210D01*
X71847213Y-79841971D01*
X71847215Y-79841968D01*
X71847219Y-79841966D01*
X71991966Y-79697219D01*
X71991968Y-79697215D01*
X71991971Y-79697213D01*
X72087669Y-79565494D01*
X72112287Y-79531610D01*
X72205220Y-79349219D01*
X72268477Y-79154534D01*
X72300500Y-78952352D01*
X72300500Y-78747648D01*
X72292581Y-78697648D01*
X75499500Y-78697648D01*
X75499500Y-78902351D01*
X75531522Y-79104534D01*
X75594781Y-79299223D01*
X75644932Y-79397648D01*
X75685775Y-79477807D01*
X75687715Y-79481613D01*
X75808028Y-79647213D01*
X75952786Y-79791971D01*
X76107749Y-79904556D01*
X76118390Y-79912287D01*
X76232192Y-79970272D01*
X76300776Y-80005218D01*
X76300778Y-80005218D01*
X76300781Y-80005220D01*
X76405137Y-80039127D01*
X76495465Y-80068477D01*
X76596557Y-80084488D01*
X76697648Y-80100500D01*
X76697649Y-80100500D01*
X76902351Y-80100500D01*
X76902352Y-80100500D01*
X77104534Y-80068477D01*
X77299219Y-80005220D01*
X77481610Y-79912287D01*
X77574590Y-79844732D01*
X77647213Y-79791971D01*
X77647215Y-79791968D01*
X77647219Y-79791966D01*
X77791966Y-79647219D01*
X77791968Y-79647215D01*
X77791971Y-79647213D01*
X77885022Y-79519136D01*
X77912287Y-79481610D01*
X77912292Y-79481599D01*
X77913714Y-79479280D01*
X77914492Y-79478575D01*
X77915151Y-79477669D01*
X77915341Y-79477807D01*
X77931093Y-79463550D01*
X77945143Y-79444783D01*
X77956516Y-79440540D01*
X77965517Y-79432395D01*
X77988642Y-79428558D01*
X78010607Y-79420366D01*
X78022469Y-79422946D01*
X78034444Y-79420960D01*
X78055971Y-79430234D01*
X78078880Y-79435218D01*
X78094255Y-79446728D01*
X78098612Y-79448605D01*
X78107134Y-79456369D01*
X78216259Y-79565494D01*
X78249744Y-79626817D01*
X78244760Y-79696509D01*
X78202888Y-79752442D01*
X78176032Y-79767735D01*
X78120829Y-79790601D01*
X78120814Y-79790609D01*
X77989711Y-79878210D01*
X77989707Y-79878213D01*
X77878213Y-79989707D01*
X77878210Y-79989711D01*
X77790609Y-80120814D01*
X77790602Y-80120827D01*
X77730264Y-80266498D01*
X77730261Y-80266510D01*
X77699500Y-80421153D01*
X77699500Y-80578846D01*
X77730261Y-80733489D01*
X77730264Y-80733501D01*
X77790602Y-80879172D01*
X77790609Y-80879185D01*
X77878210Y-81010288D01*
X77878213Y-81010292D01*
X77989707Y-81121786D01*
X77989711Y-81121789D01*
X78120814Y-81209390D01*
X78120827Y-81209397D01*
X78218853Y-81250000D01*
X78266503Y-81269737D01*
X78331147Y-81282595D01*
X78421849Y-81300638D01*
X78483760Y-81333023D01*
X78485339Y-81334574D01*
X79863181Y-82712416D01*
X79896666Y-82773739D01*
X79899500Y-82800097D01*
X79899500Y-86420234D01*
X79879815Y-86487273D01*
X79878602Y-86489125D01*
X79790609Y-86620814D01*
X79790602Y-86620827D01*
X79730264Y-86766498D01*
X79730261Y-86766510D01*
X79699500Y-86921153D01*
X79699500Y-87078846D01*
X79730261Y-87233489D01*
X79730264Y-87233501D01*
X79790602Y-87379172D01*
X79790609Y-87379185D01*
X79878210Y-87510288D01*
X79878213Y-87510292D01*
X79989707Y-87621786D01*
X79989711Y-87621789D01*
X80120814Y-87709390D01*
X80120827Y-87709397D01*
X80237445Y-87757701D01*
X80266503Y-87769737D01*
X80421153Y-87800499D01*
X80421156Y-87800500D01*
X80421158Y-87800500D01*
X80578844Y-87800500D01*
X80578845Y-87800499D01*
X80733497Y-87769737D01*
X80879179Y-87709394D01*
X81010289Y-87621789D01*
X81121789Y-87510289D01*
X81209394Y-87379179D01*
X81269737Y-87233497D01*
X81300500Y-87078842D01*
X81300500Y-86921158D01*
X81300500Y-86921155D01*
X81300499Y-86921153D01*
X81292272Y-86879792D01*
X81269737Y-86766503D01*
X81244352Y-86705218D01*
X81209397Y-86620827D01*
X81209390Y-86620814D01*
X81121398Y-86489125D01*
X81100520Y-86422447D01*
X81100500Y-86420234D01*
X81100500Y-84634420D01*
X81120185Y-84567381D01*
X81172989Y-84521626D01*
X81242147Y-84511682D01*
X81305703Y-84540707D01*
X81334984Y-84578123D01*
X81376998Y-84660581D01*
X81387715Y-84681614D01*
X81508028Y-84847213D01*
X81652786Y-84991971D01*
X81770581Y-85077552D01*
X81818390Y-85112287D01*
X81934607Y-85171503D01*
X82000776Y-85205218D01*
X82000778Y-85205218D01*
X82000781Y-85205220D01*
X82105137Y-85239127D01*
X82195465Y-85268477D01*
X82296557Y-85284488D01*
X82397648Y-85300500D01*
X82397649Y-85300500D01*
X82602351Y-85300500D01*
X82602352Y-85300500D01*
X82804534Y-85268477D01*
X82999219Y-85205220D01*
X83181610Y-85112287D01*
X83274590Y-85044732D01*
X83347213Y-84991971D01*
X83347215Y-84991968D01*
X83347219Y-84991966D01*
X83491966Y-84847219D01*
X83491968Y-84847215D01*
X83491971Y-84847213D01*
X83595285Y-84705011D01*
X83612287Y-84681610D01*
X83639515Y-84628171D01*
X83687490Y-84577376D01*
X83755311Y-84560581D01*
X83821446Y-84583118D01*
X83860484Y-84628171D01*
X83878526Y-84663580D01*
X83887715Y-84681613D01*
X84008028Y-84847213D01*
X84152786Y-84991971D01*
X84270581Y-85077552D01*
X84318390Y-85112287D01*
X84434607Y-85171503D01*
X84500776Y-85205218D01*
X84500778Y-85205218D01*
X84500781Y-85205220D01*
X84605137Y-85239127D01*
X84695465Y-85268477D01*
X84796557Y-85284488D01*
X84897648Y-85300500D01*
X84897649Y-85300500D01*
X85102351Y-85300500D01*
X85102352Y-85300500D01*
X85304534Y-85268477D01*
X85499219Y-85205220D01*
X85681610Y-85112287D01*
X85774590Y-85044732D01*
X85847213Y-84991971D01*
X85847215Y-84991968D01*
X85847219Y-84991966D01*
X85991966Y-84847219D01*
X85991968Y-84847215D01*
X85991971Y-84847213D01*
X86095285Y-84705011D01*
X86112287Y-84681610D01*
X86205220Y-84499219D01*
X86268477Y-84304534D01*
X86300500Y-84102352D01*
X86300500Y-83897648D01*
X86699500Y-83897648D01*
X86699500Y-84102351D01*
X86731522Y-84304534D01*
X86794781Y-84499223D01*
X86858691Y-84624653D01*
X86878526Y-84663580D01*
X86887715Y-84681613D01*
X87008028Y-84847213D01*
X87152786Y-84991971D01*
X87270581Y-85077552D01*
X87318390Y-85112287D01*
X87434607Y-85171503D01*
X87500776Y-85205218D01*
X87500778Y-85205218D01*
X87500781Y-85205220D01*
X87605137Y-85239127D01*
X87695465Y-85268477D01*
X87796557Y-85284488D01*
X87897648Y-85300500D01*
X87897649Y-85300500D01*
X88102351Y-85300500D01*
X88102352Y-85300500D01*
X88304534Y-85268477D01*
X88499219Y-85205220D01*
X88681610Y-85112287D01*
X88774590Y-85044732D01*
X88847213Y-84991971D01*
X88847215Y-84991968D01*
X88847219Y-84991966D01*
X88991966Y-84847219D01*
X88991968Y-84847215D01*
X88991971Y-84847213D01*
X89095285Y-84705011D01*
X89112287Y-84681610D01*
X89139515Y-84628171D01*
X89187490Y-84577376D01*
X89255311Y-84560581D01*
X89321446Y-84583118D01*
X89360484Y-84628171D01*
X89378526Y-84663580D01*
X89387715Y-84681613D01*
X89508028Y-84847213D01*
X89652786Y-84991971D01*
X89770581Y-85077552D01*
X89818390Y-85112287D01*
X89934607Y-85171503D01*
X90000776Y-85205218D01*
X90000778Y-85205218D01*
X90000781Y-85205220D01*
X90105137Y-85239127D01*
X90195465Y-85268477D01*
X90296557Y-85284488D01*
X90397648Y-85300500D01*
X90397649Y-85300500D01*
X90602351Y-85300500D01*
X90602352Y-85300500D01*
X90804534Y-85268477D01*
X90999219Y-85205220D01*
X91181610Y-85112287D01*
X91274590Y-85044732D01*
X91347213Y-84991971D01*
X91347215Y-84991968D01*
X91347219Y-84991966D01*
X91491966Y-84847219D01*
X91491968Y-84847215D01*
X91491971Y-84847213D01*
X91595285Y-84705011D01*
X91612287Y-84681610D01*
X91705220Y-84499219D01*
X91768477Y-84304534D01*
X91800500Y-84102352D01*
X91800500Y-83897648D01*
X91768477Y-83695466D01*
X91705220Y-83500781D01*
X91705217Y-83500777D01*
X91705217Y-83500774D01*
X91676868Y-83445137D01*
X91676867Y-83445136D01*
X91665396Y-83422623D01*
X91650666Y-83393713D01*
X98524500Y-83393713D01*
X98524500Y-83606286D01*
X98538624Y-83695465D01*
X98557754Y-83816243D01*
X98592261Y-83922445D01*
X98623444Y-84018414D01*
X98719951Y-84207820D01*
X98844890Y-84379786D01*
X98995209Y-84530105D01*
X98995214Y-84530109D01*
X99159793Y-84649682D01*
X99202459Y-84705011D01*
X99208438Y-84774625D01*
X99175833Y-84836420D01*
X99159793Y-84850318D01*
X98995214Y-84969890D01*
X98995209Y-84969894D01*
X98844890Y-85120213D01*
X98719951Y-85292179D01*
X98623444Y-85481585D01*
X98557753Y-85683760D01*
X98524500Y-85893713D01*
X98524500Y-86106287D01*
X98557754Y-86316243D01*
X98614117Y-86489711D01*
X98623444Y-86518414D01*
X98719951Y-86707820D01*
X98844890Y-86879786D01*
X98983705Y-87018601D01*
X99017190Y-87079924D01*
X99012206Y-87149616D01*
X98970334Y-87205549D01*
X98961121Y-87211821D01*
X98806342Y-87307289D01*
X98682289Y-87431342D01*
X98590187Y-87580663D01*
X98590186Y-87580666D01*
X98535001Y-87747203D01*
X98535001Y-87747204D01*
X98535000Y-87747204D01*
X98524500Y-87849983D01*
X98524500Y-89150001D01*
X98524501Y-89150018D01*
X98535000Y-89252796D01*
X98535001Y-89252799D01*
X98568952Y-89355255D01*
X98590186Y-89419334D01*
X98682288Y-89568656D01*
X98806344Y-89692712D01*
X98955666Y-89784814D01*
X99122203Y-89839999D01*
X99224991Y-89850500D01*
X100775008Y-89850499D01*
X100877797Y-89839999D01*
X101044334Y-89784814D01*
X101193656Y-89692712D01*
X101317712Y-89568656D01*
X101409814Y-89419334D01*
X101464999Y-89252797D01*
X101475500Y-89150009D01*
X101475499Y-87849992D01*
X101464999Y-87747203D01*
X101409814Y-87580666D01*
X101317712Y-87431344D01*
X101193656Y-87307288D01*
X101044334Y-87215186D01*
X101044333Y-87215185D01*
X101038878Y-87211821D01*
X100992154Y-87159873D01*
X100980931Y-87090910D01*
X101008775Y-87026828D01*
X101016272Y-87018623D01*
X101155104Y-86879792D01*
X101280051Y-86707816D01*
X101376557Y-86518412D01*
X101442246Y-86316243D01*
X101475500Y-86106287D01*
X101475500Y-85893713D01*
X101442246Y-85683757D01*
X101376557Y-85481588D01*
X101280051Y-85292184D01*
X101280049Y-85292181D01*
X101280048Y-85292179D01*
X101155109Y-85120213D01*
X101004792Y-84969896D01*
X101004784Y-84969890D01*
X100840204Y-84850316D01*
X100797540Y-84794989D01*
X100791561Y-84725376D01*
X100824166Y-84663580D01*
X100840199Y-84649686D01*
X101004792Y-84530104D01*
X101155104Y-84379792D01*
X101155106Y-84379788D01*
X101155109Y-84379786D01*
X101280048Y-84207820D01*
X101280047Y-84207820D01*
X101280051Y-84207816D01*
X101376557Y-84018412D01*
X101442246Y-83816243D01*
X101475500Y-83606287D01*
X101475500Y-83393713D01*
X101442246Y-83183757D01*
X101376557Y-82981588D01*
X101280051Y-82792184D01*
X101280049Y-82792181D01*
X101280048Y-82792179D01*
X101155109Y-82620213D01*
X101004790Y-82469894D01*
X101004785Y-82469890D01*
X100839781Y-82350008D01*
X100797115Y-82294678D01*
X100791136Y-82225065D01*
X100823741Y-82163270D01*
X100839781Y-82149371D01*
X101004466Y-82029721D01*
X101154723Y-81879464D01*
X101154727Y-81879459D01*
X101279620Y-81707557D01*
X101376095Y-81518217D01*
X101441757Y-81316129D01*
X101441757Y-81316126D01*
X101452231Y-81250000D01*
X100404146Y-81250000D01*
X100442630Y-81183343D01*
X100475000Y-81062535D01*
X100475000Y-80937465D01*
X100442630Y-80816657D01*
X100404146Y-80750000D01*
X101452231Y-80750000D01*
X101441757Y-80683873D01*
X101441757Y-80683870D01*
X101376095Y-80481782D01*
X101279620Y-80292442D01*
X101154727Y-80120540D01*
X101154723Y-80120535D01*
X101004464Y-79970276D01*
X101004459Y-79970272D01*
X100832557Y-79845379D01*
X100643217Y-79748904D01*
X100441128Y-79683242D01*
X100250000Y-79652969D01*
X100250000Y-80595854D01*
X100183343Y-80557370D01*
X100062535Y-80525000D01*
X99937465Y-80525000D01*
X99816657Y-80557370D01*
X99750000Y-80595854D01*
X99750000Y-79652969D01*
X99558872Y-79683242D01*
X99558869Y-79683242D01*
X99356782Y-79748904D01*
X99167442Y-79845379D01*
X98995540Y-79970272D01*
X98995535Y-79970276D01*
X98845276Y-80120535D01*
X98845272Y-80120540D01*
X98720379Y-80292442D01*
X98623904Y-80481782D01*
X98558242Y-80683870D01*
X98558242Y-80683873D01*
X98547769Y-80750000D01*
X99595854Y-80750000D01*
X99557370Y-80816657D01*
X99525000Y-80937465D01*
X99525000Y-81062535D01*
X99557370Y-81183343D01*
X99595854Y-81250000D01*
X98547769Y-81250000D01*
X98558242Y-81316126D01*
X98558242Y-81316129D01*
X98623904Y-81518217D01*
X98720379Y-81707557D01*
X98845272Y-81879459D01*
X98845276Y-81879464D01*
X98995535Y-82029723D01*
X98995540Y-82029727D01*
X99160218Y-82149372D01*
X99202884Y-82204701D01*
X99208863Y-82274315D01*
X99176258Y-82336110D01*
X99160218Y-82350008D01*
X98995214Y-82469890D01*
X98995209Y-82469894D01*
X98844890Y-82620213D01*
X98719951Y-82792179D01*
X98623444Y-82981585D01*
X98557753Y-83183760D01*
X98524500Y-83393713D01*
X91650666Y-83393713D01*
X91612287Y-83318390D01*
X91612285Y-83318387D01*
X91612284Y-83318385D01*
X91491971Y-83152786D01*
X91347213Y-83008028D01*
X91181613Y-82887715D01*
X91181612Y-82887714D01*
X91181610Y-82887713D01*
X91124653Y-82858691D01*
X90999223Y-82794781D01*
X90804534Y-82731522D01*
X90629995Y-82703878D01*
X90602352Y-82699500D01*
X90397648Y-82699500D01*
X90373329Y-82703351D01*
X90195465Y-82731522D01*
X90000776Y-82794781D01*
X89818386Y-82887715D01*
X89652786Y-83008028D01*
X89508028Y-83152786D01*
X89387713Y-83318388D01*
X89360484Y-83371828D01*
X89312510Y-83422623D01*
X89244688Y-83439418D01*
X89178554Y-83416880D01*
X89139516Y-83371828D01*
X89112286Y-83318388D01*
X88991971Y-83152786D01*
X88847213Y-83008028D01*
X88681613Y-82887715D01*
X88681612Y-82887714D01*
X88681610Y-82887713D01*
X88624653Y-82858691D01*
X88499223Y-82794781D01*
X88304534Y-82731522D01*
X88129995Y-82703878D01*
X88102352Y-82699500D01*
X87897648Y-82699500D01*
X87873329Y-82703351D01*
X87695465Y-82731522D01*
X87500776Y-82794781D01*
X87318386Y-82887715D01*
X87152786Y-83008028D01*
X87008028Y-83152786D01*
X86887715Y-83318386D01*
X86794781Y-83500776D01*
X86731522Y-83695465D01*
X86699500Y-83897648D01*
X86300500Y-83897648D01*
X86268477Y-83695466D01*
X86205220Y-83500781D01*
X86205218Y-83500778D01*
X86205218Y-83500776D01*
X86139515Y-83371828D01*
X86112287Y-83318390D01*
X86104556Y-83307749D01*
X85991971Y-83152786D01*
X85847213Y-83008028D01*
X85681613Y-82887715D01*
X85681612Y-82887714D01*
X85681610Y-82887713D01*
X85624653Y-82858691D01*
X85499223Y-82794781D01*
X85304534Y-82731522D01*
X85129995Y-82703878D01*
X85102352Y-82699500D01*
X84897648Y-82699500D01*
X84873329Y-82703351D01*
X84695465Y-82731522D01*
X84500776Y-82794781D01*
X84318386Y-82887715D01*
X84152786Y-83008028D01*
X84008028Y-83152786D01*
X83887713Y-83318388D01*
X83860484Y-83371828D01*
X83812510Y-83422623D01*
X83744688Y-83439418D01*
X83678554Y-83416880D01*
X83639516Y-83371828D01*
X83612286Y-83318388D01*
X83491971Y-83152786D01*
X83347213Y-83008028D01*
X83181611Y-82887713D01*
X83126553Y-82859659D01*
X83075758Y-82811684D01*
X83063074Y-82781267D01*
X83059578Y-82768219D01*
X83059577Y-82768218D01*
X83059577Y-82768216D01*
X83048330Y-82748735D01*
X82980524Y-82631290D01*
X82980518Y-82631282D01*
X81411771Y-81062535D01*
X79746883Y-79397648D01*
X80849500Y-79397648D01*
X80849500Y-79602351D01*
X80881522Y-79804534D01*
X80944781Y-79999223D01*
X81002391Y-80112287D01*
X81023448Y-80153614D01*
X81037715Y-80181613D01*
X81158028Y-80347213D01*
X81302786Y-80491971D01*
X81422362Y-80578846D01*
X81468390Y-80612287D01*
X81563182Y-80660586D01*
X81650776Y-80705218D01*
X81650778Y-80705218D01*
X81650781Y-80705220D01*
X81737784Y-80733489D01*
X81845465Y-80768477D01*
X81937595Y-80783069D01*
X82047648Y-80800500D01*
X82047649Y-80800500D01*
X82252351Y-80800500D01*
X82252352Y-80800500D01*
X82454534Y-80768477D01*
X82649219Y-80705220D01*
X82831610Y-80612287D01*
X82924590Y-80544732D01*
X82997213Y-80491971D01*
X82997215Y-80491968D01*
X82997219Y-80491966D01*
X83141966Y-80347219D01*
X83141968Y-80347215D01*
X83141971Y-80347213D01*
X83200613Y-80266498D01*
X83262287Y-80181610D01*
X83355220Y-79999219D01*
X83418477Y-79804534D01*
X83450500Y-79602352D01*
X83450500Y-79397648D01*
X93549500Y-79397648D01*
X93549500Y-79602351D01*
X93581522Y-79804534D01*
X93644781Y-79999223D01*
X93702391Y-80112287D01*
X93723448Y-80153614D01*
X93737715Y-80181613D01*
X93858028Y-80347213D01*
X94002786Y-80491971D01*
X94122362Y-80578846D01*
X94168390Y-80612287D01*
X94263182Y-80660586D01*
X94350776Y-80705218D01*
X94350778Y-80705218D01*
X94350781Y-80705220D01*
X94437784Y-80733489D01*
X94545465Y-80768477D01*
X94637595Y-80783069D01*
X94747648Y-80800500D01*
X94747649Y-80800500D01*
X94952351Y-80800500D01*
X94952352Y-80800500D01*
X95154534Y-80768477D01*
X95349219Y-80705220D01*
X95531610Y-80612287D01*
X95577638Y-80578846D01*
X95697213Y-80491971D01*
X95697215Y-80491968D01*
X95697219Y-80491966D01*
X95841966Y-80347219D01*
X95841968Y-80347215D01*
X95841971Y-80347213D01*
X95900613Y-80266498D01*
X95962287Y-80181610D01*
X96055220Y-79999219D01*
X96118477Y-79804534D01*
X96150500Y-79602352D01*
X96150500Y-79397648D01*
X96142830Y-79349223D01*
X96118477Y-79195465D01*
X96055218Y-79000776D01*
X96002671Y-78897648D01*
X95962287Y-78818390D01*
X95910892Y-78747650D01*
X95841971Y-78652786D01*
X95697213Y-78508028D01*
X95531613Y-78387715D01*
X95531612Y-78387714D01*
X95531610Y-78387713D01*
X95459117Y-78350776D01*
X95349223Y-78294781D01*
X95154534Y-78231522D01*
X94968054Y-78201987D01*
X94952352Y-78199500D01*
X94747648Y-78199500D01*
X94731946Y-78201987D01*
X94545465Y-78231522D01*
X94350776Y-78294781D01*
X94168386Y-78387715D01*
X94002786Y-78508028D01*
X93858028Y-78652786D01*
X93737715Y-78818386D01*
X93644781Y-79000776D01*
X93581522Y-79195465D01*
X93549500Y-79397648D01*
X83450500Y-79397648D01*
X83442830Y-79349223D01*
X83418477Y-79195465D01*
X83355218Y-79000776D01*
X83302671Y-78897648D01*
X83262287Y-78818390D01*
X83210892Y-78747650D01*
X83141971Y-78652786D01*
X82997213Y-78508028D01*
X82831613Y-78387715D01*
X82831612Y-78387714D01*
X82831610Y-78387713D01*
X82759117Y-78350776D01*
X82649223Y-78294781D01*
X82454534Y-78231522D01*
X82268054Y-78201987D01*
X82252352Y-78199500D01*
X82047648Y-78199500D01*
X82031946Y-78201987D01*
X81845465Y-78231522D01*
X81650776Y-78294781D01*
X81468386Y-78387715D01*
X81302786Y-78508028D01*
X81158028Y-78652786D01*
X81037715Y-78818386D01*
X80944781Y-79000776D01*
X80881522Y-79195465D01*
X80849500Y-79397648D01*
X79746883Y-79397648D01*
X78737589Y-78388354D01*
X78737588Y-78388352D01*
X78618717Y-78269481D01*
X78618709Y-78269475D01*
X78501815Y-78201987D01*
X78501814Y-78201986D01*
X78487735Y-78193858D01*
X78481785Y-78190423D01*
X78329057Y-78149499D01*
X78170943Y-78149499D01*
X78163347Y-78149499D01*
X78163331Y-78149500D01*
X77998071Y-78149500D01*
X77931032Y-78129815D01*
X77897754Y-78098386D01*
X77791966Y-77952781D01*
X77647219Y-77808034D01*
X77647213Y-77808028D01*
X77481611Y-77687713D01*
X77427621Y-77660203D01*
X77376825Y-77612228D01*
X77360031Y-77544407D01*
X77382569Y-77478272D01*
X77427624Y-77439233D01*
X77481349Y-77411859D01*
X77525921Y-77379474D01*
X76846447Y-76700000D01*
X76852661Y-76700000D01*
X76954394Y-76672741D01*
X77045606Y-76620080D01*
X77120080Y-76545606D01*
X77172741Y-76454394D01*
X77200000Y-76352661D01*
X77200000Y-76346447D01*
X77879474Y-77025921D01*
X77911859Y-76981349D01*
X78004755Y-76799031D01*
X78067990Y-76604417D01*
X78100000Y-76402317D01*
X78100000Y-76197682D01*
X78067990Y-75995582D01*
X78004755Y-75800968D01*
X77911859Y-75618650D01*
X77879474Y-75574077D01*
X77879474Y-75574076D01*
X77200000Y-76253551D01*
X77200000Y-76247339D01*
X77172741Y-76145606D01*
X77120080Y-76054394D01*
X77045606Y-75979920D01*
X76954394Y-75927259D01*
X76852661Y-75900000D01*
X76846446Y-75900000D01*
X77525922Y-75220524D01*
X77525921Y-75220523D01*
X77481359Y-75188147D01*
X77481350Y-75188141D01*
X77299031Y-75095244D01*
X77104417Y-75032009D01*
X76902317Y-75000000D01*
X76697683Y-75000000D01*
X76495582Y-75032009D01*
X76300968Y-75095244D01*
X76118644Y-75188143D01*
X76074077Y-75220523D01*
X76074077Y-75220524D01*
X76753554Y-75900000D01*
X76747339Y-75900000D01*
X76645606Y-75927259D01*
X76554394Y-75979920D01*
X76479920Y-76054394D01*
X76427259Y-76145606D01*
X76400000Y-76247339D01*
X76400000Y-76253553D01*
X75720524Y-75574077D01*
X75720523Y-75574077D01*
X75688143Y-75618644D01*
X75595244Y-75800968D01*
X75532009Y-75995582D01*
X75500000Y-76197682D01*
X75500000Y-76402317D01*
X75532009Y-76604417D01*
X75595244Y-76799031D01*
X75688141Y-76981350D01*
X75688147Y-76981359D01*
X75720523Y-77025921D01*
X75720524Y-77025922D01*
X76400000Y-76346446D01*
X76400000Y-76352661D01*
X76427259Y-76454394D01*
X76479920Y-76545606D01*
X76554394Y-76620080D01*
X76645606Y-76672741D01*
X76747339Y-76700000D01*
X76753553Y-76700000D01*
X76074076Y-77379474D01*
X76118652Y-77411861D01*
X76172376Y-77439234D01*
X76223172Y-77487208D01*
X76239968Y-77555028D01*
X76217431Y-77621164D01*
X76172379Y-77660203D01*
X76118386Y-77687714D01*
X75952786Y-77808028D01*
X75808028Y-77952786D01*
X75687715Y-78118386D01*
X75594781Y-78300776D01*
X75531522Y-78495465D01*
X75499500Y-78697648D01*
X72292581Y-78697648D01*
X72268477Y-78545466D01*
X72205220Y-78350781D01*
X72205218Y-78350778D01*
X72205218Y-78350776D01*
X72171503Y-78284607D01*
X72112287Y-78168390D01*
X72100950Y-78152786D01*
X71991971Y-78002786D01*
X71847213Y-77858028D01*
X71681611Y-77737713D01*
X71627621Y-77710203D01*
X71576825Y-77662228D01*
X71560031Y-77594407D01*
X71582569Y-77528272D01*
X71627624Y-77489233D01*
X71681349Y-77461859D01*
X71725921Y-77429474D01*
X71046446Y-76750000D01*
X71052661Y-76750000D01*
X71154394Y-76722741D01*
X71245606Y-76670080D01*
X71320080Y-76595606D01*
X71372741Y-76504394D01*
X71400000Y-76402661D01*
X71400000Y-76396447D01*
X72079474Y-77075921D01*
X72111859Y-77031349D01*
X72204755Y-76849031D01*
X72267990Y-76654417D01*
X72300000Y-76452317D01*
X72300000Y-76247683D01*
X72294382Y-76212215D01*
X72294382Y-76212214D01*
X72267990Y-76045582D01*
X72204755Y-75850968D01*
X72111859Y-75668650D01*
X72079474Y-75624077D01*
X72079474Y-75624076D01*
X71400000Y-76303551D01*
X71400000Y-76297339D01*
X71372741Y-76195606D01*
X71320080Y-76104394D01*
X71245606Y-76029920D01*
X71154394Y-75977259D01*
X71052661Y-75950000D01*
X71046446Y-75950000D01*
X71725922Y-75270524D01*
X71725921Y-75270523D01*
X71681359Y-75238147D01*
X71681350Y-75238141D01*
X71499031Y-75145244D01*
X71304417Y-75082009D01*
X71102317Y-75050000D01*
X70897683Y-75050000D01*
X70695582Y-75082009D01*
X70500968Y-75145244D01*
X70318644Y-75238143D01*
X70274077Y-75270523D01*
X70274077Y-75270524D01*
X70953554Y-75950000D01*
X70947339Y-75950000D01*
X70845606Y-75977259D01*
X70754394Y-76029920D01*
X70679920Y-76104394D01*
X70627259Y-76195606D01*
X70600000Y-76297339D01*
X70600000Y-76303553D01*
X69920524Y-75624077D01*
X69920523Y-75624077D01*
X69888143Y-75668644D01*
X69795244Y-75850968D01*
X69732009Y-76045582D01*
X69700000Y-76247682D01*
X69700000Y-76401402D01*
X69680315Y-76468441D01*
X69627511Y-76514196D01*
X69558353Y-76524140D01*
X69494797Y-76495115D01*
X69488319Y-76489083D01*
X68637590Y-75638355D01*
X68637588Y-75638352D01*
X68518717Y-75519481D01*
X68518716Y-75519480D01*
X68431904Y-75469360D01*
X68381785Y-75440423D01*
X68229057Y-75399499D01*
X68070943Y-75399499D01*
X68063347Y-75399499D01*
X68063331Y-75399500D01*
X57086670Y-75399500D01*
X57086654Y-75399499D01*
X57079058Y-75399499D01*
X56920943Y-75399499D01*
X56844579Y-75419961D01*
X56768214Y-75440423D01*
X56768209Y-75440426D01*
X56631290Y-75519475D01*
X56631282Y-75519481D01*
X54468742Y-77682021D01*
X54407419Y-77715506D01*
X54361663Y-77716813D01*
X54304812Y-77707808D01*
X54252352Y-77699500D01*
X54047648Y-77699500D01*
X54023329Y-77703351D01*
X53845465Y-77731522D01*
X53650776Y-77794781D01*
X53468386Y-77887715D01*
X53302786Y-78008028D01*
X53158028Y-78152786D01*
X53037715Y-78318386D01*
X52944781Y-78500776D01*
X52881522Y-78695465D01*
X52849500Y-78897648D01*
X44000500Y-78897648D01*
X44000500Y-74504066D01*
X44000765Y-74495956D01*
X44004819Y-74434108D01*
X44007466Y-74393713D01*
X44649500Y-74393713D01*
X44649500Y-74606286D01*
X44682753Y-74816239D01*
X44748444Y-75018414D01*
X44844951Y-75207820D01*
X44969890Y-75379786D01*
X45120213Y-75530109D01*
X45292179Y-75655048D01*
X45292181Y-75655049D01*
X45292184Y-75655051D01*
X45481588Y-75751557D01*
X45683757Y-75817246D01*
X45893713Y-75850500D01*
X45893714Y-75850500D01*
X46106286Y-75850500D01*
X46106287Y-75850500D01*
X46316243Y-75817246D01*
X46518412Y-75751557D01*
X46707816Y-75655051D01*
X46819268Y-75574077D01*
X46879786Y-75530109D01*
X46879788Y-75530106D01*
X46879792Y-75530104D01*
X47030104Y-75379792D01*
X47030106Y-75379788D01*
X47030109Y-75379786D01*
X47155048Y-75207820D01*
X47155047Y-75207820D01*
X47155051Y-75207816D01*
X47251557Y-75018412D01*
X47317246Y-74816243D01*
X47350500Y-74606287D01*
X47350500Y-74397648D01*
X80849500Y-74397648D01*
X80849500Y-74602351D01*
X80881522Y-74804534D01*
X80944781Y-74999223D01*
X81037715Y-75181613D01*
X81158028Y-75347213D01*
X81302786Y-75491971D01*
X81415798Y-75574077D01*
X81468390Y-75612287D01*
X81584607Y-75671503D01*
X81650776Y-75705218D01*
X81650778Y-75705218D01*
X81650781Y-75705220D01*
X81755137Y-75739127D01*
X81845465Y-75768477D01*
X81946557Y-75784488D01*
X82047648Y-75800500D01*
X82047649Y-75800500D01*
X82252351Y-75800500D01*
X82252352Y-75800500D01*
X82454534Y-75768477D01*
X82649219Y-75705220D01*
X82831610Y-75612287D01*
X82959349Y-75519480D01*
X82997213Y-75491971D01*
X82997215Y-75491968D01*
X82997219Y-75491966D01*
X83141966Y-75347219D01*
X83141968Y-75347215D01*
X83141971Y-75347213D01*
X83197688Y-75270523D01*
X83262287Y-75181610D01*
X83355220Y-74999219D01*
X83418477Y-74804534D01*
X83450500Y-74602352D01*
X83450500Y-74397648D01*
X93549500Y-74397648D01*
X93549500Y-74602351D01*
X93581522Y-74804534D01*
X93644781Y-74999223D01*
X93737715Y-75181613D01*
X93858028Y-75347213D01*
X94002786Y-75491971D01*
X94115798Y-75574077D01*
X94168390Y-75612287D01*
X94284607Y-75671503D01*
X94350776Y-75705218D01*
X94350778Y-75705218D01*
X94350781Y-75705220D01*
X94455137Y-75739127D01*
X94545465Y-75768477D01*
X94646557Y-75784488D01*
X94747648Y-75800500D01*
X94747649Y-75800500D01*
X94952351Y-75800500D01*
X94952352Y-75800500D01*
X95154534Y-75768477D01*
X95349219Y-75705220D01*
X95531610Y-75612287D01*
X95659349Y-75519480D01*
X95697213Y-75491971D01*
X95697215Y-75491968D01*
X95697219Y-75491966D01*
X95841966Y-75347219D01*
X95841968Y-75347215D01*
X95841971Y-75347213D01*
X95897688Y-75270523D01*
X95962287Y-75181610D01*
X96055220Y-74999219D01*
X96118477Y-74804534D01*
X96150500Y-74602352D01*
X96150500Y-74397648D01*
X96149877Y-74393713D01*
X101149500Y-74393713D01*
X101149500Y-74606286D01*
X101182753Y-74816239D01*
X101248444Y-75018414D01*
X101344951Y-75207820D01*
X101469890Y-75379786D01*
X101620213Y-75530109D01*
X101792179Y-75655048D01*
X101792181Y-75655049D01*
X101792184Y-75655051D01*
X101981588Y-75751557D01*
X102183757Y-75817246D01*
X102393713Y-75850500D01*
X102393714Y-75850500D01*
X102606286Y-75850500D01*
X102606287Y-75850500D01*
X102816243Y-75817246D01*
X103018412Y-75751557D01*
X103207816Y-75655051D01*
X103319268Y-75574077D01*
X103379786Y-75530109D01*
X103379788Y-75530106D01*
X103379792Y-75530104D01*
X103530104Y-75379792D01*
X103530106Y-75379788D01*
X103530109Y-75379786D01*
X103655048Y-75207820D01*
X103655047Y-75207820D01*
X103655051Y-75207816D01*
X103751557Y-75018412D01*
X103817246Y-74816243D01*
X103850500Y-74606287D01*
X103850500Y-74393713D01*
X103817246Y-74183757D01*
X103751557Y-73981588D01*
X103655051Y-73792184D01*
X103655049Y-73792181D01*
X103655048Y-73792179D01*
X103530109Y-73620213D01*
X103379786Y-73469890D01*
X103207820Y-73344951D01*
X103018414Y-73248444D01*
X103018413Y-73248443D01*
X103018412Y-73248443D01*
X102816243Y-73182754D01*
X102816241Y-73182753D01*
X102816240Y-73182753D01*
X102654957Y-73157208D01*
X102606287Y-73149500D01*
X102393713Y-73149500D01*
X102345042Y-73157208D01*
X102183760Y-73182753D01*
X101981585Y-73248444D01*
X101792179Y-73344951D01*
X101620213Y-73469890D01*
X101469890Y-73620213D01*
X101344951Y-73792179D01*
X101248444Y-73981585D01*
X101182753Y-74183760D01*
X101149500Y-74393713D01*
X96149877Y-74393713D01*
X96118477Y-74195466D01*
X96114673Y-74183760D01*
X96055218Y-74000776D01*
X96021503Y-73934607D01*
X95962287Y-73818390D01*
X95954556Y-73807749D01*
X95841971Y-73652786D01*
X95697213Y-73508028D01*
X95531613Y-73387715D01*
X95531612Y-73387714D01*
X95531610Y-73387713D01*
X95447681Y-73344949D01*
X95349223Y-73294781D01*
X95154534Y-73231522D01*
X94979995Y-73203878D01*
X94952352Y-73199500D01*
X94747648Y-73199500D01*
X94723329Y-73203351D01*
X94545465Y-73231522D01*
X94350776Y-73294781D01*
X94168386Y-73387715D01*
X94002786Y-73508028D01*
X93858028Y-73652786D01*
X93737715Y-73818386D01*
X93644781Y-74000776D01*
X93581522Y-74195465D01*
X93549500Y-74397648D01*
X83450500Y-74397648D01*
X83418477Y-74195466D01*
X83414673Y-74183760D01*
X83355218Y-74000776D01*
X83321503Y-73934607D01*
X83262287Y-73818390D01*
X83254556Y-73807749D01*
X83141971Y-73652786D01*
X82997213Y-73508028D01*
X82831613Y-73387715D01*
X82831612Y-73387714D01*
X82831610Y-73387713D01*
X82747681Y-73344949D01*
X82649223Y-73294781D01*
X82454534Y-73231522D01*
X82279995Y-73203878D01*
X82252352Y-73199500D01*
X82047648Y-73199500D01*
X82023329Y-73203351D01*
X81845465Y-73231522D01*
X81650776Y-73294781D01*
X81468386Y-73387715D01*
X81302786Y-73508028D01*
X81158028Y-73652786D01*
X81037715Y-73818386D01*
X80944781Y-74000776D01*
X80881522Y-74195465D01*
X80849500Y-74397648D01*
X47350500Y-74397648D01*
X47350500Y-74393713D01*
X47317246Y-74183757D01*
X47251557Y-73981588D01*
X47155051Y-73792184D01*
X47155049Y-73792181D01*
X47155048Y-73792179D01*
X47030109Y-73620213D01*
X46879786Y-73469890D01*
X46707820Y-73344951D01*
X46518414Y-73248444D01*
X46518413Y-73248443D01*
X46518412Y-73248443D01*
X46316243Y-73182754D01*
X46316241Y-73182753D01*
X46316240Y-73182753D01*
X46154957Y-73157208D01*
X46106287Y-73149500D01*
X45893713Y-73149500D01*
X45845042Y-73157208D01*
X45683760Y-73182753D01*
X45481585Y-73248444D01*
X45292179Y-73344951D01*
X45120213Y-73469890D01*
X44969890Y-73620213D01*
X44844951Y-73792179D01*
X44748444Y-73981585D01*
X44682753Y-74183760D01*
X44649500Y-74393713D01*
X44007466Y-74393713D01*
X44017075Y-74247104D01*
X44019190Y-74231048D01*
X44067045Y-73990462D01*
X44071243Y-73974797D01*
X44124337Y-73818386D01*
X44150093Y-73742512D01*
X44156291Y-73727547D01*
X44264790Y-73507533D01*
X44272893Y-73493498D01*
X44409182Y-73289527D01*
X44419039Y-73276681D01*
X44580786Y-73092244D01*
X44592244Y-73080786D01*
X44776681Y-72919039D01*
X44789527Y-72909182D01*
X44993498Y-72772893D01*
X45007533Y-72764790D01*
X45227547Y-72656291D01*
X45242512Y-72650093D01*
X45406762Y-72594337D01*
X45474797Y-72571243D01*
X45490464Y-72567045D01*
X45731048Y-72519190D01*
X45747102Y-72517075D01*
X45995957Y-72500765D01*
X46004067Y-72500500D01*
X46065892Y-72500500D01*
X102434108Y-72500500D01*
X102495933Y-72500500D01*
X102504043Y-72500765D01*
G37*
%TD.AperFunction*%
%TD*%
M02*
